<?xml version="1.0" encoding="utf-8"?>
<!-- Generator: Adobe Illustrator 24.2.3, SVG Export Plug-In . SVG Version: 6.00 Build 0)  -->
<svg version="1.1" id="Capa_1" xmlns="http://www.w3.org/2000/svg" xmlns:xlink="http://www.w3.org/1999/xlink" x="0px" y="0px"
	 viewBox="0 0 122 111" style="enable-background:new 0 0 122 111;" xml:space="preserve">
<style type="text/css">
	.st0{fill:#211F1F;}
</style>
<g>
	<path class="st0" d="M11,60.47c0.69-0.86,1.25-1.57,1.82-2.28c2.6-3.23,5.21-6.44,7.79-9.68c0.31-0.38,0.61-0.57,1.12-0.56
		c1.79,0.03,3.57,0.02,5.36,0c0.41,0,0.62,0.13,0.78,0.51c1.57,3.83,3.14,7.65,4.74,11.47c0.19,0.46,0.07,0.55-0.37,0.55
		c-1.64-0.01-3.28-0.03-4.91,0.01c-0.54,0.01-0.86-0.14-0.95-0.67c-0.11-0.63-0.48-0.79-1.1-0.78c-2.11,0.04-4.22,0.03-6.33,0
		c-0.55-0.01-0.97,0.1-1.24,0.61c-0.37,0.7-0.93,0.88-1.71,0.85C14.4,60.43,12.81,60.47,11,60.47z M20.53,55.89c1.34,0,2.6,0,3.87,0
		c0.24,0,0.53,0.06,0.37-0.38c-0.45-1.19-0.87-2.39-1.31-3.62C22.88,52.39,20.92,55.09,20.53,55.89z"/>
	<path class="st0" d="M46.91,48c0.67,0,1.34,0.03,2.01-0.01c0.49-0.03,0.61,0.15,0.52,0.6c-0.19,0.95-0.37,1.9-0.54,2.85
		c-0.04,0.22-0.16,0.49,0,0.64c0.18,0.18,0.4-0.06,0.59-0.13c1.78-0.62,3.59-0.75,5.42-0.33c1.65,0.38,2.24,1.25,1.98,2.92
		c-0.29,1.84-0.67,3.66-0.97,5.49c-0.08,0.49-0.32,0.59-0.75,0.58c-1.29-0.02-2.58-0.05-3.87,0.01c-0.69,0.03-0.72-0.28-0.63-0.8
		c0.22-1.19,0.42-2.39,0.64-3.59c0.23-1.28,0.12-1.6-0.68-1.78c-1.12-0.26-2.24,0.24-2.47,1.22c-0.27,1.16-0.44,2.34-0.65,3.51
		c-0.26,1.42-0.25,1.42-1.74,1.42c-1.07,0-2.13-0.02-3.2,0.01c-0.47,0.01-0.62-0.13-0.53-0.6c0.7-3.83,1.39-7.65,2.07-11.48
		c0.07-0.38,0.23-0.54,0.64-0.53C45.47,48.02,46.19,48,46.91,48z"/>
	<path class="st0" d="M71.52,57.77c2.01,0.45,3.91,0.16,5.77-0.52c1.3-0.48,1.3-0.48,1.24,0.89c-0.07,1.62-0.07,1.65-1.63,2
		c-3.16,0.7-6.32,0.94-9.47-0.07c-0.5-0.16-0.96-0.39-1.4-0.69c-1.87-1.26-2.16-3.26-0.68-4.98c1.16-1.34,2.74-2.03,4.4-2.48
		c2.57-0.7,5.14-0.75,7.69,0.1c1.03,0.34,1.92,0.92,2.55,1.83c0.29,0.42,0.35,0.67-0.27,0.89c-2.43,0.85-4.84,1.76-7.26,2.65
		C72.15,57.51,71.83,57.65,71.52,57.77z M74.32,54.2c-1.32-0.8-4.1-0.12-4.8,1.1c-0.06,0.1-0.1,0.22-0.13,0.34
		c-0.05,0.26-0.02,0.46,0.34,0.33C71.24,55.39,72.76,54.81,74.32,54.2z"/>
	<path class="st0" d="M104.76,60.72c-1.97,0.02-3.71-0.17-5.33-0.97c-2.78-1.38-3.08-4.36-0.61-6.23c1.91-1.45,4.17-1.91,6.5-2.07
		c1.06-0.07,2.13-0.07,3.19,0.11c0.41,0.07,0.56,0.16,0.46,0.61c-0.18,0.75-0.07,1.69-0.5,2.21c-0.46,0.55-1.38-0.04-2.11,0
		c-0.72,0.05-1.43,0.1-2.13,0.29c-0.34,0.09-0.65,0.24-0.92,0.46c-0.96,0.77-0.83,1.76,0.31,2.26c1.02,0.44,2.09,0.34,3.15,0.3
		c1.26-0.05,1.26-0.04,1,1.22c-0.35,1.71-0.35,1.71-2.07,1.76C105.31,60.69,104.94,60.71,104.76,60.72z"/>
	<path class="st0" d="M41.4,57.46c-0.49,1-0.93,1.91-1.37,2.82c-0.11,0.23-0.28,0.32-0.53,0.32c-1.46,0.02-2.93,0.13-4.37-0.19
		c-1.21-0.26-1.69-0.85-1.57-2.12c0.11-1.13,0.35-2.25,0.58-3.37c0.09-0.46,0.14-0.78-0.49-0.69c-0.33,0.05-0.43-0.1-0.36-0.44
		c0.11-0.48,0.17-0.98,0.25-1.47c0.07-0.48,0.16-0.93,0.83-0.81c0.27,0.05,0.44-0.14,0.43-0.39c-0.01-0.52,0.32-0.64,0.73-0.76
		c1.45-0.42,2.89-0.87,4.33-1.32c0.53-0.17,0.75-0.07,0.53,0.52c-0.04,0.11-0.04,0.24-0.06,0.37c-0.28,1.49-0.28,1.51,1.2,1.58
		c0.42,0.02,0.52,0.17,0.44,0.54c-0.04,0.19-0.09,0.39-0.12,0.58c-0.27,1.5-0.27,1.51-1.8,1.58c-0.38,0.02-0.53,0.17-0.58,0.51
		c-0.08,0.49-0.16,0.98-0.26,1.46c-0.17,0.89-0.01,1.14,0.87,1.25C40.46,57.51,40.86,57.46,41.4,57.46z"/>
	<path class="st0" d="M85.72,60.63c-0.84,0.03-1.81-0.01-2.75-0.26c-0.89-0.24-1.29-0.71-1.33-1.64c-0.06-1.3,0.33-2.55,0.54-3.82
		c0.07-0.43,0.11-0.75-0.49-0.67c-0.31,0.04-0.39-0.14-0.34-0.41c0.11-0.66,0.22-1.32,0.34-1.98c0.06-0.34,0.34-0.32,0.58-0.31
		c0.36,0.02,0.56-0.12,0.58-0.49c0.02-0.34,0.22-0.5,0.55-0.6c1.52-0.45,3.03-0.92,4.54-1.4c0.54-0.17,0.58,0.07,0.49,0.5
		c-0.1,0.48-0.17,0.98-0.27,1.46c-0.08,0.39,0.07,0.51,0.47,0.53c1.42,0.07,1.42,0.09,1.17,1.47c-0.01,0.07-0.04,0.15-0.04,0.22
		c0.03,0.89-0.44,1.16-1.25,1.01c-0.75-0.14-1.1,0.18-1.1,0.93c0,0.27-0.07,0.54-0.14,0.8c-0.3,1.12-0.07,1.49,1.35,1.52
		c0.83,0.02,0.83,0,0.45,0.77c-0.27,0.53-0.59,1.04-0.8,1.59c-0.23,0.61-0.62,0.84-1.25,0.78C86.64,60.6,86.24,60.63,85.72,60.63z"
		/>
	<path class="st0" d="M59.93,60.6c-0.67,0-1.34-0.02-2.01,0.01c-0.45,0.01-0.62-0.12-0.53-0.6c0.7-3.8,1.39-7.6,2.06-11.4
		c0.08-0.43,0.22-0.63,0.71-0.61c1.36,0.04,2.73,0.03,4.09,0c0.46-0.01,0.62,0.1,0.53,0.58c-0.7,3.82-1.4,7.65-2.08,11.48
		c-0.08,0.44-0.27,0.58-0.69,0.56C61.32,60.58,60.62,60.6,59.93,60.6z"/>
	<path class="st0" d="M92.67,60.59c-0.69,0-1.39-0.01-2.08,0.01c-0.43,0.01-0.62-0.06-0.51-0.58c0.5-2.63,0.96-5.27,1.43-7.9
		c0.07-0.39,0.21-0.6,0.67-0.59c1.39,0.03,2.78,0.02,4.17,0c0.45-0.01,0.57,0.16,0.49,0.57c-0.5,2.7-0.99,5.41-1.48,8.12
		c-0.06,0.34-0.26,0.38-0.53,0.37C94.11,60.59,93.39,60.59,92.67,60.59z"/>
	<path class="st0" d="M90.22,64.16c0.91,0,1.82,0,2.72,0c0.84,0,0.83,0.07,0.57,0.83c-0.41,1.21-1.14,1.72-2.44,1.53
		c-0.8-0.11-1.64,0-2.45-0.03c-0.25-0.01-0.72,0.2-0.71-0.22c0.01-0.4,0.18-0.87,0.81-0.84c0.89,0.04,1.79,0.02,2.68,0
		c0.23,0,0.49,0.1,0.85-0.28c-0.98,0-1.8,0-2.62,0c-1.27,0-1.19,0.03-0.73-1.13c0.4-0.99,1-1.35,2.04-1.25
		c0.91,0.09,1.84,0,2.75,0.03c0.24,0.01,0.72-0.22,0.68,0.25c-0.02,0.33-0.17,0.82-0.7,0.82c-0.87,0.01-1.74,0.01-2.61,0.01
		c-0.29,0-0.58,0-0.87,0C90.21,63.98,90.21,64.07,90.22,64.16z"/>
	<path class="st0" d="M97.7,66.5c-0.59,0-1.19-0.02-1.78,0.01c-0.67,0.03-0.7-0.24-0.44-0.75c0.41-0.79,0.8-1.59,1.17-2.4
		c0.18-0.39,0.44-0.56,0.86-0.56c1.24,0.01,2.48,0.01,3.72,0c0.58-0.01,0.61,0.24,0.39,0.69c-0.42,0.84-0.83,1.69-1.23,2.54
		c-0.17,0.36-0.44,0.5-0.83,0.49C98.94,66.49,98.32,66.5,97.7,66.5z M98.2,65.45c0.27,0,0.55,0.01,0.82,0
		c0.41-0.01,1.16-0.82,1.07-1.28c-0.1-0.55-0.6-0.2-0.91-0.26c-0.29-0.06-0.59-0.01-0.89-0.01c-0.66,0-1.44,0.64-1.34,1.31
		c0.08,0.55,0.73,0.12,1.1,0.25C98.09,65.46,98.15,65.45,98.2,65.45z"/>
	<path class="st0" d="M94.75,48c0.72,0,1.44,0.02,2.16-0.01c0.41-0.01,0.54,0.13,0.42,0.52c-0.07,0.21-0.08,0.44-0.12,0.66
		c-0.31,1.63-0.31,1.63-1.99,1.63c-0.99,0-1.98-0.01-2.97,0.01c-0.43,0.01-0.64-0.05-0.51-0.58c0.17-0.72,0.01-1.67,0.5-2.11
		c0.46-0.41,1.38-0.09,2.09-0.12C94.45,47.99,94.6,48,94.75,48z"/>
	<path class="st0" d="M105.38,64.97c0.47-0.56,0.64-1.19,0.95-1.74c0.13-0.23,0.23-0.44,0.54-0.43c0.22,0.01,0.49-0.1,0.64,0.08
		c0.18,0.21-0.06,0.41-0.15,0.6c-0.39,0.83-0.8,1.65-1.2,2.47c-0.33,0.67-1.1,0.79-1.6,0.23c-0.38-0.43-0.76-0.86-1.08-1.32
		c-0.4-0.57-0.63-0.47-0.85,0.12c-0.14,0.37-0.33,0.72-0.51,1.07c-0.09,0.17-0.15,0.41-0.38,0.42c-0.27,0.02-0.61,0.09-0.79-0.05
		c-0.24-0.18,0.05-0.44,0.15-0.65c0.38-0.81,0.78-1.61,1.18-2.4c0.39-0.77,1.12-0.85,1.69-0.17
		C104.43,63.78,104.89,64.36,105.38,64.97z"/>
	<path class="st0" d="M87.09,62.86c-1.15,1.19-2.25,2.35-3.39,3.49c-0.31,0.31-0.77,0.19-1.14,0.12c-0.39-0.08-0.26-0.48-0.28-0.76
		c-0.04-0.79-0.04-1.59-0.09-2.38c-0.03-0.44,0.16-0.55,0.57-0.54c0.38,0.01,0.69,0.02,0.66,0.54c-0.02,0.44,0,0.89,0.03,1.34
		c0.02,0.4,0.2,0.48,0.5,0.19c0.53-0.52,1.1-1.01,1.59-1.56C85.99,62.81,86.48,62.7,87.09,62.86z"/>
	<path class="st0" d="M94.06,66.49c-0.54,0.07-0.69-0.08-0.45-0.55c0.46-0.9,0.91-1.82,1.36-2.73c0.1-0.2,0.2-0.41,0.48-0.4
		c0.24,0.01,0.54-0.11,0.71,0.09c0.16,0.2-0.09,0.4-0.18,0.59c-0.4,0.85-0.83,1.69-1.23,2.54C94.59,66.37,94.42,66.6,94.06,66.49z"
		/>
	<path class="st0" d="M86.5,66.51c-0.33,0.03-0.53-0.05-0.28-0.53c0.47-0.9,0.92-1.81,1.33-2.74c0.22-0.5,0.59-0.45,0.98-0.44
		c0.29,0.01,0.33,0.17,0.22,0.4c-0.5,1.02-1,2.04-1.5,3.06C87.1,66.55,86.83,66.49,86.5,66.51z"/>
</g>
</svg>
