<?xml version="1.0" encoding="utf-8"?>
<!-- Generator: Adobe Illustrator 24.2.3, SVG Export Plug-In . SVG Version: 6.00 Build 0)  -->
<svg version="1.1" id="Capa_1" xmlns="http://www.w3.org/2000/svg" xmlns:xlink="http://www.w3.org/1999/xlink" x="0px" y="0px"
	 viewBox="0 0 122 111" style="enable-background:new 0 0 122 111;" xml:space="preserve">
<style type="text/css">
	.st0{fill:#211F1F;}
</style>
<g>
	<g>
		<path class="st0" d="M65.83,50.82c0.58-1.01,2.05-1.16,2.9-1.16H111l-0.96,1.67H72.91l-1.21,2.1l13.21,0c1,0,1.25,1,0.9,1.56
			l-1.48,2.6c-0.53,0.93-1.63,1.26-2.85,1.26H39.53c-1.04,0-1.22-1.03-0.9-1.58c2.52-4.35,1.29-2.23,3.74-6.49
			c0.4-0.7,1.5-1.12,2.64-1.13l18.47,0c0.98,0.01,1.22,1.02,0.9,1.56l-1.56,2.7c-0.27,0.48-1.11,1.13-2.64,1.13H49.07L50,53.43h5.57
			l1.21-2.1H49.6l-3.38,5.86h30.87l1.24-2.15H65.19c-0.94,0-1.26-0.94-0.92-1.53"/>
		<polygon class="st0" points="99.62,52.1 95.72,58.84 88.25,58.84 92.15,52.1 		"/>
		<path class="st0" d="M30.12,57.19l-9.59,0l2.17-3.76h-7.44l-3.13,5.42l22.44-0.01c1,0.01,2.14-0.39,2.59-1.13l1.1-1.91
			c0.29-0.51,0.02-1.55-0.91-1.55l0,0c0.21,0,1.87-0.1,2.46-1.13l1.1-1.91c0.3-0.52,0.14-1.55-0.9-1.56l-22.57,0l-0.97,1.68H33.5
			l-1.21,2.1h-7l-0.93,1.61l7,0L30.12,57.19z"/>
	</g>
	<g>
		<path class="st0" d="M51.89,61.47h1.61v0.51h-1.07v1.14h0.93v0.51h-0.93v1.61h-0.54V61.47z"/>
		<path class="st0" d="M54.92,61.47h0.54v3.77h-0.54V61.47z"/>
		<path class="st0" d="M57.4,61.98h-0.62v-0.51h1.79v0.51h-0.62v3.26H57.4V61.98z"/>
		<path class="st0" d="M59.84,61.47h0.52l0.82,2.27h0.01v-2.27h0.54v3.77h-0.51l-0.83-2.27h-0.01v2.27h-0.54V61.47z"/>
		<path class="st0" d="M63.27,61.47h1.61v0.51h-1.07v1.11h0.93v0.51h-0.93v1.11h1.07v0.54h-1.61V61.47z"/>
		<path class="st0" d="M68.03,62.55h-0.54v-0.12c0-0.12-0.03-0.23-0.09-0.32c-0.06-0.09-0.16-0.13-0.29-0.13
			c-0.07,0-0.13,0.01-0.18,0.04c-0.05,0.03-0.08,0.06-0.11,0.11c-0.03,0.04-0.04,0.1-0.06,0.15c-0.01,0.06-0.02,0.12-0.02,0.18
			c0,0.07,0,0.14,0.01,0.19c0.01,0.05,0.02,0.1,0.04,0.13c0.02,0.04,0.05,0.07,0.09,0.1c0.04,0.03,0.1,0.06,0.17,0.08l0.41,0.16
			c0.12,0.05,0.22,0.1,0.29,0.16c0.07,0.06,0.13,0.13,0.17,0.22c0.04,0.08,0.07,0.18,0.08,0.29c0.01,0.11,0.02,0.23,0.02,0.37
			c0,0.16-0.02,0.31-0.05,0.44c-0.03,0.14-0.08,0.25-0.16,0.35c-0.07,0.1-0.17,0.17-0.29,0.23c-0.12,0.06-0.27,0.08-0.44,0.08
			c-0.13,0-0.25-0.02-0.37-0.07c-0.11-0.05-0.21-0.11-0.29-0.19c-0.08-0.08-0.15-0.17-0.19-0.28c-0.05-0.11-0.07-0.23-0.07-0.36
			v-0.2h0.54v0.17c0,0.1,0.03,0.19,0.09,0.27c0.06,0.08,0.16,0.12,0.29,0.12c0.09,0,0.16-0.01,0.21-0.04
			c0.05-0.03,0.09-0.06,0.12-0.11c0.03-0.05,0.04-0.11,0.05-0.18c0.01-0.07,0.01-0.15,0.01-0.23c0-0.1,0-0.18-0.01-0.24
			c-0.01-0.06-0.02-0.11-0.04-0.15c-0.02-0.04-0.05-0.07-0.1-0.1c-0.04-0.02-0.09-0.05-0.16-0.08l-0.39-0.16
			c-0.23-0.1-0.39-0.22-0.47-0.38c-0.08-0.16-0.12-0.35-0.12-0.59c0-0.14,0.02-0.28,0.06-0.4c0.04-0.13,0.1-0.24,0.17-0.33
			c0.08-0.09,0.17-0.16,0.29-0.22c0.12-0.05,0.25-0.08,0.41-0.08c0.13,0,0.26,0.02,0.37,0.07c0.11,0.05,0.21,0.11,0.29,0.2
			c0.08,0.08,0.14,0.17,0.18,0.27c0.04,0.1,0.06,0.2,0.06,0.31V62.55z"/>
		<path class="st0" d="M71.24,62.55H70.7v-0.12c0-0.12-0.03-0.23-0.09-0.32c-0.06-0.09-0.16-0.13-0.29-0.13
			c-0.07,0-0.14,0.01-0.18,0.04c-0.05,0.03-0.08,0.06-0.11,0.11c-0.03,0.04-0.04,0.1-0.06,0.15c-0.01,0.06-0.02,0.12-0.02,0.18
			c0,0.07,0,0.14,0.01,0.19c0.01,0.05,0.02,0.1,0.04,0.13c0.02,0.04,0.05,0.07,0.09,0.1c0.04,0.03,0.1,0.06,0.17,0.08l0.41,0.16
			c0.12,0.05,0.22,0.1,0.29,0.16c0.07,0.06,0.13,0.13,0.17,0.22c0.04,0.08,0.07,0.18,0.08,0.29c0.01,0.11,0.02,0.23,0.02,0.37
			c0,0.16-0.02,0.31-0.05,0.44c-0.03,0.14-0.08,0.25-0.16,0.35c-0.07,0.1-0.17,0.17-0.29,0.23c-0.12,0.06-0.27,0.08-0.44,0.08
			c-0.13,0-0.25-0.02-0.37-0.07c-0.11-0.05-0.21-0.11-0.29-0.19c-0.08-0.08-0.15-0.17-0.19-0.28c-0.05-0.11-0.07-0.23-0.07-0.36
			v-0.2h0.54v0.17c0,0.1,0.03,0.19,0.09,0.27c0.06,0.08,0.16,0.12,0.29,0.12c0.09,0,0.16-0.01,0.21-0.04
			c0.05-0.03,0.09-0.06,0.12-0.11c0.03-0.05,0.04-0.11,0.05-0.18c0.01-0.07,0.01-0.15,0.01-0.23c0-0.1,0-0.18-0.01-0.24
			c-0.01-0.06-0.02-0.11-0.04-0.15c-0.02-0.04-0.05-0.07-0.1-0.1c-0.04-0.02-0.09-0.05-0.16-0.08L70,63.44
			c-0.23-0.1-0.39-0.22-0.47-0.38c-0.08-0.16-0.12-0.35-0.12-0.59c0-0.14,0.02-0.28,0.06-0.4c0.04-0.13,0.1-0.24,0.17-0.33
			c0.08-0.09,0.17-0.16,0.29-0.22c0.12-0.05,0.25-0.08,0.41-0.08c0.13,0,0.26,0.02,0.37,0.07c0.11,0.05,0.21,0.11,0.29,0.2
			c0.08,0.08,0.14,0.17,0.18,0.27c0.04,0.1,0.06,0.2,0.06,0.31V62.55z"/>
	</g>
</g>
</svg>
