<?xml version="1.0" encoding="utf-8"?>
<!-- Generator: Adobe Illustrator 24.2.3, SVG Export Plug-In . SVG Version: 6.00 Build 0)  -->
<svg version="1.1" id="Capa_1" xmlns="http://www.w3.org/2000/svg" xmlns:xlink="http://www.w3.org/1999/xlink" x="0px" y="0px"
	 viewBox="0 0 122 111" style="enable-background:new 0 0 122 111;" xml:space="preserve">
<style type="text/css">
	.st0{fill:#241E24;}
	.st1{fill:#211F1F;}
</style>
<g>
	<g>
		<path d="M34.43,56.18v-7.19h13.17v1.84h-8.4v0.83h6.8v1.85h-6.8v2.67H34.43z"/>
		<path d="M50.41,49.12c0.19-0.03,0.37-0.06,0.57-0.09c0.19-0.02,0.37-0.04,0.55-0.04h8.47c0.36,0,0.71,0.04,1.04,0.11
			c0.34,0.07,0.63,0.18,0.89,0.32c0.25,0.14,0.46,0.31,0.62,0.51c0.16,0.2,0.23,0.42,0.23,0.66v4c0,0.08-0.02,0.2-0.07,0.37
			c-0.05,0.17-0.16,0.35-0.35,0.53c-0.19,0.18-0.46,0.33-0.83,0.47c-0.37,0.14-0.88,0.2-1.53,0.2h-8.47c-0.49,0-0.9-0.05-1.25-0.15
			c-0.35-0.1-0.63-0.23-0.84-0.38c-0.22-0.15-0.37-0.32-0.47-0.51c-0.1-0.18-0.15-0.36-0.15-0.53v-4c0-0.19,0.05-0.36,0.14-0.52
			c0.09-0.16,0.21-0.3,0.37-0.42c0.15-0.12,0.32-0.23,0.51-0.32C50.02,49.24,50.21,49.17,50.41,49.12z M53.49,54.33h4.54v-3.47
			h-4.54V54.33z"/>
		<path d="M79.02,56.18h-5.65l-3.22-1.64h-1.43v1.64h-4.73v-7.17h11.27c0.52,0.03,0.99,0.11,1.39,0.24c0.17,0.05,0.35,0.12,0.51,0.2
			c0.17,0.08,0.32,0.17,0.45,0.28c0.13,0.11,0.24,0.24,0.32,0.38c0.08,0.15,0.12,0.32,0.12,0.51v2.33c0,0.27-0.08,0.51-0.23,0.74
			c-0.13,0.19-0.34,0.37-0.64,0.53c-0.3,0.16-0.75,0.26-1.34,0.3L79.02,56.18z M73.3,50.85h-4.57v1.83h4.57V50.85z"/>
		<path d="M93.11,49.01c0.25,0,0.45,0.03,0.57,0.09c0.13,0.06,0.22,0.14,0.27,0.25c0.05,0.1,0.08,0.23,0.09,0.37
			c0.01,0.14,0.01,0.3,0.01,0.46c0,0.12,0,0.25-0.01,0.38c-0.01,0.13-0.02,0.26-0.03,0.37c-0.02,0.12-0.04,0.22-0.07,0.3
			c-0.03,0.09-0.07,0.15-0.13,0.19l-5.81,2.57c-0.13,0.08-0.19,0.14-0.19,0.2c0,0.12,0.18,0.17,0.54,0.17h1.25v-0.58h4.45v1.86
			c0,0.15-0.09,0.28-0.27,0.38c-0.18,0.1-0.4,0.15-0.67,0.15H81.14c-0.27,0-0.47-0.04-0.61-0.11c-0.14-0.07-0.23-0.17-0.29-0.3
			c-0.05-0.13-0.08-0.28-0.08-0.46c0-0.18,0-0.37,0-0.58c0-0.2,0.01-0.39,0.04-0.56c0.03-0.17,0.09-0.28,0.18-0.34l5.76-2.51
			c0.12-0.06,0.17-0.13,0.17-0.2c0-0.12-0.17-0.18-0.5-0.18h-0.96v0.56h-4.61l-0.05-1.95c0-0.15,0.09-0.28,0.27-0.38
			c0.18-0.1,0.4-0.15,0.67-0.15H93.11z"/>
		<path d="M94.32,56.18l6.02-7.18h3.57l6.03,7.18h-4.59l-0.99-1.15h-4.42l-1.03,1.15H94.32z M101.35,53.27h1.53l-0.75-0.95
			L101.35,53.27z"/>
	</g>
	<polygon class="st0" points="27.12,48.91 27.12,51.6 23.67,51.6 20.26,51.6 16.81,51.6 16.81,50.77 22.71,50.77 20.12,48.91 
		12,48.91 12,56.17 16.81,56.17 16.81,53.47 20.26,53.47 23.67,53.47 27.12,53.47 27.12,54.31 23.81,54.31 21.23,56.17 31.93,56.17 
		31.93,48.91 	"/>
	<g>
		<path class="st1" d="M70.73,64.72c-0.01,0-0.02-0.01-0.02-0.02v-6.29c0-0.01,0.01-0.02,0.02-0.02h4.48c0.01,0,0.02,0.01,0.02,0.02
			v1.01c0,0.01-0.01,0.02-0.02,0.02h-3.45v1.6h2.48c0.01,0,0.02,0.01,0.02,0.02v1.01c0,0.01-0.01,0.02-0.02,0.02h-2.48v2.62
			c0,0.01-0.01,0.02-0.02,0.02H70.73z"/>
		<path class="st1" d="M77.04,64.72c-0.01,0-0.02-0.01-0.02-0.02v-6.29c0-0.01,0.01-0.02,0.02-0.02h1.01c0.01,0,0.02,0.01,0.02,0.02
			v6.29c0,0.01-0.01,0.02-0.02,0.02H77.04z"/>
		<path class="st1" d="M79.9,59.44c-0.01,0-0.02-0.01-0.02-0.02v-1.01c0-0.01,0.01-0.02,0.02-0.02h5.08c0.01,0,0.02,0.01,0.02,0.02
			v1.01c0,0.01-0.01,0.02-0.02,0.02h-2.02v5.27c0,0.01-0.01,0.02-0.02,0.02h-1.01c-0.01,0-0.02-0.01-0.02-0.02v-5.27H79.9z"/>
		<path class="st1" d="M86.82,64.72c-0.01,0-0.02-0.01-0.02-0.02v-6.29c0-0.01,0.01-0.02,0.02-0.02h0.41c0,0,0.01,0,0.01,0.01
			l0.6,0.68l3.03,3.39v-4.05c0-0.01,0.01-0.02,0.02-0.02h0.1c0,0,0.01,0,0.01,0h0.78c0,0,0.01,0,0.01,0h0.12
			c0.01,0,0.02,0.01,0.02,0.02v6.29c0,0.01-0.01,0.02-0.02,0.02h-0.23l-0.18,0c0,0,0,0,0,0c0,0-0.01,0-0.01-0.01l-0.61-0.68
			l-3.03-3.39v4.06c0,0.01-0.01,0.02-0.02,0.02H86.82z"/>
		<path class="st1" d="M93.74,64.72c-0.01,0-0.02-0.01-0.02-0.02v-6.29c0-0.01,0.01-0.02,0.02-0.02h4.48c0.01,0,0.02,0.01,0.02,0.02
			v1.01c0,0.01-0.01,0.02-0.02,0.02h-3.45v1.6h2.48c0.01,0,0.02,0.01,0.02,0.02v0.41c0,0,0,0.01,0,0.01v0.18c0,0,0,0.01,0,0.01v0.41
			c0,0.01-0.01,0.02-0.02,0.02h-2.48v1.6h3.45c0.01,0,0.02,0.01,0.02,0.02v1.01c0,0.01-0.01,0.02-0.02,0.02H93.74z"/>
		<path class="st1" d="M99.81,63.78c0,0,0-0.01,0-0.01l0.55-0.55l0.16-0.17c0,0,0.01,0,0.01,0c0,0,0.01,0,0.01,0
			c0.4,0.4,0.94,0.62,1.51,0.62h0.27c0.41,0,0.74-0.33,0.74-0.74c0-0.34-0.23-0.63-0.56-0.71l-1.32-0.31
			c-0.81-0.19-1.38-0.9-1.38-1.74c0-0.98,0.8-1.78,1.78-1.78h0.27c0,0,0.01,0,0.01,0c0.84,0,1.63,0.33,2.23,0.93c0,0,0,0.01,0,0.01
			c0,0,0,0.01,0,0.01l-0.61,0.61l-0.11,0.11c0,0-0.01,0.01-0.01,0c0,0-0.01,0-0.01,0c-0.4-0.4-0.94-0.62-1.51-0.62h-0.27
			c-0.41,0-0.74,0.33-0.74,0.74c0,0.34,0.23,0.64,0.56,0.72l1.32,0.31c0.81,0.19,1.38,0.9,1.38,1.74c0,0.98-0.8,1.78-1.78,1.78
			h-0.27c0,0-0.01,0-0.01,0c-0.84,0-1.63-0.33-2.23-0.93C99.82,63.79,99.82,63.79,99.81,63.78z"/>
		<path class="st1" d="M105.7,63.78c0,0,0-0.01,0-0.01l0.55-0.55l0.16-0.17c0,0,0.01,0,0.01,0c0,0,0.01,0,0.01,0
			c0.4,0.4,0.94,0.62,1.51,0.62h0.27c0.41,0,0.74-0.33,0.74-0.74c0-0.34-0.23-0.63-0.56-0.71l-1.32-0.31
			c-0.81-0.19-1.38-0.9-1.38-1.74c0-0.98,0.8-1.78,1.78-1.78h0.27c0,0,0.01,0,0.01,0c0.84,0,1.63,0.33,2.23,0.93c0,0,0,0.01,0,0.01
			c0,0,0,0.01,0,0.01l-0.61,0.61l-0.11,0.11c0,0-0.01,0.01-0.01,0c0,0-0.01,0-0.01,0c-0.4-0.4-0.94-0.62-1.51-0.62h-0.27
			c-0.41,0-0.74,0.33-0.74,0.74c0,0.34,0.23,0.64,0.56,0.72l1.32,0.31c0.81,0.19,1.38,0.9,1.38,1.74c0,0.98-0.8,1.78-1.78,1.78
			h-0.27c0,0-0.01,0-0.01,0c-0.84,0-1.63-0.33-2.23-0.93C105.7,63.79,105.7,63.79,105.7,63.78z"/>
	</g>
</g>
</svg>
