<?xml version="1.0" encoding="utf-8"?>
<!-- Generator: Adobe Illustrator 24.2.3, SVG Export Plug-In . SVG Version: 6.00 Build 0)  -->
<svg version="1.1" id="Capa_1" xmlns="http://www.w3.org/2000/svg" xmlns:xlink="http://www.w3.org/1999/xlink" x="0px" y="0px"
	 viewBox="0 0 122 111" style="enable-background:new 0 0 122 111;" xml:space="preserve">
<style type="text/css">
	.st0{fill-rule:evenodd;clip-rule:evenodd;fill:#211F1F;}
</style>
<g>
	<path class="st0" d="M53.27,53.32h1.93v3.44c0,0.26,0.08,0.61,0.27,0.8c0.23,0.22,0.61,0.28,0.91,0.28h2.98v0.92h-3.32
		c-0.56,0-1.22-0.05-1.72-0.3c-0.31-0.16-0.56-0.35-0.74-0.63c-0.27-0.41-0.3-0.86-0.3-1.33L53.27,53.32L53.27,53.32z M42.83,58.76
		l3.75-5.47h2.22l3.68,5.47h-2.26l-0.83-1.28h-3.48l-0.82,1.28H42.83z M47.66,54.64l1.32,1.92h-2.65L47.66,54.64z M67.1,53.31h-3.5
		c-0.73,0-1.51,0.15-2.16,0.48c-0.55,0.27-0.92,0.64-1.3,1.26c-0.23,0.84-0.29,1.48,0.18,2.26c0.43,0.58,0.76,0.85,1.29,1.09
		c0.69,0.31,1.37,0.35,2.11,0.35l0.56,0.01l2.82-0.02v-0.91h-3.16c-0.39,0-0.82-0.04-1.16-0.22c-0.32-0.18-0.54-0.49-0.63-1.01h4.95
		v-1.02h-4.95c0.04-0.25,0.11-0.45,0.2-0.61c0.33-0.61,1.08-0.64,1.68-0.66l3.07-0.02V53.31z M67.87,53.31h2.37l1.77,1.72l1.87-1.72
		h2.4l-3.01,2.75l2.83,2.7h-2.4l-1.74-1.68l-1.8,1.68h-2.45l3.04-2.72L67.87,53.31z M77.09,53.33h5.16c0.46,0,0.83,0.03,1.29,0.15
		c0.77,0.19,1.36,0.52,1.51,1.17c0.03,0.15,0.04,0.3,0.02,0.48c-0.07,0.9-0.66,1.14-1.39,1.36c0.49,0.22,0.92,0.42,1.18,0.93
		c0.2,0.38,0.24,0.85,0.26,1.34H82.9c-0.01-0.25-0.03-0.44-0.07-0.66c-0.07-0.33-0.17-0.58-0.37-0.84c-0.41-0.5-1.02-0.45-1.58-0.48
		l-1.9-0.01v1.99h-1.89V53.33z M78.94,54.45h3.09c0.41,0,0.68,0.07,0.81,0.37c0.09,0.21,0.05,0.46,0,0.61
		c-0.14,0.38-0.5,0.42-0.85,0.42h-3.04L78.94,54.45z M86.61,58.77h1.88v-5.46h-1.88V58.77z M92.11,58.77h-1.87v-5.46h2.82l2.26,4.16
		l2.25-4.17h2.71v5.45h-1.77l0.02-3.91l-2.24,3.91h-2.13l-2.07-3.83L92.11,58.77z M109.52,53.3h-5.26c-0.66,0-1.43,0.07-2,0.43
		c-0.36,0.24-0.59,0.59-0.58,1.09c0,0.35,0.14,0.69,0.36,0.96c0.52,0.65,1.37,0.73,2.15,0.73h2.76c0.41,0,0.81,0.08,0.86,0.56
		c0.04,0.44-0.23,0.63-0.64,0.67c-0.25,0.04-0.53,0.02-0.78,0.02h-4.38v1.01c1.95,0,3.89,0.02,5.82,0.01c1.01,0,2-0.24,2.13-1.47
		c0.07-0.54-0.15-1.1-0.68-1.41c-0.43-0.25-1.03-0.35-1.67-0.38h-2.44c-0.21,0-0.47,0.02-0.68,0c-0.36-0.05-0.71-0.18-0.73-0.63
		c-0.04-0.7,0.94-0.6,1.39-0.6h4.31C109.5,53.96,109.51,53.62,109.52,53.3 M39.61,60.74l-7.36-9.41c-0.26-0.34-0.64-0.64-1.03-0.85
		c-0.36-0.19-0.75-0.29-1.23-0.29l-3.59,0.03l7.47,10.53C35.79,60.75,37.69,60.74,39.61,60.74 M26.03,50.78l2.48,3.44
		c-1.23,1.79-2.46,3.59-3.7,5.37c-0.64,0.91-1.18,1.13-2.31,1.13l-4.3,0.01L26.03,50.78z M36.6,62.95
		c-2.19,0.65-4.41,1.03-6.77,1.08c-2.99,0.07-6-0.27-8.87-1.23c-1.83-0.63-3.79-1.61-5.21-2.93c-1.29-1.17-2.18-2.69-1.79-4.53
		c0.2-0.93,0.7-1.79,1.45-2.51c3.31-3.18,8.44-4.18,12.86-4.31c4.54-0.13,9.05,0.61,12.93,3.04c-0.93-0.75-1.94-1.38-3.01-1.9
		c-1.47-0.71-3.03-1.22-4.64-1.58c-4.32-0.97-9.02-0.94-13.31,0.15c-3.34,0.84-8.54,3.3-9.17,7.18c-0.25,1.6,0.11,2.78,1.11,4.04
		c1.18,1.49,2.51,2.47,4.22,3.28c2.16,1.01,4.34,1.61,6.69,1.96c3.32,0.49,7.13,0.44,10.55-0.28c2.59-0.54,5.3-1.52,7.33-3.24
		C39.54,61.89,38.15,62.5,36.6,62.95"/>
</g>
</svg>
