<?xml version="1.0" encoding="utf-8"?>
<!-- Generator: Adobe Illustrator 24.2.3, SVG Export Plug-In . SVG Version: 6.00 Build 0)  -->
<svg version="1.1" id="Capa_1" xmlns="http://www.w3.org/2000/svg" xmlns:xlink="http://www.w3.org/1999/xlink" x="0px" y="0px"
	 viewBox="0 0 122 111" style="enable-background:new 0 0 122 111;" xml:space="preserve">
<style type="text/css">
	.st0{fill:#211F1F;}
</style>
<g>
	<path class="st0" d="M42.88,62.41h-8.76L31.8,58.6h-8.4l-1.95,3.18h-8.83L23.3,43.67h8.61L42.88,62.41z M29.67,54.79l-2.05-3.71
		l-2.1,3.71H29.67z"/>
	<polygon class="st0" points="52.97,58.78 39.89,58.78 39.89,45.46 46.94,45.46 46.94,55.1 52.97,55.1 	"/>
	<polygon class="st0" points="66.93,58.78 53.86,58.78 53.86,45.46 60.91,45.46 60.91,55.1 66.93,55.1 	"/>
	<polygon class="st0" points="83.2,58.78 67.82,58.78 67.82,45.46 83.2,45.46 83.2,49.14 74.88,49.14 74.88,50.31 83.2,50.31 
		83.2,53.98 74.88,53.98 74.88,55.1 83.2,55.1 	"/>
	<polygon class="st0" points="106.47,58.78 99.42,58.78 91.5,52.45 91.5,58.78 84.45,58.78 84.45,45.46 91.48,45.46 99.41,51.81 
		99.42,45.46 106.47,45.46 	"/>
	<path class="st0" d="M108.62,55.87c0.77,0,1.38,0.62,1.38,1.4c0,0.79-0.61,1.4-1.39,1.4c-0.76,0-1.39-0.62-1.39-1.4
		C107.22,56.49,107.85,55.87,108.62,55.87L108.62,55.87z M108.61,56.09c-0.61,0-1.12,0.53-1.12,1.18c0,0.67,0.51,1.19,1.12,1.19
		c0.62,0.01,1.12-0.52,1.12-1.18C109.74,56.62,109.24,56.09,108.61,56.09L108.61,56.09z M108.35,58.09h-0.24v-1.56
		c0.13-0.02,0.25-0.04,0.44-0.04c0.24,0,0.39,0.06,0.49,0.12c0.09,0.07,0.14,0.17,0.14,0.32c0,0.21-0.14,0.33-0.31,0.38v0.01
		c0.14,0.02,0.23,0.15,0.26,0.38c0.04,0.24,0.08,0.34,0.1,0.39h-0.26c-0.04-0.05-0.08-0.2-0.11-0.4c-0.04-0.2-0.14-0.27-0.34-0.27
		h-0.18L108.35,58.09L108.35,58.09z M108.35,57.22h0.19c0.2,0,0.37-0.08,0.37-0.27c0-0.13-0.1-0.27-0.37-0.27
		c-0.08,0-0.14,0.01-0.19,0.01V57.22z"/>
	<path class="st0" d="M57.77,61.2h4.84l-0.26,0.93h-4.13l-0.27,0.9l1.99,0.25c1.33,0.16,1.94,0.4,1.85,0.7l-0.42,1.42
		c-0.19,0.6-0.95,0.9-2.31,0.91h-4.88l0.26-0.92h4.15l0.29-0.9l-2.01-0.26c-1.34-0.17-1.96-0.39-1.87-0.68l0.43-1.41
		C55.62,61.52,56.39,61.2,57.77,61.2"/>
	<path class="st0" d="M63.51,62.6h2.78l-1.11,3.71l-2.77,0.01L63.51,62.6z M63.96,61.21h5.52c1.36,0,1.95,0.31,1.77,0.92L70.69,64
		c-0.18,0.6-0.96,0.91-2.33,0.92h-2.05l0.26-0.93L67.95,64l0.58-1.87h-4.86L63.96,61.21z"/>
	<path class="st0" d="M74.97,61.21h3.47c1.39,0,1.99,0.31,1.8,0.92l-0.96,3.25c-0.19,0.62-0.98,0.93-2.38,0.93h-3.44
		c-1.38,0-1.97-0.31-1.79-0.91l0.97-3.28C72.8,61.52,73.58,61.21,74.97,61.21 M75.4,62.14l-0.96,3.25h2.07l0.98-3.25H75.4z"/>
	<path class="st0" d="M81.84,61.19h7.58l-0.76,2.57c-0.14,0.45-0.67,0.66-1.6,0.66l0.89,1.88h-2.79l-0.88-1.84h-0.64l-0.56,1.85
		h-2.77l1.1-3.73h2.8l-0.26,0.92h2.06l0.42-1.39l-4.88,0.01L81.84,61.19z"/>
	<polygon class="st0" points="90.13,61.22 97.08,61.2 96.75,62.15 94.68,62.15 94.4,63.05 94.13,63.99 93.44,66.31 90.68,66.31 
		91.37,64 91.64,63.05 91.92,62.13 89.85,62.13 	"/>
	<path class="st0" d="M100.56,61.2h4.84l-0.26,0.93H101l-0.26,0.9l1.99,0.25c1.32,0.16,1.94,0.4,1.85,0.7l-0.43,1.42
		c-0.18,0.6-0.95,0.9-2.31,0.91h-4.88l0.27-0.92h4.15l0.28-0.9l-2.01-0.26c-1.33-0.17-1.96-0.39-1.87-0.68l0.42-1.41
		C98.42,61.52,99.2,61.2,100.56,61.2"/>
</g>
</svg>
