<?xml version="1.0" encoding="utf-8"?>
<!-- Generator: Adobe Illustrator 24.2.3, SVG Export Plug-In . SVG Version: 6.00 Build 0)  -->
<svg version="1.1" id="Capa_1" xmlns="http://www.w3.org/2000/svg" xmlns:xlink="http://www.w3.org/1999/xlink" x="0px" y="0px"
	 viewBox="0 0 122 111" style="enable-background:new 0 0 122 111;" xml:space="preserve">
<style type="text/css">
	.st0{fill-rule:evenodd;clip-rule:evenodd;fill:#211F1F;}
	.st1{fill:#211F1F;}
</style>
<g>
	<path class="st0" d="M113.45,54.3c0.26,0,0.51,0.06,0.76,0.2c0.25,0.13,0.44,0.32,0.58,0.58c0.14,0.24,0.21,0.5,0.21,0.78
		s-0.07,0.53-0.2,0.77c-0.14,0.25-0.33,0.44-0.57,0.58c-0.25,0.13-0.51,0.2-0.77,0.2c-0.27,0-0.53-0.07-0.78-0.2
		c-0.25-0.14-0.44-0.33-0.58-0.58s-0.21-0.5-0.21-0.77s0.07-0.53,0.21-0.78s0.34-0.44,0.58-0.58
		C112.93,54.36,113.19,54.3,113.45,54.3 M113.45,54.55c-0.22,0-0.43,0.05-0.64,0.17c-0.2,0.11-0.37,0.28-0.48,0.48
		c-0.12,0.21-0.18,0.42-0.18,0.65s0.06,0.44,0.17,0.65c0.12,0.21,0.27,0.37,0.48,0.48c0.2,0.11,0.42,0.17,0.65,0.17
		c0.22,0,0.44-0.06,0.64-0.17c0.21-0.11,0.36-0.28,0.48-0.48c0.11-0.21,0.17-0.42,0.17-0.65s-0.06-0.44-0.18-0.65
		c-0.12-0.21-0.28-0.37-0.48-0.48C113.88,54.6,113.66,54.55,113.45,54.55 M112.76,56.71v-1.68h0.58c0.2,0,0.34,0.02,0.43,0.05
		c0.09,0.03,0.16,0.08,0.21,0.16c0.05,0.08,0.08,0.16,0.08,0.25c0,0.12-0.04,0.23-0.13,0.32s-0.2,0.15-0.35,0.16
		c0.06,0.02,0.11,0.05,0.15,0.08c0.06,0.07,0.15,0.18,0.25,0.34l0.2,0.33h-0.33l-0.15-0.27c-0.12-0.2-0.21-0.33-0.28-0.39
		c-0.05-0.04-0.12-0.06-0.21-0.06h-0.16v0.71H112.76z M113.03,55.77h0.33c0.16,0,0.27-0.02,0.32-0.07c0.06-0.05,0.09-0.11,0.09-0.19
		c0-0.05-0.02-0.09-0.04-0.13c-0.03-0.04-0.07-0.07-0.12-0.09s-0.14-0.03-0.27-0.03h-0.3L113.03,55.77L113.03,55.77z"/>
	<polygon class="st1" points="12.91,54.61 20.79,50.54 24.86,52.38 49.13,43.85 53.6,45.42 24.46,53.82 20.13,52.38 	"/>
	<polygon class="st1" points="41.26,51.33 57.8,44.63 68.17,47.26 62,49.49 55.3,47.78 	"/>
	<polygon class="st1" points="63.31,49.89 73.03,46.74 75.39,48.7 70.93,49.89 	"/>
	<polygon class="st1" points="70.4,50.94 80.11,47.65 82.48,50.02 77.75,51.06 	"/>
	<polygon class="st1" points="77.88,52.12 87.21,48.97 89.17,50.94 85.23,52.38 	"/>
	<polygon class="st1" points="84.32,53.56 94.29,50.28 110.17,53.56 	"/>
	<polygon class="st1" points="46.38,51.7 55.11,49.25 53.54,52.05 	"/>
	<path class="st1" d="M29.14,55.93l-1.4,4.33c0,0-0.78,2.23,1.58,2.15h4.07v0.74l-7.22,0.04c0,0-2.84-0.08-2.22-2.66l1.31-4.55
		L29.14,55.93z"/>
	<path class="st1" d="M39.68,55.93l-1.44,4.2c0,0-0.79,2.23,1.58,2.23h4.07l-0.05,0.83H36.8c0,0-3.41-0.04-2.36-2.8l1.48-4.46
		C35.92,55.93,39.68,55.93,39.68,55.93z"/>
	<polygon class="st1" points="46.86,55.93 44.76,63.18 48.39,63.18 50.58,55.93 	"/>
	<path class="st1" d="M62.83,55.93l-0.3,0.96l-5.65-0.04c0,0-1.7-0.13-2.23,1.97l-0.52,1.84c0,0-0.56,1.58,1.44,1.58h1.97l0.7-2.8
		h3.37l-0.92,3.81L52.5,63.2c0,0-2.66,0.09-2.05-2.93l0.66-1.97c0,0,0.82-2.53,4.72-2.36h7V55.93z"/>
	<polygon class="st1" points="76.73,55.93 76.54,56.87 79.98,56.84 78.31,63.18 82.3,63.18 83.79,56.84 87.47,56.81 87.73,55.93 	
		"/>
	<path class="st0" d="M103.84,57.04l-0.62,2.43c0,0,3.11,0.03,3.68-0.05c0,0,0.42-0.22,0.62-0.75c0.21-0.52,0.19-1.35-0.8-1.62
		L103.84,57.04z M100.75,55.93l-1.83,7.26h3.42l0.68-2.76l3.15-0.03c0,0,0.78-0.13,0.79,0.66c-0.06,0.42-0.19,1.12-0.45,2.14h3.26
		c0,0,0.45-1.35,0.4-2.42c-0.09-0.55-0.34-0.74-0.78-0.9c0,0,1.45-0.52,1.58-2.1c0,0,0.31-1.66-1.84-1.83h-8.38V55.93z"/>
	<path class="st0" d="M93.5,56.84c0,0-1.94-0.26-2.2,1.64l-0.43,1.77c0,0-0.78,2.15,1.18,2.1c0,0,2.13,0.36,2.49-1.71l0.53-2.36
		C95.08,58.28,95.67,56.87,93.5,56.84 M91.01,55.93c0,0-3.02-0.14-3.41,2.88L87.12,61c0,0-0.4,2.41,2.84,2.19h4.34
		c0,0,3.28,0.09,3.8-2.27l0.53-2.23c0,0,0.52-2.49-1.91-2.75L91.01,55.93L91.01,55.93z"/>
	<path class="st0" d="M71.32,56.84l-0.56,2.17l-3.61-0.1c0,0,0.17-2.27,2.6-2.07C69.75,56.84,71.32,56.84,71.32,56.84z M75.34,55.93
		l-1.66,7.26h-3.81l0.72-3.29l-3.61-0.03l-0.7,3.32h-3.5l0.79-3.89c0,0,0.43-3.53,4.37-3.36h7.4V55.93z"/>
	<path class="st0" d="M19.77,56.87l-0.65,2.2h-3.76c0,0,0.44-2.37,2.27-2.24L19.77,56.87z M23.72,55.93l-2.03,7.26h-3.66L18.9,60
		l-3.75-0.02l-1.01,3.23l-3.51-0.04l1.49-4.76c0,0,0.79-2.49,2.89-2.49h8.71V55.93z"/>
</g>
</svg>
