<?xml version="1.0" encoding="utf-8"?>
<!-- Generator: Adobe Illustrator 24.2.3, SVG Export Plug-In . SVG Version: 6.00 Build 0)  -->
<svg version="1.1" id="Capa_1" xmlns="http://www.w3.org/2000/svg" xmlns:xlink="http://www.w3.org/1999/xlink" x="0px" y="0px"
	 viewBox="0 0 122 111" style="enable-background:new 0 0 122 111;" xml:space="preserve">
<style type="text/css">
	.st0{fill:#211F1F;}
</style>
<g>
	<path class="st0" d="M84.43,49.75l-0.01,8.83l-6.76-0.01l0.01-8.93l-18.62-0.01c-2.1-0.01-3.57,1.5-3.58,1.51l-0.1,0.1v-1.57h-6.1
		v1.62l-0.09-0.1c-1.2-1.27-3.46-1.57-3.49-1.57l-13.73-0.01l-0.01,9.64l-6.54-11.09h-4.97L12,63.75l6.53,0.05l4.48-7.68l4.72,7.64
		l10.23,0.01l0.01-8.83h6.51l-3.45,2.04l4.15,6.84l22.56,0.02c3.35,0,4.59-2.16,4.6-2.17l0.03-0.07l0.05,0.05
		c2.21,2.12,4.43,2.15,4.46,2.15l7.33,0.01c3.54,0,4.69-1.68,4.7-1.7l0.1-0.15v2h6.2v-5.57l7.31,5.43l5.45,0.01l0.01-14.14h-6.1
		v5.91l-7.55-5.82L84.43,49.75z M28.74,62.35l-5.6-9.4l-5.42,9.44l-3.17-0.01l7.03-12.66l2.92,0.01l7.41,12.62
		C31.91,62.35,28.74,62.35,28.74,62.35z M46.25,62.36l-3.02-5.17l2.68-1.37c0,0,1.71-1.42-0.73-2.28l-8.63-0.01l-0.01,8.83h-3.07
		l0.01-11.3l11.36,0.01c0,0,4.15,0.34,4.39,3.75c0,0,0.19,2.33-2.25,3.37l2.29,4.18L46.25,62.36z M53.8,62.37l-2.88-0.01l0.01-11.29
		h2.88L53.8,62.37z M71.42,53.55l-11.85-0.01c-0.44,0-1.27,0.24-1.27,1.09c0,0.86,1.12,0.86,1.12,0.86s7.46-0.04,7.95,0
		c0.49,0.05,4,0.39,4,3.52s-3.71,3.41-3.71,3.41l-12.1-0.01V59.8l11.46,0.01c0,0,1.56,0.19,1.56-0.8c0-0.99-1.27-0.95-1.27-0.95
		l-7.85-0.01c0,0-3.95-0.19-4-3.51s3.03-3.51,3.03-3.51l12.97,0.01L71.42,53.55z M89.02,59.31c0,0-0.2,2.99-4.39,3.08
		c-4.19,0.09-8.09,0-8.09,0s-3.51-0.05-3.51-3.99l0.01-7.21h2.98v7.26c0,0-0.25,1.47,1.31,1.47l7.56,0.01c0,0,1.27-0.14,1.27-1.76
		l0.01-7.12h2.88L89.02,59.31z M103.31,58.56v-7.5h2.88l-0.01,11.39h-2.88l-9.75-7.5v7.45l-2.98-0.01l0.01-11.29h3.07L103.31,58.56z
		"/>
</g>
</svg>
