<?xml version="1.0" encoding="utf-8"?>
<!-- Generator: Adobe Illustrator 24.2.3, SVG Export Plug-In . SVG Version: 6.00 Build 0)  -->
<svg version="1.1" id="Capa_1" xmlns="http://www.w3.org/2000/svg" xmlns:xlink="http://www.w3.org/1999/xlink" x="0px" y="0px"
	 viewBox="0 0 122 111" style="enable-background:new 0 0 122 111;" xml:space="preserve">
<style type="text/css">
	.st0{fill:#211F1F;}
</style>
<g>
	<g>
		<g>
			<path class="st0" d="M65.48,52.61c0.61-1.06,2.16-1.23,3.05-1.22H113l-1.01,1.76H72.93l-1.27,2.21h13.89
				c1.05,0,1.31,1.05,0.95,1.64l-1.56,2.74c-0.56,0.97-1.71,1.33-3,1.33H37.82c-1.09,0-1.28-1.09-0.95-1.66
				c2.65-4.58,1.36-2.35,3.94-6.82c0.42-0.73,1.58-1.18,2.78-1.19h19.43c1.03,0.01,1.28,1.07,0.95,1.64l-1.64,2.84
				c-0.29,0.5-1.16,1.19-2.78,1.19H47.86l0.98-1.7h5.86l1.27-2.21h-7.55l-3.56,6.17h32.48l1.31-2.26H64.81
				c-0.98,0-1.33-0.99-0.96-1.61"/>
			<polygon class="st0" points="101.03,53.96 96.93,61.06 89.07,61.06 93.17,53.96 			"/>
			<path class="st0" d="M27.92,59.31H17.83l2.29-3.96h-7.83L9,61.06l23.61-0.01c1.05,0.01,2.26-0.41,2.72-1.19l1.16-2
				c0.31-0.54,0.02-1.63-0.96-1.63l0,0c0.23,0,1.96-0.1,2.59-1.19l1.16-2.01c0.32-0.55,0.15-1.63-0.95-1.64H14.59l-1.02,1.77h17.91
				l-1.27,2.21h-7.36l-0.98,1.7h7.36L27.92,59.31z"/>
		</g>
	</g>
</g>
</svg>
