<?xml version="1.0" encoding="utf-8"?>
<!-- Generator: Adobe Illustrator 24.2.3, SVG Export Plug-In . SVG Version: 6.00 Build 0)  -->
<svg version="1.1" id="Capa_1" xmlns="http://www.w3.org/2000/svg" xmlns:xlink="http://www.w3.org/1999/xlink" x="0px" y="0px"
	 viewBox="0 0 122 111" style="enable-background:new 0 0 122 111;" xml:space="preserve">
<style type="text/css">
	.st0{fill:#211F1F;}
</style>
<g>
	<polygon class="st0" points="48.74,56.57 58.45,54.57 57.43,58.27 	"/>
	<path class="st0" d="M20.84,44.88l-6.21,23.39h87.49l6.05-23.39C108.17,44.88,20.84,44.88,20.84,44.88z M40.93,59.21l-0.49,1.88
		c-1.59,3.88-5.23,3.27-5.23,3.27H22.29l3.45-11.43h4.39l-2.4,8.04h7.69c0.73,0,0.94-0.49,1.35-1.43s0.04-1.35,0.04-1.35h-7.45
		l0.99-3.52h7.12c0,0,0.61,0,0.98-1.31s-0.37-1.27-0.37-1.27H25.89l0.9-3.35h14.19c2.25,0.53,1.88,2.62,1.88,2.62l-0.41,2.2
		c-0.53,2.42-2.29,2.9-2.29,2.9C41.46,57.74,40.93,59.21,40.93,59.21 M46.78,60.8h11.4l-1.31,3.56h-15.7l3.15-11.45h4.41l-0.75,3.02
		l11.38-2.16l-1.43,5.48l-10.23-2.2l0,0L46.78,60.8z M60.4,52.07H44.62l0.93-3.29h15.74L60.4,52.07z M63.09,48.79h17.83l-0.87,3.29
		H62.1L63.09,48.79z M69.88,64.69h-4.62l3.27-11.78h4.83L69.88,64.69z M100.62,52.14l-2.33,8.79c-0.98,3.89-4.58,3.52-4.58,3.52
		H80.67c-2.49-0.33-1.59-3.43-1.59-3.43l2.4-8.1h4.41l-2.35,7.97H93.8l2.26-8.81H81.37c0.82-3.55,4.36-3.29,4.36-3.29h12.55
		C101.23,49.2,100.62,52.14,100.62,52.14"/>
	<path class="st0" d="M107.8,64.61c1.22,0,2.2,1,2.2,2.24c0,1.26-0.98,2.25-2.21,2.25c-1.23,0-2.22-0.99-2.22-2.25
		C105.57,65.61,106.56,64.61,107.8,64.61L107.8,64.61z M107.79,64.96c-0.99,0-1.79,0.84-1.79,1.89c0,1.06,0.8,1.9,1.8,1.9
		c1,0.01,1.79-0.84,1.79-1.89C109.59,65.81,108.79,64.96,107.79,64.96L107.79,64.96z M107.37,68.15h-0.4v-2.5
		c0.21-0.03,0.41-0.06,0.71-0.06c0.38,0,0.63,0.08,0.78,0.19s0.23,0.28,0.23,0.52c0,0.33-0.22,0.53-0.49,0.61v0.02
		c0.22,0.04,0.37,0.24,0.42,0.61c0.06,0.38,0.12,0.54,0.16,0.61h-0.42c-0.06-0.08-0.12-0.31-0.17-0.64
		c-0.06-0.32-0.22-0.44-0.53-0.44h-0.28v1.08H107.37z M107.37,66.77h0.29c0.33,0,0.6-0.12,0.6-0.43c0-0.22-0.16-0.44-0.6-0.44
		c-0.13,0-0.22,0.01-0.29,0.02V66.77z"/>
</g>
</svg>
