<?xml version="1.0" encoding="utf-8"?>
<!-- Generator: Adobe Illustrator 24.2.3, SVG Export Plug-In . SVG Version: 6.00 Build 0)  -->
<svg version="1.1" id="Capa_1" xmlns="http://www.w3.org/2000/svg" xmlns:xlink="http://www.w3.org/1999/xlink" x="0px" y="0px"
	 viewBox="0 0 122 111" style="enable-background:new 0 0 122 111;" xml:space="preserve">
<style type="text/css">
	.st0{fill:#211F1F;}
	.st1{fill-rule:evenodd;clip-rule:evenodd;fill:#211F1F;}
</style>
<g>
	<path class="st0" d="M44.95,50.21c-3.81,0-4.13,1.78-4.13,1.78l-2.59,8.18c0,0-0.68,2.14,2.82,2.14s4.23-2.45,4.23-2.45l0.68-2.14
		c0.64-1.73-1.27-1.91-1.27-1.91c2.23,0,2.73-2.59,2.73-2.59S48.77,50.21,44.95,50.21 M43.32,57.57l-0.68,2.41
		c0,0-0.32,0.91-1.09,0.86s-0.59-0.59-0.59-0.59l1.14-3.73C43.64,56.35,43.32,57.57,43.32,57.57 M42.5,55.12l1-3.23
		c0,0,1.45-0.86,1.5,0.32C44.78,53.76,44.27,55.67,42.5,55.12"/>
	<polygon class="st0" points="49.18,50.44 45.86,61.99 51.77,61.99 52.27,60.4 48.95,60.4 51.91,50.44 	"/>
	<path class="st0" d="M59.64,50.17c-3.46,0-4.22,2.09-4.22,2.09l-2.91,9.73h2.73l1.37-4.64h1.63l-1.36,4.64h2.72l2.91-9.77
		C62.5,52.21,63.09,50.17,59.64,50.17 M59.73,52.49l-1,3.45H57l1.09-3.59c0,0,0.13-0.86,1.09-0.82
		C60.14,51.58,59.73,52.49,59.73,52.49"/>
	<path class="st0" d="M92.2,50.17c-3.46,0-4.22,2.09-4.22,2.09l-2.91,9.73h2.73l1.36-4.64h1.63l-1.36,4.64h2.73l2.91-9.77
		C95.07,52.21,95.66,50.17,92.2,50.17 M92.29,52.49l-1,3.45h-1.73l1.09-3.59c0,0,0.13-0.86,1.09-0.82
		C92.7,51.58,92.29,52.49,92.29,52.49"/>
	<path class="st0" d="M67.22,54.67h2.73l0.68-2.5c0,0,0.41-2-3.14-2c-3.54,0-3.82,2.13-3.82,2.13l-2.27,7.5c0,0-0.95,2.5,2.64,2.5
		c3.59,0,4.13-1.95,4.13-1.95l0.87-2.73h-2.73l-0.64,2.41c0,0-0.09,0.77-1.23,0.77c-0.86,0-0.36-1.04-0.36-1.04l2.27-7.64
		c0,0,0.23-0.77,1-0.68s0.5,1.04,0.5,1.04L67.22,54.67z"/>
	<polygon class="st0" points="68.77,61.99 72.18,50.44 74.91,50.44 73.45,55.39 77.18,50.44 79.86,50.44 75.91,55.71 76.36,61.99 
		73.41,61.99 73.18,56.39 71.5,61.99 	"/>
	<path class="st0" d="M99.61,54.67h2.73l0.68-2.5c0,0,0.41-2-3.14-2s-3.82,2.13-3.82,2.13l-2.27,7.5c0,0-0.95,2.5,2.63,2.5
		c3.59,0,4.13-1.95,4.13-1.95l0.87-2.73H98.7l-0.64,2.41c0,0-0.09,0.77-1.23,0.77c-0.86,0-0.36-1.04-0.36-1.04l2.27-7.64
		c0,0,0.23-0.77,1-0.68s0.5,1.04,0.5,1.04L99.61,54.67z"/>
	<polygon class="st0" points="101.15,61.99 104.56,50.44 107.29,50.44 105.84,55.39 109.56,50.44 112.24,50.44 108.29,55.71 
		108.74,61.99 105.79,61.99 105.56,56.39 103.88,61.99 	"/>
	<path class="st0" d="M78.31,57.53l-0.68,2.41c0,0-0.91,2.37,3,2.37s4.22-2.64,4.22-2.64l2.73-9.22h-2.82l-2.73,9.54
		c0,0-0.14,1-1.05,0.91c-1,0-0.54-1.32-0.54-1.32l0.63-2.05H78.31z"/>
	<path class="st1" d="M111.46,59.12c0.26,0,0.51,0.07,0.75,0.2c0.25,0.13,0.44,0.32,0.58,0.57c0.13,0.24,0.2,0.51,0.2,0.77
		c0,0.26-0.07,0.52-0.2,0.76c-0.14,0.24-0.32,0.44-0.57,0.57c-0.25,0.14-0.5,0.2-0.76,0.2c-0.27,0-0.52-0.07-0.77-0.2
		c-0.24-0.13-0.43-0.33-0.57-0.57c-0.14-0.24-0.2-0.5-0.2-0.76c0-0.27,0.07-0.53,0.21-0.77c0.14-0.25,0.34-0.44,0.58-0.57
		C110.95,59.19,111.2,59.12,111.46,59.12 M111.46,59.38c-0.22,0-0.43,0.05-0.64,0.17c-0.2,0.11-0.36,0.27-0.48,0.47
		c-0.11,0.21-0.18,0.42-0.18,0.65c0,0.22,0.06,0.43,0.17,0.64c0.12,0.2,0.27,0.36,0.48,0.47c0.2,0.11,0.42,0.17,0.64,0.17
		s0.43-0.06,0.64-0.17c0.2-0.12,0.36-0.28,0.47-0.47c0.11-0.21,0.17-0.42,0.17-0.64c0-0.23-0.06-0.44-0.17-0.65
		c-0.12-0.2-0.27-0.36-0.48-0.47C111.89,59.43,111.68,59.38,111.46,59.38 M110.79,61.51v-1.66h0.57c0.19,0,0.33,0.02,0.42,0.05
		s0.16,0.08,0.21,0.15c0.05,0.08,0.08,0.16,0.08,0.25c0,0.12-0.04,0.23-0.13,0.32c-0.08,0.09-0.2,0.14-0.34,0.15
		c0.06,0.02,0.11,0.05,0.14,0.09c0.06,0.07,0.15,0.18,0.24,0.33l0.2,0.33h-0.33l-0.15-0.26c-0.12-0.2-0.21-0.33-0.28-0.38
		c-0.05-0.04-0.12-0.06-0.22-0.06h-0.16v0.71h-0.25V61.51z M111.05,60.58h0.32c0.16,0,0.26-0.02,0.32-0.07s0.09-0.11,0.09-0.18
		c0-0.05-0.01-0.09-0.04-0.13s-0.07-0.07-0.12-0.09s-0.14-0.02-0.26-0.02h-0.31C111.05,60.09,111.05,60.58,111.05,60.58z"/>
	<path class="st0" d="M22.1,51.06c-4.48,0-8.12,3.63-8.15,8.1c1.42,0.18,5.24-0.01,11.32-5.11c0,0-2.36,4.29-10.32,9.06
		c0.28,0.51,0.6,0.97,0.97,1.41c1.34-0.85,4.59-3.34,10.07-10.02c0,0-1.79,5.95-7.16,12.17c0.51,0.22,1.05,0.4,1.61,0.52
		c2-2.15,4.92-6.11,6.64-12.23c0,0-0.3,6.86-1,11.36c2.48-1.4,4.17-4.06,4.17-7.11C30.26,54.72,26.6,51.06,22.1,51.06"/>
	<path class="st0" d="M15.22,38.69L11.24,52.6c0,0-3.69,8.52,3.11,12.86c-1.38-1.71-2.21-3.88-2.21-6.25c0-5.5,4.46-9.96,9.96-9.96
		s9.96,4.46,9.96,9.96c0,0.17,0,0.35-0.02,0.52c0.28-0.95,0.38-1.6,0.38-1.6L38.4,38.7H15.22V38.69z"/>
</g>
</svg>
