<?xml version="1.0" encoding="utf-8"?>
<!-- Generator: Adobe Illustrator 24.2.3, SVG Export Plug-In . SVG Version: 6.00 Build 0)  -->
<svg version="1.1" id="Capa_1" xmlns="http://www.w3.org/2000/svg" xmlns:xlink="http://www.w3.org/1999/xlink" x="0px" y="0px"
	 viewBox="0 0 122 111" style="enable-background:new 0 0 122 111;" xml:space="preserve">
<style type="text/css">
	.st0{fill:#211F1F;}
</style>
<g>
	<polygon class="st0" points="102.54,51.5 102.18,54.1 101.9,56.11 101.9,56.12 101.71,57.47 101.46,59.29 101.1,61.89 97.53,61.89 
		97.91,59.29 98.19,57.47 98.7,54.1 99.09,51.5 	"/>
	<polygon class="st0" points="54.31,59.29 54.23,61.89 41.32,61.89 41.75,59.29 42.05,57.47 42.6,54.1 43.03,51.5 46.54,51.5 
		46.12,54.1 45.57,57.47 45.27,59.29 	"/>
	<path class="st0" d="M37.81,54.97l-0.34,2.5l-0.12,0.9c-0.08,0.53-0.53,0.93-1.07,0.93h-6.33c-0.56,0-0.97-0.51-0.85-1.06
		l0.16-0.77l0.56-2.61c0.09-0.44,0.48-0.75,0.93-0.75h6.32C37.52,54.1,37.87,54.51,37.81,54.97z M40.84,59.47l0.07-0.17L41,57.47
		l0.16-3.37l0.03-0.6c0.01-0.28-0.05-0.55-0.18-0.8l-0.35-0.66c-0.18-0.34-0.53-0.54-0.91-0.54H28.69c-0.34,0-0.66,0.12-0.92,0.34
		l-1.64,1.41l-0.1,0.85l-0.39,3.37l-0.21,1.83l-0.01,0.08c-0.04,0.35,0.05,0.7,0.27,0.99l0.73,0.96c0.27,0.36,0.7,0.57,1.15,0.57
		h10.36c0.32,0,0.83-0.03,1.05-0.25l0.29-0.18L40.84,59.47z"/>
	<polygon class="st0" points="66.74,51.5 66.28,54.1 61.15,54.1 60.46,57.47 60.09,59.29 59.55,61.89 56.02,61.89 56.56,59.29 
		56.94,57.47 57.63,54.1 52.19,54.1 52.59,51.5 	"/>
	<path class="st0" d="M96.53,60.05l-0.36-0.75l-0.87-1.83l-1.61-3.37l-1.24-2.6h-4.13l-1.91,2.6l-2.47,3.37L82.6,59.3l-0.55,0.75
		l-1.14,1.55l-0.22,0.3h3.64l1.45-1.84h6.62l1.39,1.84h3.62L96.53,60.05z M88.07,56.97l1.34-1.61c0.19-0.22,0.52-0.24,0.73-0.03
		l1.64,1.64c0.19,0.19,0.05,0.5-0.21,0.5H88.3C88.04,57.47,87.9,57.17,88.07,56.97z"/>
	<polygon class="st0" points="110.19,54.1 106.02,56.5 107.31,57.47 109.75,59.29 112.17,61.11 112.09,61.89 107.42,61.89 
		104.14,59.29 102.88,58.3 102.41,57.93 102.41,55.75 103.75,54.8 104.72,54.1 108.36,51.5 113.13,51.5 113.03,52.47 	"/>
	<path class="st0" d="M70.81,58.62h3.4l3.04,3.27h2.82l0.03-1.2l-1.87-2.07l-0.06-0.07l2.43-1.08l0.06-0.03h0.01
		c0.45-0.26,0.82-0.64,1.09-1.08c0.28-0.46,0.44-1,0.44-1.58v-0.42c0-0.09,0-0.18-0.01-0.27c-0.1-1.17-0.85-2.15-1.89-2.58H67.7
		l-0.47,2.6l-0.41,2.26l-0.2,1.11l-0.21,1.15l-0.12,0.68l-0.47,2.6h3.78l0.4-3.29l0.15-1.15l0.15-1.11l0.01-0.11l0.06-0.47
		l0.02-0.13l0.14-1.09c0.03-0.26,0.25-0.46,0.52-0.46h6.33c0.29,0,0.52,0.23,0.52,0.52v0.02l-0.05,1.21c0,0.01,0,0.03,0,0.04
		c-0.03,0.26-0.25,0.46-0.52,0.46h-6.92L70.81,58.62z"/>
	<g>
		<path class="st0" d="M25.09,53.05c-0.31-0.89-1.16-1.54-2.16-1.54H11.01l-0.88,4.56L9,61.89h13.37c1.26,0,2.29-1.03,2.29-2.29
			v-0.62c0-0.6-0.23-1.15-0.61-1.56l0.9-2.55v-0.01l0.23-0.64v-0.01c0.03-0.14,0.04-0.28,0.04-0.43
			C25.22,53.53,25.18,53.28,25.09,53.05z M20.27,59.29h-6.38c-0.41,0-0.75-0.34-0.75-0.75s0.34-0.75,0.75-0.75h6.38
			c0.41,0,0.75,0.34,0.75,0.75C21.01,58.96,20.68,59.29,20.27,59.29z M20.87,55.34H14.3c-0.34,0-0.62-0.28-0.62-0.62
			s0.28-0.62,0.62-0.62h6.58c0.34,0,0.62,0.28,0.62,0.62C21.49,55.06,21.21,55.34,20.87,55.34z"/>
	</g>
</g>
</svg>
