<?xml version="1.0" encoding="utf-8"?>
<!-- Generator: Adobe Illustrator 24.2.3, SVG Export Plug-In . SVG Version: 6.00 Build 0)  -->
<svg version="1.1" id="Capa_1" xmlns="http://www.w3.org/2000/svg" xmlns:xlink="http://www.w3.org/1999/xlink" x="0px" y="0px"
	 viewBox="0 0 122 111" style="enable-background:new 0 0 122 111;" xml:space="preserve">
<style type="text/css">
	.st0{fill:#211F1F;}
	.st1{fill-rule:evenodd;clip-rule:evenodd;fill:#211F1F;}
</style>
<g>
	<path class="st0" d="M71.72,63.36c-1.51,0.54-5.26,2.09-5.43,3.14c-0.18,1.05-0.01,0.89-0.48,1.85c-0.07,0.14-1.1,0.68-1.32,0.92
		c-0.67,0.7-1.51,1.77-1.51,1.77s1.01,1.91,1.43,1.33c0.6-0.83,1.02-2.34,2.14-2.94c1.11-0.59,1.97-2.26,4.38-3.96
		c2.4-1.71,3.64-1.73,3.92-2.22C74.04,63.1,72.86,62.95,71.72,63.36"/>
	<path class="st0" d="M95.48,61.46c-0.08,0.06-0.15,0.13-0.23,0.22c-0.63,0.69-0.77,1.36-1.57,1.84c-0.82,0.49-1.66,1.13-2.65,1.21
		c-1.23,0.1-2.41,0.35-2.41,0.35s-0.33,1.59-0.28,2.41c0.01,0.1,1.53-0.77,1.65-0.83c0.62-0.35,1.12-0.46,1.81-0.53
		c1.17-0.11,2.44-0.08,3.58-0.39c0.75-0.2,0.97-0.39,1.15-0.72c0.72-1.35,0.8-2.47,0.62-3.95C96.43,61.1,95.95,61.09,95.48,61.46"/>
	<path class="st1" d="M19.61,53.71c1.22,0.08,1.78-0.51,1.66-1.77c-0.29-0.23-0.65-0.39-1.22-0.33
		C19.8,52.2,19.72,52.98,19.61,53.71"/>
	<path class="st1" d="M61.37,55.59h1.22c0.01-0.94-0.03-1.82-0.22-2.55C62.05,53.91,61.77,54.81,61.37,55.59"/>
	<path class="st1" d="M19.16,56.37c-0.21,0.71-0.34,1.5-0.44,2.32c1.3,0.09,2.16-0.77,1.77-2C20.2,56.45,19.77,56.32,19.16,56.37"/>
	<path class="st1" d="M84.08,51.94c-1.82,0.3-2.71,6.03-1.1,6.54C85.53,59.28,86.75,51.5,84.08,51.94"/>
	<path class="st1" d="M109.75,47.82c-0.36-0.51-0.94-0.91-2.26-1.44s-3.25,0.46-3.25,0.46l-0.6-0.14c0,0-0.58-1.05-1.7-1.87
		c-1.12-0.82-0.48-1.85-5.84-2.33c-5.61-0.5-13.76,4.41-16.35,6.19c-0.52,0.35-0.82,0.88-0.82,0.88s-1.57,0.13-3.55,0.92
		c0.22-1.43,0.39-2.56,0.39-2.66h-6.64c-0.28,1.34-0.53,2.81-0.78,4.21c-0.25,1.5-0.41,2.95-0.88,4.1
		c-0.24-2.86-0.66-5.55-0.99-8.31h-6.76c-0.83,1.57-1.38,3.42-2.32,4.87c0.32-1.59,0.58-3.26,0.88-4.87H26.59
		c-0.16,0.91-0.13,2.01-0.55,2.66c-0.83-3.67-6.56-2.45-10.86-2.66c-0.84,4.88-1.82,9.62-2.55,14.62c4.26-0.2,8.83,0.61,11.3-1.22
		c0.7-0.52,0.92-1.25,1.55-1.88c0.74,3.47,7.02,4.3,9.86,2.21c0.64-0.47,0.75-1.1,1.33-1.44c-0.15,0.78-0.25,1.6-0.44,2.32h6.65
		c0.44-1.41,0.43-3.26,1-4.54c0.38,0.02,1.78-0.11,2.33,0.11c-0.14,1.49-0.69,3.14-0.67,4.43h6.54c0.35-1.46,0.49-3.13,0.89-4.54
		c0.78,0.05,1.75-0.08,2.22,0c-0.67,1.5-1.4,2.96-1.99,4.54h6.76c0.54-0.9,0.54-2.57,1.55-2.99c0.19,0.91,0.19,2.02,0.33,2.99h4.28
		c-0.13,0.27-0.26,0.48-0.38,0.63c0,0-1.98,1.82-2.89,2.44s-2.68,1.28-2.68,1.28s0.02,1.05-0.16,1.41
		c-0.19,0.35-1.09,1.23-1.44,1.43s-0.66,1.5-0.66,1.5s1.58,3.01,1.82,2.58c0.24-0.43,0.1-2.83,0.76-3.41
		c0.66-0.57,1.9-1.06,2.68-1.72s1.15-1.05,1.68-2.05c0.52-1,0.95-1.08,1.98-1.78c1.03-0.71,3.35-1.34,4.86-1.88
		c0.59-0.21,1.33-0.39,2.06-0.42h0.53c0.38,0.02,0.74,0.08,1.06,0.22c0.9,0.37,0.98,0.6,1.63-0.12c0.58-0.65,0.63-0.64,1.65-0.49
		c0.89,0.13,1.82,0.17,2.73,0.21c1.52,0.06,4.1,0.41,5.31-0.64c-0.92,0.8-2.14,0.94-3.08,1.72c-0.39,0.32-0.7,0.72-0.91,1.18
		c-0.13,0.29-0.78,1.56-0.32,1.6c0.16,0.01,1.52-0.8,1.52-0.8s3.48-0.95,4.91-0.94c1.2,0.02,2.45,0.08,3.58-0.41
		c0.77-0.34,2.49-2.19,2.68-2.88c0.2-0.71,2.33-0.52,2.85-0.52s1.1-0.08,1.59,0.12c0.53,0.22,0.82,0.79,1.42,0.88
		c1.16,0.18,1.9-0.88,2.85-1.3c0.63-0.28,1.09-0.04,1.66-0.46c0.66-0.5,1.21-1.4,1.7-2.07c1.04-1.44,1.94-3.01,2.52-4.7
		C110.12,51.48,110.1,48.33,109.75,47.82 M23.82,59.8c-1.74,1.99-6.05,1.3-9.53,1.44c0.53-4.04,1.4-7.75,1.99-11.74
		c-0.01-0.19,0.08-0.29,0.22-0.33c3.02,0.31,7.1-0.83,8.31,1.22c0.9,1.53,0,3.63-1.44,4.32C25.22,55.66,24.89,58.58,23.82,59.8
		 M36.89,54.71c-0.33,1.87-0.47,3.81-1.44,5.1c-2.11,2.79-8.28,2.06-8.86-1.44c-0.5-3.05,1.19-6.2,1.22-9.19h4.1
		c-0.23,2.45-0.9,4.55-1.22,7.31c-0.08,0.67-0.32,1.83,0.45,2.1c1.89,0.67,2-2.81,2.21-4.1c0.33-1.96,0.66-3.65,1-5.32h3.55
		C37.63,50.98,37.23,52.83,36.89,54.71 M46.2,56.59c-0.67,0.01-2.65,0.01-3.32,0c-0.37,1.48-0.58,3.11-0.88,4.65h-4
		c0.58-4.15,1.37-8.08,2.11-12.07h7.53c-0.02,1.08-0.29,1.92-0.44,2.88c-0.93-0.25-2.32-0.05-3.43-0.11
		c-0.33,0.41-0.25,1.22-0.44,1.77c0.89,0.26,2.25,0.04,3.32,0.11C46.55,54.81,46.28,55.61,46.2,56.59 M52.06,56.7
		c-0.46,1.35-0.58,3.04-0.88,4.54h-3.99c0.4-3.84,1.47-7.99,1.99-12.07h7.64c-0.09,0.98-0.28,1.87-0.44,2.77h-3.44
		c-0.37,0.37-0.3,1.17-0.44,1.77c0.85,0.26,2.18,0.04,3.21,0.11c0.16,0.77-0.37,1.76-0.33,2.77C54.31,56.66,52.96,56.45,52.06,56.7
		 M66.62,61.24h-3.48c-0.22-0.85-0.1-2.04-0.33-2.88c-0.55,0-1.81-0.06-2.44,0c-0.52,0.85-0.74,1.99-1.22,2.88h-3.76
		c0.22-0.99,0.67-2.02,1.1-2.99c1.26-2.8,2.78-5.81,3.99-8.75c0.06-0.09,0.12-0.18,0.11-0.33h4.88c0.45,3.76,1.08,7.85,1.38,11.5
		C66.78,60.87,66.69,61.06,66.62,61.24 M75.99,61.24h-7.76c0.5-3.78,2.1-12.07,2.1-12.07h3.99c0,0-1.17,6.83-1.55,9.19h3.66
		C76.4,59.44,76.08,60.22,75.99,61.24 M87.51,60.03c-2.3,1.99-7.15,1.97-8.75-0.67c-1.88-3.09-0.27-7.79,1.77-9.31
		c0.7-0.52,1.75-0.86,2.99-0.99c3.91-0.44,6.13,1.41,6.2,5.09C89.78,56.59,88.72,58.97,87.51,60.03 M104.79,54.43
		c0.39,0.38-0.35,1.92,0.22,2.55C103.58,57.04,103.87,54.71,104.79,54.43 M105.23,52.99c-0.52-0.16-1.19-0.49-1.66-0.11
		c-0.15-1.41,0.83-2.42,1.66-3.21c0.83-0.8,1.9-1.59,3.1-1.88C106.75,48.96,105.9,50.89,105.23,52.99"/>
</g>
</svg>
