<?xml version="1.0" encoding="utf-8"?>
<!-- Generator: Adobe Illustrator 24.2.3, SVG Export Plug-In . SVG Version: 6.00 Build 0)  -->
<svg version="1.1" id="Capa_1" xmlns="http://www.w3.org/2000/svg" xmlns:xlink="http://www.w3.org/1999/xlink" x="0px" y="0px"
	 viewBox="0 0 122 111" style="enable-background:new 0 0 122 111;" xml:space="preserve">
<style type="text/css">
	.st0{fill:#211F1F;}
</style>
<g>
	<path class="st0" d="M108,60.49H95.34v-0.41H108V60.49z M101.66,58.08l1.19-1.14l0.49,0.49l-1.29,1.09
		c-0.1,0.13-0.18,0.34-0.24,0.46h-0.95C100.92,58.63,101.42,58.19,101.66,58.08 M97.68,50.79l-0.98,0.27c0,0-0.44,0.17-0.64,0.3
		c-0.19,0.13-0.41,0.35-0.43,0.46l0.84,0.19c0.13-0.14,0.27-0.3,0.4-0.4l0.19-0.09l0.7-0.71C97.77,50.82,97.75,50.78,97.68,50.79
		 M103.41,53.11c-0.54-0.6-1-1.15-1.44-1.81c0.28-0.55,0.5-1.98,0.37-2.54c-0.06-0.17-0.52-0.79-0.6-0.88
		c-0.11-0.11-0.49-0.54-0.67-0.54l-0.09,0.03l0.05,0.48c-0.51,0.32-1.17,0.76-1.76,1.2c0,0.17,0.01,0.43,0.03,0.52
		c0.09,0.08,0.19,0.14,0.31,0.18c0.24-0.04,0.96-0.22,1.16-0.19l-0.71,1.07l-0.82,0.59l-1.03-0.32c-0.06-0.01-0.13,0-0.17,0.05
		l-0.75,0.82c-0.04,0.04-0.06,0.08-0.06,0.17l-0.02,0.92c0,0-0.01,0.14-0.01,0.3c0,0.66,0.3,0.97,0.3,0.97l0.5-0.71
		c-0.07-0.1-0.19-0.39-0.21-0.52l0.01-0.79l0.48-0.36l1.27,0.9c0,0,0.35,0.65,0.69,1.04c0.22,0.27,1.32,1.01,1.85,1.32
		c0.05,0.28,0.17,0.75,0.26,1l1.56,1.6l-0.92,1.15c-0.33,0.21-0.64,0.59-0.61,0.93h1.07l0.12-0.61l1.27-1.41
		c0.06-0.08,0.06-0.12,0.02-0.23l-0.36-1.22c0.18-0.21,0.57-0.72,0.57-1.35C105.03,53.72,103.8,53.44,103.41,53.11 M105.41,54.99
		c-0.08-0.3-0.19-0.64-0.29-0.8c0,0,0.05-0.05,0.16,0.01c0.11,0.06,0.76,0.52,0.76,0.52c0.34,0.49,0.54,2.51,0.56,3.24
		c-0.31-0.14-0.75-0.39-1.04-0.66L105.41,54.99z"/>
	<path class="st0" d="M72.52,54.55c0-0.78-0.25-1.38-0.92-1.38c-0.68,0-0.95,0.61-0.95,1.38v5.12h0.79v0.82h-4.33v-0.82h0.8v-7.05
		h-0.8v-0.79h3.41v1.32h0.03c0.32-0.73,1.08-1.49,2.28-1.49c1.27,0,2.05,0.78,2.3,1.8c0.09,0.4,0.12,1.06,0.12,1.4v4.81h1.04v0.82
		h-3.77L72.52,54.55 M55.03,54.55c0-0.78-0.25-1.38-0.92-1.38s-0.95,0.61-0.95,1.38v5.12h0.79v0.82h-4.33v-0.82h0.8v-7.05h-0.8
		v-0.79h3.4v1.32h0.04c0.32-0.73,1.07-1.49,2.28-1.49c1.27,0,2.05,0.78,2.29,1.8c0.09,0.4,0.12,1.06,0.12,1.4v4.81h1.03v0.82h-3.77
		v-5.94H55.03z M79.96,52.62v6.4c0,0.44,0.29,0.54,0.56,0.54c0.26,0,0.5-0.09,0.5-0.09v0.79c0,0-0.51,0.32-1.67,0.32
		c-1.35,0-2.14-0.66-2.14-2.06v-5.91h-0.92v-0.58c1.02-0.82,2.22-1.75,3.16-2.54h0.51v2.33h1.32v0.79L79.96,52.62L79.96,52.62z
		 M25.94,47.33c0,0,2.09,2.09,3.05,3.16v0.82c-0.89-0.95-2.75-1.74-4.47-1.74c-3.9,0-6.35,2.94-6.35,6.58
		c0,3.63,2.32,6.57,6.35,6.57c2.01,0,3.61-0.95,4.51-1.92v0.78c-1.22,1.67-3.44,2.76-6.22,2.76c-4.97,0-8.38-3.6-8.38-8.19
		s3.79-8.18,8.38-8.18c1.16,0,2.21,0.2,3.13,0.52C25.94,48.49,25.94,47.33,25.94,47.33z M65.86,58.18c-0.39,0.45-1,0.8-1.91,0.8
		c-0.79,0-2.01-0.44-2.06-2.45h4.63c0.01-0.15,0.02-0.47,0.02-0.62c0-2.43-1-4.25-3.6-4.25c-2.62,0-3.95,2.01-3.95,4.51
		s1.33,4.47,3.95,4.47c1.68,0,2.75-0.79,3.37-2.03L65.86,58.18z M61.89,55.69c0-2.28,0.18-3.14,0.96-3.14
		c0.79,0,0.94,0.83,0.97,3.14H61.89z M23.68,56.13c0-2.65,0.25-3.81,1.14-3.81s1.14,1.17,1.14,3.81c0,2.64-0.25,3.81-1.14,3.81
		C23.93,59.94,23.68,58.78,23.68,56.13 M20.47,56.16c0,2.62,1.61,4.74,4.36,4.74s4.35-2.12,4.35-4.74s-1.61-4.74-4.35-4.74
		C22.07,51.42,20.47,53.54,20.47,56.16 M35.31,54.55c0-0.78-0.25-1.38-0.92-1.38s-0.95,0.61-0.95,1.38v5.12h0.79v0.82H29.9v-0.82
		h0.8v-7.05h-0.8v-0.79h3.41v1.32h0.04c0.32-0.73,1.07-1.49,2.28-1.49c1.27,0,2.05,0.78,2.3,1.8c0.09,0.4,0.12,1.06,0.12,1.4v4.81
		h1.03v0.82h-3.77C35.31,60.49,35.31,54.55,35.31,54.55z M45.11,49.53c0,0.77,0.69,1.27,1.67,1.27s1.67-0.51,1.67-1.27
		c0-0.76-0.68-1.26-1.67-1.26C45.8,48.27,45.11,48.77,45.11,49.53 M42.75,52.62v6.4c0,0.44,0.28,0.54,0.56,0.54
		c0.26,0,0.5-0.09,0.5-0.09v0.79c0,0-0.52,0.32-1.67,0.32c-1.35,0-2.14-0.66-2.14-2.06v-5.91h-0.92v-0.58
		c1.03-0.82,2.22-1.75,3.16-2.54h0.51v2.33h1.06v0.79L42.75,52.62L42.75,52.62z M93.3,59.67h1.06v0.82h-3.8V49.42h-0.95v-0.79h3.68
		v11.04H93.3z M85.99,56.2c-0.08-0.08-0.25-0.18-0.6-0.18c-0.81,0-0.99,0.81-0.99,1.63s0.24,1.48,0.94,1.48
		c0.33,0,0.54-0.15,0.65-0.26C85.99,58.87,85.99,56.2,85.99,56.2z M86.11,59.45h-0.04c-0.51,0.71-1.18,1.19-2.22,1.19
		c-1.41,0-2.29-1.2-2.29-2.64c0-1.74,1.23-2.84,3.2-2.84c0.81,0,1.23,0.18,1.23,0.18V54.8c0-1.05-0.65-1.61-1.59-1.61
		c-1.31,0-1.99,1.01-1.99,1.01l-0.48-0.58c0.87-1.35,2.21-1.96,3.45-1.96c2.1,0,3.35,1.24,3.35,3.13v4.87h0.88v0.82h-3.5
		C86.11,60.48,86.11,59.45,86.11,59.45z M44.6,60.49v-0.82h0.79v-7.05H44.6v-0.79h3.53v7.84h0.8v0.82H44.6z"/>
</g>
</svg>
