<?xml version="1.0" encoding="utf-8"?>
<!-- Generator: Adobe Illustrator 24.2.3, SVG Export Plug-In . SVG Version: 6.00 Build 0)  -->
<svg version="1.1" id="Capa_1" xmlns="http://www.w3.org/2000/svg" xmlns:xlink="http://www.w3.org/1999/xlink" x="0px" y="0px"
	 viewBox="0 0 122 111" style="enable-background:new 0 0 122 111;" xml:space="preserve">
<style type="text/css">
	.st0{fill-rule:evenodd;clip-rule:evenodd;fill:#211F1F;}
</style>
<g>
	<path class="st0" d="M14.84,41.11c0.11-0.11,0.17-0.23,0.17-0.34c0-0.14-0.07-0.25-0.21-0.34c-0.06-0.03-0.17-0.06-0.34-0.09
		s-0.35-0.06-0.53-0.11c-0.18-0.04-0.35-0.09-0.51-0.15c-0.15-0.06-0.23-0.13-0.23-0.21c0-0.17,0.33-0.33,0.98-0.47
		c0.57-0.14,1.14-0.24,1.72-0.3c0.58-0.06,1.15-0.09,1.72-0.09c2.74,0,5.32,0.23,7.74,0.7s4.87,1.18,7.36,2.15
		c1.16,0.45,2.38,0.98,3.65,1.59s2.52,1.29,3.73,2.04c1.22,0.75,2.37,1.57,3.46,2.46s2.05,1.85,2.89,2.86
		c0.83,1.02,1.49,2.09,1.97,3.22s0.72,2.3,0.72,3.52c0,1.24-0.24,2.31-0.72,3.2S47.29,62.39,46.5,63s-1.7,1.1-2.71,1.46
		c-1.02,0.37-2.05,0.65-3.1,0.85s-2.07,0.33-3.05,0.38c-0.99,0.06-1.87,0.09-2.63,0.09c-0.54,0-1.17-0.05-1.91-0.15
		c-0.73-0.1-1.44-0.35-2.12-0.74l-0.04-9.04c0.17-0.06,0.32-0.1,0.47-0.13c0.14-0.03,0.35-0.04,0.64-0.04c0.82,0,1.7,0.06,2.63,0.19
		c0.93,0.13,1.81,0.3,2.63,0.51s1.54,0.44,2.14,0.7c0.61,0.25,1.03,0.51,1.25,0.76c-0.14,0.28-0.4,0.58-0.78,0.89
		c-0.38,0.31-0.73,0.64-1.04,0.98c0.23,0.17,0.53,0.3,0.91,0.4c0.38,0.1,0.7,0.15,0.95,0.15c0.34,0,0.69-0.1,1.04-0.3
		c0.35-0.2,0.66-0.45,0.93-0.74c0.27-0.3,0.49-0.62,0.66-0.96s0.26-0.64,0.26-0.89c0-0.71-0.23-1.32-0.68-1.83
		c-0.45-0.51-1.04-0.95-1.76-1.31c-0.72-0.37-1.53-0.67-2.42-0.91c-0.89-0.24-1.77-0.42-2.65-0.55s-1.7-0.22-2.48-0.27
		c-0.78-0.06-1.41-0.08-1.89-0.08h-0.59c-0.06-0.48-0.1-0.94-0.13-1.36c-0.03-0.43-0.06-0.85-0.08-1.27
		c-0.06-0.96-0.18-1.79-0.38-2.48c-0.2-0.69-0.68-1.35-1.44-1.97c-0.25,0.2-0.47,0.59-0.64,1.17c-0.17,0.58-0.31,1.19-0.42,1.82
		c-0.11,0.64-0.2,1.22-0.27,1.76c-0.07,0.54-0.11,0.86-0.11,0.98l-0.08,1.7c-2.04,0.37-3.73,0.77-5.07,1.21s-2.51,1.03-3.5,1.76
		c-0.9,0.65-1.36,1.29-1.36,1.91c0,0.65,0.22,1.3,0.66,1.93c0.44,0.64,0.9,1.21,1.38,1.72c0.57,0.65,1.46,1.44,2.69,2.36
		s2.81,1.93,4.73,3.03c0.11,0.65,0.24,1.26,0.38,1.83s0.37,1.05,0.68,1.44l0.98,0.08c0.28,0,0.54-0.01,0.76-0.04
		s0.45-0.07,0.68-0.13c0.14-0.48,0.25-0.84,0.32-1.08c0.07-0.24,0.13-0.47,0.19-0.7c0.93,0.14,1.94,0.28,3.03,0.42
		s2.12,0.21,3.08,0.21c1.89,0,3.78-0.23,5.66-0.68s3.57-1.15,5.07-2.08s2.71-2.1,3.65-3.5c0.93-1.4,1.4-3.06,1.4-4.98
		c0-1.45-0.32-2.84-0.96-4.2s-1.48-2.65-2.54-3.88s-2.26-2.39-3.58-3.48c-1.33-1.09-2.69-2.07-4.09-2.95s-2.76-1.65-4.09-2.31
		s-2.52-1.18-3.56-1.55c-1.02-0.37-2.07-0.72-3.16-1.04c-1.09-0.33-2.18-0.6-3.29-0.83c-1.1-0.23-2.18-0.41-3.22-0.55
		c-1.05-0.14-2.04-0.21-2.97-0.21c-0.73,0-1.65,0.03-2.74,0.09s-2.15,0.21-3.18,0.47c-1.03,0.25-1.92,0.65-2.65,1.19
		c-0.74,0.54-1.1,1.29-1.1,2.25c0,0.28,0.22,0.47,0.66,0.55c0.44,0.08,0.88,0.13,1.33,0.13c0.23,0,0.43-0.01,0.62-0.02
		C14.62,41.12,14.75,41.11,14.84,41.11 M27.39,55.83l-0.34,8.1c-0.99-0.23-1.95-0.57-2.89-1.02c-0.93-0.45-1.74-0.95-2.42-1.48
		c-0.28-0.23-0.6-0.48-0.95-0.74c-0.35-0.27-0.69-0.55-1-0.85s-0.57-0.6-0.79-0.91c-0.21-0.31-0.32-0.61-0.32-0.89
		c0-0.37,0.26-0.67,0.78-0.89s1.19-0.42,1.99-0.59c0.81-0.17,1.7-0.3,2.67-0.4c0.98-0.1,1.92-0.2,2.82-0.32L27.39,55.83L27.39,55.83
		z M62.6,44.29c-0.11-0.4-0.47-0.73-1.06-1.02c-0.59-0.28-1.3-0.43-2.12-0.43c-0.88,0-1.75,0.19-2.61,0.55
		c-0.86,0.37-1.63,0.83-2.31,1.4s-1.23,1.18-1.65,1.85c-0.42,0.67-0.64,1.31-0.64,1.93c0,0.43,0.08,0.81,0.25,1.15
		s0.41,0.71,0.72,1.1c-0.03,0.09-0.06,0.19-0.08,0.32c-0.03,0.13-0.04,0.23-0.04,0.32c0.06,0.4,0.18,0.75,0.36,1.06
		s0.37,0.49,0.57,0.55c0.28-0.06,0.49-0.18,0.62-0.36c0.13-0.18,0.29-0.39,0.49-0.62c0.34,0.11,0.72,0.2,1.15,0.26
		c0.42,0.06,0.83,0.09,1.23,0.09c0.62,0,1.36-0.19,2.21-0.55c0.85-0.37,1.65-0.85,2.42-1.44c0.76-0.6,1.41-1.26,1.95-2
		c0.54-0.74,0.81-1.46,0.81-2.16c0-0.34-0.08-0.64-0.23-0.89c-0.16-0.25-0.35-0.47-0.57-0.64c-0.23-0.17-0.45-0.3-0.68-0.38
		c-0.22-0.09-0.42-0.13-0.59-0.13c-0.06,0-0.09,0.01-0.11,0.02C62.65,44.29,62.63,44.29,62.6,44.29 M56.11,54.56
		c-0.11,0-0.18,0.09-0.21,0.25c-0.25,1.9-0.42,3.36-0.49,4.39c-0.07,1.03-0.12,1.69-0.15,1.97c-0.03,0.48-0.05,0.87-0.06,1.17
		c-0.01,0.3-0.03,0.57-0.04,0.81c-0.01,0.24-0.02,0.5-0.02,0.79v1.15c0,0.08,0.02,0.23,0.06,0.44s0.09,0.43,0.15,0.64
		s0.13,0.41,0.21,0.6c0.08,0.18,0.2,0.29,0.34,0.32c0.14,0.06,0.31,0.11,0.51,0.15c0.2,0.04,0.37,0.06,0.51,0.06
		c0.48,0,0.8-0.14,0.96-0.43c0.15-0.28,0.23-0.58,0.23-0.89c0-1.5-0.05-3.02-0.15-4.56c-0.1-1.54-0.18-3.07-0.23-4.6
		c-0.06-0.74-0.17-1.29-0.34-1.66C57.21,54.79,56.79,54.59,56.11,54.56 M56.28,49.94c0.37-0.51,0.78-1.02,1.23-1.53
		s0.93-0.96,1.42-1.36c0.49-0.4,1.01-0.71,1.55-0.95s1.08-0.36,1.61-0.36c0.48,0,0.76,0.09,0.85,0.28c0.08,0.18,0.13,0.4,0.13,0.66
		c0,0.57-0.21,1.08-0.64,1.53c-0.42,0.45-0.93,0.83-1.53,1.12c-0.59,0.3-1.22,0.52-1.87,0.68c-0.65,0.16-1.2,0.23-1.65,0.23h-0.81
		c-0.06,0-0.12-0.04-0.19-0.11C56.31,50.06,56.28,49.99,56.28,49.94 M54.03,48.58c0.06-0.73,0.37-1.41,0.93-2.01
		c0.57-0.61,1.31-1,2.25-1.17c0.03,0.03,0.04,0.09,0.04,0.17v0.04c-0.23,0.2-0.48,0.43-0.76,0.7s-0.56,0.55-0.83,0.83
		c-0.27,0.28-0.52,0.55-0.76,0.81c-0.24,0.26-0.42,0.47-0.53,0.64c-0.06,0.06-0.13,0.09-0.21,0.09
		C54.13,48.66,54.09,48.63,54.03,48.58 M61.63,58.16c0,0.06,0.03,0.09,0.08,0.09c0.74,0.28,1.39,0.47,1.95,0.57
		c0.57,0.1,1.23,0.18,1.99,0.23c0.65,0.06,1.35,0.12,2.1,0.17c0.75,0.06,1.45,0.21,2.1,0.45s1.19,0.61,1.61,1.1
		c0.42,0.5,0.64,1.2,0.64,2.1c0,1.02-0.25,1.82-0.74,2.4s-1.07,1.01-1.72,1.29s-1.29,0.46-1.93,0.53s-1.11,0.11-1.42,0.11
		c-0.82,0-1.6-0.11-2.33-0.34c-0.73-0.23-1.38-0.51-1.93-0.87c-0.55-0.35-1-0.74-1.33-1.17c-0.34-0.42-0.51-0.83-0.51-1.23
		c0-0.45,0.11-0.83,0.32-1.15c0.21-0.31,0.49-0.56,0.83-0.74s0.71-0.31,1.12-0.38s0.82-0.11,1.21-0.11c0.74,0,1.54,0.1,2.42,0.3
		s1.71,0.5,2.5,0.89c0.06,0.06,0.08,0.11,0.08,0.17c0,0.09-0.03,0.16-0.08,0.21c-0.14,0.14-0.42,0.3-0.83,0.49
		c-0.41,0.19-0.85,0.28-1.33,0.28c-0.28,0-0.59-0.05-0.91-0.15c-0.32-0.1-0.66-0.21-1.02-0.32c-0.35-0.11-0.71-0.22-1.08-0.32
		c-0.37-0.1-0.74-0.15-1.1-0.15c-0.28,0-0.55,0.06-0.81,0.17c-0.25,0.11-0.38,0.38-0.38,0.81c0,0.23,0.1,0.4,0.3,0.53
		s0.44,0.22,0.74,0.28c0.29,0.06,0.63,0.09,1,0.11c0.37,0.01,0.72,0.02,1.06,0.02c0.17,0,0.58-0.04,1.23-0.11s1.33-0.19,2.04-0.36
		s1.33-0.38,1.89-0.64c0.55-0.25,0.83-0.55,0.83-0.89S70,61.9,69.56,61.66c-0.44-0.24-0.96-0.44-1.57-0.6
		c-0.61-0.15-1.23-0.27-1.87-0.36c-0.64-0.08-1.15-0.13-1.55-0.13c-1.1-0.03-1.98-0.09-2.63-0.17c-0.65-0.08-1.15-0.21-1.51-0.38
		c-0.35-0.17-0.58-0.38-0.68-0.64c-0.1-0.25-0.15-0.58-0.15-0.98c0-0.59,0.18-1.1,0.53-1.53c0.35-0.42,0.81-0.78,1.36-1.06
		c0.55-0.28,1.14-0.51,1.78-0.68c0.64-0.17,1.24-0.3,1.8-0.38c0.57-0.08,1.05-0.14,1.44-0.17c0.4-0.03,0.62-0.04,0.68-0.04
		c0.96,0,1.85,0.07,2.67,0.21s1.56,0.28,2.21,0.43c0.14,0.03,0.25,0.08,0.32,0.15s0.11,0.22,0.11,0.45
		c-0.03,0.23-0.12,0.41-0.27,0.55c-0.16,0.14-0.35,0.24-0.57,0.3c-0.14,0.06-0.35,0.11-0.64,0.15c-0.28,0.04-0.49,0.08-0.64,0.11
		c-0.34,0.06-0.81,0.11-1.4,0.15c-0.59,0.04-1.22,0.08-1.87,0.13c-0.65,0.04-1.27,0.08-1.87,0.13c-0.59,0.04-1.05,0.09-1.36,0.15
		c-0.62,0.11-1.09,0.2-1.4,0.27s-0.56,0.18-0.76,0.32C61.66,58.09,61.63,58.14,61.63,58.16 M80.13,53.84c0-0.14,0.02-0.3,0.06-0.49
		c0.04-0.18,0.15-0.28,0.32-0.28c0.26,0,0.6,0.21,1.04,0.64c0.44,0.42,0.88,1.03,1.31,1.8c0.44,0.78,0.81,1.7,1.12,2.76
		c0.31,1.06,0.47,2.23,0.47,3.5c0,0.57-0.06,1.14-0.19,1.72c-0.13,0.58-0.31,1.11-0.55,1.59c-0.24,0.48-0.53,0.87-0.87,1.17
		c-0.34,0.3-0.74,0.44-1.19,0.44c-0.34,0-0.69-0.17-1.06-0.51c-0.37-0.34-0.71-0.77-1.04-1.27c-0.33-0.51-0.64-1.06-0.93-1.64
		c-0.3-0.58-0.57-1.12-0.83-1.63c-0.25-0.51-0.47-0.93-0.64-1.27s-0.3-0.51-0.38-0.51c-0.08,0-0.17,0.14-0.26,0.43
		c-0.03,0.11-0.06,0.4-0.08,0.87c-0.03,0.47-0.06,0.99-0.09,1.57c-0.03,0.58-0.06,1.15-0.08,1.72c-0.03,0.56-0.07,0.99-0.13,1.27
		c-0.03,0.14-0.06,0.3-0.11,0.49c-0.04,0.18-0.11,0.37-0.19,0.55s-0.19,0.34-0.32,0.47c-0.13,0.13-0.29,0.19-0.49,0.19
		c-0.28,0-0.51-0.11-0.7-0.32c-0.18-0.21-0.33-0.47-0.42-0.78c-0.1-0.31-0.17-0.63-0.21-0.96c-0.04-0.32-0.06-0.6-0.06-0.83
		c0-0.48,0.06-1.2,0.17-2.16s0.28-1.93,0.49-2.88c0.21-0.96,0.47-1.8,0.78-2.52s0.67-1.08,1.06-1.08c0.28,0,0.62,0.26,1.02,0.77
		c0.4,0.51,0.83,1.12,1.29,1.85c0.47,0.72,0.96,1.48,1.46,2.29c0.51,0.81,1,1.51,1.48,2.1c0.14,0.2,0.23,0.3,0.25,0.3
		c0.14,0,0.21-0.31,0.21-0.94c0-0.85-0.04-1.57-0.13-2.16s-0.2-1.17-0.34-1.72c-0.14-0.55-0.31-1.13-0.51-1.74
		c-0.2-0.61-0.41-1.34-0.64-2.18l-0.13-0.47v-0.15H80.13z M94.04,64.99c-0.26,0.2-0.58,0.44-0.98,0.72s-0.84,0.56-1.34,0.83
		c-0.49,0.27-1.03,0.5-1.61,0.7s-1.18,0.3-1.8,0.3c-1.02,0-1.77-0.32-2.25-0.95c-0.48-0.64-0.72-1.37-0.72-2.19
		c0-0.42,0.1-0.92,0.3-1.49c0.2-0.57,0.41-1.13,0.64-1.7c-0.06-0.2-0.12-0.36-0.19-0.49s-0.11-0.29-0.11-0.49
		c0-0.14,0.02-0.26,0.04-0.36c0.03-0.1,0.07-0.22,0.13-0.36c0.14-0.06,0.3-0.11,0.47-0.17c0.17-0.06,0.34-0.1,0.51-0.13l0.89-2.08
		c-0.42-0.2-0.88-0.42-1.38-0.68c-0.49-0.26-0.74-0.58-0.74-0.98c0-0.23,0.08-0.37,0.25-0.42c0.17-0.06,0.41-0.1,0.72-0.13
		c0.79-0.06,1.68-0.2,2.67-0.42c0.99-0.23,2.25-0.34,3.78-0.34c0.17,0,0.37,0.01,0.59,0.04c0.23,0.03,0.54,0.1,0.93,0.21
		c0.17,0.22,0.41,0.51,0.72,0.85s0.47,0.67,0.47,0.98c0,0.09-0.07,0.18-0.21,0.28s-0.32,0.19-0.53,0.28
		c-0.21,0.08-0.44,0.15-0.68,0.21S94.17,57.1,94,57.1c-0.4,0.03-0.72,0.04-0.98,0.04H92.3c-0.2,0-0.4,0.01-0.59,0.02
		c-0.2,0.01-0.42,0.02-0.68,0.02h-0.3c-0.08,0-0.17,0.02-0.26,0.04c-0.08,0.08-0.18,0.25-0.3,0.49c-0.11,0.24-0.17,0.6-0.17,1.08
		c0,0.09,0.02,0.17,0.06,0.25c0.04,0.09,0.13,0.13,0.28,0.13h2.76l0.55,0.08c0.09,0.14,0.14,0.31,0.17,0.51
		c0.03,0.2,0.04,0.38,0.04,0.55c0,0.14-0.03,0.32-0.08,0.53c-0.06,0.21-0.17,0.33-0.34,0.36c-0.34,0.03-0.89,0.06-1.65,0.08
		c-0.76,0.03-1.61,0.04-2.54,0.04c-0.11,0-0.18,0.04-0.21,0.13c-0.11,0.4-0.25,0.81-0.4,1.25c-0.16,0.44-0.32,0.86-0.49,1.25
		c0.08,0,0.47-0.07,1.15-0.21s1.63-0.27,2.84-0.38c0.17-0.03,0.37-0.05,0.6-0.06c0.22-0.01,0.44-0.02,0.64-0.02
		c0.22,0,0.44,0.13,0.64,0.38c0.2,0.26,0.29,0.51,0.29,0.77C94.3,64.7,94.21,64.88,94.04,64.99 M96.5,77.17
		c0.25-1.05,0.49-2.1,0.72-3.14c0.23-1.05,0.48-2.08,0.76-3.09c0.06-0.2,0.11-0.4,0.17-0.59c0.06-0.2,0.13-0.44,0.21-0.72
		s0.2-0.62,0.34-1.02c0.14-0.39,0.31-0.89,0.51-1.48c0.14-0.03,0.27-0.05,0.4-0.06c0.13-0.02,0.26-0.02,0.4-0.02
		c0.62,0,1.39-0.18,2.29-0.55c0.91-0.37,1.78-0.88,2.63-1.55c0.85-0.66,1.57-1.45,2.16-2.36c0.59-0.9,0.89-1.91,0.89-3.01
		c0-0.37-0.04-0.81-0.11-1.34c-0.07-0.52-0.2-1.02-0.38-1.51c-0.18-0.48-0.43-0.89-0.74-1.23s-0.71-0.51-1.19-0.51
		s-1.05,0.24-1.7,0.72c-0.65,0.48-1.32,1.07-2.02,1.78c-0.69,0.71-1.36,1.45-1.99,2.23c-0.64,0.78-1.18,1.46-1.63,2.06
		c-0.08,0.11-0.14,0.17-0.17,0.17h-0.04c-0.06-0.06-0.09-0.13-0.11-0.21c-0.01-0.09-0.02-0.17-0.02-0.26c0-0.65,0.16-1.32,0.49-2.02
		c0.32-0.69,0.64-1.28,0.95-1.76c0.28-0.43,0.53-0.79,0.74-1.09s0.38-0.55,0.51-0.76c0.13-0.21,0.22-0.41,0.28-0.58
		c0.06-0.17,0.09-0.35,0.09-0.55c0-0.31-0.04-0.55-0.11-0.7c-0.07-0.16-0.23-0.26-0.49-0.32c-0.2,0.03-0.54,0.3-1.02,0.83
		c-0.48,0.52-0.97,1.19-1.48,2s-0.96,1.7-1.36,2.67c-0.4,0.98-0.59,1.95-0.59,2.9c0,0.85,0.23,1.76,0.68,2.71
		c-0.51,1.25-0.94,2.41-1.29,3.5s-0.63,2.06-0.83,2.92c-0.2,0.86-0.34,1.58-0.43,2.14c-0.08,0.57-0.13,0.93-0.13,1.1
		c0,0.79,0.23,1.47,0.68,2.02c0.45,0.55,1.05,0.87,1.78,0.96L96.5,77.17z M101.04,63.85c0.06-0.17,0.18-0.44,0.38-0.83
		c0.2-0.38,0.41-0.79,0.64-1.21c0.22-0.42,0.44-0.82,0.66-1.19c0.21-0.37,0.38-0.62,0.49-0.77c0.14-0.17,0.32-0.39,0.55-0.66
		s0.47-0.53,0.72-0.79c0.25-0.25,0.49-0.47,0.72-0.66c0.22-0.18,0.42-0.27,0.59-0.27c0.22,0,0.36,0.12,0.4,0.36s0.06,0.46,0.06,0.66
		c0,1.53-0.52,2.74-1.57,3.65C103.56,63.14,102.34,63.71,101.04,63.85"/>
</g>
</svg>
