<?xml version="1.0" encoding="utf-8"?>
<!-- Generator: Adobe Illustrator 24.2.3, SVG Export Plug-In . SVG Version: 6.00 Build 0)  -->
<svg version="1.1" id="Capa_1" xmlns="http://www.w3.org/2000/svg" xmlns:xlink="http://www.w3.org/1999/xlink" x="0px" y="0px"
	 viewBox="0 0 122 111" style="enable-background:new 0 0 122 111;" xml:space="preserve">
<style type="text/css">
	.st0{fill:#211F1F;}
</style>
<g>
	<path class="st0" d="M98.87,53.82c-2.39-0.09-2.56,3.09-2.56,3.09c0.35,3.62,2.64,3.36,2.64,3.36s2.18-0.26,2.24-3.36
		C101.3,53.82,98.87,53.82,98.87,53.82 M99.05,51.27c0,0,7.95,0.07,7.95,5.65c0,5.57-8.4,5.48-8.4,5.48s-7.52,0.29-7.76-5.3
		C90.57,50.82,99.05,51.27,99.05,51.27"/>
	<path class="st0" d="M80.68,56.13h2.41c0,0,1.05-0.18,1.05-1.24s-1.05-1.15-1.05-1.15h-2.41V56.13z M75.05,62.48V51.17h10.23
		c0,0,4.51,0.35,4.51,3.1c0,2.73-2.21,3.08-2.21,3.08s2.47,1.37,2.47,5.17h-6.01c0,0,0.26-3.84-1.14-3.84h-2.39v3.8
		C80.51,62.48,75.05,62.48,75.05,62.48z"/>
	<path class="st0" d="M47.34,59.38c0,0,3.71,0.8,3.71-2.64c0-3.45-3.71-2.92-3.71-2.92V59.38z M41.6,51.17h9.45
		c0,0,6.18-0.26,6.13,6.01c-0.04,5.87-9.92,5.21-9.92,5.21H41.6V51.17z"/>
	<path class="st0" d="M58.82,51.12h5.7l0.06,7.34c0,0-0.06,1.14,1.46,1.14c1.5,0,1.59-1.23,1.59-1.23v-7.25h5.65v7.25
		c0,0-0.18,4.07-7.06,4.07s-7.4-3.8-7.4-3.8S58.82,51.12,58.82,51.12z"/>
	<path class="st0" d="M34.89,50.79c-0.13-0.12-3.39-2.88-10.96-3.2H14v15.32h25.69l0.03-0.26C39.73,62.58,40.49,55.04,34.89,50.79
		 M18.91,61.85V49.8l0.21-0.02c0,0,0.25-0.03,0.64-0.03c1.16,0,3.64,0.19,4.02,1.97c0,0.18,0.07,0.45,0.04,0.92
		c-0.03,0.34-0.11,0.77-0.27,1.31c-0.14,0.44-0.35,0.96-0.66,1.59c-1.03,2.07-2.16,4.35-2.65,5.33c-0.11,0.21-0.23,0.44-0.35,0.67
		l-0.19,0.3h0.03c0,0,0,0,0,0.01H18.91z M30.2,61.85L30.2,61.85l0.03-0.01l0.04-6.94c0-0.04,0.13-3.22-2.91-4.94
		c-0.04-0.02-0.06-0.05-0.1-0.07c1.95,0.88,3.15,2.33,3.67,4.37c0.53,2.11,0.56,6.44,0.56,7.6H30.2V61.85z"/>
</g>
</svg>
