<?xml version="1.0" encoding="utf-8"?>
<!-- Generator: Adobe Illustrator 24.2.3, SVG Export Plug-In . SVG Version: 6.00 Build 0)  -->
<svg version="1.1" id="Capa_1" xmlns="http://www.w3.org/2000/svg" xmlns:xlink="http://www.w3.org/1999/xlink" x="0px" y="0px"
	 viewBox="0 0 122 111" style="enable-background:new 0 0 122 111;" xml:space="preserve">
<style type="text/css">
	.st0{fill:#211F1F;}
</style>
<g>
	<path class="st0" d="M30.58,53.73l-0.62,1.08l0,0l-0.61,1.06l0,0l-0.01,0.02c0,0,0,0.01-0.01,0.01c0,0.01-0.01,0.01-0.01,0.02
		c-0.02,0.03-0.04,0.06-0.07,0.09c-0.02,0.02-0.04,0.05-0.07,0.08c-0.05,0.05-0.11,0.1-0.17,0.15c-0.03,0.02-0.06,0.05-0.09,0.07
		c-0.01,0-0.02,0.01-0.03,0.02c-0.04,0.03-0.09,0.05-0.13,0.08c-0.33,0.18-0.74,0.3-1.17,0.34c-0.11,0.01-0.23,0.02-0.34,0.02h-8.84
		l0.74-1.28h4.43l0.96-1.67h-5.7l-2.69,4.66h11.7l-0.76,1.32H15.43l-0.03-0.04l-0.02,0.04h-4.56c-0.07,0-0.14-0.01-0.2-0.02
		c-0.08-0.01-0.15-0.04-0.21-0.07s-0.12-0.07-0.17-0.11c-0.07-0.06-0.12-0.14-0.17-0.23c-0.01-0.03-0.02-0.06-0.03-0.09l0,0
		c-0.01-0.05-0.03-0.09-0.03-0.14c-0.01-0.09-0.01-0.18,0-0.26c0-0.04,0.01-0.07,0.02-0.11s0.02-0.07,0.03-0.11
		c0.01-0.04,0.03-0.08,0.05-0.11l0.09-0.16c0.06-0.1,0.12-0.2,0.17-0.29c0.08-0.14,0.16-0.27,0.23-0.39s0.14-0.24,0.2-0.34
		c0.06-0.1,0.11-0.19,0.16-0.27c0.07-0.13,0.14-0.24,0.2-0.34c0.03-0.06,0.06-0.11,0.09-0.16s0.06-0.1,0.08-0.14
		c0.04-0.07,0.07-0.13,0.11-0.19c0.03-0.06,0.07-0.11,0.1-0.17c0.03-0.05,0.05-0.09,0.08-0.14c0.03-0.04,0.05-0.09,0.08-0.13
		c0.03-0.05,0.05-0.09,0.08-0.14c0.01-0.02,0.03-0.05,0.04-0.07c0.03-0.05,0.06-0.1,0.09-0.15c0.02-0.03,0.03-0.06,0.05-0.09
		c0.03-0.05,0.06-0.1,0.09-0.15c0.01-0.03,0.03-0.05,0.05-0.08c0.04-0.08,0.09-0.16,0.15-0.25c0.05-0.09,0.11-0.19,0.18-0.3
		c0.01-0.02,0.02-0.04,0.03-0.06c0.01-0.02,0.02-0.04,0.03-0.06c0.07-0.12,0.15-0.25,0.23-0.4c0.11-0.2,0.24-0.41,0.38-0.66
		c0.32-0.55,1.19-0.89,2.1-0.9h14.68c0.1,0,0.2,0.01,0.28,0.05c0.03,0.01,0.06,0.02,0.09,0.03C30.7,52.78,30.79,53.38,30.58,53.73z"
		/>
	<g>
		<g>
			<path class="st0" d="M76.09,53.42c0.46-0.8,1.63-0.93,2.3-0.92H112l-0.77,1.33H81.72l-0.96,1.67h10.5c0.79,0,0.99,0.79,0.72,1.24
				L90.8,58.8c-0.42,0.74-1.29,1-2.27,1H55.19c-0.82,0-0.97-0.82-0.72-1.25c2.01-3.46,1.03-1.77,2.98-5.16
				c0.32-0.56,1.19-0.89,2.1-0.9h14.68c0.78,0.01,0.97,0.81,0.72,1.24l-1.24,2.15c-0.22,0.38-0.88,0.9-2.1,0.9h-8.84l0.74-1.28h4.43
				l0.96-1.67h-5.71l-2.69,4.66h24.54l0.99-1.71H75.58c-0.74,0-1-0.75-0.73-1.22"/>
			<polygon class="st0" points="102.95,54.44 99.86,59.8 93.92,59.8 97.01,54.44 			"/>
			<path class="st0" d="M47.71,58.48h-7.62l1.73-2.99H35.9l-2.49,4.31l17.84-0.01c0.8,0.01,1.7-0.31,2.05-0.9l0.87-1.51
				c0.23-0.41,0.02-1.23-0.73-1.23l0,0c0.17,0,1.48-0.08,1.96-0.9l0.88-1.52c0.24-0.42,0.11-1.23-0.72-1.24H37.62l-0.77,1.33H50.4
				l-0.96,1.67h-5.56l-0.74,1.28h5.56L47.71,58.48z"/>
		</g>
	</g>
	<polygon class="st0" points="29.6,56.67 33.93,56.67 34.49,55.62 30.18,55.62 	"/>
</g>
</svg>
