<?xml version="1.0" encoding="utf-8"?>
<!-- Generator: Adobe Illustrator 24.2.3, SVG Export Plug-In . SVG Version: 6.00 Build 0)  -->
<svg version="1.1" id="Capa_1" xmlns="http://www.w3.org/2000/svg" xmlns:xlink="http://www.w3.org/1999/xlink" x="0px" y="0px"
	 viewBox="0 0 122 111" style="enable-background:new 0 0 122 111;" xml:space="preserve">
<style type="text/css">
	.st0{fill:#262424;}
</style>
<g>
	<polygon class="st0" points="81.47,52.67 65.33,52.67 66.31,49.98 85.14,49.98 80.73,62.09 78.04,62.09 	"/>
	<polygon class="st0" points="105.02,52.67 86.18,52.67 87.16,49.98 106,49.98 	"/>
	<polygon class="st0" points="103.31,57.38 84.47,57.38 85.45,54.69 104.29,54.69 	"/>
	<polygon class="st0" points="101.59,62.09 82.75,62.09 83.73,59.4 102.57,59.4 	"/>
	<polygon class="st0" points="40,59.4 56.14,59.4 55.17,62.09 36.33,62.09 40.74,49.98 43.43,49.98 	"/>
	<polygon class="st0" points="61.6,49.98 64.29,49.98 59.87,62.09 57.18,62.09 	"/>
	<polygon class="st0" points="16.45,59.4 35.3,59.4 34.31,62.09 15.47,62.09 	"/>
	<polygon class="st0" points="18.17,54.69 37.01,54.69 36.02,57.38 17.19,57.38 	"/>
	<polygon class="st0" points="19.89,49.98 38.72,49.98 37.74,52.67 18.9,52.67 	"/>
</g>
</svg>
