<?xml version="1.0" encoding="utf-8"?>
<!-- Generator: Adobe Illustrator 24.2.3, SVG Export Plug-In . SVG Version: 6.00 Build 0)  -->
<svg version="1.1" id="Capa_1" xmlns="http://www.w3.org/2000/svg" xmlns:xlink="http://www.w3.org/1999/xlink" x="0px" y="0px"
	 viewBox="0 0 122 111" style="enable-background:new 0 0 122 111;" xml:space="preserve">
<style type="text/css">
	.st0{fill:#211F1F;}
</style>
<g>
	<path class="st0" d="M38.92,45.95l-2.82,9.51l-0.54-9.51H17.74l-4.85,15.06c0,0-1.55,4.02,2.51,4.02h7.82l1.3-4.19h-5.28l1.07-3.41
		h4.87l1.29-4.17h-4.85l0.98-3.1h6.03l-4.59,14.86h5.38l2.82-9.3l0.49,9.3h5.85l5.61-19.09h-5.27V45.95z"/>
	<path class="st0" d="M102.52,56.95h-1.62l2.07-5L102.52,56.95z M100.87,45.95c0,0-3.94,8.02-6.35,12.62
		c-2.29,4.37-3.5,5.99-5.61,6.38c0,0.01-0.01,0.08-0.01,0.08h5.7c3.41,0,4.69-4.15,4.69-4.15h2.85l-0.41,4.15H108V59V45.95H100.87z"
		/>
	<path class="st0" d="M91.17,48.58c0.21-0.47,0.67-0.84,1.37-0.91c0.84-0.09,1.47,0.32,1.76,0.85c0.21,0.36,0.24,0.66,0.2,1.05
		c-0.12,1.28-1.81,1.97-2.83,1.12C91.19,50.31,90.83,49.33,91.17,48.58 M88.55,53.22c-0.02,1.11,1.04,2.48,1.82,3.14
		c0.29,0.25,0.57,0.45,0.82,0.68c0.85,0.76,0.86,1.48,0.94,1.47c0.16-1.35,0.53-2.6,1.03-3.62c0.17-0.35,0.36-0.71,0.58-0.99
		c0.3-0.4,0.82-0.63,1.19-0.89c0.28-0.2,0.5-0.45,0.71-0.74c0.4-0.53,0.77-1.14,0.87-2.02c0.29-2.45-1.27-3.76-2.04-4.16
		c-1.94-1-3.81-0.42-4.59,0.43c-0.54,0.59-1.04,1.57-1.11,2.54c-0.06,0.88,0.09,1.66,0.02,2.68C88.75,52.37,88.55,52.53,88.55,53.22
		"/>
	<path class="st0" d="M88.19,62.05c-0.65,0.01-1.1-0.3-1.4-0.69c-0.25-0.33-0.46-0.73-0.36-1.31c0.08-0.43,0.31-0.84,0.55-1.05
		c0.24-0.21,0.56-0.32,0.99-0.36c0.72-0.06,1.34,0.3,1.62,0.7C90.39,60.44,89.45,62.01,88.19,62.05 M84.5,51.02
		c-1.01,0.69-2.65,0.19-2.79-1.11c-0.09-0.84,0.41-1.46,0.91-1.72c0.14-0.07,0.37-0.13,0.55-0.16c0.9-0.11,1.57,0.33,1.86,0.93
		C85.39,49.72,85.04,50.64,84.5,51.02 M91.58,61.95c0.38-1,0.31-2.31-0.04-3.17c-0.18-0.44-0.43-0.81-0.71-1.15
		c-0.29-0.33-0.68-0.57-1.01-0.85c-0.63-0.53-1.09-1.39-1.51-2.21c-0.21-0.42-0.39-0.85-0.57-1.29c-0.2-0.49-0.38-0.97-0.38-1.5
		c0-0.41,0.1-0.77,0.16-1.13c0.2-1.26-0.22-2.28-0.75-3.01c-0.66-0.91-1.95-1.74-3.57-1.62c-0.85,0.06-1.52,0.33-2.08,0.75
		c-0.56,0.42-0.97,0.91-1.25,1.54c-0.29,0.67-0.42,1.57-0.3,2.38c0.12,0.77,0.42,1.38,0.91,1.88c0.5,0.52,1.04,0.81,1.55,1.25
		s0.85,1.02,1.17,1.62c0.34,0.63,0.62,1.24,0.79,2c0.09,0.39,0.12,0.83,0.06,1.25c-0.06,0.38-0.19,0.74-0.24,1.17
		c-0.13,1.19,0.26,2.19,0.8,2.89c0.53,0.7,1.27,1.25,2.2,1.53c1.02,0.31,2.2,0.16,3.05-0.32C90.62,63.52,91.26,62.78,91.58,61.95"/>
	<path class="st0" d="M79.74,61.97c-0.37,0.25-0.9,0.4-1.39,0.3c-0.75-0.16-1.46-0.84-1.38-1.86c0.06-0.84,0.68-1.41,1.48-1.5
		c0.83-0.1,1.48,0.31,1.76,0.79C80.73,60.54,80.36,61.54,79.74,61.97 M81.2,54c-0.41-0.29-0.77-0.49-1.12-0.83
		c-0.35-0.33-0.61-0.72-0.87-1.17c0-0.01,0-0.02-0.02-0.01c-0.06,0.49-0.18,0.96-0.32,1.4c-0.14,0.44-0.29,0.86-0.45,1.21
		c-0.79,1.68-2.6,1.82-3.69,4.36c-1.01,2.34,0.71,4.3,1.29,4.73c0.7,0.53,2.02,0.97,3.36,0.65c1.11-0.26,1.91-0.98,2.43-1.79
		c0.29-0.44,0.65-1.38,0.59-3.52c-0.02-0.93,0.44-1.76,0.47-2.14c0.05-0.71-0.28-1.38-0.59-1.82C82.01,54.66,81.61,54.29,81.2,54"/>
	<path class="st0" d="M74.78,47.03C73.34,46,71,45.95,70.55,45.95h-7.86l-3.77,13.74c0,0,2.12,0,3.75-0.01
		c1.65-0.01,2.71-0.59,3.44-3.31c0.65-2.42,1.67-6.23,1.67-6.23h1.04c0.47,0,0.75,0.06,0.84,0.19c0.13,0.16,0.03,0.64-0.08,1.04
		l-2.2,8.3c-0.26,0.97-0.52,1.28-1.62,1.28h-9.88l0.78,4.09h8.77c1.64,0,3.68,0,5.53-1.31c0.91-0.63,1.85-1.54,2.59-3.8
		c0.16-0.48,0.29-0.99,0.42-1.48l1.65-6.38C76.07,50.41,76.6,48.33,74.78,47.03"/>
	<polygon class="st0" points="53.86,55.19 53.88,55.19 53.88,55.18 60.59,45.95 54.22,45.95 49.5,52.91 51.48,45.95 45.37,45.95 
		39.81,65.04 46.04,65.04 48.12,57.75 49.09,65.04 55.7,65.04 55.72,65.04 	"/>
</g>
</svg>
