<?xml version="1.0" encoding="utf-8"?>
<!-- Generator: Adobe Illustrator 24.2.3, SVG Export Plug-In . SVG Version: 6.00 Build 0)  -->
<svg version="1.1" id="Capa_1" xmlns="http://www.w3.org/2000/svg" xmlns:xlink="http://www.w3.org/1999/xlink" x="0px" y="0px"
	 viewBox="0 0 122 111" style="enable-background:new 0 0 122 111;" xml:space="preserve">
<style type="text/css">
	.st0{fill:#211F1F;}
</style>
<g>
	<path class="st0" d="M81.4,64.24c0-1.49,1.21-2.7,2.7-2.7s2.69,1.21,2.69,2.7c0,1.49-1.2,2.7-2.69,2.7S81.4,65.73,81.4,64.24"/>
	<path class="st0" d="M81.44,53.41c0-1.49,1.21-2.7,2.69-2.7c1.49,0,2.7,1.21,2.7,2.7s-1.2,2.7-2.7,2.7
		C82.64,56.1,81.44,54.89,81.44,53.41"/>
	<path class="st0" d="M68.69,43.21c0-1.49,1.21-2.69,2.7-2.69s2.7,1.2,2.7,2.69c0,1.5-1.21,2.7-2.7,2.7
		C69.89,45.91,68.69,44.7,68.69,43.21"/>
	<path class="st0" d="M72.83,50.79c0.03,0.85,0,12.86,0,12.86h3.14c0,1.19,0,3.36,0,3.36h-9.43c0,0,0-2.11,0-3.36h2.83
		c0.01-3.22,0.01-8.08,0.01-9.62h-3.07c0-0.86,0.01-2.19,0.01-3.24C66.31,50.78,70.76,50.79,72.83,50.79"/>
	<path class="st0" d="M17.38,42.45c0.96-0.62,2.09-0.89,3.21-0.94c0.65-0.04,1.28-0.02,1.93-0.03v3.37c-0.41,0-2.15-0.09-2.81,0.41
		c-0.99,0.73-1.07,1.99-1.07,2.36c0,1.07-0.03,2.09-0.03,3.16h3.19v3.24h-3.2v9.62h3.18c0,1.27,0.02,3.36,0.02,3.36
		c-2.06,0-6.69,0-10.02,0c0-1.13,0-2.24,0.01-3.36h3.27c0.01-3.22,0.01-7.88,0.01-9.62H11.7c0,0,0-2.3,0-3.24h3.36
		c0-1.35,0.01-2.28,0.01-3.49C15.08,45.86,15.57,43.72,17.38,42.45"/>
	<path class="st0" d="M42.28,41.94c0.55-1.23,1.99-1.89,3.28-1.71c0.58,0.08,1.18,0.45,1.34,1.05c0.05,0.32,0.08,0.61-0.2,1.46
		L46.61,43c-0.34,0.83-2.5,6.03-2.55,6.18c-0.3,0.67-0.65,1.51-1.11,1.9c-0.37,0.32-0.99,0.37-1.33-0.02
		c-0.34-0.4-0.3-0.96-0.27-1.45c0.12-0.76,0.45-4.48,0.55-5.58C42,43.33,41.97,42.59,42.28,41.94"/>
	<polygon class="st0" points="98.33,41.57 98.33,58.15 104.15,51.17 108.09,51.17 108.09,54.26 105.63,54.25 102.1,58.73 
		106.72,63.64 110,63.64 110,67 105.17,67 98.33,59.89 98.31,67 92.29,67 92.29,63.64 94.87,63.64 94.87,44.94 92.21,44.94 
		92.21,41.58 	"/>
	<path class="st0" d="M47.1,50.79h15.12l-0.01,3.24l-9.51,9.62h6.2v-2.73h3.33v6.09H47.11c0-1.34-0.01-2.24,0-3.36
		c2.11-2.15,4.27-4.27,6.38-6.44c1.07-1.07,1.95-1.94,3.2-3.18h-6.24c0,0.86-0.01,2.72-0.01,2.72h-3.33
		C47.11,55.52,47.11,52.78,47.1,50.79"/>
	<path class="st0" d="M28.05,43.21c0-1.49,1.21-2.69,2.7-2.69s2.7,1.2,2.7,2.69c0,1.5-1.2,2.7-2.7,2.7
		C29.26,45.91,28.05,44.7,28.05,43.21"/>
	<path class="st0" d="M32.19,50.79c0.02,0.85,0,12.86,0,12.86h3.14v3.36c-3.16,0.01-5.73,0-9.45,0c0,0,0.01-2.11,0.01-3.36h2.84
		c0.01-3.22,0.01-8.08,0.01-9.62h-3.07v-3.24C25.67,50.78,30.12,50.79,32.19,50.79"/>
</g>
</svg>
