<?xml version="1.0" encoding="utf-8"?>
<!-- Generator: Adobe Illustrator 24.2.3, SVG Export Plug-In . SVG Version: 6.00 Build 0)  -->
<svg version="1.1" id="Capa_1" xmlns="http://www.w3.org/2000/svg" xmlns:xlink="http://www.w3.org/1999/xlink" x="0px" y="0px"
	 viewBox="0 0 122 111" style="enable-background:new 0 0 122 111;" xml:space="preserve">
<style type="text/css">
	.st0{fill:#211F1F;}
</style>
<g>
	<path class="st0" d="M51.8,58.26c0.35,1.09,0.65,2.11,1.02,3.12c0.2,0.56,0.02,0.65-0.5,0.66c-2.62,0.07-2.62,0.08-3.6-2.35
		c-0.06-0.14-0.13-0.27-0.16-0.42c-0.17-0.84-0.66-1.17-1.52-1.03c-0.72,0.12-1.03-0.03-0.72-0.89c0.56-1.56,0.5-1.58,2.17-1.58
		c0.9,0,1.8,0,2.7,0c0.31,0,0.53-0.04,0.67-0.42c0.23-0.67,0.19-0.97-0.64-0.95c-1.29,0.03-2.58,0-3.86-0.08
		c-0.72-0.05-0.97,0.25-1.15,0.9c-0.55,1.98-1.21,3.94-1.76,5.93c-0.2,0.71-0.51,0.98-1.25,0.9c-0.56-0.07-1.14-0.02-1.71,0
		c-0.41,0.02-0.54-0.11-0.41-0.52c0.94-3.06,1.88-6.11,2.79-9.18c0.12-0.41,0.37-0.43,0.66-0.43c3.15,0.02,6.3,0.03,9.44,0.11
		c1.04,0.02,1.57,0.69,1.44,1.75c-0.15,1.22-0.51,2.4-1.12,3.48C53.76,58.19,52.84,58.3,51.8,58.26z"/>
	<path class="st0" d="M31.41,58.07c0.97,0,1.74,0.03,2.51-0.01c0.72-0.04,1.04,0.23,1.2,0.96c0.35,1.56,0.39,1.59-1.19,1.67
		c-1.26,0.06-2.52,0.05-3.78,0.01c-0.58-0.02-0.99,0.14-1.25,0.65c-0.3,0.59-0.77,0.73-1.41,0.69c-0.79-0.05-1.6-0.01-2.57-0.01
		c1.51-2.06,2.91-3.99,4.32-5.91c0.92-1.26,1.86-2.5,2.74-3.78c0.31-0.46,0.66-0.63,1.19-0.58c0.74,0.07,1.49,0.11,2.24,0.13
		c1.18,0.03,1.87,0.68,2.27,1.72c0.85,2.17,1.39,4.45,2.05,6.68c0.51,1.72,0.49,1.72-1.34,1.74c-1.61,0.02-1.61,0.02-2.08-1.55
		c-0.5-1.66-0.98-3.32-1.52-4.97c-0.35-1.07-0.65-1.11-1.33-0.23C32.81,56.13,32.19,57.02,31.41,58.07z"/>
	<path class="st0" d="M73.15,62.02c-1.32,0-2.64-0.01-3.96,0c-1.27,0.01-2.37-0.82-1.89-2.4c0.6-1.94,1.13-3.91,1.82-5.82
		c0.47-1.29,1.34-1.89,2.73-1.87c2.79,0.04,5.58,0.03,8.37-0.01c0.71-0.01,0.69,0.26,0.55,0.78c-0.52,1.89-0.51,1.89-2.47,1.89
		c-1.8,0-3.6,0.03-5.4-0.01c-0.67-0.02-1.03,0.13-1.2,0.85c-0.24,1.05-0.59,2.07-0.93,3.09c-0.23,0.68-0.2,0.98,0.68,0.96
		c2.13-0.05,4.26,0.04,6.39,0c0.77-0.02,0.8,0.23,0.62,0.85c-0.5,1.68-0.48,1.69-2.26,1.69C75.19,62.02,74.17,62.02,73.15,62.02z"/>
	<path class="st0" d="M90.79,62.03c-1.17,0-2.19-0.01-3.2,0.01c-0.35,0.01-0.47-0.2-0.59-0.44c-0.34-0.67-0.68-1.33-1-2.01
		c-0.25-0.54-0.51-0.55-0.91-0.13c-0.4,0.41-0.93,0.69-1.26,1.14c-1.31,1.76-3.11,1.52-5.12,1.35c1.1-0.98,2.07-1.84,3.04-2.71
		c0.69-0.62,1.37-1.26,2.08-1.85c0.42-0.34,0.51-0.64,0.22-1.14c-0.7-1.22-1.32-2.48-2.01-3.71c-0.31-0.56-0.15-0.76,0.43-0.76
		c0.78,0,1.56,0.02,2.34-0.02c0.42-0.02,0.57,0.23,0.72,0.54c0.34,0.7,0.74,1.37,1.04,2.09c0.24,0.57,0.47,0.46,0.82,0.13
		c0.67-0.64,1.4-1.22,2.05-1.89c0.63-0.65,1.31-0.97,2.23-0.86c0.64,0.08,1.3-0.03,2.12,0.19c-1.65,1.47-3.15,2.88-4.73,4.2
		c-0.64,0.53-0.79,0.94-0.36,1.7C89.43,59.15,90.05,60.54,90.79,62.03z"/>
	<path class="st0" d="M68.47,51.94c0.02,0.11,0.03,0.14,0.02,0.17c-0.49,2.23-0.49,2.23-2.8,2.23c-1.97,0-1.96,0-2.53,1.91
		c-0.52,1.72-1.07,3.42-1.56,5.15c-0.14,0.52-0.38,0.67-0.88,0.64c-0.62-0.04-1.25-0.04-1.88,0c-0.68,0.05-0.72-0.21-0.54-0.78
		c0.61-1.91,1.18-3.82,1.77-5.74c0.33-1.08,0.34-1.1-0.82-1.18c-0.69-0.04-1.38-0.03-2.07-0.01c-0.52,0.01-0.78-0.04-0.55-0.7
		c0.68-2.02,0.14-1.67,2.26-1.69c2.88-0.03,5.76-0.01,8.63-0.01C67.84,51.94,68.16,51.94,68.47,51.94z"/>
	<path class="st0" d="M19.93,58.25c-0.06,0-0.12,0-0.18,0c-2,0-2.08-0.15-1.24-2.03c0.16-0.37,0.42-0.36,0.72-0.37
		c1.02-0.02,2.04-0.08,3.05-0.07c0.47,0,0.69-0.15,0.81-0.61c0.23-0.87,0.53-1.71,0.77-2.58c0.1-0.37,0.29-0.61,0.66-0.63
		c0.72-0.04,1.44-0.04,2.16-0.05c0.4,0,0.52,0.16,0.39,0.57c-0.93,3.03-1.84,6.06-2.76,9.09c-0.06,0.21-0.1,0.43-0.38,0.43
		c-0.84,0.01-1.68,0.04-2.52,0c-0.47-0.02-0.25-0.41-0.2-0.62c0.21-0.78,0.42-1.56,0.7-2.32c0.25-0.68-0.01-0.85-0.64-0.82
		C20.83,58.27,20.38,58.25,19.93,58.25z"/>
	<path class="st0" d="M14.45,62.02c-1.64,0.03-1.65,0.03-1.16-1.58c0.8-2.63,1.63-5.25,2.4-7.89c0.16-0.55,0.41-0.77,0.99-0.8
		c2.46-0.11,2.48-0.09,1.77,2.24c-0.7,2.31-1.45,4.62-2.08,6.95c-0.23,0.86-0.6,1.22-1.47,1.07C14.75,62,14.59,62.02,14.45,62.02z"
		/>
	<path class="st0" d="M103.34,53.71c0.28,0.22,0.2,0.52,0.19,0.81c-0.02,0.58,0.23,0.62,0.64,0.3c0.17-0.13,0.32-0.28,0.51-0.36
		c0.55-0.26,0.84-0.18,0.52,0.58c0.64-0.13,1.02-0.93,1.75-0.37c0.52,0.4,1.1,0.7,1.56,1.37c-0.9-0.24-1.31-1.37-2.37-1
		c0.15,0.42,0.75,0.35,0.89,0.81c-0.27-0.04-0.52-0.09-0.78-0.12c-0.15-0.02-0.31,0-0.37,0.18c-0.07,0.2,0.01,0.33,0.21,0.42
		c0.44,0.22,0.6,0.83,1.22,0.88c0.14,0.01-0.25,0.03-0.24,0.26c0.77,0.08,1.57,0.21,2.02-0.66c0.27-0.52-0.66-2.16-1.54-2.82
		c0.67,0.01,2.38,1.42,2.44,2.01c0,0.03,0,0.06,0,0.09c-0.02,0.53-2.18,2.65-2.74,2.68c0.04-1.07,0.04-1.06-1.09-1.08
		c-0.3,0-0.61,0.03-0.89-0.05c-0.44-0.12-0.69,0.08-0.91,0.39c-0.27,0.39-0.02,0.7,0.22,0.95c0.47,0.49,0.92,1.23,1.72,0.43
		c0.22-0.22,0.44-0.04,0.54,0.09c0.22,0.27,0.04,0.49-0.21,0.65c-0.11-0.13-0.23-0.03-0.34-0.02c0.06,0.03-0.08,0.2,0.1,0.14
		c-0.04-0.05-0.07-0.09-0.11-0.14c0.12,0,0.25,0,0.37,0c-0.21,0.37,0.09,0.81-0.21,1.2c-0.63,0.82-1.53,0.96-2.32,0.27
		c-0.36-0.31-0.67-0.69-1.01-1.02c-0.88-0.85-1.85-0.61-2.26,0.56c-0.1,0.28-0.14,0.58-0.22,0.87c-0.06,0.22-0.11,0.56-0.4,0.5
		c-0.36-0.08-0.12-0.39-0.08-0.59c0.06-0.35,0.17-0.69,0.24-1.05c0.05-0.24,0.08-0.56-0.11-0.68c-1.07-0.66-0.03-0.87,0.27-1.13
		c0.35-0.3,0.8-0.51,1.3-0.48c0.1,0.18-0.06,0.2-0.14,0.26c-0.24,0.21-0.69,0.37-0.57,0.72c0.15,0.44,0.58,0.12,0.85,0.08
		c0.64-0.11,1.11,0.08,1.48,0.6c0.23,0.31,0.46,0.63,0.73,0.91c0.74,0.77,1.26,0.73,2.03-0.24c-1.42,0.19-2.09-0.8-2.89-1.61
		c-0.52-0.52-0.33-0.89,0.14-1.34c0.78-0.75,1.72-0.71,2.94-0.54c-0.81-0.6-1.33-1.05-0.81-1.92c0.18-0.29-0.31-0.4-0.56-0.51
		c-0.05-0.02-0.16,0.07-0.24,0.1c-1.52,0.58-1.52,0.58-1.64-1.01l-0.01,0.01c0.24-0.04,0.21-0.21,0.19-0.38H103.34z"/>
	<path class="st0" d="M75.03,58.24c-0.9,0-1.79,0-2.69,0c-0.17,0-0.4,0-0.5-0.1c-0.29-0.28,0.51-2.22,0.94-2.23
		c1.94-0.06,3.88-0.09,5.82-0.12c0.36-0.01,0.5,0.15,0.34,0.5c-0.01,0.03-0.02,0.06-0.03,0.08c-0.44,1.87-0.44,1.87-2.35,1.87
		C76.04,58.24,75.53,58.24,75.03,58.24z"/>
	<path class="st0" d="M105.89,52.84c-0.08-0.59-0.52-0.55-0.95-0.54c-0.34,0.01-0.68,0-1.04,0c0.15-0.36,0.64-0.27,0.85-0.67
		c-0.93-0.41-1.41,0.42-2.1,0.72c0.03-0.51,0.54-0.61,0.65-1.12c-1.19-0.02-1.87,0.73-2.6,1.55c0.05-0.71,0.62-1,0.9-1.47
		c-0.87-0.42-1.05-0.34-1.28,0.49c-0.02,0.06-0.03,0.12-0.07,0.17c-0.19,0.27-0.38,0.53-0.58,0.79c-0.23-0.23-0.02-0.44,0.07-0.6
		c0.3-0.57,0.06-0.83-0.48-0.92c-0.34-0.06-0.73-0.21-1,0.15c-0.23,0.32-0.04,0.65,0.11,0.93c0.24,0.44,0.54,0.85,0.95,1.47
		c-0.6-0.28-0.93-0.82-1.48-0.57c-0.45,0.2-0.77,0.56-1.12,0.9c-1.11,1.08-2.21,2.18-3.44,3.39c-0.01-0.77,0.37-1.14,0.67-1.52
		c0.95-1.21,2.08-2.24,3.31-3.16c0.32-0.24,0.6-0.47,0.42-0.96c-0.18-0.5,0.15-0.74,0.58-0.81c1.87-0.32,3.76-0.3,5.64-0.1
		c1.51,0.16,2.41,1.32,3.46,2.45c-0.67-0.04-0.96-0.62-1.5-0.58C105.87,52.83,105.89,52.84,105.89,52.84z"/>
	<path class="st0" d="M98.08,55.49c-0.16-0.3-0.47-0.01-0.67-0.29c1.19-0.73,2.46-1,3.86-0.76c-0.37,0.08-0.76,0.12-1.12,0.25
		c-0.17,0.06-0.82-0.05-0.34,0.54c0.15,0.18-0.22,0.26-0.39,0.33c-0.66,0.26-1.35,0.46-2.01,1c0.35,0.05,0.59,0.08,0.89,0.12
		c-0.58,1.02-1.45,1.46-2.56,1.6c0.08-0.41,0.45-0.51,0.64-0.77c0.08-0.1,0.26-0.24,0.01-0.33c-0.84-0.27-0.15-0.51,0.04-0.65
		C96.96,56.15,97.53,55.83,98.08,55.49z"/>
	<path class="st0" d="M97.35,60.8c0.24-1,0.83-1.53,1.27-2.14c-0.16-0.34-0.45,0-0.72-0.22c0.59-1.01,1.5-1.7,2.56-2.26
		c-0.37,0.46-0.73,0.92-1.18,1.48c0.38,0.04,0.66,0.07,0.98,0.1c-0.32,0.73-1.19,1.05-1.39,1.72C98.65,60.28,98.07,60.41,97.35,60.8
		z"/>
	<path class="st0" d="M103.17,54.1c-0.51,0.17-1.04,1.06-0.9,1.59c0.17,0.68,0.72,0.35,1.11,0.33c0.4-0.02,0.8-0.16,1.3-0.26
		c-0.25,0.41-0.45,0.73-0.74,1.2c0-0.65-0.36-0.57-0.66-0.5c-0.43,0.11-0.84,0.28-1.26,0.43c-0.2,0.07-0.37,0.17-0.47-0.15
		c-0.3-0.92,0.58-2.79,1.48-3.13c0.16-0.06,0.15,0.28,0.32,0.11l0.01,0.02c-0.22,0.05-0.44,0.09-0.19,0.38V54.1z"/>
	<path class="st0" d="M104.95,53.53c0.14,0.31,0.49,0.15,0.75,0.34c-0.37,0.39-0.69,0.2-1.01,0.01c-0.36-0.22-0.36-0.62-0.36-0.96
		c0.01-0.3,0.32-0.16,0.5-0.19c0.36-0.06,0.65,0.44,1.04,0.11l-0.01-0.01c-0.23,0.41,0.36,0.48,0.3,0.87
		c-0.37,0.06-0.62-0.36-0.98-0.37c-0.11-0.1-0.24-0.2-0.36-0.06C104.77,53.35,104.83,53.48,104.95,53.53z"/>
</g>
</svg>
