<?xml version="1.0" encoding="utf-8"?>
<!-- Generator: Adobe Illustrator 24.2.3, SVG Export Plug-In . SVG Version: 6.00 Build 0)  -->
<svg version="1.1" id="Capa_1" xmlns="http://www.w3.org/2000/svg" xmlns:xlink="http://www.w3.org/1999/xlink" x="0px" y="0px"
	 viewBox="0 0 122 111" style="enable-background:new 0 0 122 111;" xml:space="preserve">
<style type="text/css">
	.st0{fill:#211F1F;}
</style>
<g>
	<path class="st0" d="M96.46,50.77c-0.29,0-0.52,0.23-0.52,0.52v9.49c0,0.28,0.23,0.51,0.52,0.51h3.01V50.77H96.46z"/>
	<path class="st0" d="M104.06,57c-0.49-0.92-0.48-1.17,0.1-2.16c0.3-0.56,1.46-3.01,2.05-4.25h-3.09v10.77h3.07
		C105.56,60.06,104.39,57.62,104.06,57"/>
	<path class="st0" d="M110.71,49.93c0.33,0,0.6,0.27,0.6,0.6v11c0,0.33-0.27,0.6-0.6,0.6h-3.81c0,0-2.06-4.33-2.52-5.2
		c-0.47-0.87-0.47-1.06,0.1-2.02c0.41-0.77,2.4-4.99,2.4-4.99h3.83V49.93z"/>
	<path class="st0" d="M106.41,61.83H95.76c-0.24,0-0.43-0.19-0.43-0.43V50.66c0-0.24,0.19-0.43,0.43-0.43h10.61
		c0.07-0.14,0.12-0.25,0.14-0.31H95.76c-0.41,0-0.74,0.33-0.74,0.74V61.4c0,0.41,0.33,0.74,0.74,0.74h10.79
		C106.53,62.08,106.48,61.98,106.41,61.83"/>
	<rect x="12" y="53.06" class="st0" width="2.45" height="7.2"/>
	<polygon class="st0" points="17.64,53.06 20.15,56.81 20.07,55.65 20.07,53.06 22.43,53.06 22.43,60.26 20.15,60.26 17.64,56.42 
		17.72,57.59 17.72,60.26 15.44,60.26 15.44,53.06 	"/>
	<polygon class="st0" points="25.21,53.06 26.38,57.67 27.65,53.06 29.98,53.06 27.57,60.26 25.21,60.26 22.62,53.06 	"/>
	<path class="st0" d="M32.95,53.06v4.53c0,0.34,0.12,0.62,0.34,0.81c0.22,0.2,0.47,0.3,0.74,0.31h0.02h0.02h0.06
		c0.02,0,0.03,0,0.05-0.01c0.25-0.02,0.47-0.13,0.68-0.32c0.2-0.19,0.31-0.45,0.31-0.79v-4.53h2.43v4.53c0,0.95-0.31,1.66-0.94,2.16
		c-0.63,0.49-1.5,0.74-2.61,0.74c-1.1,0-1.95-0.25-2.55-0.76c-0.6-0.51-0.89-1.27-0.89-2.29v-4.38
		C30.61,53.06,32.95,53.06,32.95,53.06z"/>
	<polygon class="st0" points="40.73,53.06 40.73,58.55 44.03,58.55 44.03,60.26 38.38,60.26 38.38,53.06 	"/>
	<polygon class="st0" points="46.81,53.06 49.32,56.81 49.24,55.65 49.24,53.06 51.6,53.06 51.6,60.26 49.32,60.26 46.81,56.42 
		46.89,57.59 46.89,60.26 44.61,60.26 44.61,53.06 	"/>
	<polygon class="st0" points="58.28,53.14 58.28,54.84 54.83,54.84 54.83,55.81 57.73,55.81 57.73,57.52 54.83,57.52 54.83,58.55 
		58.43,58.55 58.43,60.26 52.39,60.26 52.39,53.14 	"/>
	<path class="st0" d="M62.61,53.06c1.09,0,1.85,0.2,2.28,0.6c0.44,0.4,0.66,0.85,0.69,1.33v0.04v0.04c0,0.44-0.12,0.84-0.36,1.21
		s-0.5,0.57-0.79,0.6c0.51,0.23,0.81,0.5,0.92,0.81s0.16,0.7,0.16,1.16v0.39c0,0.23,0.01,0.41,0.04,0.53s0.12,0.2,0.27,0.24v0.23
		h-2.51c-0.04-0.24-0.07-0.46-0.08-0.67c-0.01-0.21-0.02-0.39-0.02-0.56c-0.01-0.3-0.03-0.54-0.07-0.72s-0.17-0.31-0.37-0.38
		c-0.08-0.04-0.18-0.06-0.29-0.08c-0.11-0.01-0.23-0.02-0.34-0.02c-0.07,0-0.14,0-0.2,0.01c-0.07,0-0.14,0.01-0.21,0.01H61.7h-0.02
		c-0.07,0-0.13,0-0.19,0.01c-0.06,0-0.13,0-0.19,0v2.41h-2.43v-7.2h3.74V53.06z M61.21,56.12h1.4c0.22,0,0.38-0.06,0.5-0.19
		c0.11-0.13,0.17-0.27,0.17-0.43v-0.03v-0.03c-0.02-0.15-0.09-0.28-0.21-0.41c-0.12-0.12-0.3-0.18-0.54-0.18h-1.32V56.12z"/>
	<path class="st0" d="M70.84,53.06l2.59,7.2H71l-0.23-0.94h-2.36l-0.26,0.94h-2.41l2.59-7.2H70.84z M70.27,57.85l-0.69-2.36
		l-0.7,2.36H70.27z"/>
	<path class="st0" d="M76.93,53.06c0.87,0,1.53,0.19,1.97,0.57s0.7,0.79,0.77,1.24c0.01,0.04,0.01,0.09,0.01,0.13s0,0.08,0,0.13
		v0.03v0.03c-0.01,0.27-0.09,0.53-0.24,0.77c-0.15,0.25-0.36,0.43-0.63,0.55c0.42,0.13,0.73,0.36,0.95,0.69
		c0.22,0.33,0.33,0.68,0.33,1.05v0.05v0.04c-0.03,0.49-0.26,0.93-0.68,1.33s-1.07,0.6-1.95,0.6h-4.14v-7.2L76.93,53.06L76.93,53.06z
		 M75.76,55.96h0.94c0.24,0,0.43-0.05,0.57-0.15c0.14-0.1,0.22-0.22,0.24-0.34c0.01-0.02,0.01-0.03,0.01-0.04v-0.04v-0.04
		c0-0.01-0.01-0.02-0.01-0.04c-0.02-0.12-0.1-0.23-0.22-0.32c-0.12-0.1-0.29-0.15-0.51-0.15h-1.01L75.76,55.96L75.76,55.96z
		 M75.76,58.55h1.33c0.23,0,0.4-0.05,0.52-0.16c0.11-0.11,0.17-0.23,0.18-0.35v-0.02V58c0-0.02,0-0.04-0.01-0.07
		c0-0.02-0.01-0.05-0.02-0.08c-0.03-0.13-0.1-0.24-0.22-0.35c-0.12-0.1-0.27-0.16-0.45-0.16h-1.33V58.55z"/>
	<polygon class="st0" points="83.47,53.06 83.47,58.55 86.77,58.55 86.77,60.26 81.12,60.26 81.12,53.06 	"/>
	<polygon class="st0" points="93.21,53.14 93.21,54.84 89.76,54.84 89.76,55.81 92.66,55.81 92.66,57.52 89.76,57.52 89.76,58.55 
		93.36,58.55 93.36,60.26 87.32,60.26 87.32,53.14 	"/>
	<rect x="12" y="61.58" class="st0" width="81.37" height="0.34"/>
</g>
</svg>
