<?xml version="1.0" encoding="utf-8"?>
<!-- Generator: Adobe Illustrator 24.2.3, SVG Export Plug-In . SVG Version: 6.00 Build 0)  -->
<svg version="1.1" id="Capa_1" xmlns="http://www.w3.org/2000/svg" xmlns:xlink="http://www.w3.org/1999/xlink" x="0px" y="0px"
	 viewBox="0 0 122 111" style="enable-background:new 0 0 122 111;" xml:space="preserve">
<style type="text/css">
	.st0{fill:#211F1F;}
</style>
<g>
	<path class="st0" d="M42.98,58.01c0-0.53,0.43-0.96,0.96-0.96h12.54c0.53,0,0.96,0.43,0.96,0.96v0.47c0,0.53-0.43,0.96-0.96,0.96
		h-3.99c-0.53,0-0.96,0.43-0.96,0.96v5.99c0,0.53-0.43,0.96-0.96,0.96h-0.6c-0.53,0-0.96-0.43-0.96-0.96V60.4
		c0-0.53-0.43-0.96-0.96-0.96h-4.1c-0.53,0-0.96-0.43-0.96-0.96v-0.47H42.98z"/>
	<path class="st0" d="M77.04,67.19l-2.31-2.3l-1.63-1.63c-0.09-0.09-0.06-0.16,0.07-0.16h0.41h0.23c1.98,0,2.98-0.87,2.98-2.62
		v-0.23v-0.47v-0.23c0-1.68-1-2.52-2.98-2.52h-0.23h-5.25h-3.96c-0.13,0-0.28,0.09-0.36,0.19l-1.36,2.02
		c-0.07,0.11-0.03,0.19,0.1,0.19h2.07h0.22h0.23h8.3c0.12,0,0.33,0.02,0.45,0.05c0,0,0.21,0.04,0.26,0.15s0.1,0.3,0.1,0.43v0.38
		c0,0.12-0.04,0.32-0.08,0.44c-0.05,0.12-0.52,0.21-0.65,0.21h-8.38h-0.23h-0.22h-1.53h-0.54c-0.12,0-0.23,0.1-0.23,0.23v5.81
		c0,0.12,0.1,0.23,0.23,0.23h2.07c0.12,0,0.22-0.11,0.22-0.23V65.7v-2.24c0-0.13,0.1-0.23,0.23-0.23h4.22c0.12,0,0.3,0.08,0.39,0.16
		l3.68,3.8c0.09,0.09,0.26,0.17,0.39,0.17h3.02C77.1,67.36,77.13,67.28,77.04,67.19"/>
	<path class="st0" d="M92.58,57.05H81.66c-0.05,0-0.13,0.01-0.2,0.01l-0.03-0.01c-2.07,0-3.11,0.72-3.11,2.4h0.23h14.03
		c0.13,0,0.23-0.1,0.23-0.23v-1.94C92.81,57.15,92.71,57.05,92.58,57.05"/>
	<path class="st0" d="M92.58,64.96H81.66c-0.12,0-0.33-0.03-0.45-0.07l-0.28-0.24c-0.04-0.12-0.08-0.31-0.08-0.44v-0.6
		c0-0.12,0.1-0.22,0.23-0.22h5.17h6.34c0.13,0,0.23-0.1,0.23-0.23v-1.84c0-0.12-0.1-0.23-0.23-0.23l-14.03-0.02
		c-0.13,0-0.23,0.1-0.23,0.23v0.38v2.92v0.23c0,1.68,1.04,2.53,3.11,2.53h0.23h3.45h7.47c0.13,0,0.23-0.11,0.23-0.23v-1.94
		C92.81,65.06,92.71,64.96,92.58,64.96"/>
	<path class="st0" d="M105.91,60.99h-0.23H97.3c-0.39,0-0.49-0.17-0.49-0.17c-0.06-0.11-0.11-0.3-0.11-0.43v-0.57
		c0-0.25,0.37-0.33,0.37-0.33c0.12-0.02,0.32-0.05,0.45-0.05h9.31c0.13,0,0.29-0.08,0.36-0.19l1.36-2.02
		c0.07-0.1,0.02-0.19-0.1-0.19H97.3c-2.08,0-3.12,0.84-3.12,2.51v0.23v1.4c0,1.47,1.04,2.2,3.11,2.2h0.23h8.38
		c0.39,0,0.48,0.17,0.48,0.17c0.06,0.12,0.1,0.31,0.1,0.43v0.61c0,0.24-0.36,0.32-0.36,0.32c-0.12,0.02-0.32,0.05-0.45,0.05H94.34
		c-0.12,0-0.23,0.1-0.23,0.23v1.94c0,0.12,0.1,0.23,0.23,0.23h11.56c2.07,0,3.11-0.84,3.11-2.5v-0.23v-1.17
		C109,61.81,107.97,60.99,105.91,60.99"/>
	<path class="st0" d="M59.68,57.05c-0.53,0-0.96,0.43-0.96,0.96v8.39c0,0.53,0.43,0.96,0.96,0.96h0.6c0.53,0,0.96-0.43,0.96-0.96
		v-8.39c0-0.53-0.43-0.96-0.96-0.96C60.28,57.05,59.68,57.05,59.68,57.05z"/>
	<path class="st0" d="M31.5,43.95c0.13,0,0.23,0.1,0.23,0.23v3.35c0,0.13,0.1,0.23,0.23,0.23h3.53c0.13,0,0.3-0.08,0.38-0.17
		l3.04-3.46c0.08-0.09,0.25-0.17,0.38-0.17h3.04c0.13,0,0.16,0.08,0.07,0.16l-4.34,4.46c-0.09,0.09-0.09,0.24,0,0.32l5.21,5.2
		c0.09,0.09,0.05,0.16-0.07,0.16h-3.02c-0.13,0-0.3-0.07-0.39-0.17l-3.74-3.84c-0.09-0.09-0.26-0.17-0.38-0.17h-3.69
		c-0.13,0-0.23,0.1-0.23,0.23v3.72c0,0.13-0.1,0.23-0.23,0.23h-2.07c-0.12,0-0.23-0.1-0.23-0.23v-9.85c0-0.13,0.1-0.23,0.23-0.23
		C29.45,43.95,31.5,43.95,31.5,43.95z"/>
	<path class="st0" d="M65.86,46.35h9.31c0.12,0,0.29-0.08,0.36-0.19l1.36-2.02c0.07-0.1,0.02-0.19-0.1-0.19H65.63
		c-2.08,0-3.12,0.84-3.12,2.51v0.23v1.4c0,1.47,1.04,2.2,3.11,2.2h0.23h8.38c0.38,0,0.48,0.17,0.48,0.17
		c0.05,0.11,0.1,0.31,0.1,0.43v0.61c0,0.24-0.36,0.32-0.36,0.32c-0.12,0.02-0.32,0.05-0.45,0.05H62.67c-0.12,0-0.23,0.1-0.23,0.23
		v1.94c0,0.13,0.1,0.23,0.23,0.23h11.56c2.07,0,3.11-0.84,3.11-2.5v-0.23v-1.18c0-1.64-1.03-2.46-3.09-2.46h-0.23h-8.38
		c-0.61,0-0.59-0.6-0.59-0.6v-0.5C65.04,46.8,65.06,46.35,65.86,46.35"/>
	<path class="st0" d="M92.84,43.95H81.92c-0.06,0-0.13,0.01-0.2,0.01l-0.03-0.01c-2.07,0-3.11,0.72-3.11,2.4h0.23h14.03
		c0.12,0,0.23-0.1,0.23-0.23v-1.94C93.07,44.05,92.97,43.95,92.84,43.95"/>
	<path class="st0" d="M92.84,51.87H81.92c-0.12,0-0.33-0.03-0.45-0.06l-0.28-0.24c-0.04-0.12-0.08-0.32-0.08-0.44v-0.6
		c0-0.12,0.11-0.23,0.23-0.23h5.17h6.34c0.12,0,0.23-0.1,0.23-0.23v-1.84c0-0.13-0.1-0.23-0.23-0.23l-14.03-0.02
		c-0.13,0-0.23,0.1-0.23,0.23v0.37v2.93v0.23c0,1.68,1.03,2.53,3.11,2.53h0.23h3.45h7.47c0.12,0,0.23-0.1,0.23-0.23V52.1
		C93.07,51.97,92.97,51.87,92.84,51.87"/>
	<path class="st0" d="M108.95,54.1l-2.31-2.3l-1.63-1.63c-0.09-0.09-0.06-0.16,0.06-0.16h0.41h0.23c1.98,0,2.98-0.87,2.98-2.62
		v-0.22V46.7v-0.23c0-1.67-1-2.51-2.98-2.51h-0.23h-5.25h-3.96c-0.13,0-0.29,0.09-0.36,0.19l-1.36,2.02
		c-0.07,0.1-0.02,0.19,0.1,0.19h2.07h0.23h0.22h8.3c0.13,0,0.33,0.02,0.45,0.05c0,0,0.21,0.04,0.26,0.15s0.1,0.3,0.1,0.43v0.38
		c0,0.12-0.04,0.32-0.08,0.44c-0.05,0.11-0.52,0.21-0.65,0.21h-8.38h-0.22h-0.23H95.2h-0.54c-0.12,0-0.23,0.1-0.23,0.23v5.8
		c0,0.13,0.1,0.23,0.23,0.23h2.07c0.13,0,0.23-0.1,0.23-0.23v-1.42v-2.24c0-0.13,0.1-0.23,0.22-0.23h4.22c0.13,0,0.3,0.08,0.38,0.16
		l3.68,3.79c0.09,0.09,0.26,0.17,0.39,0.17h3.02C109.01,54.27,109.04,54.19,108.95,54.1"/>
	<path class="st0" d="M26.88,48.94c0-0.1,0-0.19-0.01-0.29L12.7,54.18c-0.12,0.05-0.11,0.09,0.02,0.09h8.84
		C24.5,54.27,26.88,51.88,26.88,48.94"/>
	<path class="st0" d="M18.2,43.96c-0.12,0-0.14,0.05-0.03,0.1l3.73,1.91c0.11,0.06,0.3,0.07,0.41,0.02l2.74-1.07
		c-0.48-0.42-1.03-0.75-1.64-0.98L18.2,43.96z"/>
	<path class="st0" d="M23.42,43.95c0.61,0.22,1.16,0.56,1.64,0.98"/>
	<path class="st0" d="M15.59,49.11c-0.12,0.05-0.12,0.13-0.01,0.19l3.26,1.68c0.11,0.06,0.3,0.07,0.42,0.02l7.55-2.96
		c-0.18-1.07-0.69-2.02-1.41-2.77L15.59,49.11z"/>
	<path class="st0" d="M59.59,43.9c-0.53,0-0.96,0.43-0.96,0.96v8.39c0,0.53,0.43,0.96,0.96,0.96h0.6c0.53,0,0.96-0.43,0.96-0.96
		v-8.39c0-0.53-0.43-0.96-0.96-0.96H59.59z"/>
	<path class="st0" d="M54.49,43.96C54.48,43.96,54.48,43.96,54.49,43.96L54.49,43.96l-0.24-0.01h-4.76h-0.23h-0.23h-1.67h-0.23
		c-0.19,0-0.35,0.01-0.49,0.04C46.61,44,46.58,44,46.55,44.01c-0.15,0.04-0.29,0.1-0.4,0.17s-0.21,0.16-0.29,0.27
		c-0.07,0.09-0.11,0.16-0.12,0.18l0,0l0,0v0.01c-0.04,0.06-0.07,0.13-0.11,0.19l-0.1,0.2l0,0l-0.85,1.77l-1.87,3.91l-0.42,0.92
		c-0.05,0.12-0.02,0.28,0.06,0.37l1.5,1.5c0.09,0.09,0.21,0.07,0.26-0.05l0.51-1.01c0.06-0.11,0.2-0.2,0.33-0.2h3.96h0.23h0.23h5.17
		c0.12,0,0.23,0.1,0.23,0.23v0.85v0.71c0,0.13,0.1,0.23,0.23,0.23h1.98c0.12,0,0.23-0.1,0.23-0.23v-0.66v-6.8v-0.23
		C57.33,44.75,56.37,44.02,54.49,43.96 M49.25,49.97h-3.32l1.48-3.13c0.18-0.33,0.41-0.49,0.68-0.49h1.16h3.91h1.03
		c0.27,0,0.62,0.24,0.68,0.59v3.03C54.87,49.97,49.25,49.97,49.25,49.97z"/>
</g>
</svg>
