<?xml version="1.0" encoding="utf-8"?>
<!-- Generator: Adobe Illustrator 24.2.3, SVG Export Plug-In . SVG Version: 6.00 Build 0)  -->
<svg version="1.1" id="Capa_1" xmlns="http://www.w3.org/2000/svg" xmlns:xlink="http://www.w3.org/1999/xlink" x="0px" y="0px"
	 viewBox="0 0 122 111" style="enable-background:new 0 0 122 111;" xml:space="preserve">
<style type="text/css">
	.st0{fill:#211F1F;}
</style>
<g>
	<path class="st0" d="M97.64,45.41l-5.9,7.99c0.06-0.32,0.1-0.65,0.13-0.97c0.02-0.29,0.04-0.56,0.04-0.84
		c0-0.95-0.16-1.87-0.52-2.71c-0.48-1.15-1.38-2.09-2.49-2.65c-1.21-0.62-2.6-0.81-4.27-0.82h-8.9h0.39l-7.37,20.24h2.19h7.64
		c1.11,0,2.32-0.18,3.66-0.51c0.35-0.08,0.71-0.2,1.06-0.33l-0.62,0.84h9.81l1.83-2.74h2.91l-0.04,0.82l-0.12,1.92H99h6.99
		L106,45.41H97.64z M84.6,62.06c-0.96,0.66-1.89,1.1-2.8,1.32c-1.24,0.3-2.31,0.45-3.23,0.45h-7.64l6.05-16.61h7.64
		c1.51,0,2.65,0.21,3.43,0.61c0.78,0.41,1.33,0.99,1.66,1.76c0.33,0.76,0.44,1.65,0.35,2.66c-0.09,1.01-0.35,2.09-0.76,3.22
		c-0.64,1.77-1.35,3.15-2.11,4.13C86.42,60.58,85.56,61.4,84.6,62.06 M104.18,63.83H99l0.16-2.73h-5.81l-1.83,2.73h-5.25
		l12.28-16.61h5.63V63.83z M84.56,51.96c0.34,0.65,0.19,1.85-0.45,3.62c-0.49,1.33-0.97,2.29-1.44,2.89
		c-0.47,0.59-0.98,1.01-1.52,1.24c-0.54,0.24-1.35,0.36-2.43,0.36h-1.26l3.3-9.08h1.28C83.38,50.99,84.22,51.32,84.56,51.96
		 M75.72,45.41H67.4l-1.96,5.38l-1.71-5.38h-6.56h-0.83H39.52h-8.15l-3.03,2.49l0.02-0.05l0.88-2.44h-9.01L19.8,46.6l-6.93,19.05
		h9.01l1.71-4.71l0.8-0.61l0.78,5.31h10.21l0,0h13.6h1.08h7.61l1.94-5.34l1.69,5.34h7.45h-0.4L75.72,45.41z M26.73,63.84l-1-6.8
		l-3.67,2.79l-1.46,4.01h-5.15l6.05-16.62h5.15l-2.28,6.28l7.65-6.28h6.83l-8.31,6.24l2.54,10.37h-6.35V63.84z M32.58,54.19
		l5.15-3.87l-3.65,10.02L32.58,54.19z M50.15,60.07l-1.37,3.77H34.74l6.05-16.62h13.79l-1.29,3.55h-8.65l-0.96,2.63h8.02l-1.23,3.39
		h-8.02l-1.19,3.28H50.15z M62.63,63.84l-2.91-9.15l-3.33,9.15h-4.83l6.05-16.62h4.79l2.92,9.2l3.35-9.2h4.85l-6.05,16.62
		C67.47,63.84,62.63,63.84,62.63,63.84z M95.75,57.5l3.99-5.97l-0.36,5.97H95.75z"/>
</g>
</svg>
