<?xml version="1.0" encoding="utf-8"?>
<!-- Generator: Adobe Illustrator 24.2.3, SVG Export Plug-In . SVG Version: 6.00 Build 0)  -->
<svg version="1.1" id="Capa_1" xmlns="http://www.w3.org/2000/svg" xmlns:xlink="http://www.w3.org/1999/xlink" x="0px" y="0px"
	 viewBox="0 0 122 111" style="enable-background:new 0 0 122 111;" xml:space="preserve">
<style type="text/css">
	.st0{fill:#020403;}
	.st1{fill:#070909;}
</style>
<g>
	<path class="st0" d="M69.72,49.56c0.93,0.72,1.85,1.42,2.76,2.13c2.37,1.85,4.67,3.8,7.07,5.61c0.15,0.11,0.29,0.22,0.44,0.33
		c0.17,0.13,0.36,0.24,0.28,0.52s-0.34,0.5-0.63,0.5c-0.85,0.02-1.7,0.04-2.55,0.05c-2.99,0.05-5.98,0.1-8.98,0.15
		c-0.18,0-0.31-0.05-0.44-0.16c-2.21-1.74-4.42-3.49-6.63-5.23c-0.69-0.55-1.39-1.09-2.07-1.64c-0.11-0.09-0.22-0.13-0.36-0.13
		c-1.49,0.03-2.97,0.06-4.46,0.08c-0.01,0-0.02,0-0.03,0c-0.59,0.02-0.65-0.07-0.44-0.63c0.44-1.13,0.87-2.27,1.3-3.4
		c0.12-0.32,0.32-0.5,0.68-0.51c1.39-0.02,2.79-0.05,4.18-0.07c0.45-0.01,0.9-0.03,1.35-0.03c0.14,0,0.26-0.04,0.38-0.1
		c4.42-2.27,8.84-4.55,13.27-6.83c0.12-0.06,0.24-0.09,0.38-0.09c2.76-0.05,5.51-0.1,8.27-0.15c1.01-0.02,2.03-0.04,3.04-0.05
		c0.19,0,0.43-0.1,0.53,0.18c0.07,0.21-0.09,0.55-0.32,0.67c-0.38,0.2-0.76,0.39-1.14,0.59c-5.26,2.7-10.52,5.41-15.78,8.11
		C69.78,49.5,69.77,49.52,69.72,49.56z"/>
	<g>
		<path class="st0" d="M62.54,73.43c-2.31,0-4.61,0-6.92,0c-0.4,0-0.77-0.06-1.12-0.27c-0.45-0.27-0.6-0.7-0.4-1.19
			c0.69-1.71,1.37-3.43,2.08-5.14c0.29-0.71,0.95-1.01,1.6-1.3c0.34-0.15,0.7-0.2,1.08-0.2c4.74-0.01,9.47-0.02,14.21-0.03
			c0.51,0,0.51,0,0.32,0.46c-0.17,0.43-0.35,0.85-0.51,1.28c-0.08,0.22-0.2,0.29-0.43,0.29c-1.92-0.01-3.83,0-5.75,0
			c-1.99,0-3.98,0.01-5.97,0c-0.22,0-0.36,0.06-0.44,0.28c-0.41,1.05-0.81,2.09-1.25,3.13c-0.23,0.54,0.07,0.85,0.58,0.84
			c2.56-0.03,5.13-0.02,7.69-0.01c0.45,0,0.76-0.2,1.02-0.52c0.15-0.19,0.2-0.41,0.1-0.63c-0.1-0.23-0.32-0.22-0.53-0.22
			c-2.08,0.01-4.16,0.02-6.24,0.03c-0.43,0-0.43-0.01-0.27-0.41c0.14-0.36,0.29-0.72,0.43-1.08c0.18-0.45,0.2-0.46,0.67-0.46
			c2.36,0,4.72,0,7.07,0c0.63,0,1.25-0.01,1.88-0.01c0.7,0,1.39,0.61,1.51,1.3c0.02,0.14-0.02,0.26-0.07,0.39
			c-0.26,0.63-0.52,1.27-0.77,1.9c-0.06,0.15-0.13,0.28-0.25,0.38c-0.49,0.43-1.04,0.8-1.64,1.07c-0.19,0.09-0.38,0.12-0.59,0.12
			c-2.36,0-4.72,0-7.07,0C62.54,73.42,62.54,73.43,62.54,73.43z"/>
		<path class="st0" d="M80.08,68.25c1.11,0,2.19,0,3.28,0c2.58,0,5.17,0,7.75,0c0.34,0,0.35,0.02,0.23,0.32
			c-0.17,0.44-0.36,0.87-0.52,1.31c-0.09,0.25-0.23,0.35-0.5,0.34c-1.12-0.01-2.23,0-3.35,0c-2.47,0-4.94,0.01-7.41,0
			c-0.21,0-0.35,0.03-0.4,0.26c-0.04,0.19-0.14,0.36-0.2,0.55c-0.11,0.32-0.04,0.41,0.28,0.41c3.85-0.01,7.71-0.01,11.56-0.02
			c0.41,0,0.43,0.02,0.27,0.41c-0.17,0.42-0.35,0.83-0.51,1.25c-0.08,0.22-0.2,0.29-0.43,0.29c-4.42,0-8.84,0-13.26,0.01
			c-0.39,0-0.78,0.01-1.17,0.02c-0.94,0.01-1.67-1.04-1.32-1.91c0.57-1.43,1.16-2.86,1.71-4.3c0.16-0.41,0.45-0.68,0.77-0.93
			c0.41-0.34,0.87-0.61,1.37-0.81c0.24-0.1,0.48-0.15,0.74-0.15c4.78,0,9.55,0,14.33-0.01c0.37,0,0.38,0.02,0.24,0.36
			c-0.18,0.45-0.37,0.89-0.53,1.34c-0.09,0.26-0.24,0.34-0.5,0.34c-2.57-0.01-5.15,0-7.72,0c-1.28,0-2.56,0.03-3.84-0.01
			c-0.41-0.01-0.56,0.21-0.72,0.48C80.17,67.93,80.14,68.08,80.08,68.25z"/>
		<path class="st1" d="M42.22,73.48c-2.32,0-4.63,0-6.95,0c-0.83,0-1.5-0.99-1.19-1.74c0.8-1.98,1.61-3.97,2.39-5.96
			c0.12-0.3,0.27-0.42,0.61-0.42c1.09,0.02,2.17,0,3.26,0c0.34,0,0.34,0.01,0.22,0.33c-0.68,1.68-1.36,3.36-2.04,5.05
			c-0.04,0.1-0.08,0.21-0.09,0.32c-0.02,0.36,0.13,0.54,0.5,0.54c2.3,0,4.59-0.01,6.89-0.01c0.5,0,1-0.02,1.51,0
			c0.26,0.01,0.37-0.09,0.46-0.32c0.74-1.87,1.51-3.73,2.25-5.6c0.1-0.26,0.25-0.33,0.5-0.33c1.22,0.01,2.44,0,3.66,0
			c0.39,0,0.4,0.01,0.26,0.37c-0.53,1.32-1.06,2.63-1.59,3.94c-0.27,0.66-0.57,1.31-0.8,1.99c-0.33,0.97-1.09,1.41-1.99,1.69
			c-0.26,0.08-0.54,0.11-0.82,0.11c-2.35,0-4.69,0-7.04,0C42.22,73.47,42.22,73.47,42.22,73.48z"/>
		<path class="st0" d="M101.82,73.37c-2.37,0-4.74,0-7.1,0c-1.03,0-1.73-1.06-1.35-2c0.78-1.93,1.56-3.86,2.33-5.79
			c0.09-0.22,0.2-0.3,0.43-0.3c1.24,0,2.48-0.01,3.72-0.01c0.31,0,0.34,0.04,0.22,0.34c-0.69,1.72-1.38,3.43-2.07,5.15
			c-0.24,0.6-0.21,0.64,0.42,0.64c3.77,0,7.54-0.01,11.32-0.01c0.41,0,0.43,0.03,0.28,0.41c-0.16,0.41-0.33,0.81-0.48,1.22
			c-0.09,0.25-0.23,0.34-0.5,0.34c-2.41-0.01-4.82-0.01-7.23-0.01C101.82,73.36,101.82,73.36,101.82,73.37z"/>
		<path class="st1" d="M27.34,69.45c1.34,1.09,2.67,2.17,3.99,3.25c0.13,0.11,0.27,0.22,0.41,0.32c0.09,0.07,0.15,0.14,0.11,0.26
			c-0.04,0.1-0.11,0.17-0.23,0.18c-0.1,0.01-0.2,0.01-0.31,0.01c-1.55,0-3.1,0-4.64,0.01c-0.17,0-0.29-0.06-0.41-0.16
			c-1.18-0.97-2.36-1.93-3.54-2.9c-0.12-0.1-0.24-0.11-0.37-0.11c-0.6,0-1.21,0-1.81,0c-0.21,0-0.3-0.05-0.2-0.29
			c0.19-0.45,0.36-0.91,0.53-1.37c0.09-0.25,0.25-0.34,0.52-0.33c0.68,0.02,1.35,0.01,2.03,0.03c0.2,0,0.38-0.04,0.56-0.13
			c1.84-0.92,3.68-1.83,5.51-2.75c0.14-0.07,0.28-0.1,0.44-0.1c1.57,0.01,3.14,0.01,4.71,0.01c0.11,0,0.26-0.06,0.3,0.08
			c0.04,0.16-0.08,0.26-0.22,0.33c-0.94,0.47-1.88,0.93-2.83,1.4c-1.43,0.71-2.86,1.41-4.29,2.12
			C27.51,69.34,27.44,69.39,27.34,69.45z"/>
		<path class="st0" d="M16.14,73.49c-0.64,0-1.27-0.01-1.91,0c-0.26,0.01-0.27-0.09-0.19-0.29c1.02-2.53,2.04-5.05,3.05-7.58
			c0.06-0.16,0.15-0.23,0.32-0.23c1.31,0,2.62,0,3.93,0c0.28,0,0.21,0.14,0.15,0.3c-0.42,1.03-0.83,2.06-1.25,3.09
			c-0.6,1.48-1.2,2.95-1.78,4.43c-0.08,0.21-0.19,0.27-0.41,0.27c-0.64-0.01-1.27,0-1.91,0C16.14,73.49,16.14,73.49,16.14,73.49z"/>
	</g>
	<path class="st1" d="M36.71,59.15c0.08-0.18,0.17-0.37,0.24-0.57c0.05-0.15,0.16-0.1,0.25-0.1c0.93-0.01,1.87-0.02,2.8,0
		c0.23,0,0.37-0.05,0.41-0.29c0.08-0.45,0.29-0.63,0.8-0.62c1.26,0.03,2.52-0.02,3.78-0.02c0.22,0,0.35-0.05,0.4-0.26
		c0.01-0.06,0.05-0.11,0.06-0.17c0.06-0.27,0.21-0.36,0.5-0.36c1.58,0,3.16-0.03,4.73-0.05c0.19,0,0.2,0.04,0.14,0.2
		c-0.27,0.66-0.54,1.32-0.8,1.99c-0.06,0.15-0.13,0.2-0.29,0.2c-2.04,0.01-4.08,0.04-6.12,0.05C41.32,59.16,39.04,59.15,36.71,59.15
		z"/>
	<path class="st1" d="M39.9,47.92c0.12-0.73,0.56-0.84,1.21-0.84c4.42,0,8.84-0.04,13.25-0.07c0.28,0,0.29,0.07,0.2,0.3
		c-0.24,0.63-0.46,1.27-0.67,1.91c-0.06,0.17-0.13,0.22-0.3,0.21c-0.7-0.01-1.39,0-2.09,0.01c-0.19,0-0.34-0.03-0.47-0.17
		c-0.46-0.51-1.02-0.66-1.72-0.64c-1.72,0.06-3.44,0.02-5.18,0.02c-0.01-0.14,0.09-0.28,0.14-0.42c0.12-0.33,0.12-0.33-0.22-0.33
		c-1.28,0.01-2.56,0.01-3.84,0.02C40.11,47.92,40,47.92,39.9,47.92z"/>
	<path class="st1" d="M47.49,42.23c0.1-0.27,0.19-0.52,0.29-0.79c-0.86,0-1.69,0-2.56,0c0.11-0.24,0.21-0.45,0.29-0.67
		c0.06-0.14,0.17-0.09,0.26-0.09c2.67-0.02,5.35-0.04,8.02-0.06c0.9-0.01,1.8-0.01,2.7-0.04c0.3-0.01,0.35,0.07,0.28,0.35
		c-0.16,0.6-0.29,1.21-0.43,1.82c-0.03,0.14-0.07,0.23-0.25,0.23c-1.64,0-3.28,0.01-4.92,0.04c-0.27,0-0.23-0.09-0.16-0.26
		c0.2-0.53,0.2-0.53-0.38-0.53C49.6,42.23,48.57,42.23,47.49,42.23z"/>
	<path class="st1" d="M45.89,55.92c0.08-0.2,0.15-0.4,0.23-0.6c0.06-0.15,0.06-0.2-0.14-0.2c-0.69,0.02-1.39,0.01-2.11,0.01
		c0.05-0.28,0.21-0.5,0.23-0.78c-1.35,0-2.69,0-4.06,0c0.09-0.23,0.17-0.45,0.26-0.66c0.06-0.14,0.18-0.14,0.31-0.14
		c1.68-0.01,3.36-0.02,5.04-0.03c2.07-0.01,4.14-0.03,6.21-0.05c0.27,0,0.28,0.06,0.19,0.28c-0.26,0.63-0.5,1.27-0.74,1.91
		c-0.06,0.15-0.12,0.24-0.3,0.24c-1.68,0.01-3.36,0.02-5.04,0.04C45.95,55.94,45.93,55.93,45.89,55.92z"/>
	<path class="st1" d="M55.93,43.78c-0.24,0.64-0.48,1.24-0.71,1.85c-0.21,0.55-0.21,0.57-0.79,0.57c-1.58,0.01-3.15,0-4.76,0
		c0.09-0.24,0.18-0.49,0.28-0.76c-0.52,0-1.01-0.01-1.51,0c-0.21,0-0.3-0.01-0.2-0.25c0.23-0.54,0.22-0.55-0.37-0.55
		c-1.1,0.01-2.19,0.01-3.29,0.04c-0.28,0.01-0.29-0.08-0.19-0.29c0.05-0.09,0.09-0.18,0.12-0.28c0.05-0.2,0.18-0.26,0.39-0.26
		c1.31,0,2.62-0.01,3.93-0.01c2.3-0.02,4.61-0.03,6.91-0.05C55.8,43.78,55.84,43.78,55.93,43.78z"/>
	<path class="st1" d="M49.33,50.25c1.21,0,2.42,0.01,3.63-0.01c0.21,0,0.22,0.06,0.17,0.22c-0.19,0.67-0.38,1.33-0.57,2
		c-0.04,0.14-0.08,0.22-0.26,0.22c-1.61,0.01-3.22,0.02-4.83,0.04c-0.24,0-0.27-0.06-0.2-0.28c0.18-0.53,0.17-0.55-0.41-0.54
		c-1.24,0.01-2.48,0.02-3.72,0.04c-0.22,0-0.28,0.01-0.2-0.27c0.14-0.49,0.4-0.66,0.9-0.6c0.36,0.04,0.74-0.01,1.11,0.01
		c0.22,0.01,0.3-0.08,0.36-0.28c0.15-0.53,0.16-0.53,0.7-0.53c1.11,0,2.21,0,3.32,0C49.33,50.28,49.33,50.26,49.33,50.25z"/>
	<path class="st1" d="M40.07,51.13c-0.01-0.05-0.02-0.06-0.02-0.07c0.25-0.71,0.25-0.71,1.01-0.73c0.07,0,0.14,0,0.21-0.01
		c0.51-0.02,0.51-0.02,0.5,0.08c-0.01,0.32-0.32,0.72-0.58,0.73C40.82,51.14,40.45,51.13,40.07,51.13z"/>
	<path class="st1" d="M42.54,40.29c0.01,0.04,0.01,0.05,0.01,0.06c-0.26,0.77-0.58,0.93-1.43,0.74c-0.11-0.02-0.11-0.06-0.08-0.14
		c0.07-0.17,0.15-0.34,0.21-0.51c0.04-0.12,0.13-0.15,0.24-0.15C41.84,40.29,42.19,40.29,42.54,40.29z"/>
	<path class="st1" d="M37.51,48.73c0.08-0.22,0.17-0.44,0.24-0.65c0.05-0.14,0.15-0.14,0.27-0.14c0.17,0,0.35,0,0.52,0
		c0.16,0,0.33,0,0.51,0c-0.02,0.24-0.16,0.46-0.24,0.69c-0.04,0.11-0.14,0.11-0.23,0.11C38.23,48.73,37.89,48.73,37.51,48.73z"/>
	<path class="st1" d="M41.72,55.96c-0.02,0-0.04,0-0.06,0c-0.2-0.03-0.53,0.1-0.56-0.05c-0.04-0.19,0.14-0.43,0.22-0.64
		c0.04-0.09,0.11-0.11,0.2-0.11c0.34,0,0.68,0,1.01-0.01c0.12,0,0.18,0.02,0.12,0.15c0,0.01-0.01,0.02-0.01,0.03
		C42.46,55.96,42.46,55.96,41.72,55.96z"/>
	<path class="st1" d="M42.92,42.72c0.36-0.94,0.08-0.73,1.05-0.79c0.15-0.01,0.31,0,0.48,0c-0.03,0.26-0.15,0.48-0.26,0.71
		c-0.03,0.07-0.1,0.1-0.18,0.1C43.66,42.72,43.3,42.79,42.92,42.72z"/>
</g>
</svg>
