<?xml version="1.0" encoding="utf-8"?>
<!-- Generator: Adobe Illustrator 24.2.3, SVG Export Plug-In . SVG Version: 6.00 Build 0)  -->
<svg version="1.1" id="Capa_1" xmlns="http://www.w3.org/2000/svg" xmlns:xlink="http://www.w3.org/1999/xlink" x="0px" y="0px"
	 viewBox="0 0 122 111" style="enable-background:new 0 0 122 111;" xml:space="preserve">
<style type="text/css">
	.st0{fill:#262424;}
</style>
<g>
	<path class="st0" d="M44.62,53.05L44,57.61h-2.18L44.62,53.05z M49.56,65.97l1.65-20.43h-7.75L30.65,64.59l1.87-4.97h-5.69
		l5.07-14.08h-6.4l-7.47,20.43H36.7l1.69-2.76h4.86l-0.38,2.76C42.87,65.97,49.56,65.97,49.56,65.97z M58.9,62.23L76.95,43.1H57.39
		l-3.74,5.83h9.28L50.51,61.54l-0.37,4.98h-4.67l-1.79,1.75h22.09l2.1-6.03H58.9V62.23z M86.28,51.28l2.07-5.74H75.56l-7.91,20.43
		H81l2.08-6.08h-6.3l0.52-1.43h6.42l1.97-5.7h-6.04l0.53-1.48H86.28z M96.22,51.71c0,0.25-0.1,0.6-0.51,0.99l-2.76,2.68l1.62-4.53
		h0.61c0.49,0,0.8,0.15,0.96,0.47L96.22,51.71z M100.95,54.95c1.57-1.6,2.07-3.1,2.07-4.36c0-1.08-0.36-1.99-0.72-2.6l0,0
		c-0.99-1.71-2.85-2.46-6.03-2.46h-6.25L82.8,66.06h6.31l2.42-6.73l2.89,6.73h6.54l-3.41-7.83L100.95,54.95z"/>
	<path class="st0" d="M105.46,45.64c0.83,0,1.54,0.66,1.54,1.53c0,0.89-0.7,1.54-1.54,1.54c-0.84,0-1.55-0.66-1.55-1.54
		C103.91,46.29,104.62,45.64,105.46,45.64 M105.46,48.49c0.71,0,1.26-0.57,1.26-1.32c0-0.74-0.55-1.31-1.26-1.31
		c-0.72,0-1.28,0.57-1.28,1.31C104.19,47.92,104.74,48.49,105.46,48.49 M104.86,46.27h0.7c0.43,0,0.63,0.17,0.63,0.51
		c0,0.33-0.21,0.46-0.47,0.5l0.51,0.79h-0.29l-0.49-0.77h-0.29v0.77h-0.28v-1.8H104.86z M105.14,47.07h0.29
		c0.25,0,0.47-0.01,0.47-0.29c0-0.24-0.21-0.27-0.39-0.27h-0.37V47.07z"/>
</g>
</svg>
