<?xml version="1.0" encoding="utf-8"?>
<!-- Generator: Adobe Illustrator 24.2.3, SVG Export Plug-In . SVG Version: 6.00 Build 0)  -->
<svg version="1.1" id="Capa_1" xmlns="http://www.w3.org/2000/svg" xmlns:xlink="http://www.w3.org/1999/xlink" x="0px" y="0px"
	 viewBox="0 0 122 111" style="enable-background:new 0 0 122 111;" xml:space="preserve">
<style type="text/css">
	.st0{fill:#211F1F;}
</style>
<g>
	<path class="st0" d="M35.8,52.53l-1.11,1.91c-0.16,0.27-0.4,0.5-0.68,0.69c-0.3,0.18-0.58,0.28-0.85,0.28
		c-0.38,0-0.57-0.17-0.57-0.48c0-0.15,0.05-0.31,0.16-0.49l1.12-1.92c0.16-0.26,0.39-0.49,0.68-0.67c0.3-0.18,0.57-0.28,0.84-0.28
		c0.36,0,0.53,0.16,0.53,0.48C35.93,52.2,35.89,52.35,35.8,52.53 M27.97,51.23l-5.03,8.71c-0.1,0.17-0.14,0.33-0.14,0.48
		c0,0.33,0.19,0.49,0.57,0.49h13.52c0.25,0,0.53-0.1,0.84-0.28c0.3-0.19,0.52-0.41,0.67-0.68l1.13-1.92
		c0.09-0.18,0.14-0.33,0.14-0.48c0-0.32-0.18-0.48-0.55-0.48H34.3c-0.28,0-0.56,0.1-0.86,0.28s-0.52,0.41-0.67,0.67l-0.57,0.97
		c-0.15,0.27-0.37,0.5-0.67,0.69s-0.59,0.28-0.85,0.28c-0.36,0-0.54-0.16-0.54-0.48c0-0.15,0.05-0.31,0.15-0.48l1.13-1.92
		c0.14-0.27,0.36-0.49,0.66-0.69c0.3-0.18,0.57-0.28,0.85-0.28h6.75c0.27,0,0.55-0.1,0.86-0.28c0.3-0.19,0.52-0.42,0.67-0.69
		l2.23-3.89c0.09-0.18,0.14-0.34,0.14-0.48c0-0.07-0.01-0.13-0.03-0.18c-0.06-0.2-0.23-0.3-0.51-0.3H29.5
		c-0.26,0-0.55,0.1-0.85,0.28c-0.01,0.01-0.02,0.02-0.03,0.02C28.33,50.75,28.12,50.97,27.97,51.23"/>
	<path class="st0" d="M14.21,64.41l21.7-0.02c0.46,0,1-0.36,1.21-0.81l0.46-1.01c0.22-0.46,0.03-0.91-0.42-0.91H23.14
		c0,0-1.04,0.01-1.38-0.23c-0.37-0.26-0.07-1.06-0.07-1.06l5.62-9.8l4.16-7.16c0.16-0.34,0.12-0.52-0.1-0.52
		c-0.37,0-7.92,3.2-8.45,3.89c-0.52,0.69-9.13,16.82-9.13,16.82C13.57,64.05,13.76,64.41,14.21,64.41"/>
	<path class="st0" d="M48.71,51.04l-0.57,1.01c-0.25,0.45-0.08,0.82,0.37,0.82h2.11l-3.04,5.21c-0.2,0.34-0.3,0.69-0.3,1.09
		c0,0.2,0.04,0.37,0.12,0.5l2.65,4.53c0.08,0.13,0.19,0.2,0.3,0.2c0.23,0,0.44-0.18,0.64-0.53l5.63-9.68c0,0,0.52-0.81,1.16-1.06
		c0.59-0.24,1.62-0.23,1.62-0.23h13.83c0.45,0,1.03-0.37,1.27-0.81l0.57-1.01c0.11-0.19,0.14-0.36,0.1-0.5
		c-0.04-0.2-0.2-0.32-0.46-0.32H58.9l0.66-1.02l0.09-0.15c0.17-0.28,0.25-0.59,0.25-0.93c0-0.22-0.04-0.41-0.12-0.54l-2.67-4.54
		c-0.07-0.12-0.16-0.18-0.28-0.18c-0.24,0-0.44,0.17-0.65,0.52l-0.16,0.27l-3.84,6.55h-2.19c-0.28,0-0.59,0.14-0.85,0.35
		C48.96,50.7,48.81,50.86,48.71,51.04"/>
	<path class="st0" d="M65.47,55.67l-2.07,3.6c-0.14,0.26-0.37,0.5-0.68,0.68c-0.3,0.18-0.59,0.28-0.85,0.28
		c-0.36,0-0.54-0.16-0.54-0.48c0-0.15,0.05-0.3,0.16-0.48l2.05-3.6c0.17-0.27,0.39-0.5,0.68-0.69s0.57-0.28,0.84-0.28
		c0.36,0,0.54,0.16,0.54,0.48C65.61,55.34,65.57,55.51,65.47,55.67 M72.93,54.21c0-0.32-0.18-0.49-0.54-0.49H58.87
		c-0.27,0-0.55,0.1-0.85,0.29c-0.3,0.19-0.53,0.42-0.67,0.68l-3.19,5.55c-0.09,0.18-0.14,0.33-0.14,0.48c0,0.32,0.19,0.49,0.56,0.49
		H68.1c0.26,0,0.54-0.09,0.84-0.28c0.3-0.19,0.52-0.42,0.67-0.69l3.19-5.55C72.89,54.52,72.93,54.36,72.93,54.21"/>
	<path class="st0" d="M75.85,51.53l-5.03,8.71c-0.09,0.17-0.14,0.34-0.14,0.48c0,0.32,0.19,0.48,0.56,0.48h13.52
		c0.25,0,0.53-0.09,0.83-0.28c0.31-0.19,0.53-0.42,0.68-0.68l5.02-8.71c0.1-0.18,0.14-0.34,0.14-0.48c0-0.33-0.18-0.49-0.54-0.49
		h-4.83c-0.27,0-0.55,0.09-0.85,0.28c-0.3,0.18-0.53,0.42-0.67,0.69l-4.47,7.75c-0.15,0.26-0.37,0.5-0.67,0.68
		c-0.3,0.18-0.59,0.28-0.86,0.28c-0.37,0-0.54-0.16-0.54-0.48c0-0.15,0.05-0.31,0.16-0.48l4.46-7.73c0.08-0.18,0.13-0.35,0.13-0.5
		c0-0.33-0.18-0.5-0.54-0.5h-4.83c-0.27,0-0.55,0.09-0.85,0.28C76.22,51.03,76,51.26,75.85,51.53"/>
	<path class="st0" d="M92.41,51.53l-5.03,8.71c-0.1,0.17-0.14,0.34-0.14,0.48c0,0.32,0.19,0.48,0.56,0.48h4.84
		c0.25,0,0.54-0.09,0.84-0.28c0.3-0.18,0.52-0.41,0.67-0.67l3.57-6.19c0.16-0.27,0.38-0.5,0.67-0.69s0.58-0.28,0.84-0.28
		c0.36,0,0.54,0.16,0.54,0.49c0,0.14-0.05,0.3-0.14,0.48l-0.57,0.97c-0.09,0.17-0.14,0.34-0.14,0.48c0,0.32,0.18,0.48,0.56,0.48
		h4.83c0.26,0,0.53-0.09,0.83-0.28c0.3-0.2,0.53-0.42,0.68-0.69l2.02-3.49c0.09-0.18,0.14-0.34,0.14-0.48
		c0-0.33-0.19-0.49-0.54-0.49h-13.5c-0.26,0-0.56,0.09-0.85,0.28C92.78,51.03,92.56,51.26,92.41,51.53"/>
</g>
</svg>
