<?xml version="1.0" encoding="utf-8"?>
<!-- Generator: Adobe Illustrator 24.2.3, SVG Export Plug-In . SVG Version: 6.00 Build 0)  -->
<svg version="1.1" id="Capa_1" xmlns="http://www.w3.org/2000/svg" xmlns:xlink="http://www.w3.org/1999/xlink" x="0px" y="0px"
	 viewBox="0 0 122 111" style="enable-background:new 0 0 122 111;" xml:space="preserve">
<style type="text/css">
	.st0{fill:#211F1F;}
</style>
<g>
	<path class="st0" d="M18.72,51.1v7.89c0,4.85,3.19,4.27,3.19,4.27h10.13v3.62H19.01c-3.76,0-4.63-4.64-4.63-4.64V51.1H18.72z
		 M33.63,51.1v11.39c0,0-0.06,4.4,5.44,4.4h11.19c0,0,3.49-0.49,3.49-4.11V51.1h-4.78v9.84c0,0-0.12,2.17-1.71,2.17h-7.67
		c-1.44,0-1.4-2.24-1.4-2.24V51.1H33.63z M55.78,66.88h4.34v-9.54c0-0.62,0.44-2.62,3.19-2.62h4.78v12.16h4.05V54.72h5.03
		c0.86,0,2.64,0.72,2.64,2.61v9.56H84V56.31c0,0-0.29-5.21-4.2-5.21H60.55c0,0-4.78,0.29-4.78,5.64L55.78,66.88L55.78,66.88z
		 M107.6,56.6v10.28h-4.48v-3.62H90.95v3.62h-4.49v-9.99c0-5.35,4.2-5.79,4.2-5.79h12.45C107.89,51.1,107.6,56.6,107.6,56.6
		 M103.4,57.4c0-1.95-1.71-2.39-2.6-2.39h-7.39c-2.75,0-2.6,2.9-2.6,2.9v1.88h12.59C103.4,59.79,103.4,57.4,103.4,57.4z M107.6,46.3
		c-4.6-1.38-9.18-2.82-13.8-4.13c-4.01-1.14-3.8-1.27-3.82,1.4c0,3.86,0.51,3.66,2.1,3.62c4.44-0.09,8.88-0.04,13.32-0.02
		C108.55,47.17,108.2,46.57,107.6,46.3 M69.35,44.86c-0.1,1.49,0.47,1.97,1.89,1.55c5.29-1.53,14.48-4.18,15.88-4.58
		c2.1-0.66,2.17-1.08,0.04-1.83c-1.33-0.48-10.74-3.06-16.1-4.65c-1.23-0.36-1.73-0.06-1.7,1.23L69.35,44.86z"/>
</g>
</svg>
