<?xml version="1.0" encoding="utf-8"?>
<!-- Generator: Adobe Illustrator 24.2.3, SVG Export Plug-In . SVG Version: 6.00 Build 0)  -->
<svg version="1.1" id="Capa_1" xmlns="http://www.w3.org/2000/svg" xmlns:xlink="http://www.w3.org/1999/xlink" x="0px" y="0px"
	 viewBox="0 0 122 111" style="enable-background:new 0 0 122 111;" xml:space="preserve">
<style type="text/css">
	.st0{fill:#211F1F;}
</style>
<g>
	<path class="st0" d="M34.51,54.46l-0.35,0.67l7.87,0.01l-1.17,2.12h-7.84l-0.39,0.71h10.04l-1.09,2.02H29.87
		c-0.94,0-1.28-0.22-1.4-0.39c-0.05-0.07-0.08-0.15-0.08-0.23c-0.01-0.16,0.05-0.34,0.11-0.47c0,0,1.92-3.62,2.91-5.48
		c0.27-0.48,0.57-1.04,2.61-1.05l11.65-0.01l-1.15,2.1C44.52,54.46,34.51,54.46,34.51,54.46z M66.52,52.37l-4.12,0.01L58.3,60h4.12
		L66.52,52.37z M80.61,52.76c0.07,0.15,0.05,0.23,0.04,0.31s-0.09,0.33-0.17,0.5c-0.03,0.08-2.31,4.4-2.31,4.4
		C77.68,58.94,76.89,60,75.2,60H63.76l4.14-7.65l10.89,0.02C80.02,52.37,80.45,52.42,80.61,52.76 M74.4,57.98l1.57-3.05
		c0.03-0.06,0.01-0.16-0.01-0.2c-0.06-0.14-0.33-0.24-0.73-0.24l-4.89,0.01l-1.89,3.49L74.4,57.98 M95.58,52.73
		c0.07,0.1,0.1,0.2,0.1,0.3c0.01,0.2-0.06,0.38-0.06,0.38l-3.5,6.58L88.36,60l1.48-2.69h-6.28l-1.47,2.7l-3.87,0.01l3.53-6.63
		c0.3-0.53,0.55-1.02,2.13-1.03l10.24-0.01C95.06,52.35,95.41,52.5,95.58,52.73 M84.46,55.59h6.23c0,0,0.41-0.8,0.43-0.85
		s0.03-0.27-0.3-0.27h-5.35c-0.39,0.02-0.52,0.26-0.52,0.26L84.46,55.59z M60.37,52.71c-0.13-0.15-0.43-0.35-1.37-0.35l-12.2,0.01
		L42.71,60h3.74l2.9-5.48l6.39-0.01c0,0,0.39-0.02,0.31,0.16c-0.05,0.11,0.1-0.11-0.17,0.3c-0.04,0.04-0.1,0.15-0.32,0.16
		s-4.62,0.02-4.62,0.02l-1.03,2.16L53.47,60h4.82l-2.34-1.83l-1.08-0.86l1.73-0.01c1.4-0.03,1.81-0.28,2.23-1
		c0,0,1.58-3.04,1.59-3.06c0.02-0.04,0.06-0.13,0.05-0.23C60.47,52.93,60.47,52.82,60.37,52.71 M28.62,52.37h-5.26l-4.05,3.81
		l-1.11-3.81c0,0-3.93,0.01-4.32,0.02c-0.75-0.02-1.07,0.32-1.36,0.82C12.49,53.25,9,60,9,60h3.63l3-5.52h0.8l1.22,3.98h2.6
		l4.37-3.98h1.04L22.71,60h3.84l3.52-6.64c0.35-0.82,0.22-1.02-0.82-0.99H28.62z M110.12,62.47c0.48,0,0.55-0.25,0.16-0.56
		l-3.81-3.24c-0.39-0.31-1.02-0.29-1.4,0.04l-1.04,0.64c-0.38,0.33-0.98,0.42-1.33,0.19c-0.36-0.23-0.99-0.21-1.41,0.05L97.34,62
		c-0.42,0.26-0.37,0.47,0.11,0.47H110.12z M104.46,50.72c-0.37-0.29-0.96-0.29-1.32,0l-8.44,9.39c-0.5,0.69,0.22,0.88,0.64,0.61
		l5.48-3.74c0.41-0.27,1.1-0.28,1.52-0.02L102.4,57c0.42,0.26,1.06,0.19,1.43-0.16l1.08-0.72c0.36-0.35,0.99-0.39,1.39-0.1
		l5.68,4.58c0.4,0.29,1.36,0.2,0.9-0.49L104.46,50.72z"/>
</g>
</svg>
