<?xml version="1.0" encoding="utf-8"?>
<!-- Generator: Adobe Illustrator 24.2.3, SVG Export Plug-In . SVG Version: 6.00 Build 0)  -->
<svg version="1.1" id="Capa_1" xmlns="http://www.w3.org/2000/svg" xmlns:xlink="http://www.w3.org/1999/xlink" x="0px" y="0px"
	 viewBox="0 0 122 111" style="enable-background:new 0 0 122 111;" xml:space="preserve">
<style type="text/css">
	.st0{fill:#211F1F;}
</style>
<g>
	<g>
		<path d="M20.99,41.86h11.1l3.13-9.33c0,0-6.32,13.17-8.15-1.48l-0.47-3.54c0,0-0.59,19.49-8.62,5.02L20.99,41.86z"/>
		<path d="M40.19,46.23c0-0.59-0.27-1.02-0.81-1.27c-1.64-0.74-3.46-1.27-5.9-1.71c-1.4-0.25-2.87-0.44-4.49-0.59
			c-1.65-0.15-2.92-0.17-4.1-0.07c-1.87,0.17-3.39,0.35-4.76,0.58c-2.5,0.42-4.48,0.98-6.23,1.74c-0.61,0.27-0.9,0.72-0.9,1.39
			c0.01,2.84,0.01,5.69,0.01,8.53v3.49c0,0.69,0.09,1.42,0.28,2.22c0.51,2.18,1.51,4.27,2.98,6.21c1.92,2.53,4.43,4.48,7.16,6.06
			c0.78,0.45,1.26,0.89,2.1,1.23c0.34,0.14,0.83,0.38,1.2,0.33c0.37-0.04,0.91-0.28,1.22-0.46c0.34-0.2,0.67-0.44,1.02-0.63
			c0.64-0.34,1.27-0.69,1.89-1.08c1.16-0.72,2.27-1.53,3.29-2.43c2.32-2.04,3.97-4.3,5.03-6.9c0.68-1.67,1-3.07,1.01-4.42
			c0.02-2.65,0.01-5.3,0.01-7.94L40.19,46.23z M32.17,68.49c-1.58,1.32-3.4,2.45-5.59,3.47c-2.39-1.11-4.38-2.38-6.05-3.85
			l1.81-12.13c0.36,1.11,0.72,2.23,1.07,3.34c0.53,1.64,0.83,3.47,2.3,4.55c0.35,0.26,0.78,0.47,1.22,0.44
			c0.62-0.04,1.11-0.55,1.4-1.1c0.71-1.35,1.23-2.87,1.65-4.33c0.24-0.82,1.03-2.36,0.92-3.15c0,0,1.66,12.1,1.69,12.36
			C32.45,68.23,32.33,68.36,32.17,68.49z M37.94,58.56c-0.01,1.25-0.44,2.45-0.87,3.47c-0.82-3.93-1.7-7.86-2.38-11.81
			c-0.47-2.7-4.3-3.4-5.92-1.19c-0.12,0.16-0.21,0.34-0.28,0.52c-0.71,1.72-1.03,3.58-1.55,5.36c-0.03,0.11-0.07,0.23-0.15,0.3
			c-0.16,0.14-0.43,0.05-0.55-0.13c-0.47-0.66-0.56-1.96-0.78-2.73c-0.34-1.22-0.47-2.62-1.35-3.58c-1.34-1.45-4.03-1.49-5.26,0.17
			c-0.82,1.1-0.63,2.92-0.81,4.22c-0.03,0.21-0.05,0.43-0.08,0.64l-1.68,8.71c-0.23-0.51-0.43-1.04-0.6-1.57
			c-0.31-1-0.46-1.9-0.45-2.75c0.01-1.28,0.01-2.57,0.01-3.86v-1.58v-1.37c0-1.54,0-3.07-0.01-4.64c1.3-0.53,2.76-0.93,4.7-1.28
			c2.22-0.4,4.41-0.65,6.5-0.72c0.97-0.04,1.99,0.07,2.97,0.17l0.22,0.02c1.78,0.18,3.5,0.46,5.1,0.82c1.2,0.27,2.27,0.6,3.25,1v3.7
			C37.96,53.17,37.97,55.87,37.94,58.56z"/>
	</g>
	<g>
		<g>
			<path class="st0" d="M46.65,49.41h3.58l3.41,9.2h0.04c0.01-0.09,0.05-0.26,0.12-0.53c0.06-0.27,0.15-0.59,0.27-0.98
				c0.11-0.38,0.24-0.82,0.39-1.29c0.15-0.48,0.32-0.97,0.52-1.48l0.43-1.14c0.16-0.42,0.3-0.8,0.44-1.15
				c0.13-0.34,0.26-0.66,0.37-0.96s0.23-0.58,0.34-0.85c0.11-0.27,0.23-0.54,0.36-0.83h3.54l1.66,12.57h-3.28l-0.92-8.9h-0.04
				c0,0.06-0.04,0.23-0.12,0.5c-0.08,0.27-0.18,0.61-0.31,1.02c-0.13,0.4-0.27,0.84-0.43,1.32s-0.32,0.95-0.49,1.41l-0.43,1.14
				c-0.21,0.57-0.44,1.15-0.67,1.73c-0.23,0.58-0.47,1.15-0.71,1.7h-2.94l-3.22-8.81H48.5c0,0.09-0.01,0.34-0.02,0.76
				c-0.01,0.42-0.03,0.93-0.05,1.52s-0.05,1.23-0.08,1.91c-0.04,0.68-0.07,1.33-0.12,1.94l-0.19,2.77h-3.2L46.65,49.41z"/>
			<path class="st0" d="M64.45,53.28c0.36-0.78,0.87-1.46,1.53-2.03c0.66-0.58,1.45-1.02,2.37-1.35c0.92-0.32,1.94-0.48,3.05-0.48
				c1.05,0,1.98,0.16,2.78,0.49c0.8,0.33,1.47,0.78,2,1.34s0.93,1.22,1.2,1.97s0.4,1.54,0.4,2.38c0,0.9-0.19,1.74-0.55,2.52
				c-0.37,0.78-0.88,1.46-1.54,2.03c-0.66,0.58-1.45,1.02-2.36,1.35c-0.92,0.32-1.92,0.48-3.01,0.48c-1.09,0-2.04-0.17-2.85-0.5
				c-0.81-0.34-1.48-0.78-2-1.35c-0.53-0.56-0.92-1.22-1.17-1.97c-0.26-0.75-0.38-1.54-0.38-2.36
				C63.91,54.9,64.09,54.06,64.45,53.28z M67.46,57.19c0.16,0.48,0.39,0.9,0.69,1.27c0.31,0.37,0.68,0.66,1.13,0.87
				c0.45,0.22,0.96,0.33,1.54,0.33c0.64,0,1.19-0.1,1.64-0.29c0.45-0.19,0.83-0.47,1.13-0.82c0.3-0.35,0.52-0.77,0.66-1.25
				c0.14-0.48,0.21-1,0.21-1.57c0-0.53-0.08-1.03-0.23-1.51c-0.16-0.48-0.39-0.9-0.69-1.27c-0.31-0.37-0.69-0.66-1.14-0.88
				c-0.46-0.22-0.97-0.33-1.56-0.33c-0.64,0-1.19,0.1-1.64,0.29c-0.45,0.19-0.83,0.47-1.13,0.82c-0.3,0.35-0.51,0.77-0.65,1.25
				s-0.2,1-0.2,1.57C67.23,56.2,67.31,56.7,67.46,57.19z"/>
			<path class="st0" d="M89.23,61.98c-0.04,0-0.13-0.07-0.26-0.2c-0.13-0.14-0.27-0.31-0.44-0.51c-0.16-0.2-0.34-0.43-0.54-0.69
				c-0.2-0.25-0.38-0.49-0.54-0.72c-0.16-0.22-0.31-0.42-0.44-0.59c-0.13-0.17-0.21-0.28-0.26-0.33l-4.2-5.66h-0.04
				c0.08,0.35,0.16,0.75,0.21,1.2c0.06,0.45,0.11,0.94,0.15,1.45c0.04,0.52,0.07,1.05,0.08,1.59c0.01,0.55,0.02,1.08,0.02,1.6v2.85
				h-3V49.41h3.47l6.37,8.68h0.04c-0.16-0.73-0.28-1.6-0.37-2.62c-0.09-1.01-0.14-2.09-0.14-3.25v-2.81h2.98v12.57H89.23z"/>
			<path class="st0" d="M98.18,61.98h-3.15V49.41h3.15V61.98z M103,61.98l-4.75-6.27v-0.04c0.34-0.57,0.75-1.18,1.24-1.82
				c0.48-0.65,1.02-1.35,1.62-2.12l1.81-2.31h4.01l-2.22,2.48c-0.58,0.65-1.14,1.26-1.68,1.84s-1.04,1.13-1.51,1.64l5.5,6.61
				L103,61.98L103,61.98z"/>
		</g>
	</g>
</g>
</svg>
