<?xml version="1.0" encoding="utf-8"?>
<!-- Generator: Adobe Illustrator 24.2.3, SVG Export Plug-In . SVG Version: 6.00 Build 0)  -->
<svg version="1.1" id="Capa_1" xmlns="http://www.w3.org/2000/svg" xmlns:xlink="http://www.w3.org/1999/xlink" x="0px" y="0px"
	 viewBox="0 0 122 111" style="enable-background:new 0 0 122 111;" xml:space="preserve">
<style type="text/css">
	.st0{fill:#211F1F;}
</style>
<g>
	<path class="st0" d="M47.12,50.05V35.87h10.94l10.48,10.44h0.45V35.87h6.42v14.18H64.57L54.08,39.44h-0.45v10.61H47.12z
		 M47.12,57.25h28.29v-3.8H47.12V57.25z M62.43,66.05l-1.66,2.11h3.71l-1.57-2.11H62.43z M39.81,66.11h-4.55
		c-0.79,0-0.92,0.64-0.92,1.43s0.13,1.43,0.92,1.43h4.55c0.79,0,0.92-0.64,0.92-1.43S40.6,66.11,39.81,66.11 M12.62,63.03H110v9.07
		H12.62V63.03z M29.37,64.72h-2.68v4.37H26.5l-4.39-4.37h-4.58v5.93h2.72v-4.44h0.19l4.39,4.44h4.54
		C29.37,70.65,29.37,64.72,29.37,64.72z M43.32,66.77c0-1.13-0.92-2.05-2.05-2.05h-7.53c-1.13,0-2.05,0.92-2.05,2.05v1.83
		c0,1.13,0.92,2.05,2.05,2.05h7.53c1.13,0,2.05-0.92,2.05-2.05V66.77z M53.06,70.6l4.22-5.88h-2.89L51.32,69h-0.45l-2.95-4.28h-2.8
		l4.01,5.88H53.06z M69.09,70.6l-4.4-5.88h-4.07l-4.43,5.88h2.92l0.78-1.09h5.57l0.66,1.09H69.09z M79.03,64.72H68.9v1.48h3.74v4.4
		h2.65v-4.4h3.74V64.72z M91.08,69.12h-6.72v-0.96h6.33V66.9h-6.36v-0.85h6.6v-1.33h-9.22v5.88h9.37V69.12z M103.98,68.1h-2.62
		c-0.07,0.51-0.29,0.87-0.88,0.87h-3.62c-0.79,0-0.92-0.64-0.92-1.43s0.13-1.43,0.92-1.43h3.62c0.44,0,0.67,0.2,0.79,0.51h2.7
		c-0.08-1.06-0.95-1.9-2.04-1.9h-6.6c-1.13,0-2.05,0.92-2.05,2.05v1.83c0,1.13,0.92,2.05,2.05,2.05h6.6c1.13,0,2.05-0.92,2.05-2.05
		V68.1z"/>
</g>
</svg>
