<?xml version="1.0" encoding="utf-8"?>
<!-- Generator: Adobe Illustrator 24.2.3, SVG Export Plug-In . SVG Version: 6.00 Build 0)  -->
<svg version="1.1" id="Capa_1" xmlns="http://www.w3.org/2000/svg" xmlns:xlink="http://www.w3.org/1999/xlink" x="0px" y="0px"
	 viewBox="0 0 122 111" style="enable-background:new 0 0 122 111;" xml:space="preserve">
<style type="text/css">
	.st0{fill:#262424;}
</style>
<g>
	<path class="st0" d="M23.13,40.82h-0.76v29.59h11.65v-8.46h4.64c6.27,0,10.32-3.95,10.32-10.07c0-6.92-4.68-11.07-12.51-11.07
		L23.13,40.82L23.13,40.82z M36.48,42.3c7,0,11.03,3.5,11.03,9.58c0,5.27-3.39,8.57-8.84,8.57h-6.12v8.47h-8.69V42.3H36.48z"/>
	<path class="st0" d="M33.29,48.5h-0.75v6.38h1.78c1.14,0,4.59,0,4.59-3.33c0-3.05-3.25-3.05-4.63-3.05
		C34.28,48.5,33.29,48.5,33.29,48.5z M34.28,49.98c2.38,0,3.13,0.4,3.13,1.57c0,1.13-0.52,1.83-3.1,1.83h-0.29v-3.4H34.28z"/>
	<path class="st0" d="M49.03,40.82h-0.74v29.59h11.78v-7.04c1.32,2.59,3.61,7.04,3.61,7.04h14.04l-7.1-10.32
		c-0.36-0.49-0.73-0.85-1.09-1.15c3.65-1.46,5.06-3.6,5.06-7.61c0-6.68-4.68-10.51-12.84-10.51H49.03z M61.75,42.3
		c4.24,0,11.34,1.2,11.34,9.03c0,3.69-1.3,5.36-5.09,6.59l-0.53,0.19v1.12l0.46,0.35c0.48,0.37,0.98,0.76,1.46,1.4
		c0,0,3.79,5.48,5.48,7.95H64.59c-0.38-0.76-4.61-9.04-4.61-9.04H58.6v9.04h-8.84V42.3H61.75z"/>
	<path class="st0" d="M59.33,48.5H58.6v6.26h1.46c1.16,0,4.19,0,4.19-3.09c0-3.17-2.88-3.17-4.12-3.17H59.33z M60.14,49.98
		c2.05,0,2.66,0.39,2.66,1.69c0,1.03-0.44,1.59-2.72,1.6v-3.28L60.14,49.98L60.14,49.98z"/>
	<path class="st0" d="M73.7,55.64c0,1.21,0.17,2.49,0.48,3.76l0.27,1.07l11.42-8.29c0,0-1.44-2.03-2.35-3.26
		c2.66,0.52,10.64,2.13,11.73,2.35c-0.15,1.06-1.2,9.14-1.53,11.83c-0.91-1.26-2.4-3.36-2.4-3.36l-11.46,8.41l0.92,0.61
		c2.54,1.66,5.51,2.53,8.58,2.53c8.62,0,15.65-7.02,15.65-15.64s-7.03-15.66-15.65-15.66C80.72,39.99,73.7,47.02,73.7,55.64
		 M75.2,55.64c0-7.8,6.36-14.16,14.16-14.16c7.79,0,14.15,6.35,14.15,14.16c0,7.8-6.36,14.16-14.15,14.16c-2.4,0-4.7-0.63-6.8-1.78
		c1.46-1.07,7.46-5.47,8.42-6.18c0.66,0.91,3.76,5.21,3.76,5.21l2.17-17.01l-16.78-3.33c0,0,3.02,4.26,3.69,5.13
		c-0.98,0.69-6.92,5.01-8.39,6.09C75.28,57.15,75.2,56.38,75.2,55.64"/>
</g>
</svg>
