<?xml version="1.0" encoding="utf-8"?>
<!-- Generator: Adobe Illustrator 24.2.3, SVG Export Plug-In . SVG Version: 6.00 Build 0)  -->
<svg version="1.1" id="Capa_1" xmlns="http://www.w3.org/2000/svg" xmlns:xlink="http://www.w3.org/1999/xlink" x="0px" y="0px"
	 viewBox="0 0 122 111" style="enable-background:new 0 0 122 111;" xml:space="preserve">
<style type="text/css">
	.st0{fill:#211F1F;}
</style>
<path class="st0" d="M12.02,64.4l4.11-15.78l12.4,0.01c0,0,4.97-0.23,4.97,3.35s-3.66,6.01-6.59,6.58l3.9,5.85h-7.4L20,59.38
	l-1.31,5.02C18.69,64.4,12.02,64.4,12.02,64.4z M32.08,64.41l10.75-15.79h9.93l1.12,15.79h-6.43l-0.21-2.68h-6.25l-1.91,2.68H32.08z
	 M43.2,58.31h3.87l-0.42-5.59L43.2,58.31z M59.84,48.62l-4.27,15.79h13l1.36-5.25h-6.39l2.79-10.54L59.84,48.62z M90.65,49.07
	l-1.29,5.02c0,0-8.68-2.69-10.35,2.3c-1.15,4.55,5.8,4.63,8.87,3.37l-1.1,4.3c0,0-17.07,5.03-15.05-7.19
	C74.75,44.37,90.65,49.07,90.65,49.07 M110.66,58.72c-4.71,8.88-23.1,8.51-20.27-1.31c3.02-10.47,14.83-9.15,14.83-9.15
	S115.63,49.35,110.66,58.72 M102.94,53.77c0,0-4-0.74-5.31,3.46c-1.34,4.3,2.79,4.02,4.58,3.24
	C104.01,59.69,107.3,54.72,102.94,53.77 M26.38,53.94c-0.25-1.66-4.93-1.11-4.93-1.11l-0.92,3.66
	C24.43,57.08,26.63,55.59,26.38,53.94"/>
</svg>
