<?xml version="1.0" encoding="utf-8"?>
<!-- Generator: Adobe Illustrator 24.2.3, SVG Export Plug-In . SVG Version: 6.00 Build 0)  -->
<svg version="1.1" id="Capa_1" xmlns="http://www.w3.org/2000/svg" xmlns:xlink="http://www.w3.org/1999/xlink" x="0px" y="0px"
	 viewBox="0 0 122 111" style="enable-background:new 0 0 122 111;" xml:space="preserve">
<style type="text/css">
	.st0{fill:#211F1F;}
</style>
<g>
	<path class="st0" d="M34.82,57.59c0.01,0.02,0.02,0.04,0.03,0.06c1.97,0,3.93-0.01,5.91-0.01c0-0.05,0.01-0.08,0.01-0.12
		c-0.11-1.25-0.22-2.49-0.33-3.74c-0.01-0.18-0.08-0.24-0.26-0.23c-0.69,0.03-1.25,0.36-1.75,0.79c-0.81,0.71-1.61,1.44-2.41,2.15
		C35.62,56.87,35.22,57.23,34.82,57.59 M23.45,58.54c0.35,0.21,0.71,0.41,1.06,0.62c0.88,0.5,1.76,1,2.63,1.52
		c0.16,0.1,0.27,0.08,0.41-0.04c2.83-2.51,5.66-5.02,8.49-7.53c1.3-1.15,2.79-1.79,4.54-1.77c1.05,0.01,2.1,0,3.18,0
		c0.31,3.28,0.63,6.55,0.94,9.83c-1.2,0-2.38,0-3.59,0c-0.04-0.38-0.08-0.75-0.13-1.16h-0.29c-2.78,0-5.56,0-8.34,0
		c-0.2,0-0.35,0.06-0.49,0.19c-0.29,0.29-0.6,0.57-0.91,0.84c-0.09,0.07-0.22,0.13-0.34,0.13c-2.38,0.01-4.75,0.01-7.13,0.01
		c-0.1,0-0.22-0.02-0.31-0.08c-1.47-0.82-2.93-1.65-4.4-2.48c-0.04-0.02-0.07-0.05-0.13-0.09c0.39-0.78,0.77-1.55,1.17-2.32
		c0.03-0.06,0.18-0.1,0.28-0.1c1.48-0.01,2.96-0.02,4.45,0c0.78,0,1.38-0.26,1.68-1.03c0.11-0.27,0.26-0.53,0.36-0.8
		c0.1-0.31-0.02-0.53-0.33-0.61c-0.16-0.04-0.33-0.05-0.49-0.05c-1.71,0-3.43,0-5.14,0c-0.82,0-1.41,0.36-1.78,1.09
		c-0.64,1.27-1.27,2.55-1.91,3.83c-0.41,0.83-0.83,1.66-1.25,2.49c-0.04,0.08-0.15,0.17-0.23,0.17c-1.14,0.01-2.28,0.01-3.45,0.01
		c0.03-0.08,0.04-0.14,0.06-0.19c1.23-2.44,2.49-4.86,3.66-7.33c0.75-1.59,2-2.28,3.66-2.32c2.44-0.04,4.88-0.05,7.32-0.05
		c0.48,0,0.98,0.04,1.45,0.16c0.49,0.13,0.99,0.32,1.42,0.58c0.71,0.44,0.94,1.15,0.61,1.92c-0.4,0.95-0.82,1.89-1.32,2.79
		c-0.46,0.84-1.28,1.26-2.19,1.47c-0.57,0.13-1.16,0.18-1.75,0.22c-0.48,0.03-0.97,0.01-1.46,0.01
		C23.47,58.5,23.46,58.52,23.45,58.54"/>
	<path class="st0" d="M90.05,57.39c-1.65,0-3.25,0-4.88,0.01c0.01-0.06,0.01-0.1,0.03-0.14c0.34-0.68,0.68-1.35,1.03-2.02
		c0.04-0.07,0.15-0.15,0.23-0.15c2.73-0.01,5.47-0.01,8.2-0.01c0.01,0,0.01,0.01,0.06,0.02c-0.03,0.08-0.06,0.16-0.1,0.24
		c-0.93,1.87-1.87,3.73-2.8,5.6c-0.07,0.14-0.15,0.19-0.31,0.19c-3.77,0-7.53,0.01-11.3,0c-0.43,0-0.88-0.09-1.29-0.23
		c-0.76-0.26-1.02-0.87-0.7-1.61c0.28-0.65,0.61-1.28,0.93-1.91c0.62-1.25,1.28-2.49,1.87-3.76c0.64-1.37,1.77-2.07,3.19-2.23
		c1.2-0.13,2.43-0.09,3.64-0.1c1.48-0.01,2.97,0,4.45,0c1.35,0,2.71,0,4.06,0h0.34c-0.04,0.1-0.07,0.17-0.11,0.24
		c-0.33,0.65-0.66,1.3-1,1.94c-0.05,0.09-0.19,0.18-0.29,0.18c-2.94,0.01-5.88,0.02-8.81,0.02c-0.39,0-0.79-0.02-1.19,0.01
		c-0.56,0.06-0.98,0.35-1.23,0.86c-0.57,1.14-1.15,2.28-1.72,3.43c-0.19,0.38-0.09,0.6,0.34,0.7c0.14,0.03,0.29,0.05,0.44,0.05
		c2,0,4,0,6,0c0.19,0,0.29-0.06,0.38-0.23C89.66,58.14,89.85,57.79,90.05,57.39"/>
	<path class="st0" d="M63.72,55.11c1.89,0,3.77-0.01,5.69-0.01c-0.03,0.09-0.05,0.16-0.08,0.22c-0.31,0.62-0.62,1.23-0.93,1.85
		c-0.09,0.18-0.2,0.25-0.4,0.25c-1.73-0.01-3.46,0-5.19,0c-0.2,0-0.33,0.04-0.4,0.24c-0.06,0.16-0.17,0.31-0.22,0.47
		c-0.11,0.32,0.01,0.52,0.34,0.59c0.13,0.03,0.26,0.03,0.39,0.03c2.89,0,5.78,0,8.67,0c0.1,0,0.2,0,0.32,0
		c-0.03,0.09-0.05,0.15-0.08,0.2c-0.33,0.67-0.67,1.33-0.99,2c-0.07,0.15-0.16,0.21-0.33,0.21c-3.32,0-6.65,0.01-9.97,0
		c-0.62,0-1.23-0.05-1.81-0.31c-0.75-0.33-1-0.96-0.64-1.69c0.98-1.99,1.98-3.97,2.97-5.95c0.32-0.63,0.87-1.02,1.49-1.3
		c0.94-0.42,1.93-0.6,2.95-0.61c1.78-0.02,3.56-0.01,5.33-0.01c1.47,0,2.95,0.01,4.42,0.01c0.1,0,0.2,0,0.34,0
		c-0.04,0.1-0.07,0.18-0.11,0.24c-0.33,0.66-0.66,1.32-0.98,1.98c-0.08,0.18-0.18,0.23-0.37,0.23c-2.93,0-5.86,0-8.79,0.01
		C64.45,53.78,64,54.21,63.72,55.11"/>
	<path class="st0" d="M101.91,51.3c-0.65,1.29-1.27,2.53-1.92,3.82c0.66,0,1.26,0,1.86,0c1.42,0,2.84-0.01,4.25,0
		c0.2,0,0.29-0.07,0.37-0.24c0.55-1.12,1.12-2.24,1.67-3.36c0.08-0.16,0.17-0.23,0.35-0.22c1.15,0.01,2.3,0,3.5,0
		c-0.13,0.26-0.24,0.48-0.35,0.71c-1.48,2.95-2.96,5.9-4.44,8.86c-0.1,0.21-0.22,0.29-0.46,0.28c-1.03-0.01-2.06,0-3.1,0h-0.32
		c0.63-1.26,1.23-2.48,1.86-3.74c-0.12-0.01-0.21-0.02-0.29-0.02c-1.93,0-3.87,0-5.8,0c-0.19,0-0.29,0.06-0.38,0.23
		c-0.55,1.11-1.11,2.22-1.67,3.33c-0.04,0.09-0.16,0.19-0.24,0.19c-1.18,0.01-2.36,0.01-3.54,0.01c-0.02,0-0.05-0.01-0.1-0.02
		c0.32-0.64,0.64-1.28,0.95-1.91c1.29-2.57,2.57-5.13,3.86-7.69c0.05-0.09,0.16-0.21,0.24-0.21C99.44,51.29,100.65,51.3,101.91,51.3
		"/>
	<path class="st0" d="M53.06,51.33c-0.58,1.15-1.12,2.24-1.67,3.34c-0.54,1.08-1.08,2.15-1.62,3.23c-0.23,0.46-0.09,0.74,0.41,0.85
		c0.15,0.03,0.31,0.04,0.47,0.04c2.18,0.01,4.37,0.01,6.55,0.01h0.24c0.02,0.03,0.03,0.05,0.03,0.06c-0.36,0.73-0.71,1.45-1.08,2.17
		c-0.03,0.06-0.12,0.1-0.19,0.12s-0.15,0.01-0.22,0c-2.68,0-5.36,0.02-8.04,0c-0.51,0-1.03-0.06-1.52-0.2
		c-0.98-0.27-1.27-1.02-0.82-1.93c1.24-2.48,2.49-4.97,3.73-7.46c0.1-0.19,0.2-0.26,0.42-0.26c1,0.01,2.01,0,3.01,0h0.3"/>
	<path class="st0" d="M80.87,51.34c-0.15,0.31-0.29,0.6-0.43,0.88c-1.45,2.9-2.9,5.79-4.34,8.69c-0.09,0.19-0.19,0.27-0.41,0.26
		c-1.06-0.01-2.12,0-3.18,0c-0.08,0-0.16,0-0.28,0c0.11-0.22,0.19-0.41,0.29-0.6c1.51-3.01,3.01-6.02,4.52-9.03
		c0.06-0.13,0.12-0.23,0.3-0.23c1.12,0.01,2.25,0,3.37,0C80.75,51.31,80.8,51.32,80.87,51.34"/>
</g>
</svg>
