<?xml version="1.0" encoding="utf-8"?>
<!-- Generator: Adobe Illustrator 24.2.3, SVG Export Plug-In . SVG Version: 6.00 Build 0)  -->
<svg version="1.1" id="Capa_1" xmlns="http://www.w3.org/2000/svg" xmlns:xlink="http://www.w3.org/1999/xlink" x="0px" y="0px"
	 viewBox="0 0 122 111" style="enable-background:new 0 0 122 111;" xml:space="preserve">
<style type="text/css">
	.st0{fill:#211F1F;}
</style>
<g>
	<path class="st0" d="M13.04,65.56c0.17,0.32,0.51,0.53,0.87,0.53h6.07h10.35h1.64c0.32,0,0.62-0.16,0.81-0.41l0.04-0.06
		c0.18,0.28,0.46,0.47,0.8,0.47h2.12h11.75h5.29c2,0.28,4.54,0.44,7.75,0.44c4.68,0,8.17-0.68,10.79-1.67
		c0.02,0.07,0.02,0.14,0.05,0.21c0.18,0.31,0.5,0.5,0.86,0.5h5.67h10.49h1.78c0.34,0,0.66-0.18,0.84-0.47l0.93-1.52l4.6-7.54h3.14
		h1.77c0.34,0,0.66-0.18,0.84-0.47l0.92-1.51l2.64-4.28l3-4.83c0.2-0.31,0.2-0.69,0.03-1s-0.5-0.5-0.86-0.5h-5.7H80.46h-1.84
		c-0.36,0-0.68,0.19-0.85,0.5l-0.08,0.15l-2.07-0.27h-0.05c-2.09-0.24-4.24-0.37-6.37-0.37l0,0c-6.48,0.01-11.46,1.07-14.77,3.26
		c-0.99-1.04-2.2-1.71-3.31-2.13c-1.35-0.5-2.56-0.68-3.13-0.75l-0.19-0.02l-0.11-0.01h-0.18H29.74h-1.65
		c-0.32,0-0.62,0.15-0.81,0.42l-0.94,1.35l0,0l-9.75,13.98l-3.49,4.99C12.89,64.84,12.87,65.23,13.04,65.56 M17.39,60.11l9.76-13.98
		l0.94-1.36h1.65h17.75h0.18l0.18,0.03c1.04,0.12,4.57,0.7,6.33,3.12L54.24,48c2.98-2.34,8.07-3.58,14.95-3.58l0,0
		c2.09,0,4.2,0.13,6.27,0.37h0.02h0.01l2.72,0.35l0.41-0.72h1.84h21.86h5.7l-2.99,4.84l-2.65,4.28l-0.93,1.51h-1.77h-3.69l-4.89,8
		l-0.94,1.53h-1.78H77.9h-5.67l1.07-1.74c-2.58,1.46-6.57,2.7-12.78,2.7c-3.22,0-5.74-0.17-7.7-0.44h-5.33H35.74h-2.12l-0.61-1.47
		l-0.09,0.13l-0.94,1.34h-1.64H19.98h-6.07L17.39,60.11z"/>
	<path class="st0" d="M78.26,48.35l-2.91,4.77c0,0-6.71-3.18-9.87-1.32c-1.77,2.2,8.28,0.53,9.35,2.91
		c1.06,2.38-1.86,7.67-14.29,7.67c-11.01,0-11.71-1.95-11.71-1.95l4.31-3.7c2.97,1.64,8.98,3.09,10.39,0.7
		c1.33-2.23-10.14,1.59-9.07-4.22c0.97-5.26,12.16-6.27,20.63-5.26L78.26,48.35z"/>
	<polygon class="st0" points="102.32,47.59 99.67,51.88 94.2,51.88 88.39,61.4 77.9,61.4 83.63,52.05 77.9,52.05 80.46,47.59 	"/>
	<path class="st0" d="M47.49,47.94H29.74l-9.76,13.99h10.35l3.41-4.82l1.99,4.82h11.75l-4.01-5.52c5.18,0.12,8.12-2.71,8.48-5.06
		C52.52,48.53,47.49,47.94,47.49,47.94 M39.39,52.72c-0.71,1.98-4.33,1.18-4.33,1.18l1.49-2.37C36.55,51.53,39.74,51.18,39.39,52.72
		"/>
</g>
</svg>
