<?xml version="1.0" encoding="utf-8"?>
<!-- Generator: Adobe Illustrator 24.2.3, SVG Export Plug-In . SVG Version: 6.00 Build 0)  -->
<svg version="1.1" id="Capa_1" xmlns="http://www.w3.org/2000/svg" xmlns:xlink="http://www.w3.org/1999/xlink" x="0px" y="0px"
	 viewBox="0 0 122 111" style="enable-background:new 0 0 122 111;" xml:space="preserve">
<style type="text/css">
	.st0{fill:#000400;}
</style>
<g>
	<g>
		<path class="st0" d="M68.02,60.29c-1.58,0-3.16,0-4.74,0c-0.2,0-0.4-0.02-0.59-0.07c-0.85-0.22-1.23-0.95-0.87-1.75
			c0.18-0.4,0.41-0.76,0.63-1.14c0.61-1.05,1.22-2.1,1.84-3.15c0.6-1,1.5-1.43,2.65-1.43c3.15,0,6.3,0,9.45,0
			c0.26,0,0.52,0.03,0.77,0.13c0.74,0.3,1.02,0.93,0.7,1.66c-0.17,0.38-0.39,0.74-0.6,1.11c-0.6,1.04-1.2,2.09-1.81,3.12
			c-0.62,1.04-1.54,1.54-2.75,1.53C71.14,60.28,69.58,60.29,68.02,60.29z M70.9,54.21L70.9,54.21c-0.45-0.01-0.9-0.01-1.34-0.01
			c-0.37,0-0.67,0.13-0.87,0.47c-0.62,1.09-1.25,2.17-1.86,3.26c-0.33,0.58-0.18,0.85,0.48,0.92c0.09,0.01,0.17,0.01,0.26,0.01
			c0.77,0,1.54-0.01,2.31,0c0.52,0.01,0.92-0.16,1.15-0.65c0.09-0.2,0.22-0.39,0.33-0.58c0.48-0.84,0.97-1.67,1.45-2.51
			c0.32-0.58,0.17-0.87-0.48-0.91C71.85,54.19,71.38,54.21,70.9,54.21z"/>
		<path class="st0" d="M34.1,60.29c0.24-0.42,0.46-0.76,0.65-1.13c0.12-0.23,0.26-0.31,0.52-0.31c2.7,0.01,5.41,0.01,8.11,0
			c0.16,0,0.35,0.09,0.46-0.14c0.16-0.34,0.47-0.62,0.4-1.05c-0.03-0.18-0.19-0.26-0.35-0.29c-0.18-0.03-0.37-0.04-0.56-0.04
			c-1.64,0-3.29,0-4.93,0c-0.17,0-0.35-0.01-0.52-0.04c-0.91-0.15-1.37-0.93-1-1.77c0.3-0.68,0.67-1.33,1.17-1.89
			c0.56-0.62,1.29-0.88,2.1-0.88c3.79-0.01,7.58,0,11.36,0c0.02,0,0.05,0.01,0.14,0.02c-0.27,0.46-0.52,0.91-0.79,1.35
			c-0.09,0.14-0.25,0.07-0.38,0.07c-2.59,0-5.18,0-7.77,0c-0.4,0-1,0.8-0.88,1.2c0.08,0.27,0.32,0.33,0.57,0.33
			c0.62,0.01,1.25,0.01,1.87,0.01c1.16,0,2.32,0,3.48,0c0.17,0,0.35,0.01,0.52,0.05c0.93,0.22,1.34,0.99,0.91,1.84
			c-0.44,0.86-0.96,1.68-1.43,2.53c-0.1,0.19-0.25,0.13-0.39,0.13c-1.71,0-3.41,0-5.12,0c-2.57,0-5.13,0-7.7,0
			C34.4,60.29,34.28,60.29,34.1,60.29z"/>
		<path class="st0" d="M60.24,58.87c-0.27,0.47-0.51,0.89-0.74,1.31c-0.07,0.13-0.17,0.12-0.28,0.12c-2.7,0-5.41,0.01-8.11-0.01
			c-1.19-0.01-1.74-1.02-1.16-2.05c0.72-1.27,1.46-2.54,2.19-3.81c0.66-1.15,1.63-1.7,2.97-1.68c2.73,0.03,5.46,0.01,8.18,0.01
			c0.13,0,0.26,0,0.46,0c-0.27,0.48-0.52,0.9-0.75,1.33c-0.1,0.17-0.26,0.12-0.4,0.12c-1.59,0-3.19,0.02-4.78-0.01
			c-0.59-0.01-0.97,0.2-1.25,0.73c-0.49,0.93-1.04,1.83-1.57,2.74c-0.08,0.14-0.17,0.28-0.23,0.43c-0.17,0.41-0.04,0.64,0.39,0.72
			c0.16,0.03,0.32,0.04,0.48,0.04C57.15,58.87,58.66,58.87,60.24,58.87z"/>
		<path class="st0" d="M82.82,54.19c-1.41,0-2.75,0-4.14,0c0.27-0.47,0.52-0.9,0.76-1.33c0.06-0.1,0.15-0.11,0.25-0.11
			c3.98,0,7.96,0,12.01,0c-0.27,0.47-0.52,0.91-0.77,1.35c-0.08,0.14-0.22,0.1-0.33,0.1c-0.91,0-1.82,0.01-2.73,0
			c-0.23,0-0.35,0.07-0.47,0.27c-1.06,1.85-2.13,3.7-3.18,5.55c-0.12,0.21-0.24,0.29-0.49,0.29c-1.45-0.01-2.9-0.01-4.41-0.01
			C80.49,58.26,81.63,56.26,82.82,54.19z"/>
		<path class="st0" d="M91.64,60.29c1.18-2.05,2.32-4.04,3.49-6.07c-1.06,0-2.08,0-3.18,0c0.28-0.5,0.53-0.93,0.78-1.37
			c0.06-0.1,0.16-0.1,0.26-0.1c3.64,0,7.28,0,10.92,0c0.02,0,0.04,0.02,0.09,0.04c-0.25,0.43-0.5,0.85-0.74,1.28
			c-0.09,0.16-0.23,0.11-0.36,0.11c-0.91,0-1.82,0.01-2.73,0c-0.21,0-0.33,0.05-0.44,0.25c-1.05,1.85-2.12,3.68-3.16,5.53
			c-0.14,0.25-0.3,0.33-0.58,0.33C94.56,60.29,93.13,60.29,91.64,60.29z"/>
	</g>
	<g>
		<path class="st0" d="M29.3,47.94c-0.28,0.49-0.56,0.96-0.83,1.43c-0.33,0.57-0.66,1.14-0.99,1.72c-0.06,0.1-0.12,0.13-0.23,0.13
			c-1.06,0-2.12,0-3.18,0c-0.46,0-0.79,0.19-1.01,0.59c-0.41,0.73-0.82,1.45-1.25,2.17c-0.27,0.46-0.28,0.9,0,1.35
			c0.36,0.6,0.7,1.21,1.06,1.81c0.37,0.63,0.38,1.26,0.01,1.89c-0.52,0.9-1.05,1.8-1.58,2.7c-0.07-0.02-0.08-0.08-0.11-0.13
			c-0.9-1.56-1.83-3.1-2.7-4.67c-0.67-1.22-0.66-2.49,0.02-3.71c0.82-1.48,1.67-2.94,2.52-4.4c0.33-0.57,0.83-0.88,1.48-0.88
			C24.76,47.94,27.01,47.94,29.3,47.94z"/>
		<path class="st0" d="M27.43,51.27c0.24,0.41,0.47,0.81,0.7,1.21c0.69,1.19,1.4,2.36,2.06,3.57c0.71,1.29,0.68,2.61-0.04,3.89
			c-0.82,1.45-1.65,2.89-2.49,4.33c-0.3,0.52-0.77,0.83-1.37,0.83c-2.28,0.02-4.56,0.01-6.87,0.01c0.05-0.1,0.1-0.19,0.15-0.28
			c0.54-0.94,1.08-1.87,1.62-2.81c0.08-0.14,0.16-0.2,0.33-0.2c1.05,0.01,2.09,0,3.14,0c0.43,0,0.75-0.18,0.96-0.55
			c0.43-0.74,0.85-1.5,1.29-2.24c0.27-0.45,0.25-0.89-0.01-1.34c-0.37-0.62-0.73-1.25-1.09-1.88c-0.32-0.55-0.35-1.13-0.04-1.69
			C26.3,53.18,26.87,52.24,27.43,51.27z"/>
	</g>
</g>
</svg>
