<?xml version="1.0" encoding="utf-8"?>
<!-- Generator: Adobe Illustrator 24.2.3, SVG Export Plug-In . SVG Version: 6.00 Build 0)  -->
<svg version="1.1" id="Capa_1" xmlns="http://www.w3.org/2000/svg" xmlns:xlink="http://www.w3.org/1999/xlink" x="0px" y="0px"
	 viewBox="0 0 122 111" style="enable-background:new 0 0 122 111;" xml:space="preserve">
<style type="text/css">
	.st0{fill:#211F1F;}
</style>
<g>
	<path class="st0" d="M20.61,64.84c-3.01,0-6.82-0.87-7.91-5.03l-0.08-0.28l4.64-1.24l0.08,0.29c0.33,1.24,1.48,1.92,3.25,1.92
		c1.06,0,2.33-0.25,2.33-1.41c0-1.03-0.96-1.26-2.65-1.56c-0.47-0.08-0.95-0.17-1.44-0.29c-2.63-0.64-5.64-1.87-5.64-5.75
		c0-3.59,2.63-5.74,7.03-5.74c3.91,0,6.51,1.68,7.5,4.86l0.09,0.29l-4.63,1.24l-0.08-0.26c-0.41-1.21-1.37-1.81-2.96-1.81
		c-1.34,0-2.02,0.43-2.02,1.29c0,1.11,1.12,1.38,3.45,1.85l0.51,0.1c2.47,0.48,5.75,1.6,5.75,5.75
		C27.82,62.78,25.26,64.84,20.61,64.84"/>
	<polygon class="st0" points="38.93,64.48 34.08,64.48 34.08,50.65 28.63,50.65 28.63,46.09 44.38,46.09 44.38,50.65 38.93,50.65 	
		"/>
	<polygon class="st0" points="59.69,64.48 46,64.48 46,46.09 59.56,46.09 59.56,50.65 50.86,50.65 50.86,53.11 57.27,53.11 
		57.27,57.26 50.86,57.26 50.86,59.93 59.69,59.93 	"/>
	<polygon class="st0" points="74.43,64.48 61.59,64.48 61.59,46.09 66.45,46.09 66.45,59.93 74.43,59.93 	"/>
	<polygon class="st0" points="88.9,64.48 76.06,64.48 76.06,46.09 80.92,46.09 80.92,59.93 88.9,59.93 	"/>
	<path class="st0" d="M109,64.48h-5.21l-1.07-2.95h-6.99l-1.07,2.95h-5.14l7.09-18.39h5.26L109,64.48z M97.34,57.06h3.77l-1.13-3.15
		c-0.23-0.6-0.44-1.16-0.6-1.59c-0.06-0.15-0.11-0.29-0.16-0.42c-0.09,0.24-0.21,0.55-0.33,0.87l-0.42,1.12L97.34,57.06z"/>
</g>
</svg>
