<?xml version="1.0" encoding="utf-8"?>
<!-- Generator: Adobe Illustrator 24.2.3, SVG Export Plug-In . SVG Version: 6.00 Build 0)  -->
<svg version="1.1" id="Capa_1" xmlns="http://www.w3.org/2000/svg" xmlns:xlink="http://www.w3.org/1999/xlink" x="0px" y="0px"
	 viewBox="0 0 122 111" style="enable-background:new 0 0 122 111;" xml:space="preserve">
<style type="text/css">
	.st0{fill:#211F1F;}
</style>
<g>
	<path class="st0" d="M83.96,53.53c-0.97-0.14-9.85-0.68-11.8-0.93c-0.42-0.05-0.03-0.15-0.03-0.15l10.29-3.84
		c0,0,0.31-0.12,0.21-0.34c0,0,0-0.18-0.53-0.06s-11.73,2.28-11.73,2.28s-0.46,0.12-0.11-0.22c0.36-0.34,7.16-5.69,7.16-5.69
		s0.31-0.18,0.12-0.34c-0.16-0.14-0.44,0.06-0.44,0.06l-9.55,4.66c0,0-0.43,0.31-0.25-0.19c0.18-0.49,3.21-6.69,3.21-6.69
		s0.22-0.37-0.03-0.43s-0.43,0.22-0.43,0.22l-5.89,6.36c0,0-0.35,0.4-0.43-0.09c-0.07-0.49-1.02-7.16-1.02-7.16
		s-0.02-0.29-0.28-0.25c-0.26-0.04-0.28,0.25-0.28,0.25s-0.95,6.67-1.02,7.16c-0.07,0.49-0.43,0.09-0.43,0.09l-5.89-6.36
		c0,0-0.18-0.28-0.43-0.22c-0.25,0.06-0.03,0.43-0.03,0.43s3.03,6.2,3.2,6.69c0.18,0.49-0.25,0.19-0.25,0.19l-9.55-4.66
		c0,0-0.27-0.2-0.43-0.06c-0.19,0.16,0.12,0.34,0.12,0.34s6.81,5.35,7.16,5.69s-0.11,0.22-0.11,0.22s-11.2-2.16-11.73-2.28
		s-0.53,0.06-0.53,0.06c-0.1,0.23,0.21,0.34,0.21,0.34l10.29,3.84c0,0,0.39,0.1-0.04,0.15c-1.94,0.25-10.83,0.79-11.8,0.93
		c-1.09,0.17-0.99,0.73-0.99,0.73h45.05C84.96,54.26,85.05,53.7,83.96,53.53"/>
	<path class="st0" d="M68.96,64.62c0,0-2.12-1.29-3.21-2.62c0,0,3.56-0.06,4.96-3.15c0.68-1.5-0.77-2.8-3.82-2.8h-9.51l-4.86,10.33
		h5.47l1.73-3.67c0,0,3.81,3.67,4.81,3.67h38.62l0.82-1.75H68.96V64.62z M64.62,59.66c-1.14,1.18-3.9,0.91-3.9,0.91l1.35-2.86h2.27
		C65.47,57.71,65.76,58.48,64.62,59.66"/>
	<path class="st0" d="M36.99,66.36h-9.96c0,0-1.68,0-1.04-1.58l2.33-4.96h5.49l-2.28,4.85h1.27c0,0,1.26,0.11,1.7-0.79
		c0.48-0.98,1.9-4.06,1.9-4.06h3.67L36.99,66.36z"/>
	<path class="st0" d="M46.02,62.75c0,0,0.46-1.23,1.78-1.23h1.49l-2.27,4.84h3.67l3.08-6.54h-9.26c0,0-2.63,0-3.74,2.38
		c-1.28,2.73-1.96,4.16-1.96,4.16h5.5L46.02,62.75z"/>
	<path class="st0" d="M79.63,56.03c-1.46,0-3.64,0.59-5.46,2.13c-1.35,1.14-5.59,5.05-5.59,5.05h4.87l1.9-1.69h2.47l-0.79,1.69h3.71
		l3.39-7.18H79.63z M79.2,58.19c0.17-0.01,0.14,0.11,0.14,0.11l-0.72,1.53H77.3c0.81-0.76,1.16-1.08,1.65-1.53
		C79.05,58.2,79.15,58.19,79.2,58.19"/>
	<path class="st0" d="M92.28,63.2l0.8-1.69h-3.52c-0.68,0-0.44-0.6-0.44-0.6l1.21-2.57c0,0,0.32-0.63,0.98-0.63h3.56l0.79-1.68
		h-5.79c0,0-3.88-0.18-4.85,1.96c-0.42,0.92-1.41,2.99-1.65,3.53c-0.45,0.98,0.19,1.69,1.36,1.69L92.28,63.2L92.28,63.2z"/>
	<path class="st0" d="M12,66.36h9.38c0,0,2.03,0.01,2.87-1.78c0.66-1.41,2.24-4.76,2.24-4.76h-4.67c-0.67,0-1.04,0.07-0.89-0.67
		c0.16-0.49,0.4-1.27,2.31-1.37h31.48l0.83-1.76H18.79c0,0-1.93-0.01-2.76,1.78l-1.93,4.1h6.87c0,0,0.59-0.04,0.49,0.51
		c-0.1,0.58-0.35,1.87-2.96,1.87h-5.52L12,66.36z"/>
	<path class="st0" d="M105.42,61.52l-0.8,1.69h-8.37c-1.17,0-1.83-0.71-1.36-1.69c0.26-0.54,1.22-2.6,1.66-3.53
		c1-2.13,4.85-1.96,4.85-1.96h6.6l-0.79,1.68h-4.35c-0.38,0-0.82,0.27-0.97,0.6c-0.16,0.34,0.03,0.65,0.41,0.65h4.32l-0.63,1.34
		h-4.33c-0.38,0-0.83,0.27-0.98,0.61c-0.16,0.33,0.03,0.61,0.41,0.61L105.42,61.52z"/>
</g>
</svg>
