<?xml version="1.0" encoding="utf-8"?>
<!-- Generator: Adobe Illustrator 24.2.3, SVG Export Plug-In . SVG Version: 6.00 Build 0)  -->
<svg version="1.1" id="Capa_1" xmlns="http://www.w3.org/2000/svg" xmlns:xlink="http://www.w3.org/1999/xlink" x="0px" y="0px"
	 viewBox="0 0 122 111" style="enable-background:new 0 0 122 111;" xml:space="preserve">
<style type="text/css">
	.st0{fill-rule:evenodd;clip-rule:evenodd;fill:#211F1F;}
</style>
<path class="st0" d="M109,49.72c-0.1,0.42-0.21,0.84-0.28,1.27c-0.19,1.08-0.64,1.5-1.75,1.51c-2.33,0.02-4.66,0-7,0.01
	c-1.24,0.01-2.01,0.54-2.36,1.51c-0.23,0.64-0.06,0.91,0.63,0.9c2.5-0.02,4.99,0.01,7.48-0.02c0.72-0.01,1,0.16,0.89,0.98
	c-0.38,2.73-0.43,2.81-3.17,2.81c-1.85,0-3.69,0.04-5.53-0.01c-1.11-0.03-1.28,0.35-0.98,1.43c0.22,0.77,0.83,1.13,1.95,1.14
	c1.79,0.02,3.58,0.01,5.37,0.01c0.81,0,1.63,0.01,2.44,0c0.45,0,0.66,0.17,0.58,0.64c-0.09,0.56-0.13,1.13-0.24,1.69
	c-0.17,0.88-0.72,1.42-1.63,1.42c-3.52,0.03-7.05,0.08-10.58-0.03c-2.35-0.07-3.3-1.2-3.26-3.55c0.03-2.1,0.48-4.14,0.73-6.21
	c0.11-0.94,0.24-1.88,0.43-2.81c0.45-2.26,2.02-3.64,4.33-3.67c3.99-0.05,7.97-0.01,11.96,0v0.98H109z M22.37,69.26
	c0.65-1.34,1.31-2.67,1.93-4.03c0.26-0.57,0.64-0.86,1.25-1.01c1.53-0.35,2.62-1.26,3.16-2.76c0.58-1.61,0.11-3.16-0.31-4.7
	c-0.13-0.45-0.44-0.3-0.68-0.06c-0.4,0.4-0.77,0.85-1.18,1.23c-0.23,0.21-0.51,0.5-0.86,0.3c-0.31-0.17-0.2-0.53-0.21-0.82
	c-0.05-2.15-0.04-2.15,2.1-2.12c1.22,0.02,1.59,0.28,1.91,1.46c0.2,0.73,0.32,1.48,0.49,2.23c0.1,0.42,0.29,0.5,0.59,0.13
	c0.63-0.81,1.35-1.56,1.87-2.46c0.99-1.72,1.07-3.44-0.14-5.11c-0.24-0.33-0.3-0.68-0.3-1.07c-0.01-1.65-0.74-2.7-2.28-3.27
	c-0.99-0.36-1.99-0.71-3-1.04c-0.24-0.08-0.56-0.31-0.75-0.05c-0.19,0.26,0.14,0.48,0.27,0.7c0.29,0.53,1.11,1.04,0.8,1.54
	c-0.31,0.5-1.2,0.14-1.84,0.16c-0.84,0.03-1.36-0.36-1.7-1.1c-0.25-0.54-0.59-1.04-0.88-1.56c-0.26-0.46-0.48-0.44-0.74,0.01
	c-0.39,0.68-0.81,1.35-1.2,2.03c-0.16,0.27-0.34,0.5-0.68,0.52c-0.7,0.05-1.41,0.1-2.11,0.14c-0.21,0.01-0.48,0.07-0.58-0.18
	c-0.09-0.23,0.12-0.4,0.24-0.57c0.39-0.57,0.85-1.1,1.24-1.99c-1.89,0.78-3.76,0.98-5.26,2.13c-0.78,0.6-1.17,1.46-1.05,2.43
	c0.07,0.54-0.09,0.92-0.38,1.34c-0.97,1.38-1.08,2.84-0.34,4.38c0.54,1.11,1.38,2,2.12,2.97c0.1,0.13,0.2,0.29,0.39,0.25
	c0.23-0.05,0.23-0.28,0.27-0.46c0.16-0.71,0.29-1.44,0.48-2.14c0.3-1.09,0.65-1.39,1.79-1.4c2.61-0.03,2.23-0.31,2.26,2.21
	c0,0.27,0.04,0.58-0.25,0.72c-0.32,0.15-0.58-0.07-0.8-0.27c-0.42-0.39-0.83-0.78-1.21-1.2c-0.49-0.54-0.68-0.34-0.8,0.25
	c-0.12,0.56-0.28,1.1-0.4,1.66c-0.56,2.68,0.78,4.88,3.43,5.56c0.52,0.13,0.85,0.39,1.08,0.87c0.67,1.39,1.38,2.77,2.07,4.15H22.37z
	 M20.44,56.37c0-0.6-0.01-1.19,0.01-1.79c0.02-0.54-0.19-0.81-0.75-0.8c-1.17,0.02-2.34-0.02-3.5,0.02
	c-1.09,0.03-1.79,0.67-2.26,1.61c-0.1,0.2-0.11,0.54-0.44,0.5c-0.24-0.03-0.3-0.29-0.4-0.48c-0.59-1.19-0.4-2.33,0.63-3.32
	c0.46-0.44,0.74-0.81,0.34-1.45c-0.28-0.45-0.15-0.95,0.21-1.35c0.33-0.37,0.61-0.61,0.95,0.05c0.29,0.57,0.91,0.66,1.49,0.68
	c1.3,0.03,2.6-0.01,3.91,0.02c0.71,0.01,0.86-0.54,1.13-1c0.13-0.22,0.19-0.59,0.5-0.58c0.3,0.01,0.41,0.34,0.5,0.58
	c0.31,0.82,0.88,1.06,1.72,1.01c1.08-0.06,2.17-0.01,3.26-0.02c0.62-0.01,1.19-0.14,1.57-0.69c0.43-0.62,0.78-0.34,1.05,0.11
	c0.27,0.44,0.28,0.97,0.02,1.4c-0.3,0.5-0.14,0.75,0.26,1.08c1.17,0.97,1.45,2.34,0.77,3.57c-0.1,0.18-0.18,0.44-0.45,0.41
	c-0.22-0.02-0.25-0.26-0.33-0.43c-0.61-1.15-1.51-1.79-2.88-1.72c-1,0.05-2.01,0.02-3.01,0.01c-0.52,0-0.74,0.22-0.74,0.74
	c0.01,1.17-0.04,2.34,0.02,3.5c0.1,1.72,1.18,2.32,2.73,1.58c0.21-0.1,0.41-0.37,0.65-0.2c0.25,0.18,0.15,0.5,0.12,0.76
	c-0.2,1.52-1.03,2.4-2.74,2.65c-0.79,0.11-1.21,0.46-1.48,1.15c-0.21,0.53-0.5,1.02-0.76,1.53c-0.2,0.4-0.38,0.42-0.59,0.01
	c-0.3-0.61-0.63-1.2-0.9-1.83c-0.23-0.54-0.59-0.74-1.17-0.81c-1.82-0.22-2.8-1.2-2.88-2.77c-0.04-0.76,0.06-0.83,0.71-0.49
	c1.62,0.83,2.67,0.22,2.72-1.59C20.46,57.46,20.44,56.92,20.44,56.37 M78.52,56.17c1.42,2.3,2.83,4.45,4.1,6.68
	c0.87,1.52,1.99,2.3,3.81,2.21c2.13-0.11,2.13-0.03,2.45-2.09c0.01-0.05,0.02-0.1,0.03-0.16c0.6-4.43,1.2-8.87,1.81-13.3
	c0.08-0.57-0.14-0.81-0.7-0.8c-0.57,0.01-1.14,0-1.71,0c-1.6,0-2.25,0.6-2.46,2.17c-0.25,1.91-0.52,3.82-0.78,5.72
	c-0.03,0.21,0.03,0.5-0.23,0.56s-0.34-0.23-0.45-0.41c-1.09-1.72-2.18-3.43-3.26-5.16c-1.91-3.07-1.57-2.89-5.14-2.88
	c-1.32,0.01-1.32,0-1.49,1.32c-0.6,4.46-1.22,8.92-1.78,13.38c-0.2,1.61-0.58,1.63,1.44,1.62c0.24,0,0.49,0,0.73,0
	c1.66-0.01,2.32-0.61,2.55-2.29c0.22-1.72,0.45-3.44,0.71-5.16C78.21,57.15,78.13,56.67,78.52,56.17 M64.33,48.72
	c-1.19,0-2.39-0.01-3.58,0c-3.29,0.01-4.98,1.45-5.46,4.69c-0.36,2.47-0.69,4.94-0.98,7.41c-0.31,2.59,1.01,4.14,3.62,4.19
	c2.74,0.06,5.47,0.06,8.21,0c2.3-0.04,3.59-1.06,4.33-3.25c0.33-0.98,0.41-2.02,0.52-3.04c0.25-2.2,0.74-4.38,0.74-6.62
	c0-2.22-1.09-3.33-3.34-3.38C67.04,48.7,65.69,48.73,64.33,48.72L64.33,48.72z M63.7,52.51c0.46,0,0.93-0.02,1.39,0
	c1.24,0.06,1.81,0.64,1.69,1.89c-0.16,1.59-0.37,3.18-0.66,4.75c-0.28,1.53-0.99,2.06-2.53,2.11c-0.76,0.02-1.52,0.02-2.28,0
	c-1.42-0.04-2.05-0.64-1.93-2.02c0.13-1.56,0.34-3.13,0.65-4.67c0.32-1.62,0.96-2.05,2.62-2.06C63,52.5,63.35,52.5,63.7,52.51
	L63.7,52.51 M43.03,48.72c-1.93,0-3.85-0.01-5.78,0c-0.99,0-1.36,0.33-1.55,1.31c-0.1,0.53-0.16,1.07-0.26,1.61
	c-0.11,0.59,0.08,0.88,0.71,0.86c0.95-0.02,1.9-0.01,2.85,0c0.89,0,1.02,0.14,0.92,0.99c-0.22,1.75-0.47,3.49-0.71,5.24
	c-0.24,1.74-0.48,3.49-0.71,5.24c-0.12,0.9,0.03,1.05,0.94,1.06c0.87,0.01,1.74-0.01,2.6,0c0.52,0.01,0.78-0.2,0.85-0.74
	c0.41-3.18,0.86-6.34,1.29-9.51c0.36-2.69-0.07-2.23,2.51-2.27c2.51-0.03,2.61,0.46,3.03-2.77c0.09-0.73-0.15-1.04-0.92-1.03
	C46.88,48.74,44.95,48.72,43.03,48.72 M49.01,58.69c3.08,0,3.07,0,3.45-2.9c0.09-0.66-0.16-0.9-0.78-0.87c-0.59,0.02-1.19,0-1.78,0
	c-2.75,0-3.01,0.24-3.12,3.03c0,0.05-0.01,0.11-0.01,0.16c-0.07,0.43,0.15,0.59,0.55,0.59C47.87,58.69,48.44,58.69,49.01,58.69"/>
</svg>
