<?xml version="1.0" encoding="utf-8"?>
<!-- Generator: Adobe Illustrator 24.2.3, SVG Export Plug-In . SVG Version: 6.00 Build 0)  -->
<svg version="1.1" id="Capa_1" xmlns="http://www.w3.org/2000/svg" xmlns:xlink="http://www.w3.org/1999/xlink" x="0px" y="0px"
	 viewBox="0 0 122 111" style="enable-background:new 0 0 122 111;" xml:space="preserve">
<style type="text/css">
	.st0{fill:#211F1F;}
</style>
<g>
	<path class="st0" d="M41.36,44.9l-1.28,2.14h-5.84L22.66,66.23h-9.08c-1.44,0-2.06-1.16-1.17-2.62c0.91-1.5,9.97-16.57,9.97-16.57
		h-7.9c0,0,0.36-0.53,0.7-1.14c0.33-0.6,1.26-1,2.4-1C17.58,44.9,41.36,44.9,41.36,44.9z"/>
	<path class="st0" d="M67.13,57l7.42-11.76h-8.22c-1.42,0-2.41,1.28-2.08,2.47C64.57,48.93,67.13,57,67.13,57"/>
	<path class="st0" d="M65.2,63.51c-0.84,1.21-1.1,3.06,0.92,3.06h9.06h0.01l12.83-21.33H76.13L65.2,63.51z"/>
	<path class="st0" d="M37.79,66.36c-0.28,0-3.85,0.63-3.26-0.76c1.85-3.15,4.54-7.94,6.96-12.02c2.35-3.95,4.32-7.34,4.53-7.61
		c0.46-0.62,1.25-0.89,2.35-1c1.14-0.07,2.04-0.06,2.76-0.06h3.59c1.33,0,1.79,1.29,1.79,1.29l3.53,20.04h-9.8L50,63.93l-0.26-2.31
		h-3.46l-5.42-0.17L37.79,66.36z M41.89,59.63l4.79-0.03h2.83c0,0-0.13-1.59-0.28-3.3c-0.13-1.39-0.26-2.86-0.37-3.63l-0.06-0.41
		c-0.06-0.35,0.16-1.58-1.75-1.37C46.53,51.12,41.89,59.63,41.89,59.63"/>
	<path class="st0" d="M85.78,66.57c-0.29,0-3.86,0.63-3.26-0.76c1.86-3.15,4.54-7.94,6.95-12.02c2.35-3.95,4.32-7.34,4.52-7.61
		c0.46-0.62,1.27-0.89,2.35-1.01c1.16-0.07,2.03-0.06,2.78-0.06h3.57c1.33,0,1.79,1.28,1.79,1.28L108,66.44h-9.79l-0.25-2.31
		l-0.25-2.31h-3.48l-5.42-0.17L85.78,66.57z M89.86,59.84l4.8-0.03h2.84c0,0-0.13-1.59-0.29-3.32c-0.13-1.38-0.27-2.86-0.35-3.61
		l-0.05-0.41c-0.07-0.36,0.14-1.59-1.76-1.38C94.51,51.33,89.86,59.84,89.86,59.84"/>
</g>
</svg>
