<?xml version="1.0" encoding="utf-8"?>
<!-- Generator: Adobe Illustrator 24.2.3, SVG Export Plug-In . SVG Version: 6.00 Build 0)  -->
<svg version="1.1" id="Capa_1" xmlns="http://www.w3.org/2000/svg" xmlns:xlink="http://www.w3.org/1999/xlink" x="0px" y="0px"
	 viewBox="0 0 122 111" style="enable-background:new 0 0 122 111;" xml:space="preserve">
<style type="text/css">
	.st0{fill:#211F1F;}
</style>
<g>
	<path class="st0" d="M12.63,54.96c0.51-4.77,4.55-8.5,9.47-8.5c3.76,0,6.99,2.18,8.54,5.34H19.11L12.63,54.96z M31.25,53.38h-3.48
		L25,60.18h-4.48l2.57-6.75h-4.4l-6.1,2.79c0.01,0.24,0.01,0.48,0.04,0.72l6.3-2.8h3.17l-2.41,5.93h-1.71l-5.35-3.13
		c0.47,4.82,4.53,8.58,9.48,8.58c5.26,0,9.52-4.26,9.52-9.52C31.62,55.08,31.48,54.21,31.25,53.38 M100.55,51.71
		c-7.05,0.28-7.99,3.09-8.17,4.07l0,0c-0.01,0.06-0.02,0.2-0.02,0.2c0,0.03-0.01,0.07-0.01,0.1l0.01-0.11h-5.78l1.28-0.19
		c1.25-0.25,2.84-0.79,2.82-2.01c-0.03-1.79-4.3-1.76-5.36-1.76s-5.86,0.09-5.86,0.09l-1.55,3.87h-5.46l0.94-2.35h3.77l0.65-1.46
		H65.79l-8.1,3.4l1.35-3.4h-1.35l-1.55,3.81h-1.87l0.12-0.23h-5.71l1.15-2.86h5.98l0.21-0.6h-7.34l-1.5,3.7h-6.66l1.23-3.04h4.62
		l0.24-0.6H36.03l-0.26,0.6h4.53l-2.83,7.11h1.38l1.6-3.93h6.66l-1.57,3.87h7.75l0.18-0.57h-6.25l1.21-3.1h5.66l0.1-0.2h1.88
		l-1.55,3.81h1.38l1.55-3.81h0.2l6.06,3.75h1.56l-5.93-3.75h8.7l-1.47,3.75h4.29l1.51-3.75h5.46l-1.49,3.72h3.95l1.27-3.16
		c0,0,0.33,0,1.5,0.06c1.18,0.06,1.36,1.25,1.59,1.82c0.24,0.57,0.56,1.16,0.56,1.16h3.95c0,0-0.59-1.28-1.09-2.44
		c-0.3-0.69-0.78-1.01-1.14-1.16h5.39l0,0c-0.13,1.3,0.38,3.95,7.62,3.61c7.54-0.36,8.05-4.06,8.05-4.62
		C108,54.52,108.06,51.41,100.55,51.71 M82.5,53.47c0,0,1.36-0.03,1.94-0.03c0.59,0,1.98,0.12,1.98,0.8c0,0.69-1.47,1.08-4.63,1.08
		L82.5,53.47z M59.14,55.97l-0.3-0.19l5.02-2.19h5.18l-0.93,2.38C68.11,55.97,59.14,55.97,59.14,55.97z M103.42,55.5
		c-0.29,0.96-1.5,2.81-4.36,2.69c-2.85-0.12-3.09-1.34-2.74-2.6c0.21-0.73,1.47-2.33,4.19-2.39
		C103.22,53.14,103.71,54.55,103.42,55.5"/>
</g>
</svg>
