<?xml version="1.0" encoding="utf-8"?>
<!-- Generator: Adobe Illustrator 24.2.3, SVG Export Plug-In . SVG Version: 6.00 Build 0)  -->
<svg version="1.1" id="Capa_1" xmlns="http://www.w3.org/2000/svg" xmlns:xlink="http://www.w3.org/1999/xlink" x="0px" y="0px"
	 viewBox="0 0 122 111" style="enable-background:new 0 0 122 111;" xml:space="preserve">
<style type="text/css">
	.st0{fill:#211F1F;}
</style>
<g>
	<path class="st0" d="M16.63,46.93c0,0,3.47-2.55,9.26,0.25c3.88,1.88,4.38,4.76,4.38,4.76l-1.75,2.88c0,0-0.13-4.01-2.88-6.13
		l-3.25,9.89h3.5l-8.13,3l0.62-1.88l-5.13,1.38c0,0,1.48,2.24,4.51,2.88c2.38,0.5,4.76-0.25,4.76-0.25s-3.01,1.53-6.76,0.38
		c-4.88-1.5-6.51-5.63-6.51-5.63L11,55.71c0,0,0.13,3,1.75,4.76l3.13-9.26h3.63L17,58.56h1.75l3.63-11.01l2,0.12
		C24.38,47.68,21.26,45.42,16.63,46.93 M33.83,51.49l-3.25,4.76c0,0-0.3,0.65,0,1.12c0.44,0.69,1.13,0.63,1.13,0.63h7.01
		c0,0,1.81,0.06,3.25-1.88c0.91-1.23,3.13-4.63,3.13-4.63h-3.44l-2.88,4.32c0,0-0.63,1-2,1h-2c0,0-0.88-0.25-0.25-1.25
		c0.62-1,2.88-4.06,2.88-4.06L33.83,51.49L33.83,51.49z M58.05,51.93c-0.38,0.63-2.75,3.88-2.75,3.88s-0.25,0.37-0.88,0.37h-7.13
		l-1.25,1.88h-3.5l4.5-6.63H57.8C57.8,51.43,58.37,51.39,58.05,51.93 M53.29,52.56h-3.63l-1.75,2.63h3.75c0.63,0,1-0.5,1-0.5
		s0.37-0.5,0.88-1.38C53.99,52.53,53.29,52.56,53.29,52.56 M67.12,56.81h-6.07c0,0-0.87-0.25-0.25-1.25c0.63-1,2.88-4.06,2.88-4.06
		h-3.57l-3.25,4.76c0,0-0.3,0.65,0,1.12c0.44,0.69,1.13,0.69,1.13,0.69h8.38L67.12,56.81z M83.7,51.43l-4.38,6.63h-3.63l1.75-2.5
		h-4.25l-1.63,2.5h-3.5l3.13-4.63c1.38-2,3.88-2,3.88-2H83.7z M79.44,52.56h-2.88c0,0-1.25,0-1.88,0.75c-0.4,0.48-0.88,1.5-0.88,1.5
		h4.13L79.44,52.56z M81.32,58.06h3.38l3.76-5.51h3.25c0.88,0.37,0.5,0.88,0.5,0.88l-3.25,4.63h3.63c0,0,3.76-5.38,4.13-6.01
		c0.38-0.62-0.25-0.62-0.25-0.62H85.7L81.32,58.06z M97.46,51.43l1,1.13h6.63c0,0,1.5,0.25,0.75,1.38s-2.76,2.71-3.63,2.88
		c-0.31,0.06-3.51,0-3.51,0l2-2.88h-3.63l-2.75,4.13h9.01c0,0,1.75,0.25,3.88-2.5s2.13-3.88,1.13-4.13H97.46V51.43z"/>
</g>
</svg>
