<?xml version="1.0" encoding="utf-8"?>
<!-- Generator: Adobe Illustrator 24.2.3, SVG Export Plug-In . SVG Version: 6.00 Build 0)  -->
<svg version="1.1" id="Capa_1" xmlns="http://www.w3.org/2000/svg" xmlns:xlink="http://www.w3.org/1999/xlink" x="0px" y="0px"
	 viewBox="0 0 122 111" style="enable-background:new 0 0 122 111;" xml:space="preserve">
<style type="text/css">
	.st0{fill:#211F1F;}
	.st1{fill:none;}
</style>
<g>
	<polygon class="st0" points="47.79,50.71 40.37,59.62 39.36,60.83 38.3,59.66 30.25,50.71 32.35,50.71 39.31,58.45 45.76,50.71 	
		"/>
	<g>
		<g>
			<line class="st1" x1="52.48" y1="50.38" x2="52.22" y2="50.71"/>
			<line class="st1" x1="52.74" y1="50.71" x2="52.48" y2="50.38"/>
			<line class="st1" x1="111" y1="61.14" x2="110.96" y2="61.14"/>
			<polygon class="st0" points="60.79,61.14 58.81,61.14 57.35,59.25 55.62,57 54.19,55.16 52.53,53 50.87,55.16 49.44,57 
				47.71,59.25 46.25,61.14 44.17,61.14 45.63,59.25 47.36,57 48.79,55.16 50.9,52.43 51.49,51.66 52.22,50.71 52.74,50.71 
				53.52,51.72 54.06,52.43 56.17,55.16 57.59,57 59.33,59.25 			"/>
			<path class="st0" d="M74.26,52.43v6.82c0,0-0.01,1.41-1.72,1.89l-1.85-1.89c0,0,1.32-0.13,1.85-1.03v-5.79H59.72l2.47,2.73
				L63.86,57l2.03,2.24l1.71,1.89h-2.38l-1.71-1.89L61.48,57l-1.67-1.85l-2.47-2.73l-1.55-1.72h16.75
				C72.53,50.71,73.87,50.93,74.26,52.43z"/>
			<rect x="76.74" y="50.71" class="st0" width="14.41" height="1.72"/>
			<rect x="76.74" y="55.16" class="st0" width="10.14" height="1.85"/>
			<path class="st0" d="M110.98,51.58v4.62c-0.05,0.4-0.35,0.72-0.73,0.8h-3.29l2.17,2.24l1.83,1.89h-2.53l-1.83-1.89L104.43,57
				h-8.79v2.24h-1.76v-4.09h15.27v-2.73H93.88V50.7h16.23C110.59,50.71,110.98,51.1,110.98,51.58z"/>
			<line class="st1" x1="111" y1="55.16" x2="110.98" y2="55.16"/>
			<rect x="76.74" y="59.25" class="st0" width="14.41" height="1.89"/>
			<line class="st1" x1="111" y1="61.18" x2="111" y2="61.14"/>
			<line class="st1" x1="111" y1="55.16" x2="111" y2="52.43"/>
			<line class="st1" x1="111" y1="61.18" x2="110.96" y2="61.14"/>
			<path class="st0" d="M110.99,56.08c0,0.04,0,0.08-0.01,0.12v-0.25C110.99,56,110.99,56.04,110.99,56.08z"/>
		</g>
		<g>
			<polygon points="26.32,48.64 26.32,50.39 18.93,55.78 11.62,50.45 11.62,48.64 			"/>
			<polygon points="21.49,57.65 26.32,54.12 26.32,63.34 11.62,63.34 11.62,54.18 16.38,57.65 18.93,59.51 			"/>
		</g>
	</g>
</g>
</svg>
