<?xml version="1.0" encoding="utf-8"?>
<!-- Generator: Adobe Illustrator 24.2.3, SVG Export Plug-In . SVG Version: 6.00 Build 0)  -->
<svg version="1.1" id="Capa_1" xmlns="http://www.w3.org/2000/svg" xmlns:xlink="http://www.w3.org/1999/xlink" x="0px" y="0px"
	 viewBox="0 0 122 111" style="enable-background:new 0 0 122 111;" xml:space="preserve">
<style type="text/css">
	.st0{fill:#211F1F;}
</style>
<g>
	<g>
		<polygon class="st0" points="49.73,51.93 43.87,56.33 41.83,51.94 37.63,51.94 41.08,58.59 45.07,58.59 54.2,51.94 		"/>
		<polygon class="st0" points="54.93,51.93 52.09,58.6 55.81,58.6 58.64,51.93 		"/>
		<path class="st0" d="M71.14,55.65c-0.39-0.8-1.64-1.2-3.74-1.2h-3.08c-0.27,0-0.49-0.04-0.65-0.12c-0.16-0.08-0.21-0.18-0.15-0.3
			c0.11-0.26,0.48-0.39,1.13-0.39h7.14l0.73-1.7h-8.11c-2.01,0-3.55,0.4-4.62,1.19c-0.38,0.28-0.63,0.57-0.76,0.88
			c-0.13,0.32-0.12,0.62,0.02,0.89c0.39,0.78,1.59,1.17,3.6,1.17h3.27c0.5,0,0.74,0.11,0.74,0.34c0,0.14-0.11,0.26-0.33,0.34
			c-0.22,0.09-0.48,0.13-0.77,0.13h-7.34l-0.73,1.7h8.16c2.09,0,3.68-0.41,4.76-1.22c0.35-0.27,0.6-0.55,0.73-0.86
			C71.27,56.21,71.27,55.92,71.14,55.65z"/>
		<path class="st0" d="M105.28,51.93l-1.89,4.44c-0.15-0.18-0.33-0.35-0.51-0.5l-4.85-3.94h-3.89L91.3,58.6h3.72l1.86-4.36
			c0.17,0.2,0.35,0.38,0.55,0.55l4.5,3.82h4.25l2.83-6.67L105.28,51.93L105.28,51.93z"/>
		<polygon class="st0" points="70.85,58.6 74.56,58.6 76.27,54.58 72.56,54.58 		"/>
		<path class="st0" d="M87.21,56.72H80.9c-0.15,0-0.27-0.03-0.35-0.09s-0.11-0.14-0.08-0.22l0.78-1.83h-3.49l-0.83,1.96
			c-0.07,0.17-0.11,0.33-0.11,0.48c0,0.45,0.27,0.83,0.81,1.13s1.25,0.45,2.11,0.45h7.03c1.03,0,1.99-0.2,2.88-0.6
			c0.79-0.36,1.33-0.78,1.6-1.27h-4.01C87.24,56.72,87.23,56.72,87.21,56.72z"/>
		<path class="st0" d="M82.15,53.81h4.34l0,0h1.97c0.16,0,0.28,0.03,0.36,0.09s0.1,0.14,0.07,0.22l-0.78,1.83h3.49L92.43,54
			c0.07-0.17,0.11-0.32,0.11-0.48c0-0.45-0.27-0.83-0.81-1.13s-1.25-0.45-2.11-0.45h-2.33v-0.01h-13.6l-0.8,1.88h5.23H82.15z"/>
	</g>
	<path class="st0" d="M20.13,62.83c-0.3,0.26-0.71,0.18-0.9-0.16l-2.6-4.66c-0.19-0.35-0.08-0.45,0.25-0.23l1.52,1.02
		c0.33,0.22,0.85,0.2,1.16-0.05l2.69-2.19c0.31-0.25,0.23-0.45-0.16-0.45h-5.87c-0.4,0-0.88-0.28-1.08-0.63l-3.36-5.92
		c-0.2-0.34-0.03-0.63,0.36-0.63l2.9-0.01c0.4,0,0.93,0.24,1.19,0.54l3.08,3.55c0.26,0.3,0.72,0.33,1.02,0.08l4.35-3.71
		c0.3-0.26,0.87-0.47,1.27-0.47l9.81,0.01c0.4,0,0.47,0.21,0.17,0.47l-2.04,1.73c-0.3,0.26-0.87,0.47-1.27,0.47h-3.91
		c-0.4,0-0.95,0.23-1.23,0.51l-0.23,0.23c-0.28,0.28-0.18,0.51,0.21,0.51h3.75c0.4,0,0.47,0.21,0.17,0.46L20.13,62.83z"/>
</g>
</svg>
