<?xml version="1.0" encoding="utf-8"?>
<!-- Generator: Adobe Illustrator 24.2.3, SVG Export Plug-In . SVG Version: 6.00 Build 0)  -->
<svg version="1.1" id="Capa_1" xmlns="http://www.w3.org/2000/svg" xmlns:xlink="http://www.w3.org/1999/xlink" x="0px" y="0px"
	 viewBox="0 0 122 111" style="enable-background:new 0 0 122 111;" xml:space="preserve">
<style type="text/css">
	.st0{fill:#211F1F;}
</style>
<g>
	<path class="st0" d="M113,52.41c0,0.67-0.58,1.22-1.31,1.22c-0.72,0-1.31-0.55-1.31-1.22c0-0.68,0.59-1.22,1.31-1.22
		C112.42,51.18,113,51.73,113,52.41"/>
	<path class="st0" d="M113,52.41c0,0.67-0.58,1.22-1.31,1.22c-0.72,0-1.31-0.55-1.31-1.22c0-0.68,0.59-1.22,1.31-1.22
		C112.42,51.18,113,51.73,113,52.41z"/>
	<path class="st0" d="M33.97,46.72h-3.09c-0.43,0-0.65,0.14-0.78,0.5c0,0-0.69,2.08-0.69,2.09c-2.94,8.69-8,14.49-12.51,14.23
		c-0.65-0.04-1.28-0.2-1.87-0.5c0.68,0.45,1.43,0.75,2.24,0.91c6.57,1.25,13-4.42,16.21-13.95c0.09-0.28,0.19-0.57,0.28-0.87
		l0.64-1.92l0.02-0.12C34.49,46.82,34.33,46.72,33.97,46.72"/>
	<path class="st0" d="M27.6,46.72h-3.09c-0.42,0-0.64,0.14-0.77,0.5c0,0-0.64,1.98-0.65,2.03c-2.63,7.53-5.55,11.11-8.15,9.78
		c-2.29-1.17-3.62-4.43-3.88-9.01h-0.03c-0.2,5.96,1.16,10.74,3.89,12.19c4.1,2.19,9.76-3.95,12.75-13.76l0.39-1.23l0.02-0.12
		C28.12,46.82,27.96,46.72,27.6,46.72"/>
	<path class="st0" d="M111.79,52.34c0.1,0,0.19-0.03,0.24-0.06c0.07-0.04,0.1-0.11,0.1-0.22s-0.05-0.19-0.12-0.23
		c-0.05-0.02-0.11-0.03-0.19-0.03h-0.55v0.55L111.79,52.34L111.79,52.34z M111.04,51.61h0.77c0.13,0,0.23,0.02,0.32,0.05
		c0.16,0.07,0.23,0.2,0.23,0.38c0,0.09-0.02,0.17-0.06,0.23s-0.1,0.11-0.17,0.15c0.06,0.03,0.11,0.06,0.15,0.11
		c0.04,0.04,0.05,0.1,0.06,0.19l0.01,0.22c0,0.06,0.01,0.1,0.02,0.13c0.01,0.05,0.04,0.08,0.07,0.1v0.03h-0.28
		c-0.01-0.01-0.01-0.03-0.02-0.05c0-0.02-0.01-0.06-0.01-0.12l-0.01-0.26c0-0.11-0.04-0.17-0.12-0.21c-0.04-0.02-0.11-0.03-0.2-0.03
		h-0.51v0.68h-0.23v-1.6H111.04z"/>
	<path class="st0" d="M53.85,49.75c-0.18,0.45-0.46,0.62-0.93,0.62h-2.43c-0.42,0-0.59-0.15-0.5-0.48c0-0.04,0.02-0.1,0.05-0.14
		l0.9-2.41c0.18-0.45,0.44-0.62,0.92-0.62h2.41c0.42,0,0.59,0.12,0.5,0.47l-0.04,0.15L53.85,49.75z M49.28,62
		c-0.07,0.19-0.26,0.31-0.47,0.31H45.7c-0.21,0-0.31-0.11-0.27-0.27l0-0.04l3.72-9.93c0.07-0.18,0.28-0.31,0.47-0.31h3.12
		c0.2,0,0.31,0.1,0.27,0.27L53,52.07L49.28,62z"/>
	<path class="st0" d="M61.56,53.67c-0.06,0.18-0.25,0.31-0.47,0.31h-2.71l-1.53,4.05c-0.12,0.27-0.28,0.68-0.36,1
		c-0.07,0.3-0.07,0.57,0.14,0.73c0.14,0.14,0.39,0.2,0.83,0.2c0.64,0,1.17-0.08,1.49-0.12c0.02,0,0.06-0.03,0.09-0.03
		c0.18,0,0.19,0.13,0.18,0.27l-0.25,1.5l-0.02,0.08c-0.05,0.21-0.18,0.37-0.48,0.45c-0.31,0.06-1.42,0.38-2.97,0.38
		c-2.47,0-3.57-0.75-3.08-2.81c0.13-0.54,0.38-1.07,0.57-1.6l3.48-9.3c0.13-0.34,0.31-0.53,0.65-0.56l3.05-0.46
		c0.05,0,0.11-0.01,0.14-0.01c0.22,0,0.35,0.1,0.3,0.33c0,0.01-0.03,0.04-0.04,0.06l-1.22,3.29h2.72c0.2,0,0.3,0.11,0.27,0.28
		l-0.01,0.04L61.56,53.67z"/>
	<path class="st0" d="M70.03,53.67c-0.07,0.18-0.25,0.31-0.47,0.31h-2.71l-1.54,4.05c-0.11,0.27-0.28,0.68-0.35,1
		c-0.07,0.3-0.07,0.57,0.14,0.73c0.14,0.14,0.39,0.2,0.84,0.2c0.64,0,1.17-0.08,1.48-0.12c0.02,0,0.08-0.03,0.1-0.03
		c0.18,0,0.19,0.13,0.18,0.27l-0.26,1.5l-0.02,0.08c-0.05,0.21-0.18,0.37-0.49,0.45c-0.3,0.06-1.42,0.38-2.96,0.38
		c-2.48,0-3.58-0.75-3.09-2.81c0.13-0.54,0.38-1.07,0.56-1.6l3.48-9.3c0.13-0.34,0.3-0.53,0.65-0.56l3.05-0.46
		c0.04,0,0.11-0.01,0.14-0.01c0.22,0,0.35,0.1,0.3,0.33c0,0.01-0.03,0.04-0.04,0.06l-1.22,3.29h2.72c0.2,0,0.31,0.11,0.27,0.28
		l-0.01,0.04L70.03,53.67z"/>
	<path class="st0" d="M78.07,53.79c-0.18-0.17-0.51-0.25-1.02-0.25c-1.48,0-2.03,0.71-2.71,2.41c-0.34,0.85-0.71,1.74-0.92,2.59
		c-0.15,0.58-0.2,0.99-0.02,1.26c0.15,0.27,0.52,0.4,1.16,0.4c1.57,0,2.07-0.79,2.83-2.7c0.31-0.81,0.63-1.62,0.83-2.42
		C78.38,54.45,78.37,54.02,78.07,53.79 M80.08,59.83c-1.2,1.65-3.04,2.75-6.4,2.75c-2.13,0-3.3-0.44-3.87-1.16
		c-0.58-0.73-0.55-1.75-0.26-2.95c0.34-1.4,1.15-3.48,2.12-4.73c1.2-1.58,3.04-2.59,6.27-2.59c1.74,0,2.87,0.29,3.54,0.81
		c0.91,0.73,0.95,1.84,0.6,3.28C81.74,56.63,80.98,58.58,80.08,59.83"/>
	<path class="st0" d="M91.06,53.33c-0.1,0.25-0.21,0.48-0.63,0.48c-1.23,0-2.42,0.15-2.58,0.17L84.83,62
		c-0.07,0.19-0.25,0.31-0.47,0.31h-3.14c-0.18,0-0.31-0.11-0.26-0.26V62l3.45-9.19c0.27-0.74,1.08-0.97,2.46-1.22
		c1.16-0.23,2.7-0.4,4.05-0.4h0.4c0.2,0,0.28,0.04,0.35,0.13c0.03,0.04,0.06,0.12,0.03,0.22c-0.01,0.04-0.02,0.07-0.05,0.11
		L91.06,53.33z"/>
	<path class="st0" d="M97.78,49.75c-0.18,0.45-0.46,0.62-0.92,0.62h-2.44c-0.42,0-0.58-0.15-0.5-0.48c0.01-0.04,0.03-0.1,0.05-0.14
		l0.9-2.41c0.18-0.45,0.44-0.62,0.92-0.62h2.41c0.42,0,0.59,0.12,0.51,0.47l-0.04,0.15L97.78,49.75z M93.21,62
		c-0.07,0.19-0.25,0.31-0.47,0.31h-3.12c-0.2,0-0.31-0.11-0.27-0.27L89.36,62l3.72-9.93c0.07-0.18,0.28-0.31,0.47-0.31h3.12
		c0.2,0,0.31,0.1,0.27,0.27l-0.01,0.04L93.21,62z"/>
	<path class="st0" d="M101.69,57.52c-0.59,0.09-1.13,0.19-1.54,0.7c-0.24,0.27-0.4,0.64-0.48,0.97c-0.12,0.46-0.01,0.75,0.22,0.91
		c0.28,0.23,0.73,0.27,1.13,0.27c0.77,0,1.54-0.16,1.68-0.18l1.1-2.97L101.69,57.52z M108.27,55.36l-1.78,4.75
		c-0.59,1.62-1.4,1.87-3.03,2.2c-0.96,0.19-1.99,0.28-3.34,0.28c-1.31,0-2.57-0.09-3.41-0.52c-0.8-0.42-1.25-1.14-0.94-2.41
		c0.2-0.81,0.62-1.74,1.27-2.43c1.05-1.06,2.4-1.32,3.48-1.47l3.98-0.56c0,0,0.22-0.54,0.29-0.81c0.07-0.29,0.03-0.51-0.19-0.66
		c-0.26-0.12-0.75-0.19-1.39-0.19c-1.38,0-3.27,0.44-3.83,0.56c-0.05,0.02-0.12,0.02-0.16,0.02c-0.13,0-0.21-0.04-0.2-0.18
		l0.22-1.56l0.02-0.07c0.06-0.24,0.24-0.33,0.41-0.39c0.51-0.16,2.86-0.76,5.29-0.76c1.55,0,2.58,0.2,3.19,0.62
		c0.73,0.45,0.88,1.18,0.66,2.12C108.69,54.37,108.45,54.88,108.27,55.36"/>
	<path class="st0" d="M46.79,51.76h-3.12c-0.2,0-0.41,0.13-0.47,0.31l-1.96,5.27l-1.97-5.27c-0.07-0.18-0.25-0.31-0.48-0.31h-3.12
		c-0.2,0-0.3,0.1-0.26,0.27l0.01,0.04L39.14,62c0.06,0.19,0.27,0.32,0.47,0.32h0.15h2.97h0.15c0.22,0,0.41-0.13,0.48-0.32l3.69-9.93
		l0.01-0.04C47.09,51.86,46.99,51.76,46.79,51.76"/>
</g>
</svg>
