<?xml version="1.0" encoding="utf-8"?>
<!-- Generator: Adobe Illustrator 24.2.3, SVG Export Plug-In . SVG Version: 6.00 Build 0)  -->
<svg version="1.1" id="Capa_1" xmlns="http://www.w3.org/2000/svg" xmlns:xlink="http://www.w3.org/1999/xlink" x="0px" y="0px"
	 viewBox="0 0 122 111" style="enable-background:new 0 0 122 111;" xml:space="preserve">
<style type="text/css">
	.st0{fill:#211F1F;}
</style>
<g>
	<path class="st0" d="M95.99,60.39h4.41l2.34-5.83h-4.41L95.99,60.39z M110.13,52.41c-0.86-0.58-2.42-0.86-4.65-0.86H91.53
		l-0.8,1.98c-0.27-0.21-2.28-1.98-8.16-1.98c-3.05,0-6.29,0.47-9.74,1.88c-2.1-1.46-4.98-1.88-8.03-1.88c-2.71,0-5.2,0.36-7.48,1.06
		l0.52-1.05H37.99l-0.97,1.96h17.87c-0.7,0.31-1.3,0.64-1.77,0.99h-5.79L36.3,57.83c-0.39,0.13-0.81,0.33-1.11,0.5
		c-0.56,0.32-1.51,0.99-1.97,2.05h19.96l0.29-1.33c2.18,1.14,5.08,1.36,7.19,1.34c3.06-0.02,6.69-0.47,9.79-1.83
		c2.52,1.7,6.41,1.83,7.98,1.83c3.07,0,6.86-0.47,10.39-2.11l-0.86,2.11h4.58l2.7-6.68h9.37c0.82,0,1.37,0.11,1.65,0.32
		c0.13,0.17,0.13,0.45-0.03,0.83l-2.25,5.53h4.58l2.23-5.53C111.22,53.8,111,52.99,110.13,52.41 M42.47,58.17l9.62-2.68
		c-0.09,0.13-0.18,0.27-0.24,0.41c-0.4,0.84-0.27,1.6,0.37,2.26h-9.75V58.17z M69.67,55.68c-0.34,0.7-1.29,1.29-2.87,1.76
		c-1.58,0.46-3.29,0.68-5.13,0.68c-1.9,0-3.39-0.24-4.48-0.71c-1.09-0.45-1.69-1.34-0.83-2.04c1.29-1.06,3.45-1.57,6.18-1.75
		c2.49-0.15,4.19,0.06,5.79,0.57C69.46,54.69,69.91,55.18,69.67,55.68 M87.44,55.68c-0.34,0.7-1.3,1.29-2.87,1.76
		c-1.58,0.46-3.29,0.68-5.14,0.68c-1.9,0-3.38-0.24-4.47-0.71c-0.96-0.4-1.36-0.89-1.23-1.47c0-0.01,0.01-0.02,0.01-0.03
		c0.04-0.09,0.08-0.18,0.1-0.27c0.27-0.49,1.14-0.97,2.64-1.45c0.87-0.23,1.72-0.39,2.53-0.49c0.81-0.11,1.67-0.15,2.6-0.15
		c0.87,0,1.68,0.05,2.44,0.15c0.75,0.1,1.43,0.26,2.04,0.49C87.23,54.69,87.68,55.18,87.44,55.68"/>
	<path class="st0" d="M27.01,47.54h-11.1l-1.33,2.41h10.19l-0.82,1.5h-10.2l-3.74,6.77c0,0-0.66,1.24-0.68,1.28
		c-0.55,1.21-0.21,3.57,2.02,3.57H22.5l1.59-2.92h-8.57l0,0C15.23,60.11,15,59.86,15,59.56c0-0.09,0.02-0.17,0.05-0.25h-0.01
		l3.76-6.87h4.61l-3.03,5.5h4.91L29,51.21c0.01-0.04,0.01-0.07,0.03-0.11C29.59,49.89,29.24,47.54,27.01,47.54"/>
</g>
</svg>
