<?xml version="1.0" encoding="utf-8"?>
<!-- Generator: Adobe Illustrator 25.4.1, SVG Export Plug-In . SVG Version: 6.00 Build 0)  -->
<svg version="1.1" id="Capa_1" xmlns="http://www.w3.org/2000/svg" xmlns:xlink="http://www.w3.org/1999/xlink" x="0px" y="0px"
	 viewBox="0 0 511 511" style="enable-background:new 0 0 511 511;" xml:space="preserve">
<style type="text/css">
	.st0{fill:#123293;}
</style>
<path class="st0" d="M490.1,220.5c-5.1-7.6-12.7-12.9-21.7-14.9c5.8-11,5.5-24.8-1.8-35.8c-5.2-7.9-13.1-13-21.7-14.9
	c1.5-2.9,2.7-6.1,3.3-9.4c1.9-9.2,0-18.6-5.2-26.5c-5.1-7.7-12.7-12.9-21.7-14.9c5.8-11,5.5-24.8-1.8-35.8
	c-10.7-16.2-32.6-20.7-48.8-9.9l-35.1,23.2c-18.7-9.5-38.6-16.2-59.2-20c-6.5-9.9-14.1-19.1-22.6-27.3l-14.5-14.1
	c-10.6-10.3-27.3-11.8-39.6-3.7c-14.6,9.7-18.6,29.4-8.9,44c0.4,0.6,0.8,1.2,1.1,1.7c-47.6,9.6-90.9,34.9-123,71.9
	c-34.8,40.1-54,91.6-54,144.8c0,10.2,0.7,20.4,2.1,30.4C27.7,386.5,79.2,453.1,151.5,483c26.8,11.1,55.2,16.7,84.5,16.7
	c46.4,0,90.7-14.2,128.3-41.1c36.8-26.3,64.3-62.5,79.6-104.9c1.4-3.9-0.6-8.3-4.6-9.7c-3.9-1.4-8.3,0.6-9.7,4.6
	c-14.2,39.4-39.9,73.2-74.1,97.7c-35,25-76.3,38.2-119.5,38.2c-22.3,0-44.1-3.5-65-10.5l61.8-40.9c0,0,0,0,0,0c0,0,0,0,0,0l51.4-34
	h0c4.6-3.1,7.8-7.7,8.9-13.1c1.1-5.4,0-11-3-15.6l-0.7-1l10-6.6c7.1-4.7,15.7-6.6,24.1-5.2c12.2,2,24.6-0.7,34.9-7.5l82.8-54.8
	c-0.6,7.2-1.5,14.3-2.8,21.3c-0.8,4.1,2,8.1,6.1,8.9c0.5,0.1,0.9,0.1,1.4,0.1c3.6,0,6.8-2.6,7.5-6.2c2.1-11.3,3.3-22.9,3.6-34.5
	l23.3-15.4c7.8-5.2,13.2-13.1,15.1-22.4C497.2,237.8,495.3,228.4,490.1,220.5z M321,91.3l-23.2,15.4l-4.6-12.3
	c-1.9-5.1-4.1-10.2-6.5-15.1C298.5,82.3,310,86.3,321,91.3z M80.5,144c30.8-35.5,72.8-59.4,118.8-67.7c7.4,17.9,9.1,37.8,4.7,56.8
	l-18.5,80c-2.9-3.1-6.7-5.3-10.9-6.1c-5.4-1.1-11,0-15.6,3l-52.5,34.7c0,0,0,0,0,0c0,0,0,0,0,0l-75.7,50.1
	c-0.4-5.3-0.6-10.7-0.6-16.1C30.2,229.3,48,181.4,80.5,144z M278.2,383c-0.3,1.4-1.1,2.7-2.4,3.5h0l-45.1,29.9L147,291.5
	c-2.3-3.5-7.1-4.4-10.5-2.1c-3.5,2.3-4.4,7.1-2.1,10.5L218,424.8l-64.4,42.7c-64-28-109.8-87.1-120.8-155.9l75.8-50l8.7,13
	c1.5,2.2,3.9,3.4,6.3,3.4c1.5,0,2.9-0.4,4.2-1.3c3.5-2.3,4.4-7.1,2.1-10.5l-8.7-12.9l46.1-30.4c1.2-0.8,2.7-1.1,4.1-0.8
	c1.4,0.3,2.7,1.1,3.5,2.4l102.4,154.6C278.2,380.1,278.5,381.5,278.2,383z M480.4,244c-1.1,5.2-4.1,9.8-8.6,12.7l-26.7,17.7
	c0,0,0,0,0,0l-95.2,63c-7.1,4.7-15.7,6.6-24.1,5.2c-12.2-2-24.6,0.7-34.9,7.5l-10,6.6l-83.8-126.6l21.7-93.6
	c5.6-24.1,2.6-49.5-8-71.6c-0.1-0.2-0.2-0.5-0.3-0.7c-2-4.2-4.4-8.2-7-12.2c-5-7.6-2.9-17.9,4.7-22.9c6.4-4.3,15.1-3.5,20.7,1.9
	l14.5,14.1c15.7,15.2,28,34.1,35.6,54.6l7.9,21.3c0,0,0,0.1,0,0.1c0,0,0,0.1,0.1,0.1c0.1,0.1,0.1,0.2,0.2,0.4
	c0.2,0.3,0.3,0.6,0.5,0.9c2.3,3.5,7,4.5,10.5,2.1l81-53.7c9.2-6.1,21.7-3.6,27.8,5.6c6.1,9.2,3.6,21.7-5.6,27.8l-7,4.7c0,0,0,0,0,0
	l-15.7,10.4c0,0,0,0-0.1,0c-0.1,0.1-0.2,0.1-0.2,0.2c-3.2,2.4-4.1,6.9-1.8,10.3c2.3,3.5,7,4.5,10.5,2.1l15.7-10.4
	c4.5-2.9,9.8-4,15-2.9c5.2,1.1,9.8,4.1,12.7,8.6c3,4.5,4,9.8,2.9,15.1c-1.1,5.2-4.1,9.8-8.6,12.7l-22.7,15.1
	c-3.5,2.3-4.5,7-2.1,10.5c1.5,2.2,3.9,3.4,6.3,3.4c1.4,0,2.9-0.4,4.2-1.3l3.5-2.3l12.2-8.1c9.2-6.1,21.7-3.6,27.8,5.6
	c6.1,9.2,3.6,21.7-5.6,27.8l-11.4,7.5c-0.1,0-0.1,0.1-0.2,0.1l-11.2,7.4c-3.5,2.3-4.5,7-2.1,10.5c1.5,2.2,3.9,3.4,6.3,3.4
	c1.4,0,2.9-0.4,4.2-1.3l3.5-2.3c0,0,0,0,0,0l12.2-8.1c4.5-3,9.8-4,15.1-2.9c5.2,1.1,9.8,4.1,12.7,8.6
	C480.4,233.4,481.5,238.7,480.4,244z"/>
</svg>
