<?xml version="1.0" encoding="utf-8"?>
<!-- Generator: Adobe Illustrator 25.4.1, SVG Export Plug-In . SVG Version: 6.00 Build 0)  -->
<svg version="1.1" id="Capa_1" xmlns="http://www.w3.org/2000/svg" xmlns:xlink="http://www.w3.org/1999/xlink" x="0px" y="0px"
	 viewBox="0 0 48 48" style="enable-background:new 0 0 48 48;" xml:space="preserve">
<style type="text/css">
	.st0{fill:#F70B0B;}
</style>
<path class="st0" d="M24,39.3l-1.1-1c-3.3-3.1-6.1-5.7-8.2-7.9s-3.9-4.1-5.2-5.8S7.2,21.4,6.8,20C6.2,18.7,6,17.4,6,16.1
	c0-2.5,0.8-4.6,2.5-6.3s3.8-2.5,6.2-2.5c1.8,0,3.5,0.5,5.1,1.5c1.6,1,3,2.4,4.1,4.3c1.3-1.9,2.7-3.4,4.2-4.3s3.2-1.4,5-1.4
	c2.5,0,4.5,0.8,6.2,2.5c1.7,1.7,2.5,3.8,2.5,6.3c0,1.3-0.2,2.6-0.8,4c-0.5,1.3-1.4,2.8-2.7,4.5c-1.3,1.7-3,3.6-5.2,5.8
	c-2.2,2.2-4.9,4.8-8.3,7.9L24,39.3z"/>
</svg>
