<?xml version="1.0" encoding="utf-8"?>
<!-- Generator: Adobe Illustrator 25.4.1, SVG Export Plug-In . SVG Version: 6.00 Build 0)  -->
<svg version="1.1" id="Capa_1" xmlns="http://www.w3.org/2000/svg" xmlns:xlink="http://www.w3.org/1999/xlink" x="0px" y="0px"
	 viewBox="0 0 393 97" style="enable-background:new 0 0 393 97;" xml:space="preserve">
<style type="text/css">
	.st0{fill:#FFFFFF;}
	.st1{fill-rule:evenodd;clip-rule:evenodd;fill:#FFFFFF;}
</style>
<g>
	<g>
		<g>
			<path class="st0" d="M241.8,60.7c2.1,0,4.2,0,6.2,0c4.4,14.5,20.3,15.9,27.6,8.8c-7.1-8.4-9.4-18.1-7-29
				c-3.3-1.2-6.4-0.8-9.6,0.3c-4,1.4-7.1,3.9-9.1,7.6c-0.6,1.2-1.4,1.7-2.7,1.6c-1.4-0.1-2.8,0-4.5,0c0.6-2.8,1.1-5.5,1.6-8.2
				c1.5-7.7,3-15.3,4.6-23c0.1-0.5,0.9-1.3,1.4-1.3c11-0.1,21.9-0.1,33-0.1c-2.7,2.1-5.2,4.1-7.7,6c-0.4,0.3-1.1,0.2-1.7,0.2
				c-6,0-11.9,0-17.9,0c-1.3,0-1.9,0.3-2.1,1.7c-0.7,3.8-1.5,7.6-2.3,11.4c2.9-1,5.6-2.3,8.4-2.8c2.9-0.5,6-0.2,8.9,0
				c1.3,0.1,2.1,0.1,2.9-1.3c6.4-10.6,15.8-16.1,28.2-15.9c12,0.3,21.1,6.1,27.1,16.5c0.1,0.2,0.2,0.3,0.2,0.5c0,0,0.1,0.3-0.1,0.3
				c-2.1,0-4.4,0-6.3,0c-0.5,0-1.2-0.6-1.6-1.1c-6.8-8.2-15.4-11.6-25.8-9.1c-10.4,2.5-16.7,9.4-19,19.8c-1.6,7.4,0.4,14.2,5,20.5
				c1.5-2.5,1.9-5,1.9-7.5c0-3.3-0.9-6.6-3-9.2c-1.5-1.9-1.5-3.7-0.7-5.7c0.4-1,0.8-2,1.3-3c5.8,3.4,11.2,14.1,7.8,24.8
				c-3.4,10.7-14.1,17.8-24.7,16.4C251.6,78.6,242.2,69.8,241.8,60.7z"/>
			<path class="st0" d="M327.5,62.7c-7.2,16-29.1,22.8-44.4,12.7c1.3-1.6,2.5-3.2,3.7-4.7c2.9,0.9,5.7,2.1,8.6,2.5
				c9.5,1.5,17.4-1.6,23.6-8.9c1.1-1.3,2.1-1.7,3.7-1.7C324.4,62.6,325.8,62.7,327.5,62.7z"/>
		</g>
		<g>
			<path class="st0" d="M344.2,45.2h-0.5c-0.3,0-0.4,0.1-0.4,0.4v5.4c0,0.2,0.1,0.4,0.4,0.4h0.5c0.3,0,0.4-0.1,0.4-0.4v-5.4
				C344.6,45.3,344.4,45.2,344.2,45.2z"/>
			<path class="st0" d="M309.1,45.2h-0.6c-0.3,0-0.4,0.1-0.4,0.4v1.9c0,0.1,0,0.2,0.1,0.3c0.1,0.1,0.2,0.1,0.3,0.1h1v-2.3
				C309.4,45.3,309.3,45.2,309.1,45.2z"/>
			<path class="st0" d="M364.2,38.7h-66.8c-1.2,0-2.1,0.9-2.1,2.1v15.3c0,1.2,0.9,2.1,2.1,2.1h66.8c1.2,0,2.1-0.9,2.1-2.1V40.8
				C366.3,39.7,365.4,38.7,364.2,38.7z M303.6,52.8h-2.1v-7.6h-1.2v-1.5h3.3V52.8z M311.4,51.2c0,1.1-0.6,1.6-1.8,1.6H308
				c-1.2,0-1.8-0.5-1.8-1.6V50h2v0.9c0,0.2,0.1,0.4,0.4,0.4h0.5c0.2,0,0.4-0.1,0.4-0.4v-1.7h-1.6c-1.2,0-1.8-0.5-1.8-1.6v-2.4
				c0-1.1,0.6-1.6,1.8-1.6h1.8c1.2,0,1.8,0.5,1.8,1.6V51.2z M318.6,44.8l-2.7,8h-2.1l2.6-7.5h-3v-1.6h5.2V44.8z M325.6,52.8h-5.2
				v-1.4l2.5-3.4c0.2-0.3,0.4-0.6,0.5-0.8c0.1-0.2,0.1-0.5,0.1-0.8v-0.8c0-0.2-0.1-0.4-0.4-0.4h-0.4c-0.2,0-0.4,0.1-0.4,0.4v1.2
				h-2.1v-1.5c0-1.1,0.6-1.6,1.8-1.6h1.6c1.2,0,1.8,0.5,1.8,1.6v1.2c0,0.4-0.1,0.8-0.2,1.1c-0.1,0.3-0.3,0.7-0.6,1.1l-1.8,2.7h2.7
				V52.8z M331.6,49.2h-3.9v-1.4h3.9V49.2z M338.9,52.8h-5.2v-1.4l2.5-3.4c0.2-0.3,0.4-0.6,0.5-0.8c0.1-0.2,0.1-0.5,0.1-0.8v-0.8
				c0-0.2-0.1-0.4-0.4-0.4h-0.4c-0.2,0-0.4,0.1-0.4,0.4v1.2h-2.1v-1.5c0-1.1,0.6-1.6,1.8-1.6h1.6c1.2,0,1.8,0.5,1.8,1.6v1.2
				c0,0.4-0.1,0.8-0.2,1.1c-0.1,0.3-0.3,0.7-0.6,1.1l-1.8,2.7h2.7V52.8z M346.6,51.2c0,1.1-0.6,1.6-1.8,1.6H343
				c-1.2,0-1.8-0.5-1.8-1.6v-6c0-1.1,0.6-1.6,1.8-1.6h1.8c1.2,0,1.8,0.5,1.8,1.6V51.2z M354.1,52.8h-5.2v-1.4l2.5-3.4
				c0.2-0.3,0.4-0.6,0.5-0.8c0.1-0.2,0.1-0.5,0.1-0.8v-0.8c0-0.2-0.1-0.4-0.4-0.4h-0.4c-0.2,0-0.4,0.1-0.4,0.4v1.2h-2.1v-1.5
				c0-1.1,0.6-1.6,1.8-1.6h1.6c1.2,0,1.8,0.5,1.8,1.6v1.2c0,0.4-0.1,0.8-0.2,1.1c-0.1,0.3-0.3,0.7-0.6,1.1l-1.8,2.7h2.7V52.8z
				 M361.4,52.8h-5.2v-1.4l2.5-3.4c0.2-0.3,0.4-0.6,0.5-0.8c0.1-0.2,0.1-0.5,0.1-0.8v-0.8c0-0.2-0.1-0.4-0.4-0.4h-0.4
				c-0.2,0-0.4,0.1-0.4,0.4v1.2h-2.1v-1.5c0-1.1,0.6-1.6,1.8-1.6h1.6c1.2,0,1.8,0.5,1.8,1.6v1.2c0,0.4-0.1,0.8-0.2,1.1
				c-0.1,0.3-0.3,0.7-0.6,1.1l-1.8,2.7h2.7V52.8z"/>
		</g>
	</g>
	<g>
		<g>
			<g>
				<path class="st0" d="M224.7,30.7c-2,0-3.6-1.5-3.6-3.3c0-1.8,1.6-3.3,3.6-3.3s3.6,1.5,3.6,3.3C228.3,29.3,226.7,30.7,224.7,30.7
					z M224.7,24.9c-1.6,0-2.8,1.1-2.8,2.5c0,1.5,1.2,2.5,2.8,2.5s2.8-1.1,2.8-2.5C227.5,26,226.3,24.9,224.7,24.9z M225.4,29.2
					l-0.7-1.3h-0.4v1.3h-0.9v-3.5h1.6c0.8,0,1.3,0.5,1.3,1.1c0,0.5-0.3,0.8-0.7,0.9l0.8,1.5H225.4z M224.9,26.4h-0.6v0.9h0.6
					c0.3,0,0.5-0.2,0.5-0.5C225.4,26.6,225.2,26.4,224.9,26.4z"/>
			</g>
			<g>
				<path class="st1" d="M99.2,25.5c-1.1-1.1-2.4-1.6-4-1.6l-22.8,0c0,0-1.8,0-3.5,1.4c-1.6,1.3-1.8,3.6-1.8,3.6V52h5.6V31.8
					c0-0.1,0-0.1,0-0.2c0-1.1,0.9-2,2-2c0,0,0,0,0,0l0,0h20.4V52h5.6V29.6C100.8,28,100.3,26.6,99.2,25.5"/>
				<path class="st1" d="M59.9,25.5c-1.1-1.1-2.4-1.6-4-1.6l-28.1,0c0,0,0,0.9,0,2c0,1.5,0,2.1,0,3.7H54l0,0c1,0,1.9,0.9,1.9,1.9
					l0,0v3.7H33.4c-1.6,0-3,0.5-4,1.6c-1.1,1.1-1.6,2.4-1.6,4v5.6c0,1.6,0.5,3,1.6,4c1.1,1.1,2.4,1.6,4,1.6h22.5c1.6,0,3-0.5,4-1.6
					c1.1-1.1,1.6-2.4,1.6-4V29.6C61.5,28,61,26.6,59.9,25.5 M55.9,46.4H35.3l0,0c-1,0-1.8-0.8-1.9-1.8l0,0v-1.8
					c0-0.6,0.2-1.1,0.6-1.4c0,0,0,0,0,0c0,0,0,0,0,0c0.3-0.3,0.8-0.5,1.3-0.6c0,0,0,0,0,0h20.6V46.4z"/>
				<path class="st1" d="M217.3,36.8c-1.1-1.1-2.4-1.6-4-1.6h-20.5l0,0c-1,0-1.9-0.8-1.9-1.8l0,0v-0.1c0,0,0,0,0,0c0,0,0,0,0,0v-1.9
					l0-0.1c0.1-0.9,0.9-1.6,1.8-1.7l0,0h0.1c0,0,0,0,0.1,0c0,0,0,0,0.1,0l25.9,0v-5.7c0,0-3.9,0.1-5.5,0.1h-22.5c-1.6,0-3,0.5-4,1.6
					c-1.1,1.1-1.6,2.4-1.6,4v5.6c0,1.6,0.5,3,1.6,4c1.1,1.1,2.4,1.6,4,1.6l20.5,0c1.1,0,1.9,0.8,2,1.9l0,0v0.1c0,0,0,0,0,0
					c0,0,0,0,0,0l0,1.6l0,0c0,1.1-0.9,1.9-2,2l0,0h-26.1c0,1.6,0,5.1,0,5.6c0,0,4.1,0,5.7,0h22.4h0.1c1.6,0,3-0.5,4-1.6
					c1.1-1.1,1.6-2.4,1.6-4v-5.6C218.9,39.2,218.3,37.9,217.3,36.8"/>
				<path class="st1" d="M135.2,23.9v5.6h-22.5c-1.6,0-3,0.5-4,1.6c-1.1,1.1-1.6,2.4-1.6,4v11.2c0,1.6,0.5,3,1.6,4
					c1.1,1.1,2.4,1.6,4,1.6h22.5c1.6,0,3-0.5,4-1.6c1.1-1.1,1.6-2.4,1.6-4V23.9H135.2z M135.2,46.4h-19.3l0,0
					c-1.8,0-3.2-1.4-3.2-3.2l0,0v-4.9l0,0c0.1-1.7,1.4-3.1,3.2-3.1l0,0h19.3V46.4z"/>
				<path class="st1" d="M173.9,40.8c1.6,0,3-0.5,4-1.6c1.1-1.1,1.6-2.4,1.6-4v-5.6c0-1.6-0.5-3-1.6-4c-1.1-1.1-2.4-1.6-4-1.6h-22.5
					c-1.6,0-3,0.5-4,1.6c-1.1,1.1-1.6,2.4-1.6,4v16.9c0,1.6,0.5,3,1.6,4c1.1,1.1,2.4,1.6,4,1.6h22.5c1.6,0,5.6,0,5.6,0
					c0-0.2,0-4,0-5.6h-28.1v-5.6H173.9z M151.4,31.9L151.4,31.9c0.1-1.3,1.1-2.3,2.4-2.3h17.7l0,0c1.3,0,2.4,1,2.4,2.3l0,0v3.3
					h-22.5V31.9z"/>
			</g>
		</g>
		<g>
			<path class="st0" d="M33.8,69.2H29l-1.1,3.7h-1.1l4.2-13.3h1l4.2,13.3H35L33.8,69.2z M29.3,68.2h4.2l-2.1-6.9h-0.1L29.3,68.2z"/>
			<path class="st0" d="M48,72.9h-1.1l-6-11.2l-0.1,0v11.2h-1.1V59.6h1.1l6,11.2l0.1,0V59.6H48V72.9z"/>
			<path class="st0" d="M52.9,72.9V59.6h3.3c1.4,0,2.5,0.5,3.4,1.6c0.9,1.1,1.3,2.5,1.3,4.2v1.7c0,1.7-0.4,3.1-1.3,4.2
				c-0.9,1.1-2,1.6-3.4,1.6H52.9z M54,60.5V72h2.2c1.1,0,1.9-0.5,2.6-1.4c0.7-0.9,1-2.1,1-3.5v-1.8c0-1.4-0.3-2.6-1-3.5
				c-0.7-0.9-1.5-1.4-2.6-1.4H54z"/>
			<path class="st0" d="M71.5,66.5h-5.2V72h6v0.9h-7.1V59.6h7.1v1h-6v5h5.2V66.5z"/>
			<path class="st0" d="M82.4,69.7c0-0.7-0.2-1.3-0.6-1.8c-0.4-0.5-1.2-0.9-2.2-1.2c-1.2-0.4-2.1-0.9-2.8-1.4s-0.9-1.4-0.9-2.4
				c0-1,0.3-1.9,1-2.5s1.6-1,2.7-1c1.2,0,2.1,0.4,2.8,1.1c0.7,0.8,1,1.7,1,2.8l0,0.1h-1c0-0.9-0.2-1.6-0.7-2.2
				c-0.5-0.6-1.2-0.8-2-0.8c-0.8,0-1.5,0.2-1.9,0.7c-0.5,0.5-0.7,1.1-0.7,1.8c0,0.7,0.2,1.2,0.7,1.7c0.4,0.4,1.2,0.8,2.3,1.2
				c1.2,0.4,2.1,0.9,2.7,1.5c0.6,0.6,0.9,1.4,0.9,2.5c0,1.1-0.4,1.9-1.1,2.5c-0.7,0.6-1.7,0.9-2.8,0.9c-1.1,0-2.1-0.3-2.9-1
				c-0.8-0.7-1.2-1.6-1.2-2.9l0-0.1h1c0,1,0.3,1.8,0.9,2.3c0.6,0.5,1.3,0.7,2.2,0.7c0.8,0,1.5-0.2,2-0.7
				C82.2,71,82.4,70.4,82.4,69.7z"/>
			<path class="st0" d="M88.9,72.9h-1.1V59.6h1.1V72.9z"/>
			<path class="st0" d="M102.2,72.9h-1.1l-6-11.2l-0.1,0v11.2h-1.1V59.6H95l6,11.2l0.1,0V59.6h1.1V72.9z"/>
			<path class="st0" d="M107,72.9V59.6h3.3c1.4,0,2.5,0.5,3.4,1.6c0.9,1.1,1.3,2.5,1.3,4.2v1.7c0,1.7-0.4,3.1-1.3,4.2
				c-0.9,1.1-2,1.6-3.4,1.6H107z M108.1,60.5V72h2.2c1.1,0,1.9-0.5,2.6-1.4c0.7-0.9,1-2.1,1-3.5v-1.8c0-1.4-0.3-2.6-1-3.5
				c-0.7-0.9-1.5-1.4-2.6-1.4H108.1z"/>
			<path class="st0" d="M126.8,59.6v9.3c0,1.4-0.4,2.4-1.1,3.1c-0.7,0.7-1.7,1.1-2.8,1.1c-1.1,0-2.1-0.4-2.8-1.1
				c-0.7-0.7-1.1-1.8-1.1-3.1v-9.3h1.1v9.3c0,1,0.3,1.8,0.8,2.4c0.5,0.6,1.2,0.8,2,0.8c0.9,0,1.5-0.3,2.1-0.8
				c0.5-0.5,0.8-1.4,0.8-2.4v-9.3H126.8z"/>
			<path class="st0" d="M137.6,69.7c0-0.7-0.2-1.3-0.6-1.8s-1.2-0.9-2.2-1.2c-1.2-0.4-2.1-0.9-2.8-1.4c-0.6-0.6-0.9-1.4-0.9-2.4
				c0-1,0.3-1.9,1-2.5s1.6-1,2.7-1c1.2,0,2.1,0.4,2.8,1.1c0.7,0.8,1,1.7,1,2.8l0,0.1h-1c0-0.9-0.2-1.6-0.7-2.2
				c-0.5-0.6-1.2-0.8-2-0.8c-0.8,0-1.5,0.2-1.9,0.7c-0.5,0.5-0.7,1.1-0.7,1.8c0,0.7,0.2,1.2,0.7,1.7c0.4,0.4,1.2,0.8,2.3,1.2
				c1.2,0.4,2.1,0.9,2.7,1.5c0.6,0.6,0.9,1.4,0.9,2.5c0,1.1-0.4,1.9-1.1,2.5c-0.7,0.6-1.7,0.9-2.8,0.9c-1.1,0-2.1-0.3-2.9-1
				c-0.8-0.7-1.2-1.6-1.2-2.9l0-0.1h1c0,1,0.3,1.8,0.9,2.3c0.6,0.5,1.3,0.7,2.2,0.7c0.8,0,1.5-0.2,2-0.7
				C137.4,71,137.6,70.4,137.6,69.7z"/>
			<path class="st0" d="M150.3,60.5h-3.7v12.4h-1.1V60.5h-3.7v-1h8.5V60.5z"/>
			<path class="st0" d="M155.2,66.9v6h-1.1V59.6h3.8c1.2,0,2.1,0.3,2.7,0.9c0.6,0.6,1,1.5,1,2.7c0,0.7-0.2,1.3-0.5,1.9
				c-0.3,0.6-0.8,1-1.4,1.2c0.7,0.2,1.2,0.6,1.5,1.1c0.3,0.5,0.4,1.2,0.4,2v1.3c0,0.4,0,0.8,0.1,1.1s0.2,0.6,0.4,0.8v0.2h-1.1
				c-0.2-0.2-0.3-0.5-0.4-0.9c-0.1-0.4-0.1-0.8-0.1-1.2v-1.2c0-0.8-0.2-1.4-0.6-1.9c-0.4-0.5-1-0.7-1.7-0.7H155.2z M155.2,65.9h2.6
				c0.9,0,1.6-0.2,2.1-0.7c0.4-0.5,0.7-1.1,0.7-2c0-0.9-0.2-1.5-0.6-2c-0.4-0.5-1.1-0.7-2-0.7h-2.7V65.9z"/>
			<path class="st0" d="M167.6,72.9h-1.1V59.6h1.1V72.9z"/>
			<path class="st0" d="M178.8,69.2h-4.9l-1.1,3.7h-1.1l4.2-13.3h1l4.2,13.3h-1.1L178.8,69.2z M174.2,68.2h4.2l-2.1-6.9h-0.1
				L174.2,68.2z"/>
			<path class="st0" d="M185.9,72h5.4v0.9h-6.5V59.6h1.1V72z"/>
			<path class="st0" d="M196.1,72.9h-1.2v-1.5h1.2V72.9z"/>
			<path class="st0" d="M208.2,69L208.2,69c0,1.4-0.3,2.3-1,3c-0.7,0.7-1.6,1-2.8,1c-1.2,0-2.2-0.4-2.9-1.3
				c-0.7-0.9-1.1-2.1-1.1-3.7v-3.7c0-1.6,0.4-2.8,1.1-3.7c0.7-0.9,1.7-1.3,2.9-1.3c1.2,0,2.1,0.3,2.8,1c0.7,0.7,1,1.7,1,3l0,0.1h-1
				c0-1.1-0.3-1.8-0.7-2.3c-0.5-0.5-1.1-0.8-2-0.8c-0.9,0-1.6,0.3-2.1,1c-0.5,0.7-0.8,1.7-0.8,3v3.7c0,1.3,0.3,2.3,0.8,3
				c0.5,0.7,1.2,1,2.1,1c0.9,0,1.6-0.2,2-0.7c0.5-0.5,0.7-1.3,0.7-2.4H208.2z"/>
			<path class="st0" d="M213.7,72h5.4v0.9h-6.5V59.6h1.1V72z"/>
		</g>
	</g>
</g>
</svg>
