<?xml version="1.0" encoding="utf-8"?>
<!-- Generator: Adobe Illustrator 25.4.1, SVG Export Plug-In . SVG Version: 6.00 Build 0)  -->
<svg version="1.1" id="Capa_1" xmlns="http://www.w3.org/2000/svg" xmlns:xlink="http://www.w3.org/1999/xlink" x="0px" y="0px"
	 viewBox="0 0 48 48" style="enable-background:new 0 0 48 48;" xml:space="preserve">
<style type="text/css">
	.st0{fill:#0A0A0A;}
</style>
<path class="st0" d="M14.8,42.2c-0.8,0-1.4-0.3-1.9-0.8c-0.5-0.5-0.8-1.2-0.8-2s0.3-1.5,0.8-2c0.5-0.5,1.2-0.8,1.9-0.8
	c0.8,0,1.5,0.3,2,0.8s0.8,1.2,0.8,2c0,0.8-0.3,1.5-0.8,2C16.2,41.9,15.5,42.2,14.8,42.2z M33.5,42.2c-0.8,0-1.5-0.3-2-0.8
	c-0.5-0.5-0.8-1.2-0.8-2s0.3-1.5,0.8-2c0.5-0.5,1.2-0.8,2-0.8c0.8,0,1.4,0.3,2,0.8c0.5,0.5,0.8,1.2,0.8,2s-0.3,1.5-0.8,2
	S34.4,42.2,33.5,42.2z M11.5,10.6l5.6,11.9h13.5c0.2,0,0.5-0.1,0.6-0.2c0.2-0.1,0.4-0.3,0.5-0.5l5.6-10.1c0.1-0.3,0.1-0.5,0-0.7
	c-0.1-0.2-0.3-0.3-0.7-0.3L11.5,10.6z M10.7,9h26c1,0,1.7,0.3,2.1,1s0.4,1.4-0.1,2.2l-5.5,10.1c-0.3,0.5-0.6,0.9-1.1,1.1
	c-0.5,0.3-1,0.5-1.5,0.5H16.2l-2.7,5c-0.2,0.3-0.2,0.6,0,1c0.2,0.4,0.5,0.5,0.8,0.5h22V32H14.5c-1.1,0-1.9-0.4-2.4-1.2
	c-0.5-0.8-0.5-1.7,0-2.6l3.2-5.9L7.8,6.5H4.2V5h4.6L10.7,9z M17.1,22.4h14.2H17.1z"/>
</svg>
