<svg id="Capa_1" data-name="Capa 1" xmlns="http://www.w3.org/2000/svg" viewBox="0 0 122 111"><defs><style>.cls-1{fill-rule:evenodd;}</style></defs><path d="M10.38,60.37h4.45a2.9,2.9,0,0,1,1.31.28,2.15,2.15,0,0,1,.88.81,2.28,2.28,0,0,1,.31,1.2v1.12A2.32,2.32,0,0,1,17,65a2.16,2.16,0,0,1-.91.83,2.92,2.92,0,0,1-1.35.3H12.05v2.66H10.38Zm4.33,4.33a.93.93,0,0,0,.69-.27,1,1,0,0,0,.27-.72v-1a.93.93,0,0,0-.24-.67.83.83,0,0,0-.62-.24H12.05V64.7Z"/><path d="M33.32,60.37h4.49a2.61,2.61,0,0,1,1.77.59,2,2,0,0,1,.67,1.56v.84a1.72,1.72,0,0,1-.36,1.09,2.19,2.19,0,0,1-1,.71v0a1.92,1.92,0,0,1,.59.58,4.82,4.82,0,0,1,.39.91l.67,2.14H38.79l-.64-2a1.67,1.67,0,0,0-.44-.77,1,1,0,0,0-.68-.26H35v3H33.32Zm4.18,4a1.1,1.1,0,0,0,.79-.27.91.91,0,0,0,.29-.71v-.78a.76.76,0,0,0-.21-.56.81.81,0,0,0-.58-.21H35v2.53Z"/><path d="M56.7,60.37h1.66v8.44H56.7Z"/><path d="M75.06,60.37h1.48l2.76,5,2.71-5h1.48v8.44H81.86V63.47l-1.77,3.21a1.54,1.54,0,0,1-.37.46.74.74,0,0,1-.43.14h-.46l-2.14-3.81v5.34H75.06Z"/><path d="M100.39,68.5a1.08,1.08,0,0,1-.33-.82V60.37h6.44v1.45h-4.77v2h4.41v1.45h-4.41v2.14h4.77v1.45h-5.27A1.15,1.15,0,0,1,100.39,68.5Z"/><path d="M110.23,44.94a1.38,1.38,0,1,1,1.53-1.37A1.46,1.46,0,0,1,110.23,44.94Zm0-2.44a1.07,1.07,0,1,0,1.17,1.07A1.09,1.09,0,0,0,110.23,42.5Zm.28,1.8-.3-.57H110v.57h-.36V42.83h.66a.49.49,0,0,1,.54.46.42.42,0,0,1-.3.39l.34.62Zm-.22-1.2H110v.38h.25a.19.19,0,1,0,0-.38Z"/><path class="cls-1" d="M46.35,43.35a2.76,2.76,0,0,0-2-.81H32.8a3.17,3.17,0,0,0-1.77.71,3,3,0,0,0-.91,1.82V56.74H33V46.49a.34.34,0,0,1,0-.1,1,1,0,0,1,1-1H44.32V56.74h2.84V45.38A2.74,2.74,0,0,0,46.35,43.35Z"/><path class="cls-1" d="M26.47,43.35a2.74,2.74,0,0,0-2-.81H10.24s0,.47,0,1c0,.76,0,1,0,1.85H23.47a1,1,0,0,1,1,1h0v1.85H13.08a2.77,2.77,0,0,0-2.84,2.84V53.9a2.77,2.77,0,0,0,2.84,2.84H24.44a2.77,2.77,0,0,0,2.84-2.84V45.38A2.74,2.74,0,0,0,26.47,43.35Zm-2,10.55H14a1,1,0,0,1-1-.92h0v-.9a1,1,0,0,1,.3-.72h0a1,1,0,0,1,.64-.29H24.44Z"/><path class="cls-1" d="M106,49a2.76,2.76,0,0,0-2-.81H93.57a1,1,0,0,1-1-.92h0v-.09h0v-1a1,1,0,0,1,.89-.84h13.24V42.51l-2.78,0H92.59a2.77,2.77,0,0,0-2.84,2.84v2.84a2.77,2.77,0,0,0,2.84,2.84h10.34a1,1,0,0,1,1,1h0v0h0v.83h0a1,1,0,0,1-1,1H89.75c0,.82,0,2.57,0,2.84H104a2.77,2.77,0,0,0,2.84-2.84V51.06A2.74,2.74,0,0,0,106,49Z"/><path class="cls-1" d="M64.51,42.53v2.84H53.15a2.75,2.75,0,0,0-2.84,2.84v5.68a2.77,2.77,0,0,0,2.84,2.84H64.51a2.77,2.77,0,0,0,2.84-2.84V42.53Zm0,11.36H54.77a1.64,1.64,0,0,1-1.62-1.61h0V49.79h0a1.64,1.64,0,0,1,1.61-1.58h9.75Z"/><path class="cls-1" d="M84.07,51.06a2.77,2.77,0,0,0,2.84-2.84V45.38a2.77,2.77,0,0,0-2.84-2.84H72.71a2.77,2.77,0,0,0-2.84,2.84V53.9a2.77,2.77,0,0,0,2.84,2.84H86.89c0-.12,0-2,0-2.84H72.71V51.06Zm-11.36-4.5h0a1.23,1.23,0,0,1,1.23-1.17h8.92a1.23,1.23,0,0,1,1.21,1.19h0v1.65H72.71Z"/></svg>