<?xml version="1.0" encoding="utf-8"?>
<!-- Generator: Adobe Illustrator 24.2.3, SVG Export Plug-In . SVG Version: 6.00 Build 0)  -->
<svg version="1.1" id="Capa_1" xmlns="http://www.w3.org/2000/svg" xmlns:xlink="http://www.w3.org/1999/xlink" x="0px" y="0px"
	 viewBox="0 0 100 100" style="enable-background:new 0 0 100 100;" xml:space="preserve">
<style type="text/css">
	.st0{display:none;}
	.st1{display:inline;fill:#262424;}
	.st2{fill:#262424;}
</style>
<g class="st0">
	<path class="st1" d="M90.31,45.1c1.01,0,2.69,0.74,2.69,3.37v4.84c0,2.85-2.09,3.3-2.72,3.3h-5.61c-0.97,0-2.7-0.69-2.7-3.34v-4.95
		c0-1.68,0.96-3.22,2.74-3.23H90.31 M86.43,47.11c-0.76,0-1.28,0.67-1.28,1.25v4.96c0,0.85,0.7,1.29,1.26,1.29h2.13
		c0.6,0,1.27-0.53,1.27-1.26v-4.99c0-0.62-0.58-1.26-1.26-1.26H86.43z"/>
	<path class="st1" d="M55.68,48.43c-0.01-1.96,1.07-3.34,2.74-3.34h5.99c1.6,0,2.65,1.41,2.65,3.27v8.22h-3.17v-2.55h-5.05v2.55
		h-3.17V48.43 M58.84,51.8h5.04v-3.35c0.01-0.6-0.44-1.35-1.2-1.35h-2.57c-0.62,0-1.26,0.57-1.26,1.27V51.8z"/>
	<path class="st1" d="M69.17,56.6h3.18v-9.49h3.14c0.72,0,1.27,0.59,1.31,1.27v8.22h3.14v-8.13c0-1.57-0.72-3.39-2.75-3.35h-8.01
		V56.6z"/>
	<path class="st1" d="M38.7,45.12V56.6h3.13v-9.49h2.76v9.49h3.18v-9.49h1.44c0.68,0,1.27,0.63,1.27,1.27v8.22h3.18v-8.22
		c0-1.66-0.89-3.27-2.71-3.27H38.7z"/>
	<rect x="32.89" y="45.1" class="st1" width="3.35" height="11.49"/>
	<polygon class="st1" points="19.42,45.12 19.42,56.6 22.6,56.6 22.6,54.06 27.26,54.06 27.26,56.6 30.44,56.6 30.44,45.12 
		27.26,45.12 27.26,51.81 22.6,51.81 22.6,45.12 	"/>
	<path class="st1" d="M17.35,45.12H9.3c-1.95,0-2.54,1.53-2.63,1.91c-0.21,1.19-0.08,2.75,0.04,3.31c0.13,0.3,0.76,1.69,2.5,1.69
		h4.36c0.59,0,0.98,0.43,1.02,1.23c0.04,0.76-0.26,1.36-1.02,1.36H6.84v1.99h7.88c1.91-0.04,2.5-1.19,2.63-1.74
		c0.42-1.14,0.42-2.71,0-3.81c-0.13-0.38-0.85-1.61-2.71-1.61h-4.15c-0.59,0-0.93-0.42-0.93-1.19c0-0.76,0.34-1.19,0.93-1.19h6.87
		V45.12z"/>
</g>
<g class="st0">
	<path class="st1" d="M22.83,39.59h-0.54v21.06h8.29v-6.02h3.3c4.46,0,7.34-2.81,7.34-7.17c0-4.93-3.33-7.87-8.9-7.87H22.83z
		 M32.33,40.65c4.98,0,7.85,2.49,7.85,6.82c0,3.75-2.41,6.1-6.29,6.1h-4.35v6.03h-6.18V40.65H32.33z"/>
	<path class="st1" d="M30.06,45.06h-0.53v4.54h1.27c0.81,0,3.26,0,3.26-2.37c0-2.17-2.32-2.17-3.29-2.17H30.06z M30.77,46.11
		c1.69,0,2.23,0.28,2.23,1.12c0,0.8-0.37,1.3-2.2,1.3h-0.21v-2.42H30.77z"/>
	<path class="st1" d="M41.26,39.59h-0.53v21.06h8.38v-5.01c0.94,1.84,2.57,5.01,2.57,5.01h9.99l-5.05-7.34
		c-0.26-0.35-0.52-0.6-0.77-0.82c2.59-1.04,3.6-2.56,3.6-5.42c0-4.75-3.33-7.48-9.14-7.48H41.26z M50.31,40.65
		c3.02,0,8.07,0.85,8.07,6.42c0,2.63-0.93,3.81-3.62,4.69l-0.38,0.13v0.8l0.33,0.25c0.34,0.26,0.7,0.54,1.04,1c0,0,2.7,3.9,3.9,5.65
		h-7.31c-0.27-0.54-3.28-6.43-3.28-6.43h-0.98v6.43h-6.29V40.65H50.31z"/>
	<path class="st1" d="M48.59,45.06h-0.52v4.46h1.04c0.82,0,2.98,0,2.98-2.2c0-2.25-2.05-2.25-2.93-2.25H48.59z M49.16,46.11
		c1.46,0,1.89,0.28,1.89,1.2c0,0.73-0.31,1.13-1.94,1.14v-2.34H49.16z"/>
	<path class="st1" d="M58.81,50.14c0,0.86,0.12,1.77,0.34,2.67l0.19,0.76l8.13-5.9c0,0-1.03-1.44-1.67-2.32
		c1.9,0.37,7.57,1.52,8.35,1.67c-0.1,0.75-0.85,6.5-1.09,8.42c-0.65-0.9-1.71-2.39-1.71-2.39l-8.15,5.98l0.66,0.43
		c1.81,1.18,3.92,1.8,6.1,1.8c6.13,0,11.13-4.99,11.13-11.13c0-6.14-5-11.14-11.13-11.14C63.81,39,58.81,44,58.81,50.14
		 M59.88,50.14c0-5.55,4.52-10.07,10.07-10.07c5.54,0,10.07,4.52,10.07,10.07c0,5.55-4.53,10.07-10.07,10.07
		c-1.71,0-3.35-0.45-4.84-1.27c1.04-0.76,5.31-3.89,5.99-4.4c0.47,0.65,2.67,3.71,2.67,3.71l1.54-12.1l-11.94-2.37
		c0,0,2.15,3.03,2.62,3.65c-0.7,0.49-4.92,3.57-5.97,4.33C59.94,51.21,59.88,50.66,59.88,50.14"/>
</g>
<g>
	<polygon class="st2" points="69.1,47.39 54.02,47.39 54.94,44.88 72.53,44.88 68.41,56.19 65.89,56.19 	"/>
	<polygon class="st2" points="91.08,47.39 73.5,47.39 74.41,44.88 92,44.88 	"/>
	<polygon class="st2" points="89.49,51.79 71.89,51.79 72.81,49.28 90.4,49.28 	"/>
	<polygon class="st2" points="87.88,56.19 70.29,56.19 71.21,53.68 88.79,53.68 	"/>
	<polygon class="st2" points="30.38,53.68 45.45,53.68 44.53,56.19 26.95,56.19 31.07,44.88 33.58,44.88 	"/>
	<polygon class="st2" points="50.54,44.88 53.05,44.88 48.93,56.19 46.42,56.19 	"/>
	<polygon class="st2" points="8.39,53.68 25.98,53.68 25.06,56.19 7.47,56.19 	"/>
	<polygon class="st2" points="9.99,49.28 27.58,49.28 26.66,51.79 9.08,51.79 	"/>
	<polygon class="st2" points="11.59,44.88 29.18,44.88 28.27,47.39 10.68,47.39 	"/>
</g>
</svg>
