<svg id="Capa_1" data-name="Capa 1" xmlns="http://www.w3.org/2000/svg" xmlns:xlink="http://www.w3.org/1999/xlink" viewBox="0 0 152 111"><defs><style>.cls-1{fill:url(#Degradado_sin_nombre_146);}.cls-2{fill:url(#Degradado_sin_nombre_146-2);}.cls-3{fill:url(#Degradado_sin_nombre_146-3);}.cls-4{fill:url(#Degradado_sin_nombre_146-4);}.cls-5{fill:url(#Degradado_sin_nombre_146-5);}.cls-6{fill:url(#Degradado_sin_nombre_146-6);}.cls-7{fill:url(#Degradado_sin_nombre_146-7);}.cls-8{fill:url(#Degradado_sin_nombre_146-8);}.cls-9{fill:url(#Degradado_sin_nombre_235);}.cls-10{fill:url(#Degradado_sin_nombre_235-2);}.cls-11{fill:url(#Degradado_sin_nombre_235-3);}.cls-12{fill:url(#Degradado_sin_nombre_235-4);}</style><linearGradient id="Degradado_sin_nombre_146" x1="35.21" y1="59.66" x2="35.21" y2="43.88" gradientUnits="userSpaceOnUse"><stop offset="0" stop-color="#0086ff"/><stop offset="1" stop-color="#013298"/></linearGradient><linearGradient id="Degradado_sin_nombre_146-2" x1="48.39" y1="63.81" x2="48.39" y2="49.07" xlink:href="#Degradado_sin_nombre_146"/><linearGradient id="Degradado_sin_nombre_146-3" x1="60.38" y1="59.45" x2="60.38" y2="44.51" xlink:href="#Degradado_sin_nombre_146"/><linearGradient id="Degradado_sin_nombre_146-4" x1="72.21" y1="59.45" x2="72.21" y2="48.66" xlink:href="#Degradado_sin_nombre_146"/><linearGradient id="Degradado_sin_nombre_146-5" x1="82.07" y1="59.04" x2="82.07" y2="48.87" xlink:href="#Degradado_sin_nombre_146"/><linearGradient id="Degradado_sin_nombre_146-6" x1="95.05" y1="59.45" x2="95.05" y2="44.51" xlink:href="#Degradado_sin_nombre_146"/><linearGradient id="Degradado_sin_nombre_146-7" x1="107.29" y1="59.45" x2="107.29" y2="48.66" xlink:href="#Degradado_sin_nombre_146"/><linearGradient id="Degradado_sin_nombre_146-8" x1="119.18" y1="63.81" x2="119.18" y2="49.07" xlink:href="#Degradado_sin_nombre_146"/><linearGradient id="Degradado_sin_nombre_235" x1="100.12" y1="67.12" x2="100.12" y2="61.17" gradientUnits="userSpaceOnUse"><stop offset="0" stop-color="#0154da"/><stop offset="0.04" stop-color="#0150d2"/><stop offset="0.21" stop-color="#0143b9"/><stop offset="0.39" stop-color="#0139a6"/><stop offset="0.58" stop-color="#01349c"/><stop offset="0.78" stop-color="#013298"/></linearGradient><linearGradient id="Degradado_sin_nombre_235-2" x1="104.33" y1="67.12" x2="104.33" y2="61.17" xlink:href="#Degradado_sin_nombre_235"/><linearGradient id="Degradado_sin_nombre_235-3" x1="108.52" y1="67.12" x2="108.52" y2="61.17" xlink:href="#Degradado_sin_nombre_235"/><linearGradient id="Degradado_sin_nombre_235-4" x1="112.46" y1="67.12" x2="112.46" y2="61.17" xlink:href="#Degradado_sin_nombre_235"/></defs><path class="cls-1" d="M35.52,59.66a7.48,7.48,0,0,1-3-.63A8.25,8.25,0,0,1,30,57.31a8,8,0,0,1-1.71-2.51,7.49,7.49,0,0,1,0-6.06,8.15,8.15,0,0,1,4.22-4.22,7.48,7.48,0,0,1,7.59.87A6.65,6.65,0,0,1,41.52,47a6.47,6.47,0,0,1,.85,1.81l-3.21.42a5.42,5.42,0,0,0-.58-.89,3.61,3.61,0,0,0-.79-.77,4.08,4.08,0,0,0-1-.53,4.18,4.18,0,0,0-1.33-.2,4.11,4.11,0,0,0-1.72.38,4.68,4.68,0,0,0-1.47,1.06,5.24,5.24,0,0,0-1,5.5,5,5,0,0,0,1,1.58,4.68,4.68,0,0,0,1.47,1.06,4,4,0,0,0,1.72.38,4.72,4.72,0,0,0,1.46-.21,4.1,4.1,0,0,0,1.16-.6,4,4,0,0,0,.89-.86,6,6,0,0,0,.64-1l3.22.41a7,7,0,0,1-.88,1.91A6.9,6.9,0,0,1,40.37,58a7.41,7.41,0,0,1-2.15,1.17A7.76,7.76,0,0,1,35.52,59.66Z"/><path class="cls-2" d="M53.58,49.07,51.51,59a7.49,7.49,0,0,1-1.6,3.63,3.41,3.41,0,0,1-2.56,1.14,4.92,4.92,0,0,1-.8-.06,4.81,4.81,0,0,1-.67-.15,3.25,3.25,0,0,1-.6-.2l.41-2.49a3.68,3.68,0,0,0,.34.16,2,2,0,0,0,.81.15,1.45,1.45,0,0,0,1.08-.5A3.49,3.49,0,0,0,48.6,59H45.38l-2.18-10h2.91l1.58,7.37h1.43l1.56-7.37Z"/><path class="cls-3" d="M65.62,54.06a5.73,5.73,0,0,1-1.44,3.87,5.08,5.08,0,0,1-1.5,1.12,3.91,3.91,0,0,1-1.73.4,3,3,0,0,1-1.25-.22,3.29,3.29,0,0,1-.85-.5,2.63,2.63,0,0,1-.6-.73h-.2v1H55.14V44.51h2.91v5.6h.2a3.11,3.11,0,0,1,.6-.72,4,4,0,0,1,.85-.5A3,3,0,0,1,61,48.66a3.91,3.91,0,0,1,1.73.4,5.08,5.08,0,0,1,1.5,1.12,5.73,5.73,0,0,1,1.44,3.88Zm-7.57,1a3.22,3.22,0,0,0,.6.9,3.26,3.26,0,0,0,.71.6,1.79,1.79,0,0,0,1,.27,2.23,2.23,0,0,0,1.7-.74A3.44,3.44,0,0,0,62,52a2.23,2.23,0,0,0-1.7-.74,1.8,1.8,0,0,0-1,.28,3.63,3.63,0,0,0-.71.62,3.37,3.37,0,0,0-.6.87Z"/><path class="cls-4" d="M72.16,48.66A5.3,5.3,0,0,1,76,50.23a5.41,5.41,0,0,1,1.57,3.83l-1,1H70a2.63,2.63,0,0,0,.77,1.28,2,2,0,0,0,1.41.49,3.13,3.13,0,0,0,.86-.1,2.58,2.58,0,0,0,.63-.24,1.86,1.86,0,0,0,.45-.37c.12-.14.23-.28.34-.43l2.91.41a4.91,4.91,0,0,1-.66,1.23,5.48,5.48,0,0,1-1.08,1.07,5.31,5.31,0,0,1-1.51.74,6.14,6.14,0,0,1-1.94.28,4.75,4.75,0,0,1-2-.43,5.37,5.37,0,0,1-1.68-1.18,5.65,5.65,0,0,1-1.17-1.71,5,5,0,0,1-.43-2.07A5.09,5.09,0,0,1,67.3,52a5.58,5.58,0,0,1,1.17-1.72,5.72,5.72,0,0,1,1.68-1.18A4.75,4.75,0,0,1,72.16,48.66Zm0,2.59a2,2,0,0,0-1.41.49A2.68,2.68,0,0,0,70,53h4.36a2.68,2.68,0,0,0-.77-1.28A2,2,0,0,0,72.16,51.25Z"/><path class="cls-5" d="M85,51.67H84.1a1.89,1.89,0,0,0-1,.25,2.13,2.13,0,0,0-.63.54,2.74,2.74,0,0,0-.42.77V59H79.11v-10H82v1h.21a2.35,2.35,0,0,1,.6-.62,4.17,4.17,0,0,1,.8-.43,3.19,3.19,0,0,1,1.19-.19H85Z"/><path class="cls-6" d="M89.8,54.06a5.85,5.85,0,0,1,.4-2.16,5.4,5.4,0,0,1,1-1.72,4.91,4.91,0,0,1,1.49-1.12,4,4,0,0,1,1.73-.4,3.13,3.13,0,0,1,1.25.23,3.53,3.53,0,0,1,.85.5,2.88,2.88,0,0,1,.6.72h.21v-5.6h2.91V59H97.38V58h-.21a2.47,2.47,0,0,1-.6.73,3,3,0,0,1-.85.5,3.14,3.14,0,0,1-1.25.22,4,4,0,0,1-1.73-.4,4.91,4.91,0,0,1-1.49-1.12,5.4,5.4,0,0,1-1-1.72A5.83,5.83,0,0,1,89.8,54.06Zm7.58-1a3.94,3.94,0,0,0-.6-.87,3.7,3.7,0,0,0-.72-.62,1.74,1.74,0,0,0-1-.28,2.26,2.26,0,0,0-1.71.74,3.48,3.48,0,0,0,0,4.13,2.26,2.26,0,0,0,1.71.74,1.74,1.74,0,0,0,1-.27,3.33,3.33,0,0,0,.72-.6,3.72,3.72,0,0,0,.6-.9Z"/><path class="cls-7" d="M102.05,54.06a5.65,5.65,0,0,1,.4-2.16,5.57,5.57,0,0,1,1-1.72,5.08,5.08,0,0,1,1.5-1.12,4,4,0,0,1,1.73-.4,3.13,3.13,0,0,1,1.25.23,3.74,3.74,0,0,1,.85.5,2.88,2.88,0,0,1,.6.72h.21v-1h2.9V59h-2.9V58h-.21a2.47,2.47,0,0,1-.6.73,3.17,3.17,0,0,1-2.1.72,4,4,0,0,1-1.73-.4,5.08,5.08,0,0,1-1.5-1.12,5.57,5.57,0,0,1-1-1.72A5.63,5.63,0,0,1,102.05,54.06Zm7.58-1a3.94,3.94,0,0,0-.6-.87,4,4,0,0,0-.72-.62,1.78,1.78,0,0,0-1-.28,2.25,2.25,0,0,0-1.7.74,3.48,3.48,0,0,0,0,4.13,2.25,2.25,0,0,0,1.7.74,1.77,1.77,0,0,0,1-.27A3.59,3.59,0,0,0,109,56a3.72,3.72,0,0,0,.6-.9Z"/><path class="cls-8" d="M124.37,49.07l-2.08,10a7.49,7.49,0,0,1-1.6,3.63,3.4,3.4,0,0,1-2.55,1.14,5.13,5.13,0,0,1-1.48-.21,3.25,3.25,0,0,1-.6-.2l.42-2.49.33.16a2,2,0,0,0,.81.15,1.45,1.45,0,0,0,1.08-.5,3.49,3.49,0,0,0,.68-1.68h-3.21l-2.18-10h2.9l1.58,7.37h1.43l1.56-7.37Z"/><path class="cls-9" d="M99.71,62.26v.88H98.62v-1c0-.62.35-.94,1-.94h.9c.69,0,1,.32,1,.94v.67a2.49,2.49,0,0,1-.42,1.35l-1.24,2.16h1.69v.83h-3v-.79l1.54-2.48a1.94,1.94,0,0,0,.33-1.09v-.5a.25.25,0,0,0-.06-.2.29.29,0,0,0-.21-.06H100a.3.3,0,0,0-.22.06S99.71,62.16,99.71,62.26Z"/><path class="cls-10" d="M105.9,62.11v4.07c0,.62-.34.94-1,.94h-1.09c-.68,0-1-.32-1-.94V62.11c0-.62.34-.94,1-.94h1.09C105.56,61.17,105.9,61.49,105.9,62.11ZM104.82,66V62.26a.25.25,0,0,0-.06-.2.3.3,0,0,0-.22-.06h-.43a.29.29,0,0,0-.21.06.3.3,0,0,0-.05.2V66a.3.3,0,0,0,.05.2.29.29,0,0,0,.21.06h.43a.3.3,0,0,0,.22-.06A.25.25,0,0,0,104.82,66Z"/><path class="cls-11" d="M108.1,62.26v.88H107v-1c0-.62.34-.94,1-.94h.9c.69,0,1,.32,1,.94v.67a2.5,2.5,0,0,1-.43,1.35l-1.23,2.16H110v.83h-3v-.79l1.53-2.48a1.94,1.94,0,0,0,.33-1.09v-.5a.3.3,0,0,0,0-.2.29.29,0,0,0-.21-.06h-.27a.3.3,0,0,0-.22.06A.25.25,0,0,0,108.1,62.26Z"/><path class="cls-12" d="M112.05,62.26v.88H111v-1c0-.62.35-.94,1-.94h.9c.69,0,1,.32,1,.94v.67a2.49,2.49,0,0,1-.42,1.35l-1.24,2.16H114v.83h-3v-.79l1.54-2.48a1.94,1.94,0,0,0,.33-1.09v-.5a.25.25,0,0,0-.06-.2.29.29,0,0,0-.21-.06h-.27a.21.21,0,0,0-.27.26Z"/></svg>