<svg id="Capa_1" data-name="Capa 1" xmlns="http://www.w3.org/2000/svg" xmlns:xlink="http://www.w3.org/1999/xlink" viewBox="0 0 122 111"><defs><style>.cls-1{fill:url(#Degradado_sin_nombre_178);}.cls-2{fill:url(#Degradado_sin_nombre_178-2);}.cls-3{fill:url(#Degradado_sin_nombre_178-3);}.cls-4{fill:url(#Degradado_sin_nombre_178-4);}.cls-5{fill:url(#Degradado_sin_nombre_178-5);}.cls-6{fill:url(#Degradado_sin_nombre_178-6);}.cls-7{fill:url(#Degradado_sin_nombre_178-7);}</style><linearGradient id="Degradado_sin_nombre_178" x1="5.54" y1="50.91" x2="16.84" y2="62.2" gradientUnits="userSpaceOnUse"><stop offset="0" stop-color="#0064a7"/><stop offset="1" stop-color="#4fae32"/></linearGradient><linearGradient id="Degradado_sin_nombre_178-2" x1="23.11" y1="50.33" x2="33.45" y2="60.67" xlink:href="#Degradado_sin_nombre_178"/><linearGradient id="Degradado_sin_nombre_178-3" x1="39.3" y1="51.5" x2="47.43" y2="59.63" xlink:href="#Degradado_sin_nombre_178"/><linearGradient id="Degradado_sin_nombre_178-4" x1="54.08" y1="50.33" x2="64.42" y2="60.67" xlink:href="#Degradado_sin_nombre_178"/><linearGradient id="Degradado_sin_nombre_178-5" x1="69.63" y1="50.91" x2="80.93" y2="62.2" xlink:href="#Degradado_sin_nombre_178"/><linearGradient id="Degradado_sin_nombre_178-6" x1="86.82" y1="48.26" x2="96.6" y2="58.04" xlink:href="#Degradado_sin_nombre_178"/><linearGradient id="Degradado_sin_nombre_178-7" x1="103.94" y1="53" x2="113.75" y2="62.81" xlink:href="#Degradado_sin_nombre_178"/></defs><path class="cls-1" d="M14,61.68l-3.28-4.63h-1v4.63H7.13V49.32h4.08a3.76,3.76,0,0,1,4.11,3.82,3.61,3.61,0,0,1-2,3.22l4,5.32ZM11,51.78H9.78v2.89h1.14c1.27,0,1.75-.68,1.75-1.47S12.06,51.78,11,51.78Z"/><path class="cls-2" d="M24.12,61.68V49.32h8.32v2.46H26.77V54.1h4v2.47h-4v2.65h5.67v2.46Z"/><path class="cls-3" d="M43.29,61.94A4.62,4.62,0,0,1,39,59l2.33-1.23a2.05,2.05,0,0,0,1.94,1.8,1.45,1.45,0,0,0,1.45-1.42c0-2.11-5.19-1.78-5.19-5.52a3.71,3.71,0,0,1,3.81-3.55,4.34,4.34,0,0,1,3.74,2.19l-2.21,1.23a1.83,1.83,0,0,0-1.53-1c-.72,0-1.12.41-1.12,1,0,1.63,5.26,1.41,5.26,5.43A4.1,4.1,0,0,1,43.29,61.94Z"/><path class="cls-4" d="M55.09,61.68V49.32h8.32v2.46H57.74V54.1h4v2.47h-4v2.65h5.67v2.46Z"/><path class="cls-5" d="M78.12,61.68l-3.27-4.63h-1v4.63H71.22V49.32h4.09a3.75,3.75,0,0,1,4.1,3.82,3.59,3.59,0,0,1-2,3.22l4,5.32Zm-3.07-9.9H73.87v2.89H75c1.27,0,1.75-.68,1.75-1.47S76.15,51.78,75.05,51.78Z"/><path class="cls-6" d="M93,61.68h-2.5L85.77,49.32h2.85l3.13,8.74,3.09-8.74h2.82Z"/><path class="cls-7" d="M112.06,61.68l-.91-2.54h-4.61l-.91,2.54h-2.81l4.8-12.36h2.45l4.8,12.36Zm-3.21-9-1.49,4.14h3Z"/></svg>