<svg id="Capa_1" data-name="Capa 1" xmlns="http://www.w3.org/2000/svg" viewBox="0 0 152 111"><path d="M35.18,59.7a7.56,7.56,0,0,1-3.06-.64,8.24,8.24,0,0,1-2.53-1.73,8.07,8.07,0,0,1-1.73-2.53,7.64,7.64,0,0,1,0-6.12,8.3,8.3,0,0,1,4.26-4.26,7.55,7.55,0,0,1,3.06-.63,7.29,7.29,0,0,1,4.59,1.51,7,7,0,0,1,1.46,1.57,6.86,6.86,0,0,1,.85,1.83l-3.24.42a5.69,5.69,0,0,0-.58-.9,4.17,4.17,0,0,0-.8-.77,4.33,4.33,0,0,0-1.05-.54,4.43,4.43,0,0,0-3.08.19,4.71,4.71,0,0,0-1.47,1.07,5,5,0,0,0-1,1.59,5.35,5.35,0,0,0,0,4,5,5,0,0,0,1,1.59,4.71,4.71,0,0,0,1.47,1.07,4.09,4.09,0,0,0,1.74.39,4.89,4.89,0,0,0,1.48-.22,4.28,4.28,0,0,0,2.06-1.47,6.24,6.24,0,0,0,.65-1l3.24.42a6.84,6.84,0,0,1-.89,1.93,7,7,0,0,1-1.55,1.67,7.75,7.75,0,0,1-2.16,1.19A7.92,7.92,0,0,1,35.18,59.7Z"/><path d="M53.39,49l-2.09,10a7.52,7.52,0,0,1-1.62,3.66,3.4,3.4,0,0,1-2.57,1.15,5.27,5.27,0,0,1-.82-.06,5.16,5.16,0,0,1-.67-.15,3.25,3.25,0,0,1-.6-.2L45.43,61l.34.17a2.1,2.1,0,0,0,.82.15,1.41,1.41,0,0,0,1.08-.51,3.53,3.53,0,0,0,.7-1.69H45.12l-2.2-10h2.93l1.59,7.43h1.45L50.46,49Z"/><path d="M65.53,54a5.75,5.75,0,0,1-.4,2.18,5.45,5.45,0,0,1-1,1.73,4.87,4.87,0,0,1-1.51,1.13,4,4,0,0,1-1.75.41,3.31,3.31,0,0,1-1.26-.22,3,3,0,0,1-.85-.52A2.5,2.5,0,0,1,58.1,58h-.21v1H55V44.41h2.93v5.66h.21a3,3,0,0,1,.61-.74,3.53,3.53,0,0,1,.85-.5,3.12,3.12,0,0,1,1.26-.23,4,4,0,0,1,1.75.41,4.87,4.87,0,0,1,1.51,1.13,5.45,5.45,0,0,1,1,1.73A5.74,5.74,0,0,1,65.53,54Zm-7.64,1.05a3.47,3.47,0,0,0,.61.9,3.13,3.13,0,0,0,.72.61,1.79,1.79,0,0,0,1,.27,2.26,2.26,0,0,0,1.72-.74,3.5,3.5,0,0,0,0-4.17,2.26,2.26,0,0,0-1.72-.74,1.72,1.72,0,0,0-1,.28,3.16,3.16,0,0,0-.72.62,3.53,3.53,0,0,0-.61.88Z"/><path d="M72.13,48.6a5.38,5.38,0,0,1,2.12.42A5.47,5.47,0,0,1,76,50.18,5.45,5.45,0,0,1,77.57,54l-1,1.05H69.93a2.71,2.71,0,0,0,.77,1.29,2.05,2.05,0,0,0,1.43.49,3.75,3.75,0,0,0,.87-.09,2.59,2.59,0,0,0,.63-.26,1.38,1.38,0,0,0,.45-.36c.12-.14.24-.29.35-.44l2.93.42a5,5,0,0,1-.67,1.23,4.48,4.48,0,0,1-1.09,1.08,5.26,5.26,0,0,1-1.52.75,6.2,6.2,0,0,1-2,.29,4.88,4.88,0,0,1-2-.44,5.76,5.76,0,0,1-2.87-2.91,5.18,5.18,0,0,1,0-4.18,5.79,5.79,0,0,1,1.17-1.74A5.63,5.63,0,0,1,70.1,49,4.88,4.88,0,0,1,72.13,48.6Zm0,2.62a2.05,2.05,0,0,0-1.43.49A2.71,2.71,0,0,0,69.93,53h4.4a2.81,2.81,0,0,0-.78-1.29A2,2,0,0,0,72.13,51.22Z"/><path d="M85.11,51.64h-.94a1.93,1.93,0,0,0-1,.25,2.34,2.34,0,0,0-.64.54,2.94,2.94,0,0,0-.42.78v5.86H79.14V49h2.93v1h.21a2.28,2.28,0,0,1,.61-.63,3.5,3.5,0,0,1,.8-.43,3.29,3.29,0,0,1,1.21-.2h.21Z"/><path d="M89.92,54a5.74,5.74,0,0,1,.4-2.17,5.66,5.66,0,0,1,1.06-1.73A4.94,4.94,0,0,1,92.88,49a4,4,0,0,1,1.75-.41,3.19,3.19,0,0,1,1.26.23,3.82,3.82,0,0,1,.86.5,3,3,0,0,1,.6.74h.21V44.41h2.93V59.07H97.56V58h-.21a2.47,2.47,0,0,1-.6.73,3.22,3.22,0,0,1-.86.52,3.38,3.38,0,0,1-1.26.22,4,4,0,0,1-1.75-.41A4.94,4.94,0,0,1,91.38,58a5.66,5.66,0,0,1-1.06-1.73A5.75,5.75,0,0,1,89.92,54Zm7.64-1a3.5,3.5,0,0,0-.6-.88,3.46,3.46,0,0,0-.73-.62,1.7,1.7,0,0,0-1-.28,2.28,2.28,0,0,0-1.72.74,3.5,3.5,0,0,0,0,4.17,2.28,2.28,0,0,0,1.72.74,1.77,1.77,0,0,0,1-.27,3.56,3.56,0,0,0,1.33-1.51Z"/><path d="M102.27,54a5.94,5.94,0,0,1,.4-2.17,5.66,5.66,0,0,1,1.06-1.73A4.87,4.87,0,0,1,105.24,49,4,4,0,0,1,107,48.6a3.19,3.19,0,0,1,1.26.23,3.61,3.61,0,0,1,.86.5,3.25,3.25,0,0,1,.61.74h.21V49h2.93v10h-2.93V58h-.21a2.67,2.67,0,0,1-.61.73,3.07,3.07,0,0,1-.86.52,3.38,3.38,0,0,1-1.26.22,4,4,0,0,1-1.74-.41A4.87,4.87,0,0,1,103.73,58a5.66,5.66,0,0,1-1.06-1.73A6,6,0,0,1,102.27,54Zm7.65-1a3.53,3.53,0,0,0-.61-.88,3.66,3.66,0,0,0-.72-.62,1.73,1.73,0,0,0-1-.28,2.26,2.26,0,0,0-1.71.74,3.5,3.5,0,0,0,0,4.17,2.26,2.26,0,0,0,1.71.74,1.8,1.8,0,0,0,1-.27,3.62,3.62,0,0,0,.72-.61,3.47,3.47,0,0,0,.61-.9Z"/><path d="M124.78,49l-2.09,10a7.62,7.62,0,0,1-1.61,3.66,3.44,3.44,0,0,1-2.58,1.15,5.27,5.27,0,0,1-.82-.06,5.16,5.16,0,0,1-.67-.15,3.25,3.25,0,0,1-.6-.2l.41-2.52.34.17a2.1,2.1,0,0,0,.82.15,1.43,1.43,0,0,0,1.09-.51,3.63,3.63,0,0,0,.69-1.69h-3.25l-2.2-10h2.93l1.6,7.43h1.44L121.85,49Z"/><path d="M99.91,62.32v.89H98.82V62.16c0-.62.34-.94,1-.94h.91c.7,0,1,.32,1,.94v.68a2.48,2.48,0,0,1-.43,1.37l-1.24,2.17h1.7v.83h-3v-.78l1.54-2.51a1.91,1.91,0,0,0,.34-1.1v-.5a.28.28,0,0,0-.06-.21.36.36,0,0,0-.21,0h-.28a.34.34,0,0,0-.21,0A.28.28,0,0,0,99.91,62.32Z"/><path d="M106.16,62.16v4.11c0,.63-.35.94-1,.94H104c-.69,0-1-.31-1-.94V62.16c0-.62.34-.94,1-.94h1.1C105.81,61.22,106.16,61.54,106.16,62.16Zm-1.09,4v-3.8a.28.28,0,0,0-.06-.21.37.37,0,0,0-.22,0h-.44a.36.36,0,0,0-.21,0,.34.34,0,0,0,0,.21v3.8a.21.21,0,0,0,.26.26h.44a.37.37,0,0,0,.22,0A.29.29,0,0,0,105.07,66.12Z"/><path d="M108.38,62.32v.89h-1.09V62.16c0-.62.34-.94,1-.94h.91c.7,0,1,.32,1,.94v.68a2.48,2.48,0,0,1-.43,1.37l-1.24,2.17h1.7v.83h-3v-.78l1.54-2.51a2,2,0,0,0,.34-1.1v-.5a.28.28,0,0,0-.06-.21.36.36,0,0,0-.21,0h-.28a.34.34,0,0,0-.21,0A.28.28,0,0,0,108.38,62.32Z"/><path d="M112.36,62.32v.89h-1.1V62.16c0-.62.35-.94,1-.94h.91c.7,0,1.05.32,1.05.94v.68a2.56,2.56,0,0,1-.43,1.37l-1.25,2.17h1.7v.83h-3v-.78l1.55-2.51a2,2,0,0,0,.33-1.1v-.5a.34.34,0,0,0,0-.21.36.36,0,0,0-.21,0h-.28a.37.37,0,0,0-.22,0A.34.34,0,0,0,112.36,62.32Z"/></svg>