<?xml version="1.0" encoding="utf-8"?>
<!-- Generator: Adobe Illustrator 24.2.3, SVG Export Plug-In . SVG Version: 6.00 Build 0)  -->
<svg version="1.1" id="Capa_1" xmlns="http://www.w3.org/2000/svg" xmlns:xlink="http://www.w3.org/1999/xlink" x="0px" y="0px"
	 viewBox="0 0 100 100" style="enable-background:new 0 0 100 100;" xml:space="preserve">
<style type="text/css">
	.st0{display:none;}
	.st1{display:inline;fill:#262424;}
	.st2{fill:#000400;}
</style>
<g class="st0">
	<path class="st1" d="M90.31,45.1c1.01,0,2.69,0.74,2.69,3.37v4.84c0,2.85-2.09,3.3-2.72,3.3h-5.61c-0.97,0-2.7-0.69-2.7-3.34v-4.95
		c0-1.68,0.96-3.22,2.74-3.23H90.31 M86.43,47.11c-0.76,0-1.28,0.67-1.28,1.25v4.96c0,0.85,0.7,1.29,1.26,1.29h2.13
		c0.6,0,1.27-0.53,1.27-1.26v-4.99c0-0.62-0.58-1.26-1.26-1.26H86.43z"/>
	<path class="st1" d="M55.68,48.43c-0.01-1.96,1.07-3.34,2.74-3.34h5.99c1.6,0,2.65,1.41,2.65,3.27v8.22h-3.17v-2.55h-5.05v2.55
		h-3.17V48.43 M58.84,51.8h5.04v-3.35c0.01-0.6-0.44-1.35-1.2-1.35h-2.57c-0.62,0-1.26,0.57-1.26,1.27V51.8z"/>
	<path class="st1" d="M69.17,56.6h3.18v-9.49h3.14c0.72,0,1.27,0.59,1.31,1.27v8.22h3.14v-8.13c0-1.57-0.72-3.39-2.75-3.35h-8.01
		V56.6z"/>
	<path class="st1" d="M38.7,45.12V56.6h3.13v-9.49h2.76v9.49h3.18v-9.49h1.44c0.68,0,1.27,0.63,1.27,1.27v8.22h3.18v-8.22
		c0-1.66-0.89-3.27-2.71-3.27H38.7z"/>
	<rect x="32.89" y="45.1" class="st1" width="3.35" height="11.49"/>
	<polygon class="st1" points="19.42,45.12 19.42,56.6 22.6,56.6 22.6,54.06 27.26,54.06 27.26,56.6 30.44,56.6 30.44,45.12 
		27.26,45.12 27.26,51.81 22.6,51.81 22.6,45.12 	"/>
	<path class="st1" d="M17.35,45.12H9.3c-1.95,0-2.54,1.53-2.63,1.91c-0.21,1.19-0.08,2.75,0.04,3.31c0.13,0.3,0.76,1.69,2.5,1.69
		h4.36c0.59,0,0.98,0.43,1.02,1.23c0.04,0.76-0.26,1.36-1.02,1.36H6.84v1.99h7.88c1.91-0.04,2.5-1.19,2.63-1.74
		c0.42-1.14,0.42-2.71,0-3.81c-0.13-0.38-0.85-1.61-2.71-1.61h-4.15c-0.59,0-0.93-0.42-0.93-1.19c0-0.76,0.34-1.19,0.93-1.19h6.87
		V45.12z"/>
</g>
<g class="st0">
	<path class="st1" d="M22.83,39.59h-0.54v21.06h8.29v-6.02h3.3c4.46,0,7.34-2.81,7.34-7.17c0-4.93-3.33-7.87-8.9-7.87H22.83z
		 M32.33,40.65c4.98,0,7.85,2.49,7.85,6.82c0,3.75-2.41,6.1-6.29,6.1h-4.35v6.03h-6.18V40.65H32.33z"/>
	<path class="st1" d="M30.06,45.06h-0.53v4.54h1.27c0.81,0,3.26,0,3.26-2.37c0-2.17-2.32-2.17-3.29-2.17H30.06z M30.77,46.11
		c1.69,0,2.23,0.28,2.23,1.12c0,0.8-0.37,1.3-2.2,1.3h-0.21v-2.42H30.77z"/>
	<path class="st1" d="M41.26,39.59h-0.53v21.06h8.38v-5.01c0.94,1.84,2.57,5.01,2.57,5.01h9.99l-5.05-7.34
		c-0.26-0.35-0.52-0.6-0.77-0.82c2.59-1.04,3.6-2.56,3.6-5.42c0-4.75-3.33-7.48-9.14-7.48H41.26z M50.31,40.65
		c3.02,0,8.07,0.85,8.07,6.42c0,2.63-0.93,3.81-3.62,4.69l-0.38,0.13v0.8l0.33,0.25c0.34,0.26,0.7,0.54,1.04,1c0,0,2.7,3.9,3.9,5.65
		h-7.31c-0.27-0.54-3.28-6.43-3.28-6.43h-0.98v6.43h-6.29V40.65H50.31z"/>
	<path class="st1" d="M48.59,45.06h-0.52v4.46h1.04c0.82,0,2.98,0,2.98-2.2c0-2.25-2.05-2.25-2.93-2.25H48.59z M49.16,46.11
		c1.46,0,1.89,0.28,1.89,1.2c0,0.73-0.31,1.13-1.94,1.14v-2.34H49.16z"/>
	<path class="st1" d="M58.81,50.14c0,0.86,0.12,1.77,0.34,2.67l0.19,0.76l8.13-5.9c0,0-1.03-1.44-1.67-2.32
		c1.9,0.37,7.57,1.52,8.35,1.67c-0.1,0.75-0.85,6.5-1.09,8.42c-0.65-0.9-1.71-2.39-1.71-2.39l-8.15,5.98l0.66,0.43
		c1.81,1.18,3.92,1.8,6.1,1.8c6.13,0,11.13-4.99,11.13-11.13c0-6.14-5-11.14-11.13-11.14C63.81,39,58.81,44,58.81,50.14
		 M59.88,50.14c0-5.55,4.52-10.07,10.07-10.07c5.54,0,10.07,4.52,10.07,10.07c0,5.55-4.53,10.07-10.07,10.07
		c-1.71,0-3.35-0.45-4.84-1.27c1.04-0.76,5.31-3.89,5.99-4.4c0.47,0.65,2.67,3.71,2.67,3.71l1.54-12.1l-11.94-2.37
		c0,0,2.15,3.03,2.62,3.65c-0.7,0.49-4.92,3.57-5.97,4.33C59.94,51.21,59.88,50.66,59.88,50.14"/>
</g>
<g class="st0">
	<polygon class="st1" points="69.1,47.39 54.02,47.39 54.94,44.88 72.53,44.88 68.41,56.19 65.89,56.19 	"/>
	<polygon class="st1" points="91.08,47.39 73.5,47.39 74.41,44.88 92,44.88 	"/>
	<polygon class="st1" points="89.49,51.79 71.89,51.79 72.81,49.28 90.4,49.28 	"/>
	<polygon class="st1" points="87.88,56.19 70.29,56.19 71.21,53.68 88.79,53.68 	"/>
	<polygon class="st1" points="30.38,53.68 45.45,53.68 44.53,56.19 26.95,56.19 31.07,44.88 33.58,44.88 	"/>
	<polygon class="st1" points="50.54,44.88 53.05,44.88 48.93,56.19 46.42,56.19 	"/>
	<polygon class="st1" points="8.39,53.68 25.98,53.68 25.06,56.19 7.47,56.19 	"/>
	<polygon class="st1" points="9.99,49.28 27.58,49.28 26.66,51.79 9.08,51.79 	"/>
	<polygon class="st1" points="11.59,44.88 29.18,44.88 28.27,47.39 10.68,47.39 	"/>
</g>
<g class="st0">
	<path class="st1" d="M36.04,47.91l-0.53,3.95h-1.88L36.04,47.91z M40.31,59.09l1.43-17.68h-6.71L23.95,57.89l1.62-4.3h-4.92
		l4.38-12.18h-5.54l-6.46,17.68h16.15l1.46-2.39h4.2l-0.33,2.39H40.31z M48.39,55.85L64,39.3H47.08l-3.24,5.04h8.03L41.13,55.25
		l-0.32,4.31h-4.04l-1.55,1.51h19.11l1.82-5.22H48.39z M72.08,46.37l1.79-4.96H62.8l-6.85,17.68H67.5l1.8-5.26h-5.45l0.45-1.24h5.55
		l1.7-4.93h-5.23l0.45-1.28H72.08z M80.68,46.74c0,0.22-0.09,0.52-0.44,0.85l-2.39,2.32l1.4-3.92l0.52,0c0.42,0,0.7,0.13,0.83,0.4
		L80.68,46.74z M84.76,49.55c1.36-1.38,1.79-2.68,1.79-3.77c0-0.94-0.32-1.72-0.62-2.25l0,0c-0.85-1.48-2.46-2.13-5.21-2.13h-5.4
		l-6.25,17.76h5.46l2.09-5.83l2.5,5.83h5.66l-2.95-6.78L84.76,49.55z"/>
	<path class="st1" d="M88.67,41.49c0.72,0,1.33,0.57,1.33,1.32c0,0.77-0.61,1.33-1.33,1.33c-0.73,0-1.34-0.57-1.34-1.33
		C87.33,42.06,87.94,41.49,88.67,41.49 M88.67,43.96c0.61,0,1.09-0.49,1.09-1.14c0-0.64-0.47-1.13-1.09-1.13
		c-0.62,0-1.1,0.5-1.1,1.13C87.57,43.47,88.05,43.96,88.67,43.96 M88.15,42.04h0.61c0.37,0,0.54,0.15,0.54,0.44
		c0,0.28-0.18,0.4-0.41,0.43l0.44,0.68h-0.26l-0.43-0.67h-0.25v0.67h-0.25V42.04z M88.39,42.73h0.25c0.21,0,0.41-0.01,0.41-0.25
		c0-0.21-0.18-0.23-0.34-0.23h-0.32V42.73z"/>
</g>
<g>
	<g>
		<path class="st2" d="M57.02,54.79c-1.58,0-3.16,0-4.74,0c-0.2,0-0.4-0.02-0.59-0.07c-0.85-0.22-1.23-0.95-0.87-1.75
			c0.18-0.4,0.41-0.76,0.63-1.14c0.61-1.05,1.22-2.1,1.84-3.15c0.6-1,1.5-1.43,2.65-1.43c3.15,0,6.3,0,9.45,0
			c0.26,0,0.52,0.03,0.77,0.13c0.74,0.3,1.02,0.93,0.7,1.66c-0.17,0.38-0.39,0.74-0.6,1.11c-0.6,1.04-1.2,2.09-1.81,3.12
			c-0.62,1.04-1.54,1.54-2.75,1.53C60.14,54.78,58.58,54.79,57.02,54.79z M59.9,48.71c0,0,0-0.01,0-0.01c-0.45,0-0.9,0-1.34,0
			c-0.37,0-0.67,0.13-0.87,0.47c-0.62,1.09-1.25,2.17-1.86,3.26c-0.33,0.58-0.18,0.85,0.48,0.92c0.09,0.01,0.17,0.01,0.26,0.01
			c0.77,0,1.54-0.01,2.31,0c0.52,0.01,0.92-0.16,1.15-0.65c0.09-0.2,0.22-0.39,0.33-0.58c0.48-0.84,0.97-1.67,1.45-2.51
			c0.32-0.58,0.17-0.87-0.48-0.91C60.85,48.69,60.38,48.71,59.9,48.71z"/>
		<path class="st2" d="M23.1,54.79c0.24-0.42,0.46-0.76,0.65-1.13c0.12-0.23,0.26-0.31,0.52-0.31c2.7,0.01,5.41,0.01,8.11,0
			c0.16,0,0.35,0.09,0.46-0.14c0.16-0.34,0.47-0.62,0.4-1.05c-0.03-0.18-0.19-0.26-0.35-0.29c-0.18-0.03-0.37-0.04-0.56-0.04
			c-1.64,0-3.29,0-4.93,0c-0.17,0-0.35-0.01-0.52-0.04c-0.91-0.15-1.37-0.93-1-1.77c0.3-0.68,0.67-1.33,1.17-1.89
			c0.56-0.62,1.29-0.88,2.1-0.88c3.79-0.01,7.58,0,11.36,0c0.02,0,0.05,0.01,0.14,0.02c-0.27,0.46-0.52,0.91-0.79,1.35
			c-0.09,0.14-0.25,0.07-0.38,0.07c-2.59,0-5.18,0-7.77,0c-0.4,0-1,0.8-0.88,1.2c0.08,0.27,0.32,0.33,0.57,0.33
			c0.62,0.01,1.25,0.01,1.87,0.01c1.16,0,2.32,0,3.48,0c0.17,0,0.35,0.01,0.52,0.05c0.93,0.22,1.34,0.99,0.91,1.84
			c-0.44,0.86-0.96,1.68-1.43,2.53c-0.1,0.19-0.25,0.13-0.39,0.13c-1.71,0-3.41,0-5.12,0c-2.57,0-5.13,0-7.7,0
			C23.4,54.79,23.28,54.79,23.1,54.79z"/>
		<path class="st2" d="M49.24,53.37c-0.27,0.47-0.51,0.89-0.74,1.31c-0.07,0.13-0.17,0.12-0.28,0.12c-2.7,0-5.41,0.01-8.11-0.01
			c-1.19-0.01-1.74-1.02-1.16-2.05c0.72-1.27,1.46-2.54,2.19-3.81c0.66-1.15,1.63-1.7,2.97-1.68c2.73,0.03,5.46,0.01,8.18,0.01
			c0.13,0,0.26,0,0.46,0c-0.27,0.48-0.52,0.9-0.75,1.33c-0.1,0.17-0.26,0.12-0.4,0.12c-1.59,0-3.19,0.02-4.78-0.01
			c-0.59-0.01-0.97,0.2-1.25,0.73c-0.49,0.93-1.04,1.83-1.57,2.74c-0.08,0.14-0.17,0.28-0.23,0.43c-0.17,0.41-0.04,0.64,0.39,0.72
			c0.16,0.03,0.32,0.04,0.48,0.04C46.15,53.37,47.66,53.37,49.24,53.37z"/>
		<path class="st2" d="M71.82,48.69c-1.41,0-2.75,0-4.14,0c0.27-0.47,0.52-0.9,0.76-1.33c0.06-0.1,0.15-0.11,0.25-0.11
			c3.98,0,7.96,0,12.01,0c-0.27,0.47-0.52,0.91-0.77,1.35c-0.08,0.14-0.22,0.1-0.33,0.1c-0.91,0-1.82,0.01-2.73,0
			c-0.23,0-0.35,0.07-0.47,0.27c-1.06,1.85-2.13,3.7-3.18,5.55c-0.12,0.21-0.24,0.29-0.49,0.29c-1.45-0.01-2.9-0.01-4.41-0.01
			C69.49,52.76,70.63,50.76,71.82,48.69z"/>
		<path class="st2" d="M80.64,54.79c1.18-2.05,2.32-4.04,3.49-6.07c-1.06,0-2.08,0-3.18,0c0.28-0.5,0.53-0.93,0.78-1.37
			c0.06-0.1,0.16-0.1,0.26-0.1c3.64,0,7.28,0,10.92,0c0.02,0,0.04,0.02,0.09,0.04c-0.25,0.43-0.5,0.85-0.74,1.28
			c-0.09,0.16-0.23,0.11-0.36,0.11c-0.91,0-1.82,0.01-2.73,0c-0.21,0-0.33,0.05-0.44,0.25c-1.05,1.85-2.12,3.68-3.16,5.53
			c-0.14,0.25-0.3,0.33-0.58,0.33C83.56,54.79,82.13,54.79,80.64,54.79z"/>
	</g>
	<g>
		<path class="st2" d="M18.3,42.44c-0.28,0.49-0.56,0.96-0.83,1.43c-0.33,0.57-0.66,1.14-0.99,1.72c-0.06,0.1-0.12,0.13-0.23,0.13
			c-1.06,0-2.12,0-3.18,0c-0.46,0-0.79,0.19-1.01,0.59c-0.41,0.73-0.82,1.45-1.25,2.17c-0.27,0.46-0.28,0.9,0,1.35
			c0.36,0.6,0.7,1.21,1.06,1.81c0.37,0.63,0.38,1.26,0.01,1.89c-0.52,0.9-1.05,1.8-1.58,2.7c-0.07-0.02-0.08-0.08-0.11-0.13
			c-0.9-1.56-1.83-3.1-2.7-4.67c-0.67-1.22-0.66-2.49,0.02-3.71c0.82-1.48,1.67-2.94,2.52-4.4c0.33-0.57,0.83-0.88,1.48-0.88
			C13.76,42.44,16.01,42.44,18.3,42.44z"/>
		<path class="st2" d="M16.43,45.77c0.24,0.41,0.47,0.81,0.7,1.21c0.69,1.19,1.4,2.36,2.06,3.57c0.71,1.29,0.68,2.61-0.04,3.89
			c-0.82,1.45-1.65,2.89-2.49,4.33c-0.3,0.52-0.77,0.83-1.37,0.83c-2.28,0.02-4.56,0.01-6.87,0.01c0.05-0.1,0.1-0.19,0.15-0.28
			c0.54-0.94,1.08-1.87,1.62-2.81c0.08-0.14,0.16-0.2,0.33-0.2c1.05,0.01,2.09,0,3.14,0c0.43,0,0.75-0.18,0.96-0.55
			c0.43-0.74,0.85-1.5,1.29-2.24c0.27-0.45,0.25-0.89-0.01-1.34c-0.37-0.62-0.73-1.25-1.09-1.88c-0.32-0.55-0.35-1.13-0.04-1.69
			C15.3,47.68,15.87,46.74,16.43,45.77z"/>
	</g>
</g>
</svg>
