<?xml version="1.0" encoding="utf-8"?>
<!-- Generator: Adobe Illustrator 24.2.3, SVG Export Plug-In . SVG Version: 6.00 Build 0)  -->
<svg version="1.1" id="Capa_1" xmlns="http://www.w3.org/2000/svg" xmlns:xlink="http://www.w3.org/1999/xlink" x="0px" y="0px"
	 viewBox="0 0 122 111" style="enable-background:new 0 0 122 111;" xml:space="preserve">
<style type="text/css">
	.st0{fill:#211F1F;}
</style>
<g>
	<path class="st0" d="M94.12,83.19H27.37c-6,0-10.88-4.88-10.88-10.88V46.5c0-6,4.88-10.88,10.88-10.88h66.75
		c6,0,10.88,4.88,10.88,10.88v25.81C105,78.31,100.12,83.19,94.12,83.19 M27.37,42.07c-2.44,0-4.43,1.98-4.43,4.42v25.81
		c0,2.44,1.98,4.42,4.43,4.42h66.75c2.44,0,4.43-1.98,4.43-4.42V46.5c0-2.44-1.98-4.42-4.43-4.42H27.37z"/>
	<path class="st0" d="M30.49,57.03c0,0,60.98-27.73,60.84-0.42H79.12C79.12,56.62,88.25,35.45,30.49,57.03"/>
	<path class="st0" d="M30.49,57.03c0,0,60.98-27.73,60.84-0.42H79.12C79.12,56.62,88.25,35.45,30.49,57.03"/>
	<rect x="29.04" y="69.86" class="st0" width="5.66" height="0.04"/>
	<rect x="36.35" y="69.86" class="st0" width="5.66" height="0.04"/>
	<path class="st0" d="M35.52,60.69c-0.84,0-0.81,0.28-0.81,0.32c0.01-0.09,0.12-0.28,0.81-0.28c0.9,0,0.94,0.41,0.94,0.41v-0.04
		C36.46,61.11,36.42,60.69,35.52,60.69"/>
	<rect x="34.69" y="65.52" class="st0" width="1.66" height="0.04"/>
	<path class="st0" d="M44.14,68.37v0.04c0,1.65,1.47,1.65,1.47,1.65h6.34v-0.04h-6.34C45.62,70.03,44.14,70.03,44.14,68.37"/>
	<path class="st0" d="M54.03,68.37v0.04c0,1.65,1.47,1.65,1.47,1.65h6.34v-0.04H55.5C55.5,70.03,54.03,70.03,54.03,68.37"/>
	<path class="st0" d="M70.82,60.78c-0.83,0-0.96,0.32-0.96,0.32v0.04c0,0,0.14-0.32,0.96-0.32c0.83,0,0.97,0.32,0.97,0.32v-0.04
		C71.78,61.11,71.65,60.78,70.82,60.78"/>
	<path class="st0" d="M63.96,68.83v0.04c0,1.06,1.61,1.2,1.61,1.2h11.5v-0.04h-11.5C65.57,70.03,63.96,69.89,63.96,68.83"/>
	<path class="st0" d="M75.55,66.49h-5.33c0,0,0,0.03,0,0.09v-0.05h5.33c1.48,0,1.53-1.06,1.52-1.29
		C77.07,65.53,76.96,66.49,75.55,66.49"/>
	<rect x="79.19" y="70.03" class="st0" width="4.78" height="0.04"/>
	<path class="st0" d="M85.99,61.47c0-0.92-0.32-0.69-0.32-0.69h-1.7v0.04h1.7c0,0,0.32-0.23,0.32,0.69V61.47z"/>
	<path class="st0" d="M85.99,68.87v0.04c0,0,0.18,1.15,2.16,1.15h4.1v-0.04h-4.1C86.17,70.03,85.99,68.87,85.99,68.87"/>
	<path class="st0" d="M40.83,57.79H30.49c-1.31,0-1.45,1.1-1.45,1.1v10.97h5.66v-4.34h1.66v4.34h5.66V58.89
		C42.01,57.86,40.83,57.79,40.83,57.79 M36.46,63.63h-1.75v-2.62c0,0-0.09-0.32,0.81-0.32c0.9,0,0.94,0.41,0.94,0.41V63.63z"/>
	<path class="st0" d="M44.14,57.79h6.16v8.46c0,0,0.14,0.69,0.69,0.69h0.97v3.09h-6.34c0,0-1.47,0-1.47-1.66V57.79z"/>
	<path class="st0" d="M54.03,57.79h6.16v8.46c0,0,0.14,0.69,0.69,0.69h0.96v3.09H55.5c0,0-1.47,0-1.47-1.66V57.79z"/>
	<path class="st0" d="M70.22,66.49h5.33c1.66,0,1.52-1.33,1.52-1.33v-6.35c0-0.74-1.1-1.01-1.1-1.01h-10.4
		c-1.56,0-1.61,0.96-1.61,0.96v10.07c0,1.05,1.61,1.19,1.61,1.19h11.5v-2.62h-5.98C70.13,67.41,70.22,66.49,70.22,66.49
		 M69.85,63.08v-1.98c0,0,0.14-0.32,0.96-0.32c0.83,0,0.96,0.32,0.96,0.32v1.93c0,0,0,0.37-0.96,0.37
		C69.85,63.4,69.85,63.08,69.85,63.08"/>
	<path class="st0" d="M79.19,57.79v12.23h4.78v-9.24h1.7c0,0,0.32-0.23,0.32,0.69v7.4c0,0,0.18,1.15,2.16,1.15h4.1V58.76
		c0,0-0.32-0.96-1.43-0.96H79.19"/>
</g>
</svg>
