<?xml version="1.0" encoding="utf-8"?>
<!-- Generator: Adobe Illustrator 24.2.3, SVG Export Plug-In . SVG Version: 6.00 Build 0)  -->
<svg version="1.1" id="Capa_1" xmlns="http://www.w3.org/2000/svg" xmlns:xlink="http://www.w3.org/1999/xlink" x="0px" y="0px"
	 viewBox="0 0 122 111" style="enable-background:new 0 0 122 111;" xml:space="preserve">
<style type="text/css">
	.st0{fill-rule:evenodd;clip-rule:evenodd;fill:#211F1F;}
</style>
<g>
	<path class="st0" d="M107.14,58.47c0.51,0,0.98,0.21,1.32,0.55c0.34,0.34,0.54,0.8,0.54,1.32c0,0.51-0.21,0.98-0.54,1.31
		c-0.34,0.34-0.8,0.55-1.32,0.55c-0.51,0-0.98-0.21-1.32-0.55c-0.34-0.33-0.54-0.8-0.54-1.31c0-0.52,0.21-0.98,0.54-1.32
		C106.16,58.68,106.62,58.47,107.14,58.47 M106.27,61.45v-2.23h0.99c0.2,0,0.35,0.02,0.45,0.06c0.1,0.04,0.19,0.11,0.25,0.21
		c0.06,0.1,0.09,0.21,0.09,0.34c0,0.16-0.05,0.29-0.15,0.4c-0.1,0.11-0.26,0.18-0.48,0.21c0.08,0.04,0.14,0.07,0.18,0.11
		c0.09,0.08,0.17,0.18,0.25,0.3l0.37,0.57l0-0.01c0.28-0.27,0.45-0.66,0.45-1.08c0-0.42-0.17-0.81-0.45-1.08
		c-0.28-0.28-0.66-0.45-1.08-0.45c-0.42,0-0.8,0.17-1.08,0.45c-0.28,0.28-0.45,0.66-0.45,1.08c0,0.42,0.17,0.8,0.45,1.08
		c0.28,0.28,0.66,0.45,1.08,0.45c0.4,0,0.77-0.15,1.04-0.41h-0.31l-0.3-0.47c-0.09-0.13-0.16-0.23-0.21-0.31
		c-0.05-0.07-0.1-0.12-0.15-0.15c-0.04-0.03-0.09-0.05-0.13-0.06c-0.04-0.01-0.09-0.01-0.17-0.01h-0.34v0.99H106.27z M106.64,60.22
		h0.55c0.12,0,0.21-0.01,0.28-0.04c0.07-0.02,0.12-0.07,0.15-0.12c0.03-0.05,0.05-0.11,0.05-0.18c0-0.09-0.03-0.17-0.1-0.23
		c-0.06-0.06-0.17-0.09-0.32-0.09h-0.61V60.22z M23.22,62.08h3.07l1.79-4.78h4.33l-1.78,4.78h3.44l4.3-11.57h-3.42l-1.66,4.43h-4.33
		l1.65-4.43h-3.1L23.22,62.08z M47.3,52.11c-0.05-0.97-0.67-1.61-1.87-1.61c-1.21-0.01-2.19,0.62-2.94,1.59l-7.48,9.98h3.11
		l2.01-2.74h4.34l0.14,2.74h3.21L47.3,52.11z M41.83,57.12l2.35-3.56l0.17,3.56H41.83z M79.74,52.11c-0.05-0.97-0.67-1.61-1.87-1.61
		c-1.21-0.01-2.19,0.62-2.94,1.59l-7.47,9.98h3.1l2.01-2.75l4.34,0.02l0.14,2.73h3.21L79.74,52.11z M74.27,57.12l2.35-3.56
		l0.17,3.56H74.27z M59.12,50.5h-3.62c-1.77-0.01-3.1,0.89-3.85,2.07c-0.12,0.2-0.21,0.39-0.27,0.58l-2.31,6.26
		c-0.06,0.16-0.1,0.34-0.12,0.55c-0.08,0.65,0.08,1.11,0.45,1.39c0.38,0.28,1.05,0.74,2.03,0.74h3.6c2.14,0.01,3.5-1.08,4.06-2.66
		l2.32-6.23C61.96,51.63,61.24,50.51,59.12,50.5 M58.08,53.73l-1.79,4.8c-0.16,0.45-0.56,0.66-1.24,0.66h-1.89
		c-0.68,0-0.93-0.26-0.74-0.77l1.75-4.71c0.18-0.51,0.55-0.76,1.24-0.75h1.89C57.97,52.96,58.26,53.22,58.08,53.73 M62.24,50.5
		l1.94,7.05l-1.62,4.53h3.07l1.68-4.53l7.55-7.05h-3.51l-4.81,4.44l-1.01-4.44H62.24z M93.38,58.85c-0.25,0.69-0.41,1.15-0.44,1.4
		c-0.04,0.37,0.04,0.69,0.29,0.98c0.42,0.49,1.26,0.85,2.53,0.85h3.53c1.39,0.01,2.5-0.52,3.34-1.39c0.29-0.28,0.4-0.54,0.78-1.49
		l1.29-3.5h-3.04l-1.1,3.02c-0.17,0.32-0.54,0.48-1.14,0.48h-2.44c-0.34-0.04-0.5-0.2-0.49-0.46l1.8-4.91
		c0.15-0.26,0.58-0.81,0.91-0.85h6.52l0.9-2.47h-6.76c-1.31-0.01-2.29,0.2-2.95,0.59c-0.66,0.39-1.25,1.61-1.61,2.62L93.38,58.85z
		 M95.17,50.51l-2.94,0l-3.27,8.71l0.51-6.85c0.02-1.28-0.66-1.9-2.05-1.87c-0.72,0.02-1.27,0.1-1.88,0.48
		c-0.61,0.38-1.02,0.98-1.22,1.54l-3.56,9.55h2.82l3.14-8.47l-0.11,6.33c-0.02,0.87,0.22,1.82,0.97,2.07
		c0.31,0.08,0.77,0.07,1.1,0.07c0.73,0,1.37-0.24,2-0.66c0.64-0.42,0.91-1.27,1.15-1.94L95.17,50.51z M13.57,59.11
		c-0.41,1.14-0.1,2.31,0.86,2.71c0.24,0.1,0.53,0.22,1.03,0.25h6.48L23,59.2h-5.07c-0.32,0-0.51-0.05-0.59-0.13
		c-0.13-0.14-0.13-0.42,0.02-0.82l1.73-4.8c0.18-0.28,0.48-0.45,0.89-0.49h5.34l0.91-2.46h-6.11c-1.27-0.01-2.21,0.29-2.82,0.64
		c-0.61,0.35-1.09,1.01-1.43,1.96L13.57,59.11z"/>
</g>
</svg>
