<?xml version="1.0" encoding="utf-8"?>
<!-- Generator: Adobe Illustrator 24.2.3, SVG Export Plug-In . SVG Version: 6.00 Build 0)  -->
<svg version="1.1" id="Capa_1" xmlns="http://www.w3.org/2000/svg" xmlns:xlink="http://www.w3.org/1999/xlink" x="0px" y="0px"
	 viewBox="0 0 122 111" style="enable-background:new 0 0 122 111;" xml:space="preserve">
<style type="text/css">
	.st0{fill-rule:evenodd;clip-rule:evenodd;fill:#211F1F;}
	.st1{fill:#211F1F;}
</style>
<g>
	<path class="st0" d="M16.42,64.65c-1.69,0.01-3.07-1.33-3.1-2.99c-0.03-1.68,1.43-3.14,3.13-3.11c1.66,0.02,3.01,1.4,3,3.08
		C19.44,63.32,18.11,64.64,16.42,64.65"/>
	<path class="st0" d="M20.12,48.58c-0.02-1.7,1.28-3.06,2.97-3.09c1.72-0.04,3.17,1.37,3.16,3.07c-0.01,1.64-1.42,3.04-3.07,3.05
		C21.5,51.61,20.13,50.26,20.12,48.58"/>
	<path class="st0" d="M33.75,61.57c0.02,1.69-1.29,3.05-2.98,3.08c-1.7,0.03-3.06-1.26-3.12-2.95c-0.05-1.72,1.34-3.16,3.05-3.16
		C32.37,58.53,33.74,59.89,33.75,61.57"/>
	<polygon class="st0" points="16.48,55.72 13,52.16 16.46,48.8 19.88,52.31 	"/>
	<polygon class="st0" points="33.53,52.34 30.19,55.75 26.59,52.18 30,48.74 	"/>
	<polygon class="st0" points="23.67,68.28 20.13,64.86 23.8,61.26 27.11,64.73 	"/>
	<path class="st0" d="M78.13,56.31c0,2.23-0.61,4.14-1.84,5.71c-1.35,1.75-3.17,2.62-5.46,2.62c-2.44,0-4.36-0.84-5.76-2.52
		c-1.27-1.54-1.91-3.46-1.91-5.74c0-2.2,0.61-4.06,1.82-5.57c1.37-1.7,3.26-2.55,5.66-2.55c2.39,0,4.27,0.84,5.65,2.5
		C77.51,52.26,78.13,54.11,78.13,56.31 M73.29,56.62c0-1.23-0.27-2.21-0.83-2.93c-0.53-0.72-1.17-1.09-1.91-1.09
		c-0.68,0-1.26,0.32-1.75,0.95c-0.55,0.72-0.82,1.7-0.82,2.93c0,1.26,0.26,2.23,0.8,2.92c0.49,0.63,1.09,0.95,1.8,0.95
		c0.72,0,1.35-0.33,1.89-0.99C73.01,58.69,73.29,57.79,73.29,56.62"/>
	<path class="st0" d="M108.09,56.31c0,2.23-0.62,4.14-1.84,5.71c-1.35,1.75-3.17,2.62-5.45,2.62c-2.44,0-4.36-0.84-5.76-2.52
		c-1.27-1.54-1.91-3.46-1.91-5.74c0-2.2,0.61-4.06,1.82-5.57c1.37-1.7,3.26-2.55,5.66-2.55c2.39,0,4.27,0.84,5.64,2.5
		C107.47,52.26,108.09,54.11,108.09,56.31 M103.24,56.62c0-1.23-0.27-2.21-0.82-2.93c-0.53-0.72-1.17-1.09-1.91-1.09
		c-0.68,0-1.26,0.32-1.75,0.95c-0.55,0.72-0.82,1.7-0.82,2.93c0,1.26,0.26,2.23,0.8,2.92c0.49,0.63,1.09,0.95,1.8,0.95
		c0.72,0,1.35-0.33,1.89-0.99C102.97,58.69,103.24,57.79,103.24,56.62"/>
	<path class="st0" d="M62.01,64.24H57.4v-5.95h-3.61v5.95h-4.61V48.45c0,0,3.39,0,4.33,0c1.09,0,1.18-0.01,1.24,0.18
		c0.1,0.32-0.97,0.71-0.97,1.1c-0.01,0.73,0,4.29,0,4.29h3.61v-5.57c0,0,3.45,0,4.3,0c0.86,0,0.3,0,0.3,0s-0.01,0.22,0,1.24
		C62.01,50.71,62.01,64.24,62.01,64.24"/>
	<path class="st0" d="M91.99,64.24h-4.61v-5.95h-3.61v5.95h-4.6V48.45c0,0,3.39,0,4.33,0c1.09,0,1.19-0.01,1.25,0.18
		c0.1,0.32-0.97,0.71-0.97,1.1c0,0.73,0,4.29,0,4.29h3.61v-5.57c0,0,3.44,0,4.3,0c0.86,0,0.3,0,0.3,0s-0.01,0.22,0,1.24
		C91.99,50.71,91.99,64.24,91.99,64.24"/>
	<path class="st1" d="M47.85,59.77l-0.15,4.64c-0.87,0.34-2.21,0.51-3.31,0.51c-2.16,0-3.96-0.6-5.4-1.81
		c-1.78-1.49-2.67-3.69-2.67-6.62c0-3.03,0.85-5.28,2.55-6.76c1.37-1.19,3.12-1.79,5.25-1.79c0.56,0,1.07,0.04,1.54,0.13
		c0.49,0.06,1.36,0.18,1.88,0.34l0.3,4.63c-0.85-0.45-2.08-0.69-2.96-0.69c-1.14,0-2.04,0.33-2.7,1.01
		c-0.72,0.74-1.08,1.79-1.08,3.16c0,1.39,0.31,2.41,0.93,3.08c0.54,0.59,1.3,0.88,2.3,0.88C45.28,60.48,46.69,60.24,47.85,59.77"/>
	<path class="st0" d="M109.18,48.96c0.14,0,0.26-0.03,0.34-0.08c0.09-0.06,0.13-0.16,0.13-0.31c0-0.16-0.06-0.27-0.18-0.33
		c-0.06-0.03-0.15-0.05-0.25-0.05h-0.74v0.77H109.18z M108.17,47.93h1.04c0.17,0,0.31,0.03,0.42,0.08c0.21,0.09,0.32,0.27,0.32,0.53
		c0,0.14-0.02,0.24-0.08,0.33c-0.06,0.08-0.13,0.16-0.23,0.21c0.09,0.04,0.15,0.08,0.2,0.14c0.04,0.05,0.07,0.15,0.08,0.28l0.01,0.3
		c0,0.08,0.01,0.15,0.02,0.19c0.01,0.07,0.05,0.12,0.09,0.14v0.05h-0.37l-0.02-0.07c-0.01-0.03-0.01-0.09-0.02-0.18l-0.02-0.37
		c-0.01-0.15-0.06-0.24-0.16-0.29c-0.06-0.03-0.15-0.04-0.28-0.04h-0.69v0.96h-0.31V47.93z"/>
	<path class="st1" d="M109.01,47.06c-1.1,0-1.99,0.89-1.99,1.99c0,1.1,0.89,1.98,1.99,1.98c1.1,0,1.99-0.88,1.99-1.98
		C111,47.96,110.11,47.06,109.01,47.06 M109.01,50.72c-0.92,0-1.66-0.74-1.66-1.66c0-0.92,0.74-1.66,1.66-1.66
		c0.92,0,1.66,0.74,1.66,1.66C110.67,49.97,109.93,50.72,109.01,50.72"/>
</g>
</svg>
