<?xml version="1.0" encoding="utf-8"?>
<!-- Generator: Adobe Illustrator 24.2.3, SVG Export Plug-In . SVG Version: 6.00 Build 0)  -->
<svg version="1.1" id="Capa_1" xmlns="http://www.w3.org/2000/svg" xmlns:xlink="http://www.w3.org/1999/xlink" x="0px" y="0px"
	 viewBox="0 0 122 111" style="enable-background:new 0 0 122 111;" xml:space="preserve">
<style type="text/css">
	.st0{fill:#211F1F;}
</style>
<g>
	<path class="st0" d="M98.79,54.19c-2.41-0.09-2.59,3.12-2.59,3.12c0.36,3.66,2.67,3.39,2.67,3.39s2.2-0.26,2.27-3.39
		C101.25,54.19,98.79,54.19,98.79,54.19 M98.97,51.61c0,0,8.03,0.07,8.03,5.7c0,5.62-8.48,5.53-8.48,5.53s-7.59,0.29-7.84-5.35
		C90.41,51.16,98.97,51.61,98.97,51.61"/>
	<path class="st0" d="M80.43,56.51h2.43c0,0,1.06-0.18,1.06-1.25c0-1.08-1.06-1.16-1.06-1.16h-2.43V56.51z M74.73,62.93V51.52h10.33
		c0,0,4.56,0.35,4.56,3.12c0,2.76-2.23,3.11-2.23,3.11s2.49,1.38,2.49,5.22h-6.07c0,0,0.27-3.88-1.14-3.88h-2.42v3.83H74.73z"/>
	<path class="st0" d="M46.74,59.8c0,0,3.75,0.81,3.75-2.67c0-3.48-3.75-2.94-3.75-2.94V59.8z M40.95,51.52h9.54
		c0,0,6.24-0.26,6.19,6.06c-0.04,5.93-10.02,5.26-10.02,5.26h-5.72V51.52z"/>
	<path class="st0" d="M58.34,51.47h5.76l0.06,7.41c0,0-0.06,1.15,1.47,1.15c1.52,0,1.61-1.25,1.61-1.25v-7.32h5.7v7.32
		c0,0-0.18,4.11-7.14,4.11c-6.95,0-7.47-3.83-7.47-3.83V51.47z"/>
	<path class="st0" d="M34.14,51.17c-0.13-0.12-3.41-2.9-11.03-3.22h-9.97v15.37h25.84L39,63.1C39.01,63.03,39.78,55.45,34.14,51.17
		 M17.98,62.36V50.14l0.26-0.03c0.01,0,0.26-0.02,0.64-0.02c1.17,0,3.67,0.19,4.06,1.99c0,0.39,0.38,1.25-0.91,3.85
		c-1.35,2.74-2.9,5.85-2.92,5.89l-0.29,0.48h0.09c-0.01,0.02-0.02,0.04-0.03,0.06H17.98z M29.38,62.36V62.3h0.08l0.04-7.02
		c0-0.04,0.16-3.93-3.99-5.47c-0.07-0.03-0.12-0.06-0.19-0.08c2.67,0.81,4.28,2.42,4.89,4.88c0.54,2.17,0.57,6.66,0.57,7.74H29.38z"
		/>
</g>
</svg>
