<?xml version="1.0" encoding="utf-8"?>
<!-- Generator: Adobe Illustrator 24.2.3, SVG Export Plug-In . SVG Version: 6.00 Build 0)  -->
<svg version="1.1" id="Capa_1" xmlns="http://www.w3.org/2000/svg" xmlns:xlink="http://www.w3.org/1999/xlink" x="0px" y="0px"
	 viewBox="0 0 122 111" style="enable-background:new 0 0 122 111;" xml:space="preserve">
<style type="text/css">
	.st0{fill:#211F1F;}
</style>
<g>
	<path class="st0" d="M25.19,68.49h1.87c1.57,2.17,4.25,3.82,7.76,4.88c4.7,1.41,10.91,1.79,17.89,0.99
		c3.28-0.37,6.74-1.01,10.3-1.93c4.09-1.05,7.96-2.39,11.54-3.93h13.81l-0.37-0.83c-0.46-1.02-0.62-2.13-0.37-3.24l2.67-11.34h6.48
		l1.12-4.74h-6.53l0.58-2.29l0-0.03c0.07-0.5,0.86-0.94,1.34-0.94h4.33c0.6,0,1.41,0.25,1.93,0.55l0.77,0.44l0.67-5.72h-8.84
		c-1.4-0.95-3.1-1.73-5.06-2.32c-4.7-1.41-10.91-1.79-17.89-0.99c-3.28,0.38-6.75,1.02-10.3,1.93c-8.4,2.16-15.93,5.52-21.71,9.36
		h-8.13c-2.61,0-4.43,1.66-5.02,4.15l-2.6,11.13C20.84,66.21,22.48,68.49,25.19,68.49 M99.67,41.53l-0.32,2.71
		c-0.57-0.21-1.2-0.35-1.73-0.35h-4.33c-1.07,0-2.33,0.83-2.51,1.92l-0.95,3.7h6.56l-0.56,2.38h-6.48l-2.88,12.25
		c-0.25,1.06-0.19,2.14,0.12,3.16h-9.4h-0.39c0.2-0.27,0.38-0.56,0.54-0.85c0.06-0.09,0.1-0.18,0.15-0.28
		c0.11-0.21,0.21-0.42,0.3-0.64c0.03-0.05,0.06-0.11,0.08-0.16c0,0-0.01,0.01-0.01,0.01c0.17-0.41,0.31-0.83,0.42-1.27l4.42-18.42
		c0.52-2.16,3.06-4.17,5.28-4.17h3.39h2.29H99.67z M53.05,42.23l0.14,0.3c0.33,0.71,0.09,2.34-0.1,3.11l-5.45,22.86h7.72
		c1.09,0,2.04-0.42,2.75-1.16c0.62,0.81,1.72,1.18,2.78,1.16h7.87c2.6,0,5.7-2.21,6.32-4.78l2.46-10.26
		c0.65-2.69-1.52-5.11-4.21-5.11h-7.69c-0.77,0-1.71,0.23-2.54,0.58l1.2-5.13c0.29-1.23-0.36-2.08-1.62-2.08l-7.96-0.01
		c1.49-0.48,3.01-0.94,4.56-1.34c3.48-0.9,6.88-1.52,10.11-1.89c6.79-0.78,12.8-0.42,17.31,0.93c0.92,0.28,1.78,0.6,2.57,0.96h-1.26
		c-2.77,0-5.79,2.39-6.43,5.08l-4.42,18.42c-0.21,0.87-0.57,1.65-1.04,2.38c-4.07,1.91-8.6,3.57-13.44,4.82
		c-3.48,0.89-6.87,1.52-10.1,1.89c-6.79,0.78-12.8,0.42-17.31-0.94c-2.73-0.82-4.88-2.01-6.32-3.51H43.7c1.36,0,2.19-0.4,2.53-1.84
		l1.05-4.1l-1.2,0.66c-0.64,0.36-1.45,0.46-2.17,0.46H32.78c-0.36,0-0.97-0.33-0.93-0.73c0-0.01,0-0.02,0-0.03l0.46-1.95l15.32-0.01
		l1.82-7.73c0.61-2.6-1.04-4.88-3.75-4.88h-5.85C43.66,46.02,48.13,43.93,53.05,42.23 M62.54,50.53c0.77-0.54,2.13-1.01,3.08-1.01
		h7.69c1.93,0,3.53,1.7,3.07,3.65l-2.46,10.26c-0.49,2.04-3.11,3.88-5.16,3.88h-7.88c-0.86,0.02-1.9-0.3-2.07-1.25l-0.3-1.63
		l-0.8,1.45c-0.5,0.9-1.31,1.42-2.35,1.42h-6.22l5.11-21.4c0.2-0.82,0.38-2.05,0.25-3.03l8.17,0.01c0.5,0,0.59,0.15,0.47,0.63
		l-1.86,7.91L62.54,50.53z M22.6,63.89l2.6-11.13c0.46-1.96,1.81-3.24,3.87-3.24h6.4h2.5h7.73c1.95,0,3.03,1.57,2.6,3.42l-1.61,6.82
		l-15.32,0.01l-0.67,2.86c-0.29,1.19,0.95,2.21,2.08,2.21h11.14c0.53,0,1.08-0.05,1.6-0.17l-0.43,1.69
		c-0.21,0.88-0.57,0.95-1.39,0.95H27.98h-1.64h-1.14C23.24,67.31,22.17,65.74,22.6,63.89"/>
	<path class="st0" d="M40.03,54.08c0.37-1.27-0.47-2.18-1.74-2.18h-3.09c-0.21,0-0.4,0.03-0.59,0.07c0.01,0,0.01-0.01,0.01-0.01
		c-0.02,0.01-0.05,0.02-0.08,0.03c-0.13,0.04-0.25,0.08-0.37,0.13c-0.03,0.02-0.06,0.03-0.1,0.05c-0.14,0.08-0.28,0.16-0.4,0.27
		c-0.02,0.02-0.04,0.04-0.06,0.06c-0.1,0.09-0.19,0.2-0.28,0.31c-0.02,0.03-0.05,0.06-0.07,0.09c-0.17,0.25-0.31,0.53-0.4,0.85
		l0,0.01l-0.79,3.25h7.09L40.03,54.08z M38.89,53.75l-0.62,2.08h-4.71L34,54.06c0.17-0.59,0.55-0.98,1.19-0.98h3.09
		C38.77,53.08,39.04,53.25,38.89,53.75"/>
	<path class="st0" d="M60.73,53.83l-2.16,8.85c-0.37,1.28,0.52,2.16,1.79,2.16h3.19c1.19,0,2.06-0.72,2.38-1.84l0-0.01l2.16-8.85
		c0.36-1.28-0.53-2.17-1.79-2.17h-3.2c-1.19,0-2.05,0.72-2.38,1.85L60.73,53.83z M61.88,54.14c0.18-0.61,0.58-0.99,1.24-0.99h3.2
		c0.48,0,0.8,0.15,0.65,0.67l0,0.01l-2.16,8.85c-0.18,0.61-0.59,0.98-1.24,0.98h-3.19c-0.48,0-0.8-0.15-0.65-0.66l0-0.01
		L61.88,54.14z"/>
	<path class="st0" d="M75.04,70.35l-2.08,3.54h0.75l0.45-0.78h1.4l0.09,0.78h0.69l-0.49-3.54H75.04z M74.5,72.52l0.82-1.42
		l0.18,1.42H74.5z"/>
	<path class="st0" d="M79.36,72.17c0.1-0.1,0.19-0.24,0.27-0.4c0.07-0.17,0.11-0.35,0.12-0.53c0-0.19-0.04-0.36-0.12-0.5
		c-0.08-0.14-0.2-0.24-0.35-0.3c-0.14-0.06-0.34-0.09-0.6-0.09h-1.44l-0.83,3.54h0.73l0.31-1.35h0.47c0.31,0,0.52-0.01,0.64-0.02
		c0.19-0.03,0.35-0.06,0.47-0.12C79.15,72.34,79.26,72.27,79.36,72.17 M78.89,71.65c-0.08,0.11-0.18,0.18-0.31,0.23
		c-0.13,0.05-0.38,0.07-0.77,0.07h-0.22l0.24-1.01h0.52c0.24,0,0.39,0.01,0.46,0.04c0.07,0.02,0.12,0.06,0.16,0.12
		c0.03,0.05,0.05,0.12,0.05,0.21C79.01,71.42,78.97,71.54,78.89,71.65"/>
	<path class="st0" d="M73.35,72.73l-0.73-0.12c-0.08,0.24-0.2,0.42-0.36,0.54c-0.16,0.12-0.33,0.19-0.52,0.19
		c-0.2,0-0.37-0.08-0.5-0.23c-0.13-0.16-0.19-0.37-0.19-0.66c0.01-0.26,0.06-0.52,0.18-0.78c0.11-0.26,0.25-0.46,0.43-0.58
		c0.17-0.12,0.37-0.18,0.57-0.18c0.18,0,0.33,0.05,0.43,0.14c0.11,0.09,0.18,0.25,0.21,0.45l0.7-0.07
		c-0.03-0.36-0.16-0.63-0.39-0.84c-0.23-0.2-0.54-0.3-0.92-0.3c-0.34,0-0.66,0.09-0.95,0.26c-0.3,0.18-0.53,0.43-0.7,0.77
		c-0.17,0.33-0.26,0.7-0.27,1.11c-0.01,0.5,0.1,0.88,0.33,1.14c0.24,0.26,0.57,0.39,1.01,0.39c0.38,0,0.72-0.11,1.01-0.32
		C72.97,73.43,73.2,73.13,73.35,72.73"/>
	<polygon class="st0" points="88.66,70.95 88.79,70.35 86.17,70.35 85.34,73.89 88.11,73.89 88.25,73.3 86.19,73.3 86.42,72.34 
		88.26,72.34 88.4,71.75 86.56,71.75 86.76,70.95 	"/>
	<polygon class="st0" points="93.82,72.34 93.96,71.75 92.12,71.75 92.32,70.95 94.21,70.95 94.35,70.35 91.73,70.35 90.9,73.89 
		93.67,73.89 93.8,73.3 91.75,73.3 91.98,72.34 	"/>
	<path class="st0" d="M95.69,70.87c0.2,0,0.35,0.05,0.46,0.13c0.1,0.09,0.16,0.22,0.17,0.39l0.7-0.03
		c-0.01-0.32-0.13-0.59-0.36-0.78c-0.22-0.2-0.54-0.29-0.96-0.29c-0.41,0-0.72,0.09-0.94,0.29c-0.22,0.19-0.34,0.44-0.35,0.74
		c0,0.17,0.03,0.32,0.1,0.45c0.07,0.13,0.17,0.23,0.3,0.31c0.12,0.08,0.32,0.18,0.59,0.3c0.27,0.12,0.44,0.21,0.5,0.26
		c0.09,0.07,0.13,0.16,0.13,0.27c0,0.12-0.06,0.22-0.17,0.31c-0.11,0.09-0.28,0.13-0.52,0.13c-0.28,0-0.48-0.06-0.58-0.19
		c-0.06-0.08-0.1-0.22-0.1-0.44l-0.69,0.04c-0.01,0.23,0.02,0.44,0.11,0.63c0.09,0.18,0.24,0.32,0.46,0.42
		c0.22,0.1,0.48,0.15,0.79,0.15c0.44,0,0.79-0.11,1.04-0.33c0.26-0.22,0.39-0.49,0.39-0.8c0.01-0.25-0.07-0.46-0.23-0.62
		c-0.11-0.11-0.36-0.25-0.77-0.43c-0.27-0.12-0.44-0.21-0.51-0.28c-0.08-0.07-0.12-0.15-0.12-0.25c0-0.11,0.05-0.19,0.14-0.27
		C95.34,70.9,95.49,70.87,95.69,70.87"/>
	<polygon class="st0" points="91.65,70.35 88.86,70.35 88.72,70.95 89.76,70.95 89.08,73.89 89.8,73.89 90.49,70.95 91.51,70.95 	
		"/>
	<path class="st0" d="M84.74,72.62c-0.08,0.24-0.2,0.42-0.36,0.54c-0.16,0.12-0.33,0.19-0.52,0.19c-0.2,0-0.37-0.08-0.5-0.23
		c-0.13-0.16-0.19-0.37-0.19-0.66c0.01-0.26,0.07-0.52,0.18-0.78c0.11-0.26,0.25-0.46,0.43-0.58c0.18-0.12,0.36-0.18,0.56-0.18
		c0.18,0,0.33,0.05,0.44,0.14c0.11,0.09,0.17,0.25,0.21,0.45l0.7-0.07c-0.03-0.36-0.16-0.63-0.4-0.84c-0.23-0.2-0.53-0.3-0.92-0.3
		c-0.34,0-0.66,0.09-0.95,0.26c-0.3,0.18-0.53,0.43-0.7,0.77c-0.17,0.33-0.26,0.7-0.27,1.11c-0.02,0.5,0.1,0.88,0.34,1.14
		c0.23,0.26,0.57,0.39,1,0.39c0.38,0,0.72-0.11,1.01-0.32c0.29-0.21,0.52-0.51,0.66-0.91L84.74,72.62z"/>
	<path class="st0" d="M80.78,70.35l-2.08,3.54h0.75l0.45-0.78h1.41l0.1,0.78h0.69l-0.49-3.54H80.78z M80.24,72.52l0.81-1.42
		l0.18,1.42H80.24z"/>
</g>
</svg>
