<?xml version="1.0" encoding="utf-8"?>
<!-- Generator: Adobe Illustrator 24.2.3, SVG Export Plug-In . SVG Version: 6.00 Build 0)  -->
<svg version="1.1" id="Capa_1" xmlns="http://www.w3.org/2000/svg" xmlns:xlink="http://www.w3.org/1999/xlink" x="0px" y="0px"
	 viewBox="0 0 122 111" style="enable-background:new 0 0 122 111;" xml:space="preserve">
<style type="text/css">
	.st0{fill:#211F1F;}
</style>
<g>
	<polygon class="st0" points="94.11,45.23 90.47,47.24 74.95,40.85 70.58,42.13 70.58,42.13 62.52,37.74 41.7,47.84 45.99,44.71 
		31.48,42.29 15.53,48.99 15.8,49.63 31.56,43 44.25,45.12 38.18,49.56 38.53,50.15 62.5,38.52 69.15,42.14 65,44.48 74.91,41.58 
		88.81,47.31 75.21,52.67 81.16,56.56 79.34,58.66 72.69,66.24 84.92,66.24 88.75,56.32 88.64,56.27 81.77,52.85 94.2,45.97 
		107.82,49.65 108,48.98 	"/>
	<path class="st0" d="M50.76,51.99l0.16,1.27l-2.29,11.76l-0.64,1.24h4.71l2.52-12.79c0,0,2.01-0.2,1.95,1.02
		c-0.1,2.12-0.66,3.18-1.95,3.67l-0.31,1.72c0,0,1.78-0.05,0.87,6.38h4.31c0,0,1.23-6.35-1.55-7.13c0,0,2.88,0.36,3.34-3.77
		c0.38-3.37-3.15-3.36-3.15-3.36H50.76z"/>
	<polygon class="st0" points="24.83,54.42 25.26,51.99 16.79,51.99 16.95,53.25 14.64,65.05 14,66.24 22.46,66.24 22.99,63.78 
		21.78,64.19 19.02,64.19 19.1,63.76 19.89,59.65 23.79,59.65 24.15,57.67 20.24,57.67 20.92,54.24 20.98,54 23.87,54 	"/>
	<polygon class="st0" points="48.43,54.42 48.86,51.99 40.4,51.99 40.56,53.25 38.24,65.05 37.61,66.24 46.07,66.24 46.6,63.78 
		45.39,64.19 42.62,64.19 42.71,63.76 43.5,59.65 47.4,59.65 47.75,57.67 43.85,57.67 44.53,54.24 44.59,54 47.48,54 	"/>
	<polygon class="st0" points="72.72,54.42 73.15,51.99 64.68,51.99 64.84,53.25 62.53,65.05 61.89,66.24 70.35,66.24 70.88,63.78 
		69.67,64.19 66.91,64.19 66.99,63.76 67.78,59.65 71.68,59.65 72.04,57.67 68.13,57.67 68.81,54.24 68.87,54 71.76,54 	"/>
	<polygon class="st0" points="26.39,51.99 26.83,53.25 27.24,65.05 26.67,66.24 33.41,66.24 38.87,53.25 38.72,51.99 34.87,51.99 
		34.93,53.25 30.95,62.71 30.58,51.99 	"/>
	<polygon class="st0" points="89.65,52.01 89.23,53.93 93.03,53.93 90.84,65.05 90.18,66.24 94.78,66.24 97.22,53.93 100.51,53.93 
		98.3,65.05 97.67,66.24 102.26,66.24 104.71,53.93 107.48,53.93 107.91,52.01 	"/>
</g>
</svg>
