<?xml version="1.0" encoding="utf-8"?>
<!-- Generator: Adobe Illustrator 24.2.3, SVG Export Plug-In . SVG Version: 6.00 Build 0)  -->
<svg version="1.1" id="Capa_1" xmlns="http://www.w3.org/2000/svg" xmlns:xlink="http://www.w3.org/1999/xlink" x="0px" y="0px"
	 viewBox="0 0 122 111" style="enable-background:new 0 0 122 111;" xml:space="preserve">
<style type="text/css">
	.st0{fill:#211F1F;}
</style>
<g>
	<path class="st0" d="M41.27,57.68c0-0.49,0.4-0.89,0.89-0.89h13.04c0.49,0,0.89,0.4,0.89,0.89v0.67c0,0.49-0.4,0.9-0.89,0.9h-4.28
		c-0.49,0-0.89,0.4-0.89,0.89v6.33c0,0.49-0.4,0.89-0.89,0.89h-0.8c-0.49,0-0.89-0.4-0.89-0.89v-6.33c0-0.49-0.4-0.89-0.89-0.89
		h-4.39c-0.49,0-0.89-0.4-0.89-0.9V57.68z"/>
	<path class="st0" d="M76.21,67.2l-2.37-2.36l-1.68-1.67C72.08,63.08,72.11,63,72.24,63h0.42h0.24c2.04,0,3.05-0.9,3.05-2.69v-0.24
		V59.6v-0.23c0-1.72-1.02-2.58-3.05-2.58h-0.24h-5.39H63.2c-0.13,0-0.29,0.09-0.37,0.19l-1.39,2.07c-0.07,0.11-0.03,0.2,0.1,0.2
		h2.12h0.23h0.23h8.51c0.13,0,0.34,0.03,0.46,0.05c0,0,0.21,0.04,0.27,0.15c0.05,0.11,0.1,0.31,0.1,0.44v0.39
		c0,0.13-0.04,0.33-0.08,0.45c-0.05,0.11-0.54,0.21-0.67,0.21h-8.59h-0.23h-0.23H62.1h-0.55c-0.13,0-0.24,0.11-0.24,0.23v5.96
		c0,0.13,0.11,0.24,0.24,0.24h2.12c0.13,0,0.23-0.11,0.23-0.24v-1.46v-2.3c0-0.13,0.1-0.24,0.23-0.24h4.33
		c0.13,0,0.31,0.08,0.4,0.17l3.78,3.9c0.09,0.09,0.27,0.17,0.39,0.17h3.1C76.27,67.37,76.3,67.29,76.21,67.2"/>
	<path class="st0" d="M92.16,56.79H80.95c-0.06,0-0.13,0-0.2,0.01l-0.03-0.01c-2.12,0-3.19,0.74-3.19,2.46h0.24h14.39
		c0.13,0,0.23-0.11,0.23-0.23v-1.99C92.39,56.89,92.29,56.79,92.16,56.79"/>
	<path class="st0" d="M92.16,64.91H80.95c-0.13,0-0.33-0.03-0.46-0.07l-0.29-0.24c-0.04-0.12-0.08-0.32-0.08-0.45v-0.62
		c0-0.13,0.11-0.23,0.23-0.23h5.3h6.5c0.13,0,0.23-0.11,0.23-0.23v-1.89c0-0.12-0.11-0.23-0.23-0.23l-14.39-0.02
		c-0.13,0-0.24,0.1-0.24,0.23v0.39v3v0.23c0,1.73,1.06,2.59,3.19,2.59h0.23h3.54h7.67c0.13,0,0.23-0.11,0.23-0.24v-1.99
		C92.39,65.01,92.29,64.91,92.16,64.91"/>
	<path class="st0" d="M105.83,60.83h-0.23H97c-0.4,0-0.5-0.18-0.5-0.18c-0.06-0.11-0.11-0.31-0.11-0.44v-0.59
		c0-0.25,0.38-0.33,0.38-0.33c0.12-0.03,0.33-0.05,0.46-0.05h9.55c0.13,0,0.29-0.09,0.37-0.2l1.39-2.07
		c0.07-0.11,0.03-0.19-0.1-0.19H97c-2.13,0-3.2,0.86-3.2,2.58v0.23v1.43c0,1.51,1.06,2.26,3.19,2.26h0.23h8.6
		c0.4,0,0.49,0.17,0.49,0.17c0.06,0.11,0.11,0.31,0.11,0.44v0.63c0,0.24-0.37,0.32-0.37,0.32c-0.13,0.03-0.33,0.05-0.46,0.05H93.96
		c-0.13,0-0.23,0.11-0.23,0.23v1.99c0,0.13,0.1,0.24,0.23,0.24h11.86c2.12,0,3.19-0.86,3.19-2.57v-0.23v-1.2
		C109,61.67,107.94,60.83,105.83,60.83"/>
	<path class="st0" d="M58.31,56.79c-0.49,0-0.89,0.4-0.89,0.89v8.79c0,0.49,0.4,0.9,0.89,0.9h0.8c0.49,0,0.89-0.4,0.89-0.9v-8.79
		c0-0.49-0.4-0.89-0.89-0.89H58.31z"/>
	<path class="st0" d="M29.49,43.36c0.13,0,0.23,0.1,0.23,0.24v3.43c0,0.13,0.1,0.23,0.23,0.23h3.62c0.13,0,0.3-0.08,0.39-0.18
		l3.12-3.55c0.09-0.1,0.26-0.18,0.39-0.18h3.12c0.13,0,0.16,0.08,0.07,0.17l-4.45,4.57c-0.09,0.09-0.09,0.24,0,0.33l5.34,5.34
		c0.09,0.09,0.06,0.17-0.07,0.17h-3.1c-0.13,0-0.31-0.08-0.4-0.17l-3.84-3.94c-0.09-0.09-0.27-0.17-0.4-0.17h-3.79
		c-0.13,0-0.23,0.1-0.23,0.23v3.81c0,0.13-0.1,0.23-0.23,0.23h-2.12c-0.13,0-0.23-0.1-0.23-0.23V43.59c0-0.13,0.1-0.24,0.23-0.24
		H29.49z"/>
	<path class="st0" d="M64.75,45.82h9.55c0.13,0,0.29-0.09,0.36-0.2l1.39-2.07c0.07-0.11,0.02-0.2-0.11-0.2H64.51
		c-2.13,0-3.2,0.86-3.2,2.58v0.23v1.44c0,1.5,1.06,2.26,3.19,2.26h0.24h8.6c0.4,0,0.49,0.18,0.49,0.18
		c0.06,0.11,0.11,0.31,0.11,0.44v0.62c0,0.25-0.37,0.32-0.37,0.32c-0.13,0.03-0.33,0.05-0.46,0.05H61.47
		c-0.13,0-0.23,0.11-0.23,0.23v1.99c0,0.13,0.1,0.23,0.23,0.23h11.86c2.12,0,3.18-0.85,3.18-2.56v-0.24v-1.21
		c0-1.68-1.06-2.52-3.17-2.52h-0.24h-8.6c-0.63,0-0.61-0.62-0.61-0.62v-0.51C63.9,46.28,63.92,45.82,64.75,45.82"/>
	<path class="st0" d="M92.42,43.36h-11.2c-0.06,0-0.13,0.01-0.2,0.02l-0.03-0.02c-2.13,0-3.19,0.74-3.19,2.46h0.23h14.39
		c0.13,0,0.23-0.1,0.23-0.23v-1.99C92.65,43.46,92.55,43.36,92.42,43.36"/>
	<path class="st0" d="M92.42,51.47h-11.2c-0.13,0-0.34-0.03-0.46-0.07l-0.29-0.24c-0.04-0.12-0.08-0.32-0.08-0.45V50.1
		c0-0.13,0.11-0.23,0.24-0.23h5.3h6.5c0.13,0,0.23-0.1,0.23-0.23v-1.88c0-0.13-0.1-0.24-0.23-0.24l-14.39-0.02
		c-0.13,0-0.23,0.1-0.23,0.23v0.39v3v0.23c0,1.73,1.06,2.59,3.19,2.59h0.23h3.54h7.66c0.13,0,0.23-0.1,0.23-0.23v-1.99
		C92.65,51.58,92.55,51.47,92.42,51.47"/>
	<path class="st0" d="M108.95,53.77l-2.37-2.36l-1.68-1.67c-0.09-0.09-0.06-0.17,0.07-0.17h0.42h0.23c2.04,0,3.05-0.89,3.05-2.69
		v-0.23v-0.48v-0.24c0-1.72-1.02-2.58-3.05-2.58h-0.23H100h-4.06c-0.13,0-0.29,0.09-0.37,0.2l-1.39,2.07
		c-0.07,0.11-0.02,0.2,0.11,0.2h2.12h0.24h0.23h8.51c0.13,0,0.34,0.02,0.46,0.05c0,0,0.21,0.04,0.27,0.16
		c0.06,0.11,0.1,0.31,0.1,0.44v0.38c0,0.13-0.04,0.33-0.09,0.45c-0.05,0.11-0.53,0.21-0.66,0.21h-8.59h-0.23h-0.24h-1.57h-0.55
		c-0.13,0-0.23,0.1-0.23,0.24v5.95c0,0.13,0.1,0.23,0.23,0.23h2.12c0.13,0,0.24-0.1,0.24-0.23v-1.46v-2.3c0-0.13,0.1-0.23,0.23-0.23
		h4.33c0.13,0,0.31,0.08,0.4,0.17l3.78,3.89c0.09,0.09,0.27,0.17,0.4,0.17h3.1C109.01,53.93,109.04,53.86,108.95,53.77"/>
	<path class="st0" d="M24.76,48.48c0-0.1,0-0.2-0.01-0.3l-14.54,5.67c-0.12,0.05-0.11,0.08,0.02,0.08h9.06
		C22.31,53.93,24.76,51.49,24.76,48.48"/>
	<path class="st0" d="M15.86,43.36c-0.13,0-0.14,0.05-0.03,0.11l3.83,1.97c0.11,0.06,0.31,0.07,0.42,0.02l2.81-1.09
		c-0.49-0.43-1.06-0.78-1.68-1.01L15.86,43.36z"/>
	<path class="st0" d="M21.21,43.36c0.62,0.23,1.19,0.58,1.68,1.01"/>
	<path class="st0" d="M13.17,48.65c-0.12,0.05-0.12,0.14-0.01,0.19l3.34,1.72c0.12,0.06,0.31,0.07,0.43,0.02l7.75-3.04
		c-0.19-1.09-0.71-2.08-1.44-2.84L13.17,48.65z"/>
	<path class="st0" d="M58.21,43.3c-0.49,0-0.89,0.4-0.89,0.89v8.79c0,0.49,0.4,0.89,0.89,0.89h0.8c0.49,0,0.89-0.4,0.89-0.89v-8.79
		c0-0.49-0.4-0.89-0.89-0.89H58.21z"/>
	<path class="st0" d="M53.07,43.36c-0.01,0-0.01,0-0.01,0l-0.01-0.01h-0.23h-4.89h-0.23h-0.24h-1.71h-0.23
		c-0.19,0-0.36,0.02-0.5,0.04c-0.03,0.01-0.06,0.01-0.09,0.02c-0.16,0.04-0.3,0.1-0.41,0.17c-0.11,0.08-0.21,0.17-0.3,0.28
		c-0.07,0.09-0.11,0.16-0.12,0.18h0l0,0.01l0,0.01c-0.04,0.06-0.08,0.13-0.11,0.2l-0.1,0.21l0,0l-0.87,1.81l-1.92,4.01l-0.43,0.94
		c-0.05,0.12-0.03,0.29,0.07,0.37l1.54,1.54c0.09,0.09,0.22,0.07,0.27-0.05l0.53-1.03c0.06-0.12,0.21-0.21,0.34-0.21h4.06h0.24h0.23
		h5.31c0.13,0,0.23,0.1,0.23,0.23v0.88v0.73c0,0.13,0.1,0.23,0.24,0.23h2.04c0.13,0,0.24-0.1,0.24-0.23v-0.67v-6.97v-0.23
		C55.99,44.17,55.01,43.43,53.07,43.36 M47.71,49.53h-3.4l1.52-3.21c0.18-0.33,0.42-0.5,0.7-0.5h1.19h4.01h1.06
		c0.28,0,0.63,0.24,0.7,0.6v3.11H47.71z"/>
</g>
</svg>
