<?xml version="1.0" encoding="utf-8"?>
<!-- Generator: Adobe Illustrator 24.2.3, SVG Export Plug-In . SVG Version: 6.00 Build 0)  -->
<svg version="1.1" id="Capa_1" xmlns="http://www.w3.org/2000/svg" xmlns:xlink="http://www.w3.org/1999/xlink" x="0px" y="0px"
	 viewBox="0 0 122 111" style="enable-background:new 0 0 122 111;" xml:space="preserve">
<style type="text/css">
	.st0{fill:#211F1F;}
</style>
<g>
	<path class="st0" d="M61.57,40.61c-23.99,0-43.44,7.29-43.44,16.05c0,8.76,19.45,16.05,43.44,16.05c23.98,0,43.43-7.29,43.43-16.05
		C105,47.9,85.55,40.61,61.57,40.61 M63.59,70.72c-0.67,0.01-1.35,0.02-2.02,0.02h-0.03H61.5c-22.64,0-40.99-6.31-40.99-14.07
		c0-7.77,18.35-14.08,40.99-14.08h0.03h0.03c0.68,0,1.35,0.01,2.02,0.02c21.67,0.37,38.91,6.53,38.91,14.06
		C102.5,64.19,85.26,70.35,63.59,70.72"/>
	<path class="st0" d="M45,56.32l4.02-5.67c0.12-0.16,0.2-0.38,0.2-0.6c0-0.54-0.43-0.98-0.98-0.98v0h-4.51
		c-0.36,0-0.67,0.2-0.84,0.49l-4.47,6.3v-5.81c0-0.54-0.44-0.98-0.98-0.98h-4.1c-0.54,0-0.97,0.44-0.97,0.98v12.54
		c0,0.55,0.44,0.98,0.97,0.98h4.1c0.54,0,0.98-0.44,0.98-0.98v-5.8l4.47,6.3c0.17,0.3,0.48,0.49,0.84,0.49h4.51v0
		c0.54,0,0.98-0.44,0.98-0.98c0-0.22-0.08-0.43-0.2-0.6L45,56.32z"/>
	<path class="st0" d="M69.19,49.07h-5.22c-0.43,0-0.8,0.28-0.93,0.68v0v0.01c0,0,0,0.01-0.01,0.02l-1.82,6.07l-1.81-6.07
		c-0.01-0.01-0.01-0.02-0.01-0.02l0-0.01v0c-0.13-0.39-0.49-0.68-0.92-0.68h-5.22c-0.54,0-0.98,0.44-0.98,0.98v12.54
		c0,0.54,0.44,0.98,0.98,0.98v0h4.15v0c0.54,0,0.97-0.44,0.97-0.98v-5.52l1.82,5.78c0,0.01,0.01,0.03,0.01,0.04l0,0.01
		c0.15,0.42,0.54,0.73,1.01,0.73c0.51,0,0.93-0.36,1.04-0.83l1.8-5.73v5.52c0,0.54,0.44,0.98,0.98,0.98v0h4.16v0
		c0.54,0,0.98-0.44,0.98-0.98V50.05C70.17,49.51,69.73,49.07,69.19,49.07"/>
	<path class="st0" d="M90.97,55.19v-3.18c0-1.63-1.31-2.95-2.93-2.95H76.91c-1.62,0-2.93,1.32-2.93,2.95v8.6
		c0,1.63,1.31,2.95,2.93,2.95h11.13c1.62,0,2.93-1.32,2.93-2.95v-3.11h-6.11l0,1.42c0,0.77-0.63,1.41-1.39,1.41h-1.98
		c-0.78,0-1.4-0.63-1.4-1.41V53.7c0-0.78,0.63-1.41,1.4-1.41h1.98c0.77,0,1.39,0.63,1.39,1.41l0,1.49H90.97z"/>
</g>
</svg>
