<?xml version="1.0" encoding="utf-8"?>
<!-- Generator: Adobe Illustrator 24.2.3, SVG Export Plug-In . SVG Version: 6.00 Build 0)  -->
<svg version="1.1" id="Capa_1" xmlns="http://www.w3.org/2000/svg" xmlns:xlink="http://www.w3.org/1999/xlink" x="0px" y="0px"
	 viewBox="0 0 122 111" style="enable-background:new 0 0 122 111;" xml:space="preserve">
<style type="text/css">
	.st0{fill:#211F1F;}
</style>
<g>
	<path class="st0" d="M21.07,50.8v7.59c0,4.67,3.06,4.11,3.06,4.11h9.75v3.48H21.35c-3.62,0-4.46-4.46-4.46-4.46V50.8H21.07z
		 M35.42,50.8v10.96c0,0-0.06,4.23,5.23,4.23h10.77c0,0,3.36-0.47,3.36-3.95V50.8h-4.6v9.47c0,0-0.12,2.09-1.65,2.09h-7.39
		c-1.39,0-1.34-2.16-1.34-2.16v-9.4H35.42z M56.74,65.99h4.18v-9.18c0-0.6,0.42-2.53,3.06-2.53h4.6v11.7h3.9v-11.7h4.84
		c0.83,0,2.54,0.7,2.54,2.51v9.19h4.04V55.82c0,0-0.28-5.02-4.04-5.02H61.34c0,0-4.6,0.28-4.6,5.43V65.99z M106.62,56.1v9.89h-4.32
		v-3.48h-11.7v3.48h-4.32v-9.61c0-5.15,4.04-5.57,4.04-5.57h11.98C106.89,50.8,106.62,56.1,106.62,56.1 M102.58,56.86
		c0-1.88-1.64-2.3-2.51-2.3h-7.11c-2.65,0-2.51,2.79-2.51,2.79v1.81h12.12V56.86z M106.62,46.19c-4.43-1.33-8.84-2.71-13.28-3.98
		c-3.86-1.1-3.65-1.22-3.68,1.34c0,3.72,0.49,3.52,2.01,3.49c4.27-0.09,8.55-0.04,12.82-0.02
		C107.53,47.02,107.19,46.44,106.62,46.19 M69.8,44.79c-0.09,1.43,0.45,1.89,1.82,1.5c5.1-1.48,13.94-4.02,15.29-4.41
		c2.02-0.64,2.09-1.05,0.04-1.77c-1.28-0.46-10.34-2.95-15.5-4.47c-1.18-0.35-1.67-0.05-1.64,1.19L69.8,44.79z"/>
</g>
</svg>
