<?xml version="1.0" encoding="utf-8"?>
<!-- Generator: Adobe Illustrator 24.2.3, SVG Export Plug-In . SVG Version: 6.00 Build 0)  -->
<svg version="1.1" id="Capa_1" xmlns="http://www.w3.org/2000/svg" xmlns:xlink="http://www.w3.org/1999/xlink" x="0px" y="0px"
	 viewBox="0 0 122 111" style="enable-background:new 0 0 122 111;" xml:space="preserve">
<style type="text/css">
	.st0{fill:#211F1F;}
</style>
<g>
	<path class="st0" d="M99.23,52.05l-0.09,0.22c-0.79,1.69-1.93,1.72-1.93,1.72s-4.5-0.03-5.49,0c-1,0.03-0.56-0.85-0.56-0.85
		l0.64-1.16c0,0,0.49-1.14-0.32-1.32c-0.82-0.17-1.7,0.85-1.7,0.85l-4.41,7.47c0,0-0.84,1.37,0,1.78c1.02,0.15,1.52-0.56,1.52-0.56
		l1.9-3.03c0,0,0.67-0.93,0.26-1.37c-0.59-0.55,0.58-0.49,0.58-0.49l6.74,0.06c0.9,0.04,0.5,0.76,0.5,0.76l-7.41,12.67
		c-0.64,1.4-1.2,0.35-1.2,0.35s-2.25-3.91-2.68-4.64c-0.44-0.73-0.32-0.82,0.03-1.81c0.35-0.99-0.53-1.12-0.53-1.12h-7.39
		c-1.44,0.08-0.65-1.01-0.65-1.01s4.6-7.88,5.43-9.33c0.83-1.45,2.2-1.37,2.2-1.37h13.39c-2.76-4.3-7.75-7.36-13.24-7.36H36.02
		c-8.3,0-15.33,7.02-15.33,14.67c0,0.39,0.02,0.8,0.06,1.19l4.05-7.04c0,0,0.39-0.79,0.87-1.09c0.48-0.3,1.76-0.35,1.76-0.35h24.08
		c0,0,1.1-0.17,0.62,0.75c-0.48,0.92-10.25,18-10.25,18s-0.75,1.66-1.44,0l-2.59-4.38c0,0-0.48-0.62,0.13-1.67l6.04-10.68
		c0,0,0.49-0.84-0.48-1.27c-1.18,0-1.71,0.96-1.71,0.96l-4.9,8.62c0,0-0.31,1.19-1.8,1.23c-1.49,0.04-5.48,0-5.48,0
		s-0.74,0.22-0.35-0.87l5.08-8.89c0,0,0.09-0.88-0.48-1.01c-0.57-0.13-1.49,0.52-1.75,0.83l-4.99,8.68c0,0-0.53,1.23-1.75,1.27
		h-3.96c2.06,5.78,8.09,10.33,14.8,10.33h48.73c8.29,0,15.32-6.96,15.32-14.6C100.31,55.41,99.92,53.67,99.23,52.05 M69.24,68.62
		l-2.58-4.38c0,0-0.48-0.62,0.13-1.67l6.04-10.68c0,0,0.48-0.84-0.48-1.27c-1.18,0-1.71,0.96-1.71,0.96l-4.91,8.62
		c0,0-0.3,1.19-1.79,1.23c-1.49,0.04-5.47,0-5.47,0s-0.75,0.22-0.35-0.87l5.08-8.89c0,0,0.08-0.88-0.48-1.01
		c-0.57-0.13-1.49,0.52-1.75,0.83l-5,8.68c0,0-0.53,1.23-1.75,1.27h-5.39c0,0-1.15,0-0.44-1.05l5.21-9.07c0,0,0.4-0.79,0.88-1.09
		c0.48-0.3,1.75-0.35,1.75-0.35h24.09c0,0,1.1-0.17,0.61,0.75c-0.48,0.92-10.25,18-10.25,18S69.94,70.28,69.24,68.62"/>
	<path class="st0" d="M88.31,38.75H32.52C23.04,38.75,15,47.48,15,56.97S23.3,75.1,32.78,75.1h55.7c9.48,0,17.52-8.65,17.52-18.13
		S97.79,38.75,88.31,38.75 M99.15,68.01c-1.43,1.5-3.07,2.69-4.88,3.52c-1.87,0.85-3.81,1.29-5.79,1.29h-55.7
		c-1.98,0-3.94-0.44-5.83-1.29c-1.81-0.83-3.54-2.05-4.98-3.53c-2.98-3.06-4.69-7.08-4.69-11.03c0-3.99,1.67-8.02,4.58-11.1
		c1.43-1.51,3.07-2.7,4.88-3.54c1.86-0.86,3.81-1.31,5.78-1.31h55.79c1.97,0,3.93,0.44,5.81,1.31c1.83,0.84,3.49,2.03,4.95,3.55
		c2.96,3.08,4.65,7.12,4.65,11.08C103.72,60.94,102.06,64.97,99.15,68.01"/>
</g>
</svg>
