<?xml version="1.0" encoding="utf-8"?>
<!-- Generator: Adobe Illustrator 24.2.3, SVG Export Plug-In . SVG Version: 6.00 Build 0)  -->
<svg version="1.1" id="Capa_1" xmlns="http://www.w3.org/2000/svg" xmlns:xlink="http://www.w3.org/1999/xlink" x="0px" y="0px"
	 viewBox="0 0 122 111" style="enable-background:new 0 0 122 111;" xml:space="preserve">
<style type="text/css">
	.st0{fill:#211F1F;}
</style>
<g>
	<path class="st0" d="M45.86,62.61c-1.45,1.16-2.92,2.28-4.26,3.55c2.77-0.53,6.06-0.81,8.81-1.42c0.87-0.19,2-0.31,2.41-1.13
		C51.36,62.41,48.43,62.69,45.86,62.61 M57.64,63.32c-0.58,1.31-2.29,1.74-3.69,2.13c-3.57,1-8.02,1.58-12.06,2.27
		c-1.59,0.27-2.85,0.02-3.55,1.13c2.75,1.6,5.33,3.37,7.67,5.4c2.31,2,4.73,4.05,6.11,6.95c-4.42-4.33-8.66-8.84-15.05-11.21
		c-4.06,3.18-8.13,6.72-11.92,10.36c-0.46,0.44-0.99,1.15-1.7,1.13c3.47-4.1,7.37-7.77,11.07-11.64c-0.35-0.38-1.35,0.36-1.71,0
		c0.3-0.76,0.68-1.72,1.42-2.13c0.85-0.48,1.99-0.34,2.84-0.71c2.11-0.92,2.9-3.07,4.69-4.26c-2.55-0.14-6.87,0.29-10.08,0.42
		c0.49-0.73,1.62-0.48,2.41-0.56c2.66-0.26,6.05-0.64,8.81-0.85c0.32-0.1,0.37-0.47,0.7-0.57c0.65-0.17,0.45,0.5,0.85,0.57
		c2.02,0.07,4.35-0.09,6.39,0C53.52,61.88,56.15,62.01,57.64,63.32"/>
	<path class="st0" d="M72.83,61.47c0.17-0.02,0.25,0.04,0.29,0.15c-0.12,0.61-1.06,1.57-1.85,1.99c-0.79,0.41-2.28,0.95-2.41-0.57
		C69.64,61.98,72.44,62.93,72.83,61.47"/>
	<path class="st0" d="M75.24,64.32c-0.16,0.69-0.86,0.84-1.13,1.42c2.05-0.4,4.03-2.24,6.39-1.42c-0.02,0.17,0.03,0.25,0.14,0.28
		c-0.35,1.75-2.21,2.61-3.55,3.55c-0.71,0.49-1.48,0.88-2.13,1.42c-0.62,0.51-1.07,1.33-1.85,1.42c1.25-2.06,3.32-3.3,4.97-4.97
		c-1.45-0.02-2.98,0.9-4.4,1.71c-1.41,0.79-2.86,1.56-3.97,2.41c-0.81,0.62-1.16,1.48-2.41,1.13c1.97-2.95,4.47-5.37,6.95-7.8h0.43
		C74.73,63.88,74.92,64.16,75.24,64.32"/>
	<path class="st0" d="M63.17,74.68c-1.82,0.44-6.2,1.56-5.68,3.98c0.23,1.1,2.3,1.49,3.83,1.56c5.53,0.25,10.76-2.38,14.34-4.4
		c1.39-0.78,2.85-1.52,3.83-2.55C73.2,73.08,68.23,73.45,63.17,74.68 M85.75,64.88c-0.87,0.05-2.17,1.21-3.12,1.85
		c-1.17,0.77-2.58,1.44-2.7,2.41c1.42-0.18,2.8-0.86,3.98-1.42c1.15-0.54,2.6-1.08,3.12-2.27C86.74,64.86,86.23,64.86,85.75,64.88
		 M88.3,64.6c0.46,0.04,0.3-0.55,0.71-0.57c0.62,0.18,0.89,0.72,1.27,1.13c-0.34,0.84-0.96,1.6-1.56,2.27
		c-1.73,1.95-3.83,3.81-5.96,5.54c2.18,0.56,4.86,0.63,6.67,1.57c-0.39,0.48-1.2,0.1-1.71,0c-1.39-0.28-4.1-1.31-5.82-1
		c-1.08,0.19-3.22,2.07-4.26,2.69c-4.17,2.5-10.11,4.88-15.62,5.25c-1.99,0.14-4.2,0.13-5.68-0.71c-1.63-0.92-1.92-3.27,0-4.69
		c3.18-2.35,10.42-3.17,15.76-3.4c1.21-0.06,2.71,0,4.12,0c1.43,0,3.07,0.31,3.98,0.14c0.82-0.16,1.72-1.19,2.41-1.85
		c0.76-0.72,1.49-1.35,1.85-2.27c-2.25,0.1-4.48,2.87-7.24,1.99c-0.25-1.53,1.98-2.7,3.69-3.97c1.92-1.44,3.57-2.83,5.82-3.12
		C87.34,63.53,87.92,64.15,88.3,64.6"/>
	<path class="st0" d="M65.31,68c-1.16,0.5-2.5,1.5-3.98,2.41c-1.32,0.82-2.95,1.97-4.4,2.13c-0.62,0.06-1.45,0.09-1.98-0.43
		c0.57-2.43,2.77-3.98,4.68-5.54c0.98-0.8,2.47-2.09,3.41-1.99c0.89,0.1,1.96,1.31,1,2.27c-0.4,0.03,0.11-0.87-0.29-0.85
		c-1.56,0.29-2.79,1.38-3.83,2.27c-1.04,0.89-2.14,1.9-2.84,3.13c1.85-0.06,3.53-1.5,5.54-2.84c0.79-0.53,1.72-1.04,2.7-1.71
		c1.26-0.86,2.84-2.76,3.83-0.71c-1.24,0.79-2.33,1.7-3.41,2.84c-0.55,0.58-1.3,1.34-1.28,2.27c1.85-0.19,2.2-1.87,3.27-2.84
		c0.05,0.81-0.89,1.74-1.56,2.41c-0.64,0.64-1.56,1.64-2.7,1.14C63.04,70.18,64.54,69.1,65.31,68"/>
	<path class="st0" d="M54.51,67.3c-0.95,0.54-2.17,1.12-3.12,1.84c-0.84,0.64-2.16,1.54-1.85,2.84c2.39-0.93,4.09-2.54,5.39-4.55
		C54.76,67.43,54.75,67.25,54.51,67.3 M56.79,66.3c-0.4,2.57-2.75,3.21-3.4,5.53c-0.08,0.69,0.68,0.55,0.71,1.14
		c-0.87-0.06-1.83-0.7-1.42-1.56c-0.39-0.05-4.72,3.91-5.39,1.56c-0.44-1.54,1.59-2.96,3.27-4.12c1.68-1.16,3.11-2.27,4.54-2.69
		C55.57,66.02,56.4,66.03,56.79,66.3"/>
	<path class="st0" d="M82.82,56.03h15.8v-15.8h-15.8V56.03z M99,56.41H82.45V39.85H99V56.41z"/>
	<path class="st0" d="M47.44,47.86c-1.41,0-2.55,1.14-2.55,2.55c0,1.41,1.14,2.56,2.55,2.56c1.41,0,2.56-1.15,2.56-2.56
		C50,49,48.85,47.86,47.44,47.86 M47.45,56.8c-3.51,0-6.37-2.86-6.37-6.38c0-3.52,2.86-6.38,6.37-6.38c3.52,0,6.38,2.86,6.38,6.38
		C53.84,53.94,50.97,56.8,47.45,56.8"/>
	<path class="st0" d="M89.97,41.3h2.67v13.47h-2.95V44.25h-2.02v-1.94C87.67,42.31,89.51,42.66,89.97,41.3"/>
	<path class="st0" d="M26.7,56.4h-3.38c-0.1,0-0.19-0.09-0.19-0.19V40.06c0-0.11,0.09-0.19,0.19-0.19h5.19
		c0.09,0,0.16,0.06,0.18,0.14l2.78,9.48l2.84-9.48c0.03-0.08,0.1-0.14,0.18-0.14h4.97c0.11,0,0.19,0.08,0.19,0.19v16.12
		c0,0.11-0.08,0.19-0.19,0.19h-3.31c-0.11,0-0.19-0.08-0.19-0.19v-9.92l-2.95,9.97c-0.02,0.08-0.1,0.14-0.18,0.14h-3.03
		c-0.08,0-0.16-0.06-0.18-0.14l-2.73-9.94v9.92C26.89,56.31,26.81,56.4,26.7,56.4"/>
	<path class="st0" d="M61.07,47.95c-1.41,0-2.55,1.15-2.55,2.56c0,1.41,1.14,2.55,2.55,2.55c1.41,0,2.55-1.14,2.55-2.55
		C63.63,49.1,62.49,47.95,61.07,47.95 M61.48,56.85c-1.16,0-2.26-0.35-3.23-1.02v0.34c0,0.11-0.09,0.18-0.19,0.18h-3.32
		c-0.1,0-0.19-0.08-0.19-0.18V40.06c0-0.11,0.08-0.19,0.19-0.19h3.32c0.1,0,0.19,0.08,0.19,0.19v5.05c0.96-0.67,2.07-1.02,3.23-1.02
		c3.3,0,5.98,2.86,5.98,6.38C67.45,53.99,64.78,56.85,61.48,56.85"/>
	<path class="st0" d="M76.93,56.37h-3.31c-0.11,0-0.19-0.08-0.19-0.19V40.07c0-0.11,0.08-0.19,0.19-0.19h3.31
		c0.11,0,0.19,0.08,0.19,0.19v16.12C77.12,56.29,77.03,56.37,76.93,56.37"/>
	<path class="st0" d="M71.83,56.41h-3.31c-0.1,0-0.19-0.09-0.19-0.19V44.24c0-0.1,0.08-0.18,0.19-0.18h3.31
		c0.11,0,0.19,0.08,0.19,0.18v11.97C72.02,56.32,71.94,56.41,71.83,56.41"/>
	<path class="st0" d="M71.86,43.56h-3.37c-0.11,0-0.19-0.08-0.19-0.18V40c0-0.1,0.08-0.19,0.19-0.19h3.37c0.1,0,0.19,0.09,0.19,0.19
		v3.38C72.05,43.48,71.97,43.56,71.86,43.56"/>
</g>
</svg>
