<?xml version="1.0" encoding="utf-8"?>
<!-- Generator: Adobe Illustrator 24.2.3, SVG Export Plug-In . SVG Version: 6.00 Build 0)  -->
<svg version="1.1" id="Capa_1" xmlns="http://www.w3.org/2000/svg" xmlns:xlink="http://www.w3.org/1999/xlink" x="0px" y="0px"
	 viewBox="0 0 122 111" style="enable-background:new 0 0 122 111;" xml:space="preserve">
<style type="text/css">
	.st0{fill:#211F1F;}
</style>
<g>
	<polygon class="st0" points="43.06,63.37 40.52,63.37 40.52,52.02 44.27,52.02 46.93,60.07 49.65,52.02 53.39,52.02 53.39,63.37 
		50.88,63.37 50.88,55.89 48.4,63.37 45.65,63.37 43.06,55.7 	"/>
	<path class="st0" d="M59.22,63.54c1.2-0.01,2.28-0.35,3.06-1.03c0.79-0.69,1.29-1.73,1.38-3.14c0.03-0.57-0.03-1.1-0.17-1.59
		c-0.14-0.46-0.35-0.88-0.62-1.25c-0.42-0.56-0.97-0.99-1.62-1.29c-0.64-0.29-1.37-0.45-2.15-0.45c-0.11,0-0.22,0-0.34,0.01
		c-1.33,0.07-2.37,0.58-3.07,1.38c-0.7,0.8-1.05,1.9-1.02,3.14v0v0.01c0.02,0.4,0.08,0.8,0.19,1.2c0.12,0.39,0.29,0.77,0.52,1.13
		c0.34,0.54,0.82,1.01,1.45,1.35c0.63,0.33,1.4,0.53,2.31,0.53H59.22z M58.94,61.45c-0.23-0.01-0.43-0.06-0.59-0.13
		c-0.25-0.11-0.43-0.28-0.59-0.5c-0.15-0.21-0.27-0.47-0.35-0.73c-0.09-0.29-0.13-0.6-0.13-0.85c-0.02-0.52,0.13-1.11,0.46-1.56
		c0.33-0.45,0.82-0.77,1.52-0.77c0.26,0,0.48,0.05,0.67,0.12c0.28,0.11,0.49,0.28,0.66,0.5c0.18,0.22,0.3,0.49,0.38,0.76
		c0.09,0.29,0.12,0.6,0.11,0.84v0l0,0c0,0.42-0.08,1.01-0.38,1.48c-0.16,0.23-0.36,0.44-0.65,0.59
		C59.75,61.36,59.39,61.45,58.94,61.45"/>
	<path class="st0" d="M65.52,56.91v3.73c0,0.38,0.03,0.71,0.12,1.01c0.09,0.3,0.22,0.56,0.39,0.79c0.26,0.34,0.6,0.58,0.97,0.72
		c0.38,0.14,0.79,0.21,1.21,0.21h2.11v-1.95h-0.45c-0.34,0-0.63-0.02-0.86-0.04c-0.23-0.02-0.4-0.07-0.51-0.11h0
		c-0.11-0.05-0.19-0.1-0.26-0.18c-0.07-0.08-0.12-0.17-0.16-0.31c-0.01-0.03-0.01-0.06-0.02-0.09l0,0
		c-0.03-0.16-0.03-0.63-0.03-0.63v-3.14h2.29v-1.95h-2.29v-2.94h-2.51v2.94h-1.51v1.95H65.52z"/>
	<path class="st0" d="M83.81,63.37h-2.48v-8.41h8.37c0.6,0,1.1,0.06,1.53,0.17c0.42,0.11,0.78,0.28,1.06,0.49
		c0.19,0.14,0.35,0.31,0.47,0.49c0.17,0.24,0.29,0.5,0.37,0.77c0.12,0.4,0.16,0.82,0.17,1.26v0v5.23h-2.51v-5.05
		c0-0.22-0.02-0.46-0.08-0.67c-0.04-0.13-0.09-0.24-0.16-0.32c-0.07-0.08-0.14-0.14-0.27-0.18c-0.08-0.02-0.17-0.04-0.31-0.04h-1.42
		v6.27h-2.57V57.1h-2.18L83.81,63.37z"/>
	<path class="st0" d="M101.81,61.36h-2.86h-0.08c-0.3,0-0.55-0.02-0.75-0.05c-0.31-0.05-0.5-0.13-0.61-0.21
		c-0.06-0.04-0.1-0.09-0.14-0.14c-0.03-0.05-0.06-0.11-0.08-0.18c-0.01-0.05-0.02-0.1-0.03-0.16l0-0.01v-0.01
		c-0.01-0.06-0.03-0.21-0.05-0.33c0-0.03-0.01-0.09-0.01-0.09h4.85v-2.04h-4.84c0,0,0.04-0.28,0.1-0.47
		c0.11-0.27,0.27-0.44,0.54-0.56c0.27-0.11,0.67-0.16,1.22-0.16h2.97v-2.01h-3.37c-1.29,0-2.37,0.36-3.11,1.06
		c-0.75,0.7-1.16,1.75-1.14,3.09c0.01,0.61,0.09,1.15,0.23,1.62c0.13,0.45,0.33,0.85,0.58,1.19c0.38,0.51,0.89,0.88,1.48,1.11
		c0.59,0.23,1.27,0.34,2.03,0.34h0.02h3.28v-2.01H101.81"/>
	<rect x="103.47" y="52.02" class="st0" width="2.59" height="11.34"/>
	<path class="st0" d="M75.64,63.56c1.21-0.01,2.28-0.35,3.07-1.04c0.79-0.69,1.29-1.73,1.38-3.14c0.03-0.57-0.03-1.1-0.17-1.59
		c-0.14-0.46-0.35-0.88-0.63-1.25c-0.42-0.55-0.97-0.99-1.62-1.28c-0.65-0.3-1.38-0.45-2.16-0.45c-0.11,0-0.22,0-0.34,0.01
		c-1.33,0.07-2.37,0.58-3.07,1.38c-0.7,0.8-1.05,1.9-1.02,3.15v0c0.02,0.4,0.08,0.8,0.2,1.2c0.12,0.39,0.29,0.77,0.52,1.13
		c0.34,0.53,0.82,1.01,1.46,1.34c0.63,0.34,1.39,0.53,2.31,0.53H75.64 M75.36,61.46c-0.23-0.01-0.43-0.06-0.59-0.13
		c-0.25-0.11-0.44-0.28-0.59-0.5c-0.16-0.21-0.27-0.47-0.35-0.73c-0.08-0.29-0.13-0.59-0.13-0.85c-0.02-0.52,0.13-1.11,0.46-1.56
		c0.33-0.45,0.83-0.76,1.52-0.76c0.26,0,0.48,0.04,0.67,0.12c0.28,0.11,0.5,0.29,0.67,0.5c0.17,0.22,0.3,0.49,0.38,0.76
		c0.09,0.3,0.12,0.6,0.11,0.84v0.01v0c-0.01,0.42-0.08,1.01-0.39,1.48c-0.15,0.23-0.36,0.44-0.64,0.59
		c-0.28,0.14-0.64,0.24-1.11,0.24"/>
	<polygon class="st0" points="24.81,63.17 27.1,55.8 26.35,57.52 26.36,57.51 24.53,63.38 	"/>
	<polygon class="st0" points="28.46,61.75 31.49,52.07 31.21,52.27 28.19,61.96 	"/>
	<polygon class="st0" points="31.89,61.96 31.48,63.16 31.47,63.16 24.82,63.16 24.54,63.37 31.62,63.37 31.62,63.36 32.18,61.75 	
		"/>
	<polygon class="st0" points="28.46,61.75 28.19,61.96 31.89,61.96 32.18,61.75 	"/>
	<path class="st0" d="M23.72,45.97C17.25,45.97,12,51.22,12,57.69c0,6.47,5.25,11.73,11.72,11.73c6.48,0,11.72-5.25,11.72-11.73
		C35.45,51.22,30.2,45.97,23.72,45.97 M16.41,65.01c-1.87-1.87-3.03-4.46-3.03-7.31c0-2.86,1.16-5.44,3.03-7.31
		c1.87-1.87,4.45-3.03,7.31-3.03c2.86,0,5.44,1.16,7.31,3.03c1.88,1.87,3.03,4.45,3.03,7.31c0,2.86-1.16,5.44-3.03,7.31
		c-1.87,1.87-4.45,3.03-7.31,3.03C20.87,68.04,18.28,66.88,16.41,65.01"/>
	<polygon class="st0" points="31.89,61.96 28.19,61.96 31.21,52.27 28.3,52.27 25.01,58.03 26.82,52.27 23.91,52.27 20.62,58.03 
		22.42,52.27 19.46,52.27 16.06,63.16 18.57,63.16 22.73,55.76 21.59,60.15 24.61,60.15 27.12,55.76 24.82,63.16 31.47,63.16 	"/>
	<path class="st0" d="M23.72,68.24c-2.82,0-5.47-1.1-7.46-3.09c-1.99-1.99-3.09-4.64-3.09-7.46s1.1-5.46,3.09-7.46
		c1.99-1.99,4.64-3.09,7.46-3.09c2.82,0,5.47,1.1,7.46,3.09c1.99,1.99,3.09,4.64,3.09,7.46s-1.1,5.47-3.09,7.46
		C29.19,67.14,26.54,68.24,23.72,68.24 M23.72,47.26c-2.78,0-5.4,1.09-7.38,3.06c-1.97,1.97-3.05,4.59-3.05,7.38
		c0,2.79,1.08,5.4,3.05,7.38c1.97,1.97,4.59,3.06,7.38,3.06c2.79,0,5.41-1.09,7.38-3.06c1.97-1.97,3.06-4.59,3.06-7.38
		c0-2.78-1.09-5.4-3.06-7.38C29.13,48.35,26.51,47.26,23.72,47.26"/>
	<polygon class="st0" points="19.46,52.27 16.06,63.16 16.07,63.16 16.12,63.12 16.07,63.16 18.57,63.16 22.73,55.76 21.59,60.15 
		24.61,60.15 27.12,55.76 24.82,63.16 31.47,63.16 31.89,61.96 28.19,61.96 31.21,52.27 28.3,52.27 25.01,58.03 26.82,52.27 
		23.91,52.27 20.62,58.03 22.42,52.27 22.3,52.36 22.42,52.27 22.42,52.27 	"/>
	<polygon class="st0" points="16.06,63.16 19.46,52.27 22.42,52.27 22.42,52.27 22.7,52.07 22.7,52.06 19.31,52.06 15.78,63.37 
		16.07,63.16 	"/>
	<polygon class="st0" points="18.57,63.16 16.07,63.16 15.78,63.37 18.68,63.37 22.1,57.3 22.72,55.78 	"/>
	<polygon class="st0" points="21.38,56.28 22.7,52.07 22.42,52.27 20.62,58.03 20.65,57.99 21.4,56.25 	"/>
	<path class="st0" d="M31.49,63.19h-6.7l0.01-0.03l2.24-7.19l-2.4,4.2l-3.07,0.01l1.1-4.24l-4.07,7.23l-2.56,0.02l0.01-0.03
		l3.4-10.91h3.02l-1.74,5.58l3.17-5.57l2.98-0.01l-1.75,5.58l3.18-5.57l2.96-0.01l-3.03,9.69h3.71L31.49,63.19z M24.85,63.14h6.6
		l0.4-1.16h-3.71l3.03-9.69H28.3l-3.27,5.75l-0.04-0.02l1.8-5.73h-2.89l-3.26,5.75l-0.04-0.02l1.79-5.73h-2.91l-3.38,10.84h2.47
		l4.15-7.39l0.04,0.02l-1.14,4.37h2.99l2.48-4.38l0.05,0.02L24.85,63.14z"/>
	<polygon class="st0" points="27.1,52.06 23.78,52.06 21.4,56.25 20.65,57.99 23.91,52.27 26.82,52.27 26.82,52.27 27.1,52.07 	"/>
	<polygon class="st0" points="27.1,52.07 26.82,52.27 25.02,58.02 25.78,56.27 	"/>
	<polygon class="st0" points="21.59,60.15 22.73,55.76 22.72,55.78 22.1,57.3 22.14,57.23 21.32,60.36 21.33,60.36 21.59,60.15 	"/>
	<polygon class="st0" points="27.12,55.76 24.61,60.15 21.59,60.15 21.33,60.36 24.73,60.36 26.36,57.51 27.11,55.79 	"/>
	<polygon class="st0" points="31.49,52.06 28.19,52.06 25.78,56.28 25.78,56.27 25.02,58.02 25.01,58.03 28.3,52.27 31.21,52.27 
		31.49,52.07 	"/>
	<path class="st0" d="M91.48,66.01v-0.24c0-0.49-0.21-0.53-0.98-0.53c-0.89,0-1.04,0.14-1.04,0.98v0.95
		c0.01,0.86,0.12,1.02,1.04,1.02c0.72,0,1.03-0.02,1.03-0.63v-0.24h0.88v0.28c0.02,1.29-0.77,1.25-1.91,1.29
		c-1.62,0.06-1.9-0.44-1.92-1.69v-0.98c0-1.37,0.57-1.68,1.92-1.68c1.15,0,1.81,0.01,1.87,1.23v0.24H91.48z"/>
	<polygon class="st0" points="96.93,68.86 96.04,68.86 96.04,67.03 93.91,67.03 93.91,68.86 93.02,68.86 93.02,64.57 93.91,64.57 
		93.91,66.33 96.04,66.33 96.04,64.57 96.93,64.57 	"/>
	<rect x="97.73" y="64.57" class="st0" width="0.88" height="4.29"/>
	<polygon class="st0" points="100.31,68.16 102.45,68.16 102.45,68.86 99.43,68.86 99.43,64.57 100.31,64.57 	"/>
	<polygon class="st0" points="103.71,66.35 105.86,66.35 105.86,67.02 103.71,67.02 103.71,68.16 106,68.16 106,68.86 102.82,68.86 
		102.82,64.57 105.97,64.57 105.97,65.28 103.71,65.28 	"/>
</g>
</svg>
