<?xml version="1.0" encoding="utf-8"?>
<!-- Generator: Adobe Illustrator 24.2.3, SVG Export Plug-In . SVG Version: 6.00 Build 0)  -->
<svg version="1.1" id="Capa_1" xmlns="http://www.w3.org/2000/svg" xmlns:xlink="http://www.w3.org/1999/xlink" x="0px" y="0px"
	 viewBox="0 0 122 111" style="enable-background:new 0 0 122 111;" xml:space="preserve">
<style type="text/css">
	.st0{fill:#211F1F;}
</style>
<g>
	<path class="st0" d="M12,64.04l3.94-15.16l11.9,0.01c0,0,4.77-0.22,4.77,3.22c0,3.43-3.51,5.77-6.33,6.32l3.75,5.62h-7.11
		l-3.27-4.83l-1.26,4.82H12z M31.26,64.05l10.32-15.16l9.53,0l1.07,15.16h-6.17l-0.2-2.57h-6l-1.83,2.57H31.26z M41.93,58.19h3.71
		l-0.4-5.37L41.93,58.19z M57.92,48.89l-4.1,15.16h12.48l1.3-5.04h-6.14l2.68-10.12L57.92,48.89z M87.5,49.32l-1.24,4.82
		c0,0-8.33-2.58-9.94,2.21c-1.11,4.37,5.57,4.45,8.51,3.23l-1.06,4.13c0,0-16.39,4.83-14.45-6.91C72.23,44.81,87.5,49.32,87.5,49.32
		 M106.71,58.59c-4.53,8.52-22.18,8.16-19.46-1.26c2.9-10.05,14.23-8.78,14.23-8.78S111.48,49.6,106.71,58.59 M99.3,53.83
		c0,0-3.84-0.72-5.1,3.33c-1.29,4.13,2.68,3.86,4.4,3.11C100.32,59.52,103.49,54.75,99.3,53.83 M25.79,53.99
		c-0.24-1.59-4.73-1.06-4.73-1.06l-0.88,3.51C23.92,57.01,26.03,55.58,25.79,53.99"/>
</g>
</svg>
