<?xml version="1.0" encoding="utf-8"?>
<!-- Generator: Adobe Illustrator 24.2.3, SVG Export Plug-In . SVG Version: 6.00 Build 0)  -->
<svg version="1.1" id="Capa_1" xmlns="http://www.w3.org/2000/svg" xmlns:xlink="http://www.w3.org/1999/xlink" x="0px" y="0px"
	 viewBox="0 0 122 111" style="enable-background:new 0 0 122 111;" xml:space="preserve">
<style type="text/css">
	.st0{fill:#211F1F;}
</style>
<g>
	<path class="st0" d="M43.52,45.41l-1.14,1.91h-5.21L26.84,64.45h-8.1c-1.29,0-1.84-1.03-1.05-2.34c0.81-1.33,8.9-14.79,8.9-14.79
		h-7.05c0,0,0.32-0.48,0.62-1.01c0.3-0.54,1.13-0.9,2.15-0.9H43.52z"/>
	<path class="st0" d="M66.52,56.22l6.62-10.5h-7.33c-1.27,0-2.15,1.14-1.86,2.21C64.24,49.01,66.52,56.22,66.52,56.22"/>
	<path class="st0" d="M64.8,62.02c-0.75,1.09-0.98,2.73,0.82,2.73h8.09h0.01l11.44-19.04h-10.6L64.8,62.02z"/>
	<path class="st0" d="M40.35,64.56c-0.25,0-3.44,0.56-2.91-0.67c1.65-2.81,4.06-7.09,6.21-10.73c2.1-3.52,3.86-6.54,4.04-6.79
		c0.41-0.55,1.11-0.79,2.1-0.9c1.02-0.06,1.82-0.06,2.46-0.06h3.2c1.19,0,1.6,1.15,1.6,1.15l3.15,17.88h-8.75l-0.21-2.07L51,60.32
		h-3.09l-4.84-0.15L40.35,64.56z M44,58.56l4.27-0.03h2.53c0,0-0.12-1.42-0.25-2.95c-0.12-1.24-0.24-2.55-0.32-3.23l-0.06-0.37
		c-0.05-0.32,0.14-1.41-1.56-1.23C48.14,50.96,44,58.56,44,58.56"/>
	<path class="st0" d="M83.17,64.75c-0.25,0-3.45,0.56-2.91-0.67c1.66-2.81,4.05-7.09,6.2-10.72c2.1-3.53,3.86-6.55,4.03-6.79
		c0.41-0.56,1.13-0.79,2.1-0.9c1.04-0.06,1.81-0.05,2.47-0.05h3.19c1.19,0,1.6,1.14,1.6,1.14L103,64.64h-8.74l-0.22-2.07l-0.22-2.06
		h-3.1l-4.83-0.16L83.17,64.75z M86.81,58.75l4.28-0.02h2.54c0,0-0.12-1.42-0.26-2.96c-0.12-1.23-0.24-2.55-0.32-3.23l-0.04-0.37
		c-0.06-0.32,0.12-1.41-1.57-1.23C90.96,51.15,86.81,58.75,86.81,58.75"/>
</g>
</svg>
