<?xml version="1.0" encoding="utf-8"?>
<!-- Generator: Adobe Illustrator 24.2.3, SVG Export Plug-In . SVG Version: 6.00 Build 0)  -->
<svg version="1.1" id="Capa_1" xmlns="http://www.w3.org/2000/svg" xmlns:xlink="http://www.w3.org/1999/xlink" x="0px" y="0px"
	 viewBox="0 0 122 111" style="enable-background:new 0 0 122 111;" xml:space="preserve">
<style type="text/css">
	.st0{fill:#211F1F;}
</style>
<g>
	<path class="st0" d="M87.17,68.95c-7.58,2.24-15.45,2.72-20.72,2.72c-0.5,0-1.02-0.01-1.53-0.02c-9.89-0.16-18.97-1.74-25.55-4.46
		c-7.14-2.95-11.24-7.12-11.88-12.06c0-0.03-0.1-2.43,1.97-5.43c3.48-5.03,10.3-7.78,15.43-9.21c0.08-0.03,8.5-3.02,21.5-3.02h0.1
		v-0.1c0-0.05,0-0.08-0.1-0.1v-0.01h-0.06c-0.17-0.02-0.52-0.03-1.22-0.06c-0.74-0.02-1.95-0.05-3.45-0.05
		c-6.55,0-18.78,0.55-27.09,4.19c-0.03,0.01-3.58,1.29-7.11,3.72c-3.27,2.25-7.17,5.99-7.28,11c-0.04,0.18-0.35,2.31,1.97,5.25
		c3.92,4.99,12.33,8.32,18.7,10.23c5.96,1.8,12.45,2.71,19.28,2.71c15.76,0,29.23-4.81,34.02-7.84l-0.11-0.17
		C94.01,66.24,91.71,67.61,87.17,68.95"/>
	<path class="st0" d="M100.55,50.37c-4.91-6.92-16.75-11.05-33.33-11.65c-0.74-0.03-1.49-0.04-2.23-0.04
		c-8.45,0-15.42,1.75-19.78,3.22c-4.73,1.59-7.49,3.2-7.52,3.22l0.09,0.18c9.25-4.06,20.29-4.67,26.04-4.67
		c3.19,0,5.25,0.18,5.27,0.18c6.3,0.66,11.61,1.84,15.79,3.49c3.34,1.32,5.96,2.94,7.79,4.82c3.12,3.2,2.88,6.08,2.88,6.1
		c-0.44,3.32-2.42,6.19-5.86,8.5c-2.78,1.87-6.52,3.38-11.12,4.51c-7.73,1.89-15.32,2.05-16.15,2.06h-0.01
		c-0.1,0-0.11,0.09-0.11,0.1l0,0.1h0.1c0.23,0,0.45,0,0.68,0c19.73,0,27.97-4.34,31.07-5.97c0.14-0.08,0.27-0.14,0.4-0.21
		c0.99-0.52,2.57-1.56,3.99-2.94c1.71-1.67,2.84-3.46,3.26-5.19C102.29,54.18,101.87,52.23,100.55,50.37"/>
	<path class="st0" d="M60.06,57.94c0.08-0.87,0.39-3.19,0.39-3.19s-0.06-0.81-0.56,0.17c-0.5,0.99-1.9,3.08-1.9,3.08
		s-0.28,0.52,0.17,0.52h1.46C59.61,58.52,60,58.52,60.06,57.94 M53.85,66c0,0-0.28,0.75-0.67,0.81c-0.39,0.06-6.65,0-7.72,0
		c-1.06,0-0.79-0.58-0.79-0.58s13.44-19.34,14.09-20.18c0.44-0.58,1.29-0.58,1.29-0.58h7.04c0.95,0,0.95,1.1,0.95,1.1v16.3
		c0,0.46,0.45,0.23,0.45,0.23s9.56-11.02,10.01-11.6c0.44-0.58-0.11-0.7-0.11-0.7h-7.04c-0.84,0-0.62-0.69-0.62-0.69
		s1.35-3.71,1.57-4.24c0.22-0.52,0.67-0.41,0.67-0.41s17.56-0.06,18.23,0c0.67,0.06,0.45,0.75,0.45,0.75S81.53,58.7,80.86,59.56
		c-0.67,0.88,0,0.99,0,0.99h6.15c0.95,0,0.67,0.7,0.67,0.7l-1.18,4.87c0,0,0,0.63-0.67,0.7c-0.67,0.06-27.45,0-27.45,0
		s-0.39-0.06-0.11-0.87c0.28-0.81,0.67-2.09,0.67-2.09s0.17-0.4-0.39-0.4h-2.97c0,0-0.45-0.06-0.78,0.69
		C54.46,64.9,53.85,66,53.85,66"/>
	<path class="st0" d="M35.73,49.06c0,0,0.84,0.35,0.5,1.51C35.87,51.83,31.87,66,31.87,66s-0.22,0.81,0.73,0.81h7.21
		c0,0,0.78,0.17,1.4-0.64c0.61-0.81,14.93-20.13,14.93-20.13s0.34-0.69-0.28-0.64c-0.61,0.06-6.48,0-6.48,0s-0.73-0.12-1.29,0.93
		c-0.56,1.04-6.54,10.85-6.54,10.85s-0.73,0.35-0.39-0.76c0.34-1.1,3.52-10.03,3.52-10.03s0.45-0.93-0.73-0.93h-12.3
		c0,0-1.28-0.11-0.39,0.35C32.15,46.28,35.73,49.06,35.73,49.06"/>
</g>
</svg>
